<?xml version="1.0" encoding="UTF-8" standalone="no"?>
<!DOCTYPE svg PUBLIC "-//W3C//DTD SVG 1.1//EN"
 "http://www.w3.org/Graphics/SVG/1.1/DTD/svg11.dtd">
<!-- Generated by graphviz version 12.1.0 (20240811.2233)
 -->
<!-- Title: boxes Pages: 1 -->
<svg width="525pt" height="332pt"
 viewBox="0.00 0.00 524.75 332.00" xmlns="http://www.w3.org/2000/svg" xmlns:xlink="http://www.w3.org/1999/xlink">
<g id="graph0" class="graph" transform="scale(1 1) rotate(0) translate(4 328)">
<title>boxes</title>
<polygon fill="white" stroke="none" points="-4,4 -4,-328 520.75,-328 520.75,4 -4,4"/>
<!-- box1 -->
<g id="node1" class="node">
<title>box1</title>
<polygon fill="lightgrey" stroke="black" points="90,-324 4,-324 0,-320 0,-288 86,-288 90,-292 90,-324"/>
<polyline fill="none" stroke="black" points="86,-320 0,-320"/>
<polyline fill="none" stroke="black" points="86,-320 86,-288"/>
<polyline fill="none" stroke="black" points="86,-320 90,-324"/>
<text text-anchor="middle" x="45" y="-300.2" font-family="Helvetica,Arial,sans-serif" font-size="14.00">4 x 100 kg</text>
</g>
<!-- box3 -->
<g id="node2" class="node">
<title>box3</title>
<polygon fill="none" stroke="black" points="90,-252 4,-252 0,-248 0,-216 86,-216 90,-220 90,-252"/>
<polyline fill="none" stroke="black" points="86,-248 0,-248"/>
<polyline fill="none" stroke="black" points="86,-248 86,-216"/>
<polyline fill="none" stroke="black" points="86,-248 90,-252"/>
<text text-anchor="middle" x="45" y="-228.2" font-family="Helvetica,Arial,sans-serif" font-size="14.00">5 x 10 kg</text>
</g>
<!-- box1&#45;&gt;box3 -->
<!-- box1a1 -->
<g id="node6" class="node">
<title>box1a1</title>
</g>
<!-- box1&#45;&gt;box1a1 -->
<!-- box2 -->
<g id="node3" class="node">
<title>box2</title>
<polygon fill="lightgrey" stroke="black" points="90,-180 4,-180 0,-176 0,-144 86,-144 90,-148 90,-180"/>
<polyline fill="none" stroke="black" points="86,-176 0,-176"/>
<polyline fill="none" stroke="black" points="86,-176 86,-144"/>
<polyline fill="none" stroke="black" points="86,-176 90,-180"/>
<text text-anchor="middle" x="45" y="-156.2" font-family="Helvetica,Arial,sans-serif" font-size="14.00">8 x 10 kg</text>
</g>
<!-- box3&#45;&gt;box2 -->
<!-- box3a1 -->
<g id="node10" class="node">
<title>box3a1</title>
</g>
<!-- box3&#45;&gt;box3a1 -->
<!-- box4 -->
<g id="node4" class="node">
<title>box4</title>
<polygon fill="none" stroke="black" points="90,-108 4,-108 0,-104 0,-72 86,-72 90,-76 90,-108"/>
<polyline fill="none" stroke="black" points="86,-104 0,-104"/>
<polyline fill="none" stroke="black" points="86,-104 86,-72"/>
<polyline fill="none" stroke="black" points="86,-104 90,-108"/>
<text text-anchor="middle" x="45" y="-84.2" font-family="Helvetica,Arial,sans-serif" font-size="14.00">3 x 10 kg</text>
</g>
<!-- box2&#45;&gt;box4 -->
<!-- box2a1 -->
<g id="node8" class="node">
<title>box2a1</title>
</g>
<!-- box2&#45;&gt;box2a1 -->
<!-- box5 -->
<g id="node5" class="node">
<title>box5</title>
<polygon fill="lightgrey" stroke="black" points="90,-36 4,-36 0,-32 0,0 86,0 90,-4 90,-36"/>
<polyline fill="none" stroke="black" points="86,-32 0,-32"/>
<polyline fill="none" stroke="black" points="86,-32 86,0"/>
<polyline fill="none" stroke="black" points="86,-32 90,-36"/>
<text text-anchor="middle" x="45" y="-12.2" font-family="Helvetica,Arial,sans-serif" font-size="14.00">15 x 1 kg</text>
</g>
<!-- box4&#45;&gt;box5 -->
<!-- box4a1 -->
<g id="node12" class="node">
<title>box4a1</title>
</g>
<!-- box4&#45;&gt;box4a1 -->
<!-- box5a1 -->
<g id="node14" class="node">
<title>box5a1</title>
</g>
<!-- box5&#45;&gt;box5a1 -->
<!-- box1a2 -->
<g id="node7" class="node">
<title>box1a2</title>
</g>
<!-- box1a1&#45;&gt;box1a2 -->
<g id="edge6" class="edge">
<title>box1a1&#45;&gt;box1a2</title>
<path fill="none" stroke="black" d="M108.3,-306C110.6,-306 112.9,-306 115.2,-306"/>
<polygon fill="black" stroke="black" points="115.19,-309.5 125.19,-306 115.19,-302.5 115.19,-309.5"/>
</g>
<!-- box2a2 -->
<g id="node9" class="node">
<title>box2a2</title>
</g>
<!-- box2a1&#45;&gt;box2a2 -->
<g id="edge8" class="edge">
<title>box2a1&#45;&gt;box2a2</title>
<path fill="none" stroke="black" d="M108.3,-162C110.6,-162 112.9,-162 115.2,-162"/>
<polygon fill="black" stroke="black" points="115.19,-165.5 125.19,-162 115.19,-158.5 115.19,-165.5"/>
</g>
<!-- box3a2 -->
<g id="node11" class="node">
<title>box3a2</title>
</g>
<!-- box3a1&#45;&gt;box3a2 -->
<g id="edge10" class="edge">
<title>box3a1&#45;&gt;box3a2</title>
<path fill="none" stroke="black" d="M108.3,-234C110.6,-234 112.9,-234 115.2,-234"/>
<polygon fill="black" stroke="black" points="115.19,-237.5 125.19,-234 115.19,-230.5 115.19,-237.5"/>
</g>
<!-- box4a2 -->
<g id="node13" class="node">
<title>box4a2</title>
</g>
<!-- box4a1&#45;&gt;box4a2 -->
<g id="edge12" class="edge">
<title>box4a1&#45;&gt;box4a2</title>
<path fill="none" stroke="black" d="M108.3,-90C110.6,-90 112.9,-90 115.2,-90"/>
<polygon fill="black" stroke="black" points="115.19,-93.5 125.19,-90 115.19,-86.5 115.19,-93.5"/>
</g>
<!-- box5a2 -->
<g id="node15" class="node">
<title>box5a2</title>
</g>
<!-- box5a1&#45;&gt;box5a2 -->
<g id="edge14" class="edge">
<title>box5a1&#45;&gt;box5a2</title>
<path fill="none" stroke="black" d="M108.3,-18C110.6,-18 112.9,-18 115.2,-18"/>
<polygon fill="black" stroke="black" points="115.19,-21.5 125.19,-18 115.19,-14.5 115.19,-21.5"/>
</g>
<!-- box1a -->
<g id="node16" class="node">
<title>box1a</title>
<path fill="lightgrey" stroke="black" d="M199,-320.73C199,-322.53 186.9,-324 172,-324 157.1,-324 145,-322.53 145,-320.73 145,-320.73 145,-291.27 145,-291.27 145,-289.47 157.1,-288 172,-288 186.9,-288 199,-289.47 199,-291.27 199,-291.27 199,-320.73 199,-320.73"/>
<path fill="none" stroke="black" d="M199,-320.73C199,-318.92 186.9,-317.45 172,-317.45 157.1,-317.45 145,-318.92 145,-320.73"/>
<text text-anchor="middle" x="172" y="-300.2" font-family="Helvetica,Arial,sans-serif" font-size="14.00">100</text>
</g>
<!-- box1b -->
<g id="node17" class="node">
<title>box1b</title>
<path fill="none" stroke="black" d="M271,-320.73C271,-322.53 258.9,-324 244,-324 229.1,-324 217,-322.53 217,-320.73 217,-320.73 217,-291.27 217,-291.27 217,-289.47 229.1,-288 244,-288 258.9,-288 271,-289.47 271,-291.27 271,-291.27 271,-320.73 271,-320.73"/>
<path fill="none" stroke="black" d="M271,-320.73C271,-318.92 258.9,-317.45 244,-317.45 229.1,-317.45 217,-318.92 217,-320.73"/>
<text text-anchor="middle" x="244" y="-300.2" font-family="Helvetica,Arial,sans-serif" font-size="14.00">100</text>
</g>
<!-- box1c -->
<g id="node18" class="node">
<title>box1c</title>
<path fill="none" stroke="black" d="M343,-320.73C343,-322.53 330.9,-324 316,-324 301.1,-324 289,-322.53 289,-320.73 289,-320.73 289,-291.27 289,-291.27 289,-289.47 301.1,-288 316,-288 330.9,-288 343,-289.47 343,-291.27 343,-291.27 343,-320.73 343,-320.73"/>
<path fill="none" stroke="black" d="M343,-320.73C343,-318.92 330.9,-317.45 316,-317.45 301.1,-317.45 289,-318.92 289,-320.73"/>
<text text-anchor="middle" x="316" y="-300.2" font-family="Helvetica,Arial,sans-serif" font-size="14.00">100</text>
</g>
<!-- box1d -->
<g id="node19" class="node">
<title>box1d</title>
<path fill="none" stroke="black" d="M415,-320.73C415,-322.53 402.9,-324 388,-324 373.1,-324 361,-322.53 361,-320.73 361,-320.73 361,-291.27 361,-291.27 361,-289.47 373.1,-288 388,-288 402.9,-288 415,-289.47 415,-291.27 415,-291.27 415,-320.73 415,-320.73"/>
<path fill="none" stroke="black" d="M415,-320.73C415,-318.92 402.9,-317.45 388,-317.45 373.1,-317.45 361,-318.92 361,-320.73"/>
<text text-anchor="middle" x="388" y="-300.2" font-family="Helvetica,Arial,sans-serif" font-size="14.00">100</text>
</g>
<!-- box2a -->
<g id="node20" class="node">
<title>box2a</title>
<path fill="lightgrey" stroke="black" d="M174.75,-173.67C174.75,-175.1 168.14,-176.27 160,-176.27 151.86,-176.27 145.25,-175.1 145.25,-173.67 145.25,-173.67 145.25,-150.33 145.25,-150.33 145.25,-148.9 151.86,-147.73 160,-147.73 168.14,-147.73 174.75,-148.9 174.75,-150.33 174.75,-150.33 174.75,-173.67 174.75,-173.67"/>
<path fill="none" stroke="black" d="M174.75,-173.67C174.75,-172.24 168.14,-171.08 160,-171.08 151.86,-171.08 145.25,-172.24 145.25,-173.67"/>
<text text-anchor="middle" x="160" y="-156.97" font-family="Helvetica,Arial,sans-serif" font-size="12.00">10</text>
</g>
<!-- box2b -->
<g id="node21" class="node">
<title>box2b</title>
<path fill="lightgrey" stroke="black" d="M222.75,-173.67C222.75,-175.1 216.14,-176.27 208,-176.27 199.86,-176.27 193.25,-175.1 193.25,-173.67 193.25,-173.67 193.25,-150.33 193.25,-150.33 193.25,-148.9 199.86,-147.73 208,-147.73 216.14,-147.73 222.75,-148.9 222.75,-150.33 222.75,-150.33 222.75,-173.67 222.75,-173.67"/>
<path fill="none" stroke="black" d="M222.75,-173.67C222.75,-172.24 216.14,-171.08 208,-171.08 199.86,-171.08 193.25,-172.24 193.25,-173.67"/>
<text text-anchor="middle" x="208" y="-156.97" font-family="Helvetica,Arial,sans-serif" font-size="12.00">10</text>
</g>
<!-- box2c -->
<g id="node22" class="node">
<title>box2c</title>
<path fill="lightgrey" stroke="black" d="M270.75,-173.67C270.75,-175.1 264.14,-176.27 256,-176.27 247.86,-176.27 241.25,-175.1 241.25,-173.67 241.25,-173.67 241.25,-150.33 241.25,-150.33 241.25,-148.9 247.86,-147.73 256,-147.73 264.14,-147.73 270.75,-148.9 270.75,-150.33 270.75,-150.33 270.75,-173.67 270.75,-173.67"/>
<path fill="none" stroke="black" d="M270.75,-173.67C270.75,-172.24 264.14,-171.08 256,-171.08 247.86,-171.08 241.25,-172.24 241.25,-173.67"/>
<text text-anchor="middle" x="256" y="-156.97" font-family="Helvetica,Arial,sans-serif" font-size="12.00">10</text>
</g>
<!-- box2d -->
<g id="node23" class="node">
<title>box2d</title>
<path fill="lightgrey" stroke="black" d="M318.75,-173.67C318.75,-175.1 312.14,-176.27 304,-176.27 295.86,-176.27 289.25,-175.1 289.25,-173.67 289.25,-173.67 289.25,-150.33 289.25,-150.33 289.25,-148.9 295.86,-147.73 304,-147.73 312.14,-147.73 318.75,-148.9 318.75,-150.33 318.75,-150.33 318.75,-173.67 318.75,-173.67"/>
<path fill="none" stroke="black" d="M318.75,-173.67C318.75,-172.24 312.14,-171.08 304,-171.08 295.86,-171.08 289.25,-172.24 289.25,-173.67"/>
<text text-anchor="middle" x="304" y="-156.97" font-family="Helvetica,Arial,sans-serif" font-size="12.00">10</text>
</g>
<!-- box2e -->
<g id="node24" class="node">
<title>box2e</title>
<path fill="lightgrey" stroke="black" d="M366.75,-173.67C366.75,-175.1 360.14,-176.27 352,-176.27 343.86,-176.27 337.25,-175.1 337.25,-173.67 337.25,-173.67 337.25,-150.33 337.25,-150.33 337.25,-148.9 343.86,-147.73 352,-147.73 360.14,-147.73 366.75,-148.9 366.75,-150.33 366.75,-150.33 366.75,-173.67 366.75,-173.67"/>
<path fill="none" stroke="black" d="M366.75,-173.67C366.75,-172.24 360.14,-171.08 352,-171.08 343.86,-171.08 337.25,-172.24 337.25,-173.67"/>
<text text-anchor="middle" x="352" y="-156.97" font-family="Helvetica,Arial,sans-serif" font-size="12.00">10</text>
</g>
<!-- box2f -->
<g id="node25" class="node">
<title>box2f</title>
<path fill="lightgrey" stroke="black" d="M414.75,-173.67C414.75,-175.1 408.14,-176.27 400,-176.27 391.86,-176.27 385.25,-175.1 385.25,-173.67 385.25,-173.67 385.25,-150.33 385.25,-150.33 385.25,-148.9 391.86,-147.73 400,-147.73 408.14,-147.73 414.75,-148.9 414.75,-150.33 414.75,-150.33 414.75,-173.67 414.75,-173.67"/>
<path fill="none" stroke="black" d="M414.75,-173.67C414.75,-172.24 408.14,-171.08 400,-171.08 391.86,-171.08 385.25,-172.24 385.25,-173.67"/>
<text text-anchor="middle" x="400" y="-156.97" font-family="Helvetica,Arial,sans-serif" font-size="12.00">10</text>
</g>
<!-- box2g -->
<g id="node26" class="node">
<title>box2g</title>
<path fill="lightgrey" stroke="black" d="M462.75,-173.67C462.75,-175.1 456.14,-176.27 448,-176.27 439.86,-176.27 433.25,-175.1 433.25,-173.67 433.25,-173.67 433.25,-150.33 433.25,-150.33 433.25,-148.9 439.86,-147.73 448,-147.73 456.14,-147.73 462.75,-148.9 462.75,-150.33 462.75,-150.33 462.75,-173.67 462.75,-173.67"/>
<path fill="none" stroke="black" d="M462.75,-173.67C462.75,-172.24 456.14,-171.08 448,-171.08 439.86,-171.08 433.25,-172.24 433.25,-173.67"/>
<text text-anchor="middle" x="448" y="-156.97" font-family="Helvetica,Arial,sans-serif" font-size="12.00">10</text>
</g>
<!-- box2h -->
<g id="node27" class="node">
<title>box2h</title>
<path fill="none" stroke="black" d="M510.75,-173.67C510.75,-175.1 504.14,-176.27 496,-176.27 487.86,-176.27 481.25,-175.1 481.25,-173.67 481.25,-173.67 481.25,-150.33 481.25,-150.33 481.25,-148.9 487.86,-147.73 496,-147.73 504.14,-147.73 510.75,-148.9 510.75,-150.33 510.75,-150.33 510.75,-173.67 510.75,-173.67"/>
<path fill="none" stroke="black" d="M510.75,-173.67C510.75,-172.24 504.14,-171.08 496,-171.08 487.86,-171.08 481.25,-172.24 481.25,-173.67"/>
<text text-anchor="middle" x="496" y="-156.97" font-family="Helvetica,Arial,sans-serif" font-size="12.00">10</text>
</g>
<!-- box3a -->
<g id="node28" class="node">
<title>box3a</title>
<path fill="none" stroke="black" d="M174.75,-245.67C174.75,-247.1 168.14,-248.27 160,-248.27 151.86,-248.27 145.25,-247.1 145.25,-245.67 145.25,-245.67 145.25,-222.33 145.25,-222.33 145.25,-220.9 151.86,-219.73 160,-219.73 168.14,-219.73 174.75,-220.9 174.75,-222.33 174.75,-222.33 174.75,-245.67 174.75,-245.67"/>
<path fill="none" stroke="black" d="M174.75,-245.67C174.75,-244.24 168.14,-243.08 160,-243.08 151.86,-243.08 145.25,-244.24 145.25,-245.67"/>
<text text-anchor="middle" x="160" y="-228.97" font-family="Helvetica,Arial,sans-serif" font-size="12.00">10</text>
</g>
<!-- box3b -->
<g id="node29" class="node">
<title>box3b</title>
<path fill="none" stroke="black" d="M222.75,-245.67C222.75,-247.1 216.14,-248.27 208,-248.27 199.86,-248.27 193.25,-247.1 193.25,-245.67 193.25,-245.67 193.25,-222.33 193.25,-222.33 193.25,-220.9 199.86,-219.73 208,-219.73 216.14,-219.73 222.75,-220.9 222.75,-222.33 222.75,-222.33 222.75,-245.67 222.75,-245.67"/>
<path fill="none" stroke="black" d="M222.75,-245.67C222.75,-244.24 216.14,-243.08 208,-243.08 199.86,-243.08 193.25,-244.24 193.25,-245.67"/>
<text text-anchor="middle" x="208" y="-228.97" font-family="Helvetica,Arial,sans-serif" font-size="12.00">10</text>
</g>
<!-- box3c -->
<g id="node30" class="node">
<title>box3c</title>
<path fill="none" stroke="black" d="M270.75,-245.67C270.75,-247.1 264.14,-248.27 256,-248.27 247.86,-248.27 241.25,-247.1 241.25,-245.67 241.25,-245.67 241.25,-222.33 241.25,-222.33 241.25,-220.9 247.86,-219.73 256,-219.73 264.14,-219.73 270.75,-220.9 270.75,-222.33 270.75,-222.33 270.75,-245.67 270.75,-245.67"/>
<path fill="none" stroke="black" d="M270.75,-245.67C270.75,-244.24 264.14,-243.08 256,-243.08 247.86,-243.08 241.25,-244.24 241.25,-245.67"/>
<text text-anchor="middle" x="256" y="-228.97" font-family="Helvetica,Arial,sans-serif" font-size="12.00">10</text>
</g>
<!-- box3d -->
<g id="node31" class="node">
<title>box3d</title>
<path fill="none" stroke="black" d="M318.75,-245.67C318.75,-247.1 312.14,-248.27 304,-248.27 295.86,-248.27 289.25,-247.1 289.25,-245.67 289.25,-245.67 289.25,-222.33 289.25,-222.33 289.25,-220.9 295.86,-219.73 304,-219.73 312.14,-219.73 318.75,-220.9 318.75,-222.33 318.75,-222.33 318.75,-245.67 318.75,-245.67"/>
<path fill="none" stroke="black" d="M318.75,-245.67C318.75,-244.24 312.14,-243.08 304,-243.08 295.86,-243.08 289.25,-244.24 289.25,-245.67"/>
<text text-anchor="middle" x="304" y="-228.97" font-family="Helvetica,Arial,sans-serif" font-size="12.00">10</text>
</g>
<!-- box3e -->
<g id="node32" class="node">
<title>box3e</title>
<path fill="none" stroke="black" d="M366.75,-245.67C366.75,-247.1 360.14,-248.27 352,-248.27 343.86,-248.27 337.25,-247.1 337.25,-245.67 337.25,-245.67 337.25,-222.33 337.25,-222.33 337.25,-220.9 343.86,-219.73 352,-219.73 360.14,-219.73 366.75,-220.9 366.75,-222.33 366.75,-222.33 366.75,-245.67 366.75,-245.67"/>
<path fill="none" stroke="black" d="M366.75,-245.67C366.75,-244.24 360.14,-243.08 352,-243.08 343.86,-243.08 337.25,-244.24 337.25,-245.67"/>
<text text-anchor="middle" x="352" y="-228.97" font-family="Helvetica,Arial,sans-serif" font-size="12.00">10</text>
</g>
<!-- box4a -->
<g id="node33" class="node">
<title>box4a</title>
<path fill="none" stroke="black" d="M174.75,-101.67C174.75,-103.1 168.14,-104.27 160,-104.27 151.86,-104.27 145.25,-103.1 145.25,-101.67 145.25,-101.67 145.25,-78.33 145.25,-78.33 145.25,-76.9 151.86,-75.73 160,-75.73 168.14,-75.73 174.75,-76.9 174.75,-78.33 174.75,-78.33 174.75,-101.67 174.75,-101.67"/>
<path fill="none" stroke="black" d="M174.75,-101.67C174.75,-100.24 168.14,-99.08 160,-99.08 151.86,-99.08 145.25,-100.24 145.25,-101.67"/>
<text text-anchor="middle" x="160" y="-84.97" font-family="Helvetica,Arial,sans-serif" font-size="12.00">10</text>
</g>
<!-- box4b -->
<g id="node34" class="node">
<title>box4b</title>
<path fill="none" stroke="black" d="M222.75,-101.67C222.75,-103.1 216.14,-104.27 208,-104.27 199.86,-104.27 193.25,-103.1 193.25,-101.67 193.25,-101.67 193.25,-78.33 193.25,-78.33 193.25,-76.9 199.86,-75.73 208,-75.73 216.14,-75.73 222.75,-76.9 222.75,-78.33 222.75,-78.33 222.75,-101.67 222.75,-101.67"/>
<path fill="none" stroke="black" d="M222.75,-101.67C222.75,-100.24 216.14,-99.08 208,-99.08 199.86,-99.08 193.25,-100.24 193.25,-101.67"/>
<text text-anchor="middle" x="208" y="-84.97" font-family="Helvetica,Arial,sans-serif" font-size="12.00">10</text>
</g>
<!-- box4c -->
<g id="node35" class="node">
<title>box4c</title>
<path fill="none" stroke="black" d="M270.75,-101.67C270.75,-103.1 264.14,-104.27 256,-104.27 247.86,-104.27 241.25,-103.1 241.25,-101.67 241.25,-101.67 241.25,-78.33 241.25,-78.33 241.25,-76.9 247.86,-75.73 256,-75.73 264.14,-75.73 270.75,-76.9 270.75,-78.33 270.75,-78.33 270.75,-101.67 270.75,-101.67"/>
<path fill="none" stroke="black" d="M270.75,-101.67C270.75,-100.24 264.14,-99.08 256,-99.08 247.86,-99.08 241.25,-100.24 241.25,-101.67"/>
<text text-anchor="middle" x="256" y="-84.97" font-family="Helvetica,Arial,sans-serif" font-size="12.00">10</text>
</g>
<!-- box5a -->
<g id="node36" class="node">
<title>box5a</title>
<path fill="lightgrey" stroke="black" d="M164.88,-27.14C164.88,-28.26 160.45,-29.17 155,-29.17 149.55,-29.17 145.12,-28.26 145.12,-27.14 145.12,-27.14 145.12,-8.86 145.12,-8.86 145.12,-7.74 149.55,-6.83 155,-6.83 160.45,-6.83 164.88,-7.74 164.88,-8.86 164.88,-8.86 164.88,-27.14 164.88,-27.14"/>
<path fill="none" stroke="black" d="M164.88,-27.14C164.88,-26.02 160.45,-25.11 155,-25.11 149.55,-25.11 145.12,-26.02 145.12,-27.14"/>
<text text-anchor="middle" x="155" y="-15.47" font-family="Helvetica,Arial,sans-serif" font-size="7.00">1</text>
</g>
<!-- box5b -->
<g id="node37" class="node">
<title>box5b</title>
<path fill="lightgrey" stroke="black" d="M202.88,-27.14C202.88,-28.26 198.45,-29.17 193,-29.17 187.55,-29.17 183.12,-28.26 183.12,-27.14 183.12,-27.14 183.12,-8.86 183.12,-8.86 183.12,-7.74 187.55,-6.83 193,-6.83 198.45,-6.83 202.88,-7.74 202.88,-8.86 202.88,-8.86 202.88,-27.14 202.88,-27.14"/>
<path fill="none" stroke="black" d="M202.88,-27.14C202.88,-26.02 198.45,-25.11 193,-25.11 187.55,-25.11 183.12,-26.02 183.12,-27.14"/>
<text text-anchor="middle" x="193" y="-15.47" font-family="Helvetica,Arial,sans-serif" font-size="7.00">1</text>
</g>
<!-- box5c -->
<g id="node38" class="node">
<title>box5c</title>
<path fill="lightgrey" stroke="black" d="M240.88,-27.14C240.88,-28.26 236.45,-29.17 231,-29.17 225.55,-29.17 221.12,-28.26 221.12,-27.14 221.12,-27.14 221.12,-8.86 221.12,-8.86 221.12,-7.74 225.55,-6.83 231,-6.83 236.45,-6.83 240.88,-7.74 240.88,-8.86 240.88,-8.86 240.88,-27.14 240.88,-27.14"/>
<path fill="none" stroke="black" d="M240.88,-27.14C240.88,-26.02 236.45,-25.11 231,-25.11 225.55,-25.11 221.12,-26.02 221.12,-27.14"/>
<text text-anchor="middle" x="231" y="-15.47" font-family="Helvetica,Arial,sans-serif" font-size="7.00">1</text>
</g>
<!-- box5d -->
<g id="node39" class="node">
<title>box5d</title>
<path fill="lightgrey" stroke="black" d="M278.88,-27.14C278.88,-28.26 274.45,-29.17 269,-29.17 263.55,-29.17 259.12,-28.26 259.12,-27.14 259.12,-27.14 259.12,-8.86 259.12,-8.86 259.12,-7.74 263.55,-6.83 269,-6.83 274.45,-6.83 278.88,-7.74 278.88,-8.86 278.88,-8.86 278.88,-27.14 278.88,-27.14"/>
<path fill="none" stroke="black" d="M278.88,-27.14C278.88,-26.02 274.45,-25.11 269,-25.11 263.55,-25.11 259.12,-26.02 259.12,-27.14"/>
<text text-anchor="middle" x="269" y="-15.47" font-family="Helvetica,Arial,sans-serif" font-size="7.00">1</text>
</g>
<!-- box5e -->
<g id="node40" class="node">
<title>box5e</title>
<path fill="lightgrey" stroke="black" d="M316.88,-27.14C316.88,-28.26 312.45,-29.17 307,-29.17 301.55,-29.17 297.12,-28.26 297.12,-27.14 297.12,-27.14 297.12,-8.86 297.12,-8.86 297.12,-7.74 301.55,-6.83 307,-6.83 312.45,-6.83 316.88,-7.74 316.88,-8.86 316.88,-8.86 316.88,-27.14 316.88,-27.14"/>
<path fill="none" stroke="black" d="M316.88,-27.14C316.88,-26.02 312.45,-25.11 307,-25.11 301.55,-25.11 297.12,-26.02 297.12,-27.14"/>
<text text-anchor="middle" x="307" y="-15.47" font-family="Helvetica,Arial,sans-serif" font-size="7.00">1</text>
</g>
<!-- box5f -->
<g id="node41" class="node">
<title>box5f</title>
<path fill="lightgrey" stroke="black" d="M354.88,-27.14C354.88,-28.26 350.45,-29.17 345,-29.17 339.55,-29.17 335.12,-28.26 335.12,-27.14 335.12,-27.14 335.12,-8.86 335.12,-8.86 335.12,-7.74 339.55,-6.83 345,-6.83 350.45,-6.83 354.88,-7.74 354.88,-8.86 354.88,-8.86 354.88,-27.14 354.88,-27.14"/>
<path fill="none" stroke="black" d="M354.88,-27.14C354.88,-26.02 350.45,-25.11 345,-25.11 339.55,-25.11 335.12,-26.02 335.12,-27.14"/>
<text text-anchor="middle" x="345" y="-15.47" font-family="Helvetica,Arial,sans-serif" font-size="7.00">1</text>
</g>
<!-- box5g -->
<g id="node42" class="node">
<title>box5g</title>
<path fill="none" stroke="black" d="M392.88,-27.14C392.88,-28.26 388.45,-29.17 383,-29.17 377.55,-29.17 373.12,-28.26 373.12,-27.14 373.12,-27.14 373.12,-8.86 373.12,-8.86 373.12,-7.74 377.55,-6.83 383,-6.83 388.45,-6.83 392.88,-7.74 392.88,-8.86 392.88,-8.86 392.88,-27.14 392.88,-27.14"/>
<path fill="none" stroke="black" d="M392.88,-27.14C392.88,-26.02 388.45,-25.11 383,-25.11 377.55,-25.11 373.12,-26.02 373.12,-27.14"/>
<text text-anchor="middle" x="383" y="-15.47" font-family="Helvetica,Arial,sans-serif" font-size="7.00">1</text>
</g>
<!-- box5h -->
<g id="node43" class="node">
<title>box5h</title>
<path fill="none" stroke="black" d="M430.88,-27.14C430.88,-28.26 426.45,-29.17 421,-29.17 415.55,-29.17 411.12,-28.26 411.12,-27.14 411.12,-27.14 411.12,-8.86 411.12,-8.86 411.12,-7.74 415.55,-6.83 421,-6.83 426.45,-6.83 430.88,-7.74 430.88,-8.86 430.88,-8.86 430.88,-27.14 430.88,-27.14"/>
<path fill="none" stroke="black" d="M430.88,-27.14C430.88,-26.02 426.45,-25.11 421,-25.11 415.55,-25.11 411.12,-26.02 411.12,-27.14"/>
<text text-anchor="middle" x="421" y="-15.47" font-family="Helvetica,Arial,sans-serif" font-size="7.00">1</text>
</g>
<!-- box5i -->
<g id="node44" class="node">
<title>box5i</title>
<path fill="none" stroke="black" d="M468.88,-27.14C468.88,-28.26 464.45,-29.17 459,-29.17 453.55,-29.17 449.12,-28.26 449.12,-27.14 449.12,-27.14 449.12,-8.86 449.12,-8.86 449.12,-7.74 453.55,-6.83 459,-6.83 464.45,-6.83 468.88,-7.74 468.88,-8.86 468.88,-8.86 468.88,-27.14 468.88,-27.14"/>
<path fill="none" stroke="black" d="M468.88,-27.14C468.88,-26.02 464.45,-25.11 459,-25.11 453.55,-25.11 449.12,-26.02 449.12,-27.14"/>
<text text-anchor="middle" x="459" y="-15.47" font-family="Helvetica,Arial,sans-serif" font-size="7.00">1</text>
</g>
<!-- box5ellipsis -->
<g id="node45" class="node">
<title>box5ellipsis</title>
<text text-anchor="middle" x="502" y="-11.05" font-family="Helvetica,Arial,sans-serif" font-size="16.00">...</text>
</g>
</g>
</svg>
