<svg width="818.8799999999999" height="925.44"
 viewBox="0.00 0.00 678.00 742.00" xmlns="http://www.w3.org/2000/svg" xmlns:xlink="http://www.w3.org/1999/xlink">
<g id="graph0" class="graph" transform="scale(1 1) rotate(0) translate(4 738)">
<title>G2</title>
<g id="clust1" class="cluster">
<title>cluster_profs</title>
<polygon fill="lightgrey" stroke="lightgrey" points="0,-8 0,-722 209,-722 209,-8 0,-8"/>
<text text-anchor="middle" x="104.5" y="-689.2" font-family="Times,serif" font-size="36.00">professors</text>
</g>
<g id="clust2" class="cluster">
<title>cluster_dogs</title>
<polygon fill="lightgrey" stroke="lightgrey" points="481,-12 481,-726 641,-726 641,-12 481,-12"/>
<text text-anchor="middle" x="561" y="-693.2" font-family="Times,serif" font-size="36.00">dogs</text>
</g>
<!-- spacer1 -->
<g id="node1" class="node">
<title>spacer1</title>
<polygon fill="transparent" stroke="transparent" points="176,-665.5 32,-665.5 32,-664.5 176,-664.5 176,-665.5"/>
</g>
<!-- l1 -->
<g id="node2" class="node">
<title>l1</title>
<polygon fill="none" stroke="transparent" points="122,-646 86,-646 86,-502 122,-502 122,-646"/>
<text text-anchor="middle" x="104" y="-570.3" font-family="Arial" font-size="14.00">l1</text>
</g>
<!-- r2 -->
<g id="node7" class="node">
<title>r2</title>
<polygon fill="none" stroke="transparent" points="579,-488 543,-488 543,-344 579,-344 579,-488"/>
<text text-anchor="middle" x="561" y="-412.3" font-family="Arial" font-size="14.00">r2</text>
</g>
<!-- l1&#45;&#45;r2 -->
<!-- r3 -->
<g id="node8" class="node">
<title>r3</title>
<polygon fill="none" stroke="transparent" points="579,-326 543,-326 543,-182 579,-182 579,-326"/>
<text text-anchor="middle" x="561" y="-250.3" font-family="Arial" font-size="14.00">r3</text>
</g>
<!-- l1&#45;&#45;r3 -->
<!-- r1 -->
<g id="node9" class="node">
<title>r1</title>
<polygon fill="none" stroke="transparent" points="579,-650 543,-650 543,-506 579,-506 579,-650"/>
<text text-anchor="middle" x="561" y="-574.3" font-family="Arial" font-size="14.00">r1</text>
</g>
<!-- l1&#45;&#45;r1 -->
<g id="edge3" class="edge">
<title>l1&#45;&#45;r1</title>
<path fill="none" stroke="red" stroke-width="6" d="M122.2,-574.16C195.57,-574.8 469.28,-577.2 542.75,-577.84"/>
</g>
<!-- r4 -->
<g id="node10" class="node">
<title>r4</title>
<polygon fill="none" stroke="transparent" points="579,-164 543,-164 543,-20 579,-20 579,-164"/>
<text text-anchor="middle" x="561" y="-88.3" font-family="Arial" font-size="14.00">r4</text>
</g>
<!-- l1&#45;&#45;r4 -->
<g id="edge6" class="edge">
<title>l1&#45;&#45;r4</title>
<path fill="none" stroke="blue" stroke-width="6" d="M122.2,-554.81C195.66,-477.33 469.9,-188.08 543,-110.99"/>
</g>
<!-- l2 -->
<g id="node3" class="node">
<title>l2</title>
<polygon fill="none" stroke="transparent" points="122,-484 86,-484 86,-340 122,-340 122,-484"/>
<text text-anchor="middle" x="104" y="-408.3" font-family="Arial" font-size="14.00">l2</text>
</g>
<!-- l2&#45;&#45;r2 -->
<g id="edge8" class="edge">
<title>l2&#45;&#45;r2</title>
<path fill="none" stroke="blue" stroke-width="6" d="M122.2,-412.16C195.57,-412.8 469.28,-415.2 542.75,-415.84"/>
</g>
<!-- l2&#45;&#45;r3 -->
<g id="edge9" class="edge">
<title>l2&#45;&#45;r3</title>
<path fill="none" stroke="red" stroke-width="6" d="M122.2,-405.71C195.57,-380.34 469.28,-285.71 542.75,-260.31"/>
</g>
<!-- l2&#45;&#45;r1 -->
<g id="edge7" class="edge">
<title>l2&#45;&#45;r1</title>
<path fill="none" stroke="red" stroke-width="6" d="M122.2,-418.61C195.57,-445.26 469.28,-544.68 542.75,-571.37"/>
</g>
<!-- l2&#45;&#45;r4 -->
<!-- l3 -->
<g id="node4" class="node">
<title>l3</title>
<polygon fill="none" stroke="transparent" points="122,-322 86,-322 86,-178 122,-178 122,-322"/>
<text text-anchor="middle" x="104" y="-246.3" font-family="Arial" font-size="14.00">l3</text>
</g>
<!-- l3&#45;&#45;r2 -->
<!-- l3&#45;&#45;r3 -->
<g id="edge13" class="edge">
<title>l3&#45;&#45;r3</title>
<path fill="none" stroke="blue" stroke-width="6" d="M122.2,-250.16C195.57,-250.8 469.28,-253.2 542.75,-253.84"/>
</g>
<!-- l3&#45;&#45;r1 -->
<g id="edge11" class="edge">
<title>l3&#45;&#45;r1</title>
<path fill="none" stroke="red" stroke-width="6" d="M122.2,-263.06C195.57,-315.72 469.28,-512.17 542.75,-564.9"/>
</g>
<!-- l3&#45;&#45;r4 -->
<!-- l4 -->
<g id="node5" class="node">
<title>l4</title>
<polygon fill="none" stroke="transparent" points="122,-160 86,-160 86,-16 122,-16 122,-160"/>
<text text-anchor="middle" x="104" y="-84.3" font-family="Arial" font-size="14.00">l4</text>
</g>
<!-- l4&#45;&#45;r2 -->
<g id="edge16" class="edge">
<title>l4&#45;&#45;r2</title>
<path fill="none" stroke="red" stroke-width="6" d="M122.2,-101.06C195.57,-153.72 469.28,-350.17 542.75,-402.9"/>
</g>
<!-- l4&#45;&#45;r3 -->
<!-- l4&#45;&#45;r1 -->
<g id="edge15" class="edge">
<title>l4&#45;&#45;r1</title>
<path fill="none" stroke="blue" stroke-width="6" d="M122.2,-107.51C195.66,-186.27 469.9,-480.32 543,-558.7"/>
</g>
<!-- l4&#45;&#45;r4 -->
<!-- spacer -->
<g id="node11" class="node">
<title>spacer</title>
</g>
<!-- l4&#45;&#45;spacer -->
<!-- end -->
<g id="node12" class="node">
<title>end</title>
</g>
<!-- l4&#45;&#45;end -->
<!-- spacer2 -->
<g id="node6" class="node">
<title>spacer2</title>
<polygon fill="transparent" stroke="transparent" points="633,-669.5 489,-669.5 489,-668.5 633,-668.5 633,-669.5"/>
</g>
<!-- r4&#45;&#45;end -->
<!-- spacer&#45;&#45;r4 -->
</g>
</svg>

