<svg
   version="1.1"
   id="svg2"
   width="477.81467"
   height="477.81467"
   viewBox="0 0 477.81467 477.81467"
   sodipodi:docname="reductions.tmp.pdf"
   xmlns:inkscape="http://www.inkscape.org/namespaces/inkscape"
   xmlns:sodipodi="http://sodipodi.sourceforge.net/DTD/sodipodi-0.dtd"
   xmlns="http://www.w3.org/2000/svg"
   xmlns:svg="http://www.w3.org/2000/svg">
  <defs
     id="defs6" />
  <sodipodi:namedview
     id="namedview4"
     pagecolor="#ffffff"
     bordercolor="#666666"
     borderopacity="1.0"
     inkscape:showpageshadow="2"
     inkscape:pageopacity="0.0"
     inkscape:pagecheckerboard="0"
     inkscape:deskcolor="#d1d1d1" />
  <g
     id="g8"
     inkscape:groupmode="layer"
     inkscape:label="reductions.tmp"
     transform="matrix(1.3333333,0,0,-1.3333333,0,477.81467)">
    <g
       id="g10"
       transform="translate(9.102,9.102)">
      <g
         id="g12">
        <g
           id="g14">
          <g
             id="g16">
            <g
               id="g18">
              <path
                 d="m 68.03233,283.4681 c 0,6.26226 -5.07644,11.33871 -11.33871,11.33871 -6.26228,0 -11.33872,-5.07645 -11.33872,-11.33871 0,-6.26227 5.07644,-11.33872 11.33872,-11.33872 6.26227,0 11.33871,5.07645 11.33871,11.33872 z"
                 style="fill:#ff8000;fill-opacity:1;fill-rule:nonzero;stroke:#000000;stroke-width:1.19553;stroke-linecap:butt;stroke-linejoin:miter;stroke-miterlimit:10;stroke-dasharray:none;stroke-opacity:1"
                 id="path20" />
            </g>
            <g
               id="g22"
               transform="translate(56.693,283.464)">
              <g
                 id="g24" />
              <g
                 id="g26"
                 transform="translate(-56.693,-283.464)" />
            </g>
          </g>
          <g
             id="g28">
            <g
               id="g30">
              <path
                 d="m 96.37914,226.77448 c 0,6.26226 -5.07645,11.33871 -11.33872,11.33871 -6.26227,0 -11.33872,-5.07645 -11.33872,-11.33871 0,-6.26229 5.07645,-11.33872 11.33872,-11.33872 6.26227,0 11.33872,5.07643 11.33872,11.33872 z"
                 style="fill:#ff8000;fill-opacity:1;fill-rule:nonzero;stroke:#000000;stroke-width:1.19553;stroke-linecap:butt;stroke-linejoin:miter;stroke-miterlimit:10;stroke-dasharray:none;stroke-opacity:1"
                 id="path32" />
            </g>
            <g
               id="g34"
               transform="translate(85.039,226.771)">
              <g
                 id="g36" />
              <g
                 id="g38"
                 transform="translate(-85.039,-226.771)" />
            </g>
          </g>
          <g
             id="g40">
            <g
               id="g42">
              <path
                 d="m 209.76637,311.8149 c 0,6.26228 -5.07643,11.33871 -11.33871,11.33871 -6.26227,0 -11.33872,-5.07643 -11.33872,-11.33871 0,-6.26227 5.07645,-11.33872 11.33872,-11.33872 6.26228,0 11.33871,5.07645 11.33871,11.33872 z"
                 style="fill:#ff8000;fill-opacity:1;fill-rule:nonzero;stroke:#000000;stroke-width:1.19553;stroke-linecap:butt;stroke-linejoin:miter;stroke-miterlimit:10;stroke-dasharray:none;stroke-opacity:1"
                 id="path44" />
            </g>
            <g
               id="g46"
               transform="translate(198.425,311.811)">
              <g
                 id="g48" />
              <g
                 id="g50"
                 transform="translate(-198.425,-311.811)" />
            </g>
          </g>
          <g
             id="g52">
            <g
               id="g54">
              <path
                 d="m 294.80681,113.38724 c 0,6.26226 -5.07645,11.33871 -11.33871,11.33871 -6.26227,0 -11.33872,-5.07645 -11.33872,-11.33871 0,-6.26229 5.07645,-11.33872 11.33872,-11.33872 6.26226,0 11.33871,5.07643 11.33871,11.33872 z"
                 style="fill:#ff8000;fill-opacity:1;fill-rule:nonzero;stroke:#000000;stroke-width:1.19553;stroke-linecap:butt;stroke-linejoin:miter;stroke-miterlimit:10;stroke-dasharray:none;stroke-opacity:1"
                 id="path56" />
            </g>
            <g
               id="g58"
               transform="translate(283.464,113.386)">
              <g
                 id="g60" />
              <g
                 id="g62"
                 transform="translate(-283.464,-113.386)" />
            </g>
          </g>
          <g
             id="g64">
            <g
               id="g66">
              <path
                 d="m 266.45999,255.12128 c 0,6.26228 -5.07643,11.33871 -11.33871,11.33871 -6.26227,0 -11.33872,-5.07643 -11.33872,-11.33871 0,-6.26227 5.07645,-11.33872 11.33872,-11.33872 6.26228,0 11.33871,5.07645 11.33871,11.33872 z"
                 style="fill:#ff8000;fill-opacity:1;fill-rule:nonzero;stroke:#000000;stroke-width:1.19553;stroke-linecap:butt;stroke-linejoin:miter;stroke-miterlimit:10;stroke-dasharray:none;stroke-opacity:1"
                 id="path68" />
            </g>
            <g
               id="g70"
               transform="translate(255.118,255.118)">
              <g
                 id="g72" />
              <g
                 id="g74"
                 transform="translate(-255.118,-255.118)" />
            </g>
          </g>
          <g
             id="g76">
            <g
               id="g78">
              <path
                 d="m 209.76637,170.08086 c 0,6.26226 -5.07643,11.33871 -11.33871,11.33871 -6.26227,0 -11.33872,-5.07645 -11.33872,-11.33871 0,-6.26229 5.07645,-11.33872 11.33872,-11.33872 6.26228,0 11.33871,5.07643 11.33871,11.33872 z"
                 style="fill:#ff8000;fill-opacity:1;fill-rule:nonzero;stroke:#000000;stroke-width:1.19553;stroke-linecap:butt;stroke-linejoin:miter;stroke-miterlimit:10;stroke-dasharray:none;stroke-opacity:1"
                 id="path80" />
            </g>
            <g
               id="g82"
               transform="translate(198.425,170.078)">
              <g
                 id="g84" />
              <g
                 id="g86"
                 transform="translate(-198.425,-170.078)" />
            </g>
          </g>
          <g
             id="g88">
            <g
               id="g90">
              <path
                 d="m 153.07275,85.04042 c 0,6.26227 -5.07645,11.33872 -11.33871,11.33872 -6.26227,0 -11.33872,-5.07645 -11.33872,-11.33872 0,-6.26227 5.07645,-11.33872 11.33872,-11.33872 6.26226,0 11.33871,5.07645 11.33871,11.33872 z"
                 style="fill:#ff8000;fill-opacity:1;fill-rule:nonzero;stroke:#000000;stroke-width:1.19553;stroke-linecap:butt;stroke-linejoin:miter;stroke-miterlimit:10;stroke-dasharray:none;stroke-opacity:1"
                 id="path92" />
            </g>
            <g
               id="g94"
               transform="translate(141.732,85.039)">
              <g
                 id="g96" />
              <g
                 id="g98"
                 transform="translate(-141.732,-85.039)" />
            </g>
          </g>
          <g
             id="g100">
            <g
               id="g102">
              <path
                 d="m 68.03233,28.3468 c 0,6.26227 -5.07644,11.33872 -11.33871,11.33872 -6.26228,0 -11.33872,-5.07645 -11.33872,-11.33872 0,-6.26227 5.07644,-11.33871 11.33872,-11.33871 6.26227,0 11.33871,5.07644 11.33871,11.33871 z"
                 style="fill:#ff8000;fill-opacity:1;fill-rule:nonzero;stroke:#000000;stroke-width:1.19553;stroke-linecap:butt;stroke-linejoin:miter;stroke-miterlimit:10;stroke-dasharray:none;stroke-opacity:1"
                 id="path104" />
            </g>
            <g
               id="g106"
               transform="translate(56.693,28.346)">
              <g
                 id="g108" />
              <g
                 id="g110"
                 transform="translate(-56.693,-28.346)" />
            </g>
          </g>
          <g
             id="g112">
            <g
               id="g114">
              <path
                 d="m 209.76637,28.3468 c 0,6.26227 -5.07643,11.33872 -11.33871,11.33872 -6.26227,0 -11.33872,-5.07645 -11.33872,-11.33872 0,-6.26227 5.07645,-11.33871 11.33872,-11.33871 6.26228,0 11.33871,5.07644 11.33871,11.33871 z"
                 style="fill:#ff8000;fill-opacity:1;fill-rule:nonzero;stroke:#000000;stroke-width:1.19553;stroke-linecap:butt;stroke-linejoin:miter;stroke-miterlimit:10;stroke-dasharray:none;stroke-opacity:1"
                 id="path116" />
            </g>
            <g
               id="g118"
               transform="translate(198.425,28.346)">
              <g
                 id="g120" />
              <g
                 id="g122"
                 transform="translate(-198.425,-28.346)" />
            </g>
          </g>
          <g
             id="g124">
            <g
               id="g126">
              <path
                 d="M -5e-5,-5e-5 H 340.16178 V 340.16178 H -5e-5 Z"
                 style="fill:none;stroke:#000000;stroke-width:1.19553;stroke-linecap:butt;stroke-linejoin:miter;stroke-miterlimit:10;stroke-dasharray:none;stroke-opacity:1"
                 id="path128" />
            </g>
            <g
               id="g130"
               transform="translate(170.078,170.078)">
              <g
                 id="g132" />
              <g
                 id="g134"
                 transform="translate(-170.078,-170.078)" />
            </g>
          </g>
          <g
             id="g136">
            <g
               id="g138" />
            <g
               id="g140"
               transform="translate(70.866,255.118)">
              <g
                 id="g142" />
              <g
                 id="g144"
                 transform="translate(-70.866,-255.118)" />
            </g>
          </g>
        </g>
      </g>
    </g>
  </g>
</svg>

