<svg
   version="1.1"
   id="svg1"
   width="478.72934"
   height="228.81599"
   viewBox="0 0 478.72934 228.81599"
   sodipodi:docname="reductions.tmp.pdf"
   xmlns:inkscape="http://www.inkscape.org/namespaces/inkscape"
   xmlns:sodipodi="http://sodipodi.sourceforge.net/DTD/sodipodi-0.dtd"
   xmlns="http://www.w3.org/2000/svg"
   xmlns:svg="http://www.w3.org/2000/svg">
  <defs
     id="defs1" />
  <sodipodi:namedview
     id="namedview1"
     pagecolor="#ffffff"
     bordercolor="#000000"
     borderopacity="0.25"
     inkscape:showpageshadow="2"
     inkscape:pageopacity="0.0"
     inkscape:pagecheckerboard="0"
     inkscape:deskcolor="#d1d1d1">
    <inkscape:page
       x="0"
       y="0"
       inkscape:label="1"
       id="page1"
       width="478.72934"
       height="228.81599"
       margin="0"
       bleed="0" />
  </sodipodi:namedview>
  <g
     id="g1"
     inkscape:groupmode="layer"
     inkscape:label="1">
    <path
       id="path1"
       d="M 11.33871,0 C 11.33871,6.26227 6.26227,11.33871 0,11.33871 -6.26227,11.33871 -11.33871,6.26227 -11.33871,0 c 0,-6.26227 5.07644,-11.33871 11.33871,-11.33871 6.26227,0 11.33871,5.07644 11.33871,11.33871 z"
       style="fill:#ff8000;fill-opacity:1;fill-rule:nonzero;stroke:#000000;stroke-width:1.19553;stroke-linecap:butt;stroke-linejoin:miter;stroke-miterlimit:10;stroke-dasharray:none;stroke-opacity:1"
       transform="matrix(1.3333333,0,0,-1.3333333,285.516,35.942667)" />
    <path
       id="path2"
       d="m 4.1372031,-6.550125 c -0.515625,-0.1992187 -0.9140625,-0.1992187 -1.0546875,-0.1992187 -1.40625,0 -2.66015622,1.40625 -2.66015622,3.5390625 0,2.8242187 1.23046872,3.4335937 2.07421872,3.4335937 0.5976563,0 1.03125,-0.234375 1.4179688,-0.6796875 0.4453125,-0.50390625 0.6328125,-0.9726562 0.6328125,-1.7578125 0,-1.2773437 -0.65625,-2.390625 -1.6054688,-2.390625 -0.3164062,0 -1.078125,0.082031 -1.6875,0.8320313 0.1289063,-1.6054688 0.9140625,-2.4023438 1.8398438,-2.4023438 0.375,0 0.6914062,0.070312 1.0429687,0.2109375 z m -2.8710937,4.3710938 c 0,-0.140625 0,-0.1640625 0.011719,-0.28125 0,-0.7382813 0.4453125,-1.5351563 1.2773438,-1.5351563 0.46875,0 0.75,0.2460938 0.9492187,0.6210938 0.2109375,0.3632812 0.234375,0.7148437 0.234375,1.1601562 0,0.3398438 0,0.796875 -0.2460937,1.2070313 -0.1640625,0.28124995 -0.421875,0.6210937 -0.9960938,0.6210937 -1.0546875,0 -1.1953125,-1.4648437 -1.230469,-1.7929687 z m 0,0"
       style="fill:#000000;fill-opacity:1;fill-rule:nonzero;stroke:none"
       aria-label="6"
       transform="matrix(1.3333333,0,0,1.3333333,282.19467,40.296)" />
    <path
       id="path3"
       d="m -50.89691,-31.05412 c 0,6.26227 -5.07645,11.33871 -11.33872,11.33871 -6.26228,0 -11.33871,-5.07644 -11.33871,-11.33871 0,-6.26227 5.07643,-11.33872 11.33871,-11.33872 6.26227,0 11.33872,5.07645 11.33872,11.33872 z"
       style="fill:#ff8000;fill-opacity:1;fill-rule:nonzero;stroke:#000000;stroke-width:1.19553;stroke-linecap:butt;stroke-linejoin:miter;stroke-miterlimit:10;stroke-dasharray:none;stroke-opacity:1"
       transform="matrix(1.3333333,0,0,-1.3333333,285.516,35.942667)" />
    <path
       id="path4"
       d="m 1.5235703,-5.8931875 h 2.625 V -6.5377187 H 0.80872656 v 3.6796875 H 1.4649766 c 0.1640625,-0.3984375 0.5390625,-0.7851563 1.1132812,-0.7851563 0.46875,0 1.0078125,0.4101563 1.0078125,1.6054688 0,1.6523437 -1.21875,1.6523437 -1.3007812,1.6523437 -0.6679688,0 -1.2773438,-0.38671875 -1.57031254,-0.9257812 l -0.328125,0.5507812 C 0.79700781,-0.18615625 1.4884141,0.224 2.2970078,0.224 c 1.1835938,0 2.1796875,-0.984375 2.1796875,-2.25 0,-1.2421875 -0.8554687,-2.2265625 -1.8867187,-2.2265625 -0.3984375,0 -0.7734375,0.1523438 -1.0664063,0.4101563 z m 0,0"
       style="fill:#000000;fill-opacity:1;fill-rule:nonzero;stroke:none"
       aria-label="5"
       transform="matrix(1.3333333,0,0,1.3333333,199.21467,81.701333)" />
    <path
       id="path5"
       d="m -120.12477,-31.05412 c 0,6.26227 -5.07643,11.33871 -11.33872,11.33871 -6.26226,0 -11.33871,-5.07644 -11.33871,-11.33871 0,-6.26227 5.07645,-11.33872 11.33871,-11.33872 6.26229,0 11.33872,5.07645 11.33872,11.33872 z"
       style="fill:#ff8000;fill-opacity:1;fill-rule:nonzero;stroke:#000000;stroke-width:1.19553;stroke-linecap:butt;stroke-linejoin:miter;stroke-miterlimit:10;stroke-dasharray:none;stroke-opacity:1"
       transform="matrix(1.3333333,0,0,-1.3333333,285.516,35.942667)" />
    <path
       id="path6"
       d="m 2.3072109,-5.822875 c 0.1171875,0 0.2460938,-0.011719 0.3632813,-0.011719 H 3.8775234 C 2.4009609,-4.2174065 1.5103359,-2.225219 1.5103359,0.1068122 h 0.84375 c 0,-2.9882812 1.4179688,-5.1210937 2.1914063,-5.9882812 v -0.65625 H 0.42049219 v 0.7148437 z m 0,0"
       style="fill:#000000;fill-opacity:1;fill-rule:nonzero;stroke:none"
       aria-label="7"
       transform="matrix(1.3333333,0,0,1.3333333,106.912,81.701333)" />
    <path
       id="path7"
       d="m -182.3604,-62.10825 c 0,6.26227 -5.07644,11.33872 -11.33871,11.33872 -6.26229,0 -11.33872,-5.07645 -11.33872,-11.33872 0,-6.26228 5.07643,-11.33871 11.33872,-11.33871 6.26227,0 11.33871,5.07643 11.33871,11.33871 z"
       style="fill:#8d198f;fill-opacity:1;fill-rule:nonzero;stroke:#000000;stroke-width:1.19553;stroke-linecap:butt;stroke-linejoin:miter;stroke-miterlimit:10;stroke-dasharray:none;stroke-opacity:1"
       transform="matrix(1.3333333,0,0,-1.3333333,285.516,35.942667)" />
    <path
       id="path8"
       d="m 4.5470703,-3.2469922 c 0,-0.7851562 -0.035156,-1.7109375 -0.4570312,-2.5195312 -0.3984375,-0.75 -1.0898438,-0.984375 -1.59375,-0.984375 -0.5976563,0 -1.2890625,0.2695312 -1.69921879,1.1484375 -0.328125,0.7265625 -0.375,1.5585937 -0.375,2.3554687 0,0.7851563 0.0351563,1.5117188 0.33984375,2.2382813 0.39843754,0.96093746 1.14843754,1.23046871 1.72265624,1.23046871 0.7265625,0 1.3476563,-0.41015625 1.6640625,-1.1015625 C 4.4533203,-1.5243359 4.5470703,-2.1805859 4.5470703,-3.2469922 Z m -2.0507812,2.85937501 c -0.5273438,0 -0.9375,-0.375 -1.1367188,-1.10156251 -0.1523437,-0.5625 -0.1640625,-1.1015625 -0.1640625,-1.875 0,-0.6328125 0,-1.2304687 0.1640625,-1.78125 0.070312,-0.1875 0.3164063,-0.9960937 1.125,-0.9960937 0.7734375,0 1.03125,0.75 1.1015625,0.9257812 0.1875,0.5625 0.1875,1.2304688 0.1875,1.8515625 0,0.65625 0,1.2773438 -0.1757812,1.9101563 -0.2578125,0.90234371 -0.7851563,1.06640621 -1.1015625,1.06640621 z m 0,0"
       style="fill:#ffffff;fill-opacity:1;fill-rule:nonzero;stroke:none"
       aria-label="0"
       transform="matrix(1.3333333,0,0,1.3333333,23.933333,123.10667)" />
    <path
       id="path9"
       d="m 11.33871,-62.10825 c 0,6.26227 -5.07644,11.33872 -11.33871,11.33872 -6.26227,0 -11.33871,-5.07645 -11.33871,-11.33872 0,-6.26228 5.07644,-11.33871 11.33871,-11.33871 6.26227,0 11.33871,5.07643 11.33871,11.33871 z"
       style="fill:#ff8000;fill-opacity:1;fill-rule:nonzero;stroke:#000000;stroke-width:1.19553;stroke-linecap:butt;stroke-linejoin:miter;stroke-miterlimit:10;stroke-dasharray:none;stroke-opacity:1"
       transform="matrix(1.3333333,0,0,-1.3333333,285.516,35.942667)" />
    <path
       id="path10"
       d="m 3.7036094,-1.7001172 h 0.984375 v -0.609375 H 3.7036094 V -6.5399609 H 2.8012656 l -2.51953122,4.2304687 v 0.609375 H 2.9184531 v 1.6992187625 h 0.7851563 z m -2.6484375,-0.609375 c 0.515625,-0.8554687 1.921875,-3.2226562 1.921875,-3.7851562 v 3.7851562 z m 0,0"
       style="fill:#000000;fill-opacity:1;fill-rule:nonzero;stroke:none"
       aria-label="4"
       transform="matrix(1.3333333,0,0,1.3333333,282.19467,123.10667)" />
    <path
       id="path11"
       d="m 73.57434,-93.16238 c 0,6.26226 -5.07643,11.33871 -11.33871,11.33871 -6.26227,0 -11.33872,-5.07645 -11.33872,-11.33871 0,-6.26227 5.07645,-11.33872 11.33872,-11.33872 6.26228,0 11.33871,5.07645 11.33871,11.33872 z"
       style="fill:#ff8000;fill-opacity:1;fill-rule:nonzero;stroke:#000000;stroke-width:1.19553;stroke-linecap:butt;stroke-linejoin:miter;stroke-miterlimit:10;stroke-dasharray:none;stroke-opacity:1"
       transform="matrix(1.3333333,0,0,-1.3333333,285.516,35.942667)" />
    <path
       id="path12"
       d="M 0.91489844,-5.1213047 C 1.2078672,-5.8127109 1.8523984,-6.1759922 2.4617734,-6.1759922 c 0.515625,0 1.0078125,0.2929688 1.0078125,0.9375 0,0.609375 -0.4101562,1.1953125 -1.0195312,1.3359375 -0.058594,0.011719 -0.082031,0.011719 -0.7851563,0.070312 v 0.609375 h 0.703125 c 1.078125,0 1.3007813,0.9257813 1.3007813,1.4179688 0,0.7734375 -0.4570313,1.41796871 -1.2304688,1.41796871 -0.6796875,0 -1.47656246,-0.3515625 -1.91015621,-1.03125001 l -0.10546875,0.59765626 c 0.72656246,0.9375 1.64062496,1.04296875 2.03906246,1.04296875 1.21875,0 2.0859375,-0.97265625 2.0859375,-2.01562501 0,-0.9023437 -0.6914062,-1.5234375 -1.3710937,-1.734375 0.7617187,-0.4101562 1.1132812,-1.0898437 1.1132812,-1.7109375 0,-0.8554687 -0.8320312,-1.5117187 -1.8164062,-1.5117187 -0.7734375,0 -1.50000001,0.3984375 -1.91015626,1.0898437 z m 0,0"
       style="fill:#000000;fill-opacity:1;fill-rule:nonzero;stroke:none"
       aria-label="3"
       transform="matrix(1.3333333,0,0,1.3333333,365.17467,164.512)" />
    <path
       id="path13"
       d="m 135.80998,-62.10825 c 0,6.26227 -5.07644,11.33872 -11.33871,11.33872 -6.26227,0 -11.33872,-5.07645 -11.33872,-11.33872 0,-6.26228 5.07645,-11.33871 11.33872,-11.33871 6.26227,0 11.33871,5.07643 11.33871,11.33871 z"
       style="fill:#2e3192;fill-opacity:1;fill-rule:nonzero;stroke:#000000;stroke-width:1.19553;stroke-linecap:butt;stroke-linejoin:miter;stroke-miterlimit:10;stroke-dasharray:none;stroke-opacity:1"
       transform="matrix(1.3333333,0,0,-1.3333333,285.516,35.942667)" />
    <path
       id="path14"
       d="m 3.1886875,-3.5399609 c 0.890625,-0.28125 1.2304688,-0.9492188 1.2304688,-1.4765625 0,-0.9257813 -0.8554688,-1.734375 -1.921875,-1.734375 -1.125,0 -1.9335938,0.8203125 -1.9335938,1.734375 0,0.5273437 0.33984375,1.1953125 1.21875,1.4765625 -0.7148437,0.2460937 -1.359375,0.8789062 -1.359375,1.7460937 0,1.08984376 0.9140625,2.01562501 2.0625,2.01562501 1.1835938,0 2.0625,-0.9609375 2.0625,-2.01562501 0,-0.9023437 -0.6914062,-1.5117187 -1.359375,-1.7460937 z M 2.4972813,-3.8329297 c -0.7734375,0 -1.2421875,-0.4921875 -1.2421875,-1.1835937 0,-0.6796875 0.4921875,-1.1601563 1.2304687,-1.1601563 0.7851563,0 1.2304688,0.515625 1.2304688,1.1601563 0,0.7265625 -0.5039063,1.1835937 -1.21875,1.1835937 z m 0,3.44531251 c -0.6914063,0 -1.265625,-0.48046875 -1.265625,-1.41796871 0,-1.0429688 0.7148437,-1.4179688 1.2539062,-1.4179688 0.5742188,0 1.265625,0.3984375 1.265625,1.4179688 0,0.97265621 -0.6210937,1.41796871 -1.2539062,1.41796871 z m 0,0"
       style="fill:#ffffff;fill-opacity:1;fill-rule:nonzero;stroke:none"
       aria-label="8"
       transform="matrix(1.3333333,0,0,1.3333333,448.15467,123.10667)" />
    <path
       id="path15"
       d="m 11.33871,-124.2165 c 0,6.26226 -5.07644,11.33871 -11.33871,11.33871 -6.26227,0 -11.33871,-5.07645 -11.33871,-11.33871 0,-6.26229 5.07644,-11.33872 11.33871,-11.33872 6.26227,0 11.33871,5.07643 11.33871,11.33872 z"
       style="fill:#ff8000;fill-opacity:1;fill-rule:nonzero;stroke:#000000;stroke-width:1.19553;stroke-linecap:butt;stroke-linejoin:miter;stroke-miterlimit:10;stroke-dasharray:none;stroke-opacity:1"
       transform="matrix(1.3333333,0,0,-1.3333333,285.516,35.942667)" />
    <path
       id="path16"
       d="M 2.9770469,-6.7514531 H 2.7778281 c -0.5859375,0.609375 -1.4179687,0.6328125 -1.88671872,0.65625 v 0.5742187 c 0.32812502,-0.011719 0.80859372,-0.023437 1.30078122,-0.234375 v 5.17968753 H 0.94970313 v 0.57421875 H 4.2192344 V -0.57567187 H 2.9770469 Z m 0,0"
       style="fill:#000000;fill-opacity:1;fill-rule:nonzero;stroke:none"
       aria-label="1"
       transform="matrix(1.3333333,0,0,1.3333333,282.19467,205.916)" />
    <path
       id="path17"
       d="m -50.89691,-93.16238 c 0,6.26226 -5.07645,11.33871 -11.33872,11.33871 -6.26228,0 -11.33871,-5.07645 -11.33871,-11.33871 0,-6.26227 5.07643,-11.33872 11.33871,-11.33872 6.26227,0 11.33872,5.07645 11.33872,11.33872 z"
       style="fill:#ff8000;fill-opacity:1;fill-rule:nonzero;stroke:#000000;stroke-width:1.19553;stroke-linecap:butt;stroke-linejoin:miter;stroke-miterlimit:10;stroke-dasharray:none;stroke-opacity:1"
       transform="matrix(1.3333333,0,0,-1.3333333,285.516,35.942667)" />
    <path
       id="path18"
       d="M 1.7345078,-1.8752109 0.50403906,-0.63302344 V -2.109375e-4 H 4.4766953 V -0.70333594 H 2.6602891 c -0.1171875,0 -0.234375,0 -0.3632813,0 h -1.078125 c 0.3164063,-0.26953125 1.078125,-1.01953126 1.3828125,-1.31249996 0.1875,-0.1757813 0.6914063,-0.5976563 0.890625,-0.7734375 0.4453125,-0.4453125 0.984375,-0.9726563 0.984375,-1.828125 0,-1.1367188 -0.8085937,-2.1328125 -2.1210937,-2.1328125 -1.1367188,0 -1.69921879,0.7734375 -1.93359379,1.6289062 0.1171875,0.1757813 0.1640625,0.234375 0.1875,0.2578125 0.0234375,0.023437 0.1171875,0.1523438 0.22265625,0.2929688 0.19921874,-0.7734375 0.46875004,-1.546875 1.38281254,-1.546875 0.9375,0 1.4414062,0.75 1.4414062,1.5234375 0,0.84375 -0.5625,1.4179687 -1.1601562,2.015625 z m 0,0"
       style="fill:#000000;fill-opacity:1;fill-rule:nonzero;stroke:none"
       aria-label="2"
       transform="matrix(1.3333333,0,0,1.3333333,199.21467,164.512)" />
    <path
       id="path19"
       d="M -185.67804,-53.2692 C -137.64835,-0.33974 -81.51859,17.65662 -15.3653,3.32791"
       style="fill:none;stroke:#000000;stroke-width:1.59404;stroke-linecap:butt;stroke-linejoin:miter;stroke-miterlimit:10;stroke-dasharray:none;stroke-opacity:1"
       transform="matrix(1.3333333,0,0,-1.3333333,285.516,35.942667)" />
    <path
       id="path20"
       d="M 3.78581,0 -2.27148,3.02866 0,0 -2.27148,-3.02866"
       style="fill:#000000;fill-opacity:1;fill-rule:nonzero;stroke:none"
       transform="matrix(1.3030667,0.28222667,0.28222667,-1.3030667,265.02892,31.505427)" />
    <path
       id="path21"
       d="M 11.85887,-1.35472 C 57.25172,-6.54034 84.81856,-20.29709 113.65305,-50.70087"
       style="fill:none;stroke:#000000;stroke-width:1.59404;stroke-linecap:butt;stroke-linejoin:miter;stroke-miterlimit:10;stroke-dasharray:none;stroke-opacity:1"
       transform="matrix(1.3333333,0,0,-1.3333333,285.516,35.942667)" />
    <path
       id="path22"
       d="M 3.78581,0 -2.27148,3.02866 0,0 -2.27148,-3.02866"
       style="fill:#000000;fill-opacity:1;fill-rule:nonzero;stroke:none"
       transform="matrix(0.91746667,0.96741333,0.96741333,-0.91746667,437.05337,103.54383)" />
    <path
       id="path23"
       d="M -120.50017,-26.33481 C -80.51831,-9.12494 -55.373,-3.18285 -15.69565,-0.90219"
       style="fill:none;stroke:#000000;stroke-width:1.59404;stroke-linecap:butt;stroke-linejoin:miter;stroke-miterlimit:10;stroke-dasharray:none;stroke-opacity:1"
       transform="matrix(1.3333333,0,0,-1.3333333,285.516,35.942667)" />
    <path
       id="path24"
       d="M 3.78581,0 -2.27148,3.02866 0,0 -2.27148,-3.02866"
       style="fill:#000000;fill-opacity:1;fill-rule:nonzero;stroke:none"
       transform="matrix(1.3310667,-0.07649333,-0.07649333,-1.3310667,264.58845,37.1456)" />
    <path
       id="path25"
       d="m -184.10657,-55.00568 c 14.49021,10.72962 23.91384,15.4316 37.57053,19.48201"
       style="fill:none;stroke:#000000;stroke-width:1.59404;stroke-linecap:butt;stroke-linejoin:miter;stroke-miterlimit:10;stroke-dasharray:none;stroke-opacity:1"
       transform="matrix(1.3333333,0,0,-1.3333333,285.516,35.942667)" />
    <path
       id="path26"
       d="M 3.78581,0 -2.27148,3.02866 0,0 -2.27148,-3.02866"
       style="fill:#000000;fill-opacity:1;fill-rule:nonzero;stroke:none"
       transform="matrix(1.2782133,-0.37909333,-0.37909333,-1.2782133,90.134587,83.307573)" />
    <path
       id="path27"
       d="m -119.52701,-31.05412 h 41.56908"
       style="fill:none;stroke:#000000;stroke-width:1.59404;stroke-linecap:butt;stroke-linejoin:miter;stroke-miterlimit:10;stroke-dasharray:none;stroke-opacity:1"
       transform="matrix(1.3333333,0,0,-1.3333333,285.516,35.942667)" />
    <path
       id="path28"
       d="M 3.78581,0 -2.27148,3.02866 0,0 -2.27148,-3.02866"
       style="fill:#000000;fill-opacity:1;fill-rule:nonzero;stroke:none"
       transform="matrix(1.3333333,0,0,-1.3333333,181.57209,77.34816)" />
    <path
       id="path29"
       d="M -50.30025,-30.93848 C 14.469,-30.3084 52.13708,-36.57545 109.64622,-56.87508"
       style="fill:none;stroke:#000000;stroke-width:1.59404;stroke-linecap:butt;stroke-linejoin:miter;stroke-miterlimit:10;stroke-dasharray:none;stroke-opacity:1"
       transform="matrix(1.3333333,0,0,-1.3333333,285.516,35.942667)" />
    <path
       id="path30"
       d="M 3.78581,0 -2.27148,3.02866 0,0 -2.27148,-3.02866"
       style="fill:#000000;fill-opacity:1;fill-rule:nonzero;stroke:none"
       transform="matrix(1.25724,0.44378667,0.44378667,-1.25724,431.71096,111.77608)" />
    <path
       id="path31"
       d="m -50.79239,-34.44731 c 17.28603,-5.12677 26.70966,-9.82875 38.15749,-18.30563"
       style="fill:none;stroke:#000000;stroke-width:1.59404;stroke-linecap:butt;stroke-linejoin:miter;stroke-miterlimit:10;stroke-dasharray:none;stroke-opacity:1"
       transform="matrix(1.3333333,0,0,-1.3333333,285.516,35.942667)" />
    <path
       id="path32"
       d="M 3.78581,0 -2.27148,3.02866 0,0 -2.27148,-3.02866"
       style="fill:#000000;fill-opacity:1;fill-rule:nonzero;stroke:none"
       transform="matrix(1.0714933,0.7934,0.7934,-1.0714933,268.66947,106.27991)" />
    <path
       id="path33"
       d="M -181.76265,-62.10825 H -15.72229"
       style="fill:none;stroke:#000000;stroke-width:1.59404;stroke-linecap:butt;stroke-linejoin:miter;stroke-miterlimit:10;stroke-dasharray:none;stroke-opacity:1"
       transform="matrix(1.3333333,0,0,-1.3333333,285.516,35.942667)" />
    <path
       id="path34"
       d="M 3.78581,0 -2.27148,3.02866 0,0 -2.27148,-3.02866"
       style="fill:#000000;fill-opacity:1;fill-rule:nonzero;stroke:none"
       transform="matrix(1.3333333,0,0,-1.3333333,264.55295,118.75367)" />
    <path
       id="path35"
       d="m 11.93646,-62.10825 h 96.81252"
       style="fill:none;stroke:#000000;stroke-width:1.59404;stroke-linecap:butt;stroke-linejoin:miter;stroke-miterlimit:10;stroke-dasharray:none;stroke-opacity:1"
       transform="matrix(1.3333333,0,0,-1.3333333,285.516,35.942667)" />
    <path
       id="path36"
       d="M 3.78581,0 -2.27148,3.02866 0,0 -2.27148,-3.02866"
       style="fill:#000000;fill-opacity:1;fill-rule:nonzero;stroke:none"
       transform="matrix(1.3333333,0,0,-1.3333333,430.51464,118.75367)" />
    <path
       id="path37"
       d="m 11.44324,-65.50143 c 17.28601,-5.12679 26.70964,-9.82875 38.15748,-18.30564"
       style="fill:none;stroke:#000000;stroke-width:1.59404;stroke-linecap:butt;stroke-linejoin:miter;stroke-miterlimit:10;stroke-dasharray:none;stroke-opacity:1"
       transform="matrix(1.3333333,0,0,-1.3333333,285.516,35.942667)" />
    <path
       id="path38"
       d="M 3.78581,0 -2.27148,3.02866 0,0 -2.27148,-3.02866"
       style="fill:#000000;fill-opacity:1;fill-rule:nonzero;stroke:none"
       transform="matrix(1.0714933,0.7934,0.7934,-1.0714933,351.65029,147.6854)" />
    <path
       id="path39"
       d="m -182.7358,-66.82758 c 39.98186,-17.20987 65.12716,-23.15194 104.80451,-25.43262"
       style="fill:none;stroke:#000000;stroke-width:1.59404;stroke-linecap:butt;stroke-linejoin:miter;stroke-miterlimit:10;stroke-dasharray:none;stroke-opacity:1"
       transform="matrix(1.3333333,0,0,-1.3333333,285.516,35.942667)" />
    <path
       id="path40"
       d="M 3.78581,0 -2.27148,3.02866 0,0 -2.27148,-3.02866"
       style="fill:#000000;fill-opacity:1;fill-rule:nonzero;stroke:none"
       transform="matrix(1.3310667,0.07649333,0.07649333,-1.3310667,181.6076,158.95624)" />
    <path
       id="path41"
       d="m -50.29916,-93.16238 h 96.8125"
       style="fill:none;stroke:#000000;stroke-width:1.59404;stroke-linecap:butt;stroke-linejoin:miter;stroke-miterlimit:10;stroke-dasharray:none;stroke-opacity:1"
       transform="matrix(1.3333333,0,0,-1.3333333,285.516,35.942667)" />
    <path
       id="path42"
       d="M 3.78581,0 -2.27148,3.02866 0,0 -2.27148,-3.02866"
       style="fill:#000000;fill-opacity:1;fill-rule:nonzero;stroke:none"
       transform="matrix(1.3333333,0,0,-1.3333333,347.53379,160.15917)" />
    <path
       id="path43"
       d="m 73.67888,-89.7692 c 17.28601,5.12677 26.70964,9.82876 38.15747,18.30564"
       style="fill:none;stroke:#000000;stroke-width:1.59404;stroke-linecap:butt;stroke-linejoin:miter;stroke-miterlimit:10;stroke-dasharray:none;stroke-opacity:1"
       transform="matrix(1.3333333,0,0,-1.3333333,285.516,35.942667)" />
    <path
       id="path44"
       d="M 3.78581,0 -2.27148,3.02866 0,0 -2.27148,-3.02866"
       style="fill:#000000;fill-opacity:1;fill-rule:nonzero;stroke:none"
       transform="matrix(1.0714933,-0.7934,-0.7934,-1.0714933,434.63113,131.22744)" />
    <path
       id="path45"
       d="m -54.0224,-101.82295 c 12.69695,-13.38887 23.83092,-18.94391 38.40237,-20.60912"
       style="fill:none;stroke:#000000;stroke-width:1.59404;stroke-linecap:butt;stroke-linejoin:miter;stroke-miterlimit:10;stroke-dasharray:none;stroke-opacity:1"
       transform="matrix(1.3333333,0,0,-1.3333333,285.516,35.942667)" />
    <path
       id="path46"
       d="M 3.78581,0 -2.27148,3.02866 0,0 -2.27148,-3.02866"
       style="fill:#000000;fill-opacity:1;fill-rule:nonzero;stroke:none"
       transform="matrix(1.32464,0.15134667,0.15134667,-1.32464,264.68929,199.1854)" />
    <path
       id="path47"
       d="m 11.85887,-122.86179 c 18.33261,2.09493 29.46658,7.64997 39.55864,18.29197"
       style="fill:none;stroke:#000000;stroke-width:1.59404;stroke-linecap:butt;stroke-linejoin:miter;stroke-miterlimit:10;stroke-dasharray:none;stroke-opacity:1"
       transform="matrix(1.3333333,0,0,-1.3333333,285.516,35.942667)" />
    <path
       id="path48"
       d="M 3.78581,0 -2.27148,3.02866 0,0 -2.27148,-3.02866"
       style="fill:#000000;fill-opacity:1;fill-rule:nonzero;stroke:none"
       transform="matrix(0.91741333,-0.96742667,-0.96742667,-0.91741333,354.07268,175.36909)" />
  </g>
</svg>

