<svg
   version="1.1"
   id="svg1"
   width="337.97198"
   height="155.04401"
   viewBox="0 0 337.97198 155.04401"
   sodipodi:docname="reductions.tmp.pdf"
   xmlns:inkscape="http://www.inkscape.org/namespaces/inkscape"
   xmlns:sodipodi="http://sodipodi.sourceforge.net/DTD/sodipodi-0.dtd"
   xmlns="http://www.w3.org/2000/svg"
   xmlns:svg="http://www.w3.org/2000/svg">
  <defs
     id="defs1" />
  <sodipodi:namedview
     id="namedview1"
     pagecolor="#ffffff"
     bordercolor="#000000"
     borderopacity="0.25"
     inkscape:showpageshadow="2"
     inkscape:pageopacity="0.0"
     inkscape:pagecheckerboard="0"
     inkscape:deskcolor="#d1d1d1">
    <inkscape:page
       x="0"
       y="0"
       inkscape:label="1"
       id="page1"
       width="337.97198"
       height="155.04401"
       margin="0"
       bleed="0" />
  </sodipodi:namedview>
  <g
     id="g1"
     inkscape:groupmode="layer"
     inkscape:label="1">
    <path
       id="path1"
       d="m 53.85892,56.69362 c 0,6.26227 -5.07645,11.33871 -11.33872,11.33871 -6.26227,0 -11.33871,-5.07644 -11.33871,-11.33871 0,-6.26228 5.07644,-11.33872 11.33871,-11.33872 6.26227,0 11.33872,5.07644 11.33872,11.33872 z"
       style="fill:#5cb4e8;fill-opacity:1;fill-rule:nonzero;stroke:#000000;stroke-width:1.19553;stroke-linecap:butt;stroke-linejoin:miter;stroke-miterlimit:10;stroke-dasharray:none;stroke-opacity:1"
       transform="matrix(1.3333333,0,0,-1.3333333,27.253333,110.13067)" />
    <path
       id="path2"
       d="m 3.9720859,-2.8826719 c 0,-1.0078125 -0.7265625,-1.7109375 -1.640625,-1.7109375 -0.6445312,0 -1.1015625,0.1640625 -1.57031246,0.4335938 l 0.0703125,0.65625 c 0.51562496,-0.375 1.00781246,-0.5039063 1.49999996,-0.5039063 0.46875,0 0.8671875,0.3984375 0.8671875,1.1367188 v 0.4335937 c -1.5,0.011719 -2.76562496,0.4335938 -2.76562496,1.3125 0,0.42187503 0.26953125,1.23046878 1.13671876,1.23046878 0.140625,0 1.078125,-0.01171875 1.6523437,-0.46875 V 1.40625e-4 h 0.75 z m -0.7734375,1.5703125 c 0,0.1875 0,0.43359378 -0.3398437,0.62109378 -0.2929688,0.1875 -0.6679688,0.1875 -0.7734375,0.1875 -0.4804688,0 -0.9257813,-0.22265625 -0.9257813,-0.64453128 0,-0.6914062 1.6054688,-0.7617187 2.0390625,-0.7851562 z m 0,0"
       style="fill:#000000;fill-opacity:1;fill-rule:nonzero;stroke:none"
       aria-label="a"
       transform="matrix(1.3333333,0,0,1.3333333,80.754667,37.492)" />
    <path
       id="path3"
       d="m 138.89934,56.69362 c 0,6.26227 -5.07644,11.33871 -11.33872,11.33871 -6.26226,0 -11.33871,-5.07644 -11.33871,-11.33871 0,-6.26228 5.07645,-11.33872 11.33871,-11.33872 6.26228,0 11.33872,5.07644 11.33872,11.33872 z"
       style="fill:#5cb4e8;fill-opacity:1;fill-rule:nonzero;stroke:#000000;stroke-width:1.19553;stroke-linecap:butt;stroke-linejoin:miter;stroke-miterlimit:10;stroke-dasharray:none;stroke-opacity:1"
       transform="matrix(1.3333333,0,0,-1.3333333,27.253333,110.13067)" />
    <path
       id="path4"
       d="M 1.5593516,-6.9138047 H 0.82107031 V 2.578125e-4 H 1.5945078 V -0.45677344 c 0.234375,0.22265625 0.6679688,0.5625 1.3359375,0.5625 0.9960938,0 1.8515625,-0.99609375 1.8515625,-2.33203126 0,-1.2304687 -0.6796875,-2.3085937 -1.6171875,-2.3085937 -0.3867187,0 -1.0078125,0.1054687 -1.6054687,0.5859375 z m 0.035156,3.5742188 c 0.1640625,-0.234375 0.515625,-0.5859375 1.0664063,-0.5859375 0.5859375,0 1.3476562,0.4335937 1.3476562,1.6992187 0,1.30078126 -0.84375,1.72265626 -1.453125,1.72265626 -0.3867187,0 -0.7148437,-0.17578125 -0.9609375,-0.63281246 z m 0,0"
       style="fill:#000000;fill-opacity:1;fill-rule:nonzero;stroke:none"
       aria-label="b"
       transform="matrix(1.3333333,0,0,1.3333333,193.90133,39.152)" />
    <path
       id="path5"
       d="m 223.93977,56.69362 c 0,6.26227 -5.07644,11.33871 -11.33871,11.33871 -6.26227,0 -11.33872,-5.07644 -11.33872,-11.33871 0,-6.26228 5.07645,-11.33872 11.33872,-11.33872 6.26227,0 11.33871,5.07644 11.33871,11.33872 z"
       style="fill:#2e3192;fill-opacity:1;fill-rule:nonzero;stroke:#000000;stroke-width:1.19553;stroke-linecap:butt;stroke-linejoin:miter;stroke-miterlimit:10;stroke-dasharray:none;stroke-opacity:1"
       transform="matrix(1.3333333,0,0,-1.3333333,27.253333,110.13067)" />
    <path
       id="path6"
       d="m 1.7463281,-3.8427969 h 1.40625 v -0.5742187 h -1.40625 v -1.265625 H 1.0549219 v 1.265625 H 0.18773437 v 0.5742187 H 1.0314844 v 2.6601563 c 0,0.59765623 0.1289062,1.28906248 0.8203125,1.28906248 0.703125,0 1.2070312,-0.24609375 1.453125,-0.375 l -0.1523438,-0.5859375 c -0.2578125,0.2109375 -0.5859375,0.328125 -0.9023437,0.328125 -0.3632813,0 -0.5039063,-0.3046875 -0.5039063,-0.83203128 z m 0,0"
       style="fill:#ffffff;fill-opacity:1;fill-rule:nonzero;stroke:none"
       aria-label="t"
       transform="matrix(1.3333333,0,0,1.3333333,308.32,38.334667)" />
    <path
       id="path7"
       d="M 11.33871,0 C 11.33871,6.26227 6.26227,11.33871 0,11.33871 -6.26227,11.33871 -11.33871,6.26227 -11.33871,0 c 0,-6.26227 5.07644,-11.33871 11.33871,-11.33871 6.26227,0 11.33871,5.07644 11.33871,11.33871 z"
       style="fill:#8d198f;fill-opacity:1;fill-rule:nonzero;stroke:#000000;stroke-width:1.19553;stroke-linecap:butt;stroke-linejoin:miter;stroke-miterlimit:10;stroke-dasharray:none;stroke-opacity:1"
       transform="matrix(1.3333333,0,0,-1.3333333,27.253333,110.13067)" />
    <path
       id="path8"
       d="m 3.4211484,-4.2778203 c -0.5273437,-0.234375 -0.9257812,-0.3164063 -1.4414062,-0.3164063 -0.2460938,0 -1.65234376,0 -1.65234376,1.3007813 0,0.4921875 0.29296875,0.8085937 0.5390625,0.9960937 0.30468746,0.2226563 0.52734376,0.2695313 1.07812496,0.375 0.3515625,0.070312 0.9375,0.1875 0.9375,0.7148438 0,0.69140624 -0.7851562,0.69140624 -0.9375,0.69140624 -0.8085937,0 -1.37109371,-0.375 -1.54687496,-0.49218754 l -0.1171875,0.67968754 c 0.31640625,0.1640625 0.86718746,0.43359375 1.67578126,0.43359375 0.1757812,0 0.7265625,0 1.1484375,-0.31640625 0.3164062,-0.234375 0.4804687,-0.6328125 0.4804687,-1.06640624 0,-0.5507813 -0.3632812,-0.8789063 -0.3867187,-0.9140625 -0.3867188,-0.3515625 -0.65625,-0.4101563 -1.1601563,-0.5039063 -0.5390625,-0.1054687 -1.0078125,-0.1992187 -1.0078125,-0.6914062 0,-0.6210938 0.7265625,-0.6210938 0.8554688,-0.6210938 0.3164062,0 0.84375,0.046875 1.40625,0.3867188 z m 0,0"
       style="fill:#ffffff;fill-opacity:1;fill-rule:nonzero;stroke:none"
       aria-label="s"
       transform="matrix(1.3333333,0,0,1.3333333,24.708,113.08267)" />
    <path
       id="path9"
       d="m 96.37914,0 c 0,6.26227 -5.07645,11.33871 -11.33872,11.33871 C 78.77815,11.33871 73.7017,6.26227 73.7017,0 c 0,-6.26227 5.07645,-11.33871 11.33872,-11.33871 6.26227,0 11.33872,5.07644 11.33872,11.33871 z"
       style="fill:#5cb4e8;fill-opacity:1;fill-rule:nonzero;stroke:#000000;stroke-width:1.19553;stroke-linecap:butt;stroke-linejoin:miter;stroke-miterlimit:10;stroke-dasharray:none;stroke-opacity:1"
       transform="matrix(1.3333333,0,0,-1.3333333,27.253333,110.13067)" />
    <path
       id="path10"
       d="m 4.0894688,-4.1606328 c -0.5976563,-0.3398438 -0.9375,-0.4335938 -1.5351563,-0.4335938 -1.3945312,0 -2.19140625,1.2070313 -2.19140625,2.3789063 0,1.24218749 0.90234375,2.32031249 2.14453125,2.32031249 0.5390625,0 1.0898438,-0.140625 1.6289063,-0.50390625 L 4.07775,-1.0668828 c -0.515625,0.39843749 -1.0546875,0.53906249 -1.5585937,0.53906249 -0.8203125,0 -1.3828125,-0.71484379 -1.3828125,-1.69921879 0,-0.7734375 0.3632812,-1.7226562 1.4179687,-1.7226562 0.5273438,0 0.8671875,0.070312 1.40625,0.4335937 z m 0,0"
       style="fill:#000000;fill-opacity:1;fill-rule:nonzero;stroke:none"
       aria-label="c"
       transform="matrix(1.3333333,0,0,1.3333333,137.688,113.08267)" />
    <path
       id="path11"
       d="m 181.41957,0 c 0,6.26227 -5.07645,11.33871 -11.33871,11.33871 -6.26229,0 -11.33872,-5.07644 -11.33872,-11.33871 0,-6.26227 5.07643,-11.33871 11.33872,-11.33871 6.26226,0 11.33871,5.07644 11.33871,11.33871 z"
       style="fill:#5cb4e8;fill-opacity:1;fill-rule:nonzero;stroke:#000000;stroke-width:1.19553;stroke-linecap:butt;stroke-linejoin:miter;stroke-miterlimit:10;stroke-dasharray:none;stroke-opacity:1"
       transform="matrix(1.3333333,0,0,-1.3333333,27.253333,110.13067)" />
    <path
       id="path12"
       d="m 4.3245313,-6.9144219 h -0.75 v 2.9296875 c -0.5273438,-0.4335937 -1.078125,-0.5507812 -1.453125,-0.5507812 -0.984375,0 -1.75781255,1.0429687 -1.75781255,2.3203125 0,1.31249998 0.76171875,2.32031248 1.71093755,2.32031248 0.328125,0 0.9140625,-0.08203125 1.4765625,-0.62109375 v 0.515624995 h 0.7734375 z m -0.7734375,5.53125 c 0,0.140625 -0.011719,0.3164063 -0.328125,0.60937503 -0.234375,0.19921875 -0.4804688,0.26953125 -0.7382813,0.26953125 -0.6210937,0 -1.3476562,-0.45703125 -1.3476562,-1.69921878 0,-1.3125 0.8554687,-1.7226562 1.4414062,-1.7226562 0.4453125,0 0.75,0.234375 0.9726563,0.5507812 z m 0,0"
       style="fill:#000000;fill-opacity:1;fill-rule:nonzero;stroke:none"
       aria-label="d"
       transform="matrix(1.3333333,0,0,1.3333333,250.59333,114.74267)" />
    <path
       id="path13"
       d="M 7.16176,9.54884 33.08698,44.11621"
       style="fill:none;stroke:#000000;stroke-width:1.59404;stroke-linecap:butt;stroke-linejoin:miter;stroke-miterlimit:10;stroke-dasharray:none;stroke-opacity:1"
       transform="matrix(1.3333333,0,0,-1.3333333,27.253333,110.13067)" />
    <path
       id="path14"
       d="M 3.78581,0 -2.27148,3.02866 0,0 -2.27148,-3.02866"
       style="fill:#000000;fill-opacity:1;fill-rule:nonzero;stroke:none"
       transform="matrix(0.79998667,-1.0666267,-1.0666267,-0.79998667,71.369307,51.309053)" />
    <path
       id="path15"
       d="m 1.5221328,-5.8949531 h 2.625 V -6.5394844 H 0.80728906 v 3.6796875 H 1.4635391 c 0.1640625,-0.3984375 0.5390625,-0.7851562 1.1132812,-0.7851562 0.46875,0 1.0078125,0.4101562 1.0078125,1.6054687 0,1.65234378 -1.21875,1.65234378 -1.3007812,1.65234378 -0.6679688,0 -1.2773438,-0.38671875 -1.57031254,-0.92578128 l -0.328125,0.55078128 c 0.41015625,0.57421875 1.10156254,0.984375 1.91015624,0.984375 1.1835938,0 2.1796875,-0.984375 2.1796875,-2.24999998 0,-1.2421875 -0.8554687,-2.2265625 -1.8867187,-2.2265625 -0.3984375,0 -0.7734375,0.1523437 -1.0664063,0.4101562 z m 0,0"
       style="fill:#ff0000;fill-opacity:1;fill-rule:nonzero;stroke:none"
       aria-label="5"
       transform="matrix(1.3333333,0,0,1.3333333,30.185333,63.524)" />
    <path
       id="path16"
       d="m 4.3601688,-7.0902656 c 0.058594,-0.1289063 0.058594,-0.1640625 0.058594,-0.1875 0,-0.1054688 -0.09375,-0.1992188 -0.1992187,-0.1992188 -0.140625,0 -0.1875,0.1054688 -0.2109375,0.1992188 L 0.61016875,2.1089531 c -0.046875,0.1289063 -0.046875,0.1640625 -0.046875,0.1875 0,0.1054688 0.0820313,0.1992188 0.19921875,0.1992188 0.140625,0 0.17578125,-0.1054688 0.19921875,-0.1992188 z m 0,0"
       style="fill:#000000;fill-opacity:1;fill-rule:nonzero;stroke:none"
       aria-label="/"
       transform="matrix(1.3333333,0,0,1.3333333,36.827067,63.524)" />
    <path
       id="path17"
       d="m 1.5234,-5.8949531 h 2.625 V -6.5394844 H 0.80855625 v 3.6796875 H 1.4648063 c 0.1640625,-0.3984375 0.5390625,-0.7851562 1.1132812,-0.7851562 0.46875,0 1.0078125,0.4101562 1.0078125,1.6054687 0,1.65234378 -1.21875,1.65234378 -1.3007812,1.65234378 -0.6679688,0 -1.2773438,-0.38671875 -1.57031255,-0.92578128 l -0.328125,0.55078128 c 0.41015625,0.57421875 1.10156255,0.984375 1.91015625,0.984375 1.1835938,0 2.1796875,-0.984375 2.1796875,-2.24999998 0,-1.2421875 -0.8554687,-2.2265625 -1.8867187,-2.2265625 -0.3984375,0 -0.7734375,0.1523437 -1.0664063,0.4101562 z m 0,0"
       style="fill:#159b52;fill-opacity:1;fill-rule:nonzero;stroke:none"
       aria-label="5"
       transform="matrix(1.3333333,0,0,1.3333333,43.4688,63.524)" />
    <path
       id="path18"
       d="m 11.52975,3.08902 c 23.3472,6.25586 38.63372,6.25586 58.32409,0.97972"
       style="fill:none;stroke:#000000;stroke-width:1.59404;stroke-linecap:butt;stroke-linejoin:miter;stroke-miterlimit:10;stroke-dasharray:none;stroke-opacity:1"
       transform="matrix(1.3333333,0,0,-1.3333333,27.253333,110.13067)" />
    <path
       id="path19"
       d="M 3.78581,0 -2.27148,3.02866 0,0 -2.27148,-3.02866"
       style="fill:#000000;fill-opacity:1;fill-rule:nonzero;stroke:none"
       transform="matrix(1.2879067,0.34505333,0.34505333,-1.2879067,120.39176,104.70565)" />
    <path
       id="path20"
       d="M 0.91434375,-5.1211094 C 1.2073125,-5.8125156 1.8518438,-6.1757969 2.4612188,-6.1757969 c 0.515625,0 1.0078125,0.2929688 1.0078125,0.9375 0,0.609375 -0.4101563,1.1953125 -1.0195313,1.3359375 -0.058594,0.011719 -0.082031,0.011719 -0.7851562,0.070312 v 0.609375 h 0.703125 c 1.078125,0 1.3007812,0.9257813 1.3007812,1.4179688 0,0.7734375 -0.4570312,1.41796873 -1.2304687,1.41796873 -0.6796875,0 -1.47656255,-0.3515625 -1.9101563,-1.03125003 l -0.10546875,0.59765628 c 0.72656255,0.9375 1.64062505,1.04296875 2.03906255,1.04296875 1.21875,0 2.0859375,-0.97265625 2.0859375,-2.01562503 0,-0.9023437 -0.6914063,-1.5234375 -1.3710938,-1.734375 0.7617188,-0.4101562 1.1132813,-1.0898437 1.1132813,-1.7109375 0,-0.8554687 -0.8320313,-1.5117187 -1.8164063,-1.5117187 -0.7734375,0 -1.5,0.3984375 -1.91015625,1.0898437 z m 0,0"
       style="fill:#ff0000;fill-opacity:1;fill-rule:nonzero;stroke:none"
       aria-label="3"
       transform="matrix(1.3333333,0,0,1.3333333,73.984,90.945333)" />
    <path
       id="path21"
       d="m 4.358825,-7.0898594 c 0.058594,-0.1289062 0.058594,-0.1640625 0.058594,-0.1875 0,-0.1054687 -0.09375,-0.1992187 -0.1992188,-0.1992187 -0.140625,0 -0.1875,0.1054687 -0.2109375,0.1992187 L 0.608825,2.1093594 C 0.56195,2.2382656 0.56195,2.2734219 0.56195,2.2968594 c 0,0.1054687 0.0820313,0.1992187 0.19921875,0.1992187 0.140625,0 0.17578125,-0.1054687 0.19921875,-0.1992187 z m 0,0"
       style="fill:#000000;fill-opacity:1;fill-rule:nonzero;stroke:none"
       aria-label="/"
       transform="matrix(1.3333333,0,0,1.3333333,80.625733,90.945333)" />
    <path
       id="path22"
       d="m 0.7134625,-0.23439062 c 0.3398437,0.24609375 0.7148437,0.45703125 1.3242187,0.45703125 1.3125,0 2.5078125,-1.38281253 2.5078125,-3.56250003 0,-2.7890625 -1.1835937,-3.4101562 -2.0273437,-3.4101562 -0.6914063,0 -1.1015625,0.2929687 -1.453125,0.6679687 -0.6328125,0.6679688 -0.64453125,1.3359375 -0.64453125,1.7578125 0,1.2773438 0.65624995,2.390625 1.60546875,2.390625 0.6210937,0 1.265625,-0.2929687 1.6875,-0.8203125 -0.1054688,1.59375 -0.8789063,2.36718753 -1.6640625,2.36718753 -0.3398438,0 -0.6679688,-0.0820313 -1.0195313,-0.375 z M 3.690025,-4.3359531 c 0,0.070312 0,0.1757812 0,0.2460937 0,0.8085938 -0.4804688,1.546875 -1.265625,1.546875 -0.46875,0 -0.75,-0.2226562 -0.9609375,-0.5976562 -0.2226563,-0.3867188 -0.234375,-0.75 -0.234375,-1.1835938 0,-0.4335937 0.011719,-0.84375 0.2929687,-1.2890625 0.1992188,-0.28125 0.4804688,-0.5625 0.9960938,-0.5625 0.9726562,0 1.1484375,1.359375 1.171875,1.8398438 z m 0,0"
       style="fill:#159b52;fill-opacity:1;fill-rule:nonzero;stroke:none"
       aria-label="9"
       transform="matrix(1.3333333,0,0,1.3333333,87.267467,90.945333)" />
    <path
       id="path23"
       d="M 73.51067,-3.08902 C 50.16347,-9.34488 34.87695,-9.34488 15.18657,-4.06874"
       style="fill:none;stroke:#000000;stroke-width:1.59404;stroke-linecap:butt;stroke-linejoin:miter;stroke-miterlimit:10;stroke-dasharray:none;stroke-opacity:1"
       transform="matrix(1.3333333,0,0,-1.3333333,27.253333,110.13067)" />
    <path
       id="path24"
       d="M 3.78581,0 -2.27148,3.02866 0,0 -2.27148,-3.02866"
       style="fill:#000000;fill-opacity:1;fill-rule:nonzero;stroke:none"
       transform="matrix(-1.2879067,-0.34505333,-0.34505333,1.2879067,47.502107,115.55568)" />
    <path
       id="path25"
       d="M 2.9768438,-6.7502266 H 2.777625 c -0.5859375,0.609375 -1.4179687,0.6328125 -1.88671875,0.65625 v 0.5742188 C 1.2190313,-5.5314766 1.6995,-5.5431953 2.1916875,-5.7541328 v 5.17968749 H 0.9495 V -2.265625e-4 H 4.2190313 V -0.57444531 H 2.9768438 Z m 0,0"
       style="fill:#ff0000;fill-opacity:1;fill-rule:nonzero;stroke:none"
       aria-label="1"
       transform="matrix(1.3333333,0,0,1.3333333,73.984,135.95733)" />
    <path
       id="path26"
       d="m 4.358825,-7.0900703 c 0.058594,-0.1289063 0.058594,-0.1640625 0.058594,-0.1875 0,-0.1054688 -0.09375,-0.1992188 -0.1992188,-0.1992188 -0.140625,0 -0.1875,0.1054688 -0.2109375,0.1992188 L 0.608825,2.1091484 C 0.56195,2.2380547 0.56195,2.2732109 0.56195,2.2966484 c 0,0.1054688 0.0820313,0.1992188 0.19921875,0.1992188 0.140625,0 0.17578125,-0.1054688 0.19921875,-0.1992188 z m 0,0"
       style="fill:#000000;fill-opacity:1;fill-rule:nonzero;stroke:none"
       aria-label="/"
       transform="matrix(1.3333333,0,0,1.3333333,80.625733,135.95733)" />
    <path
       id="path27"
       d="M 0.91268125,-5.1213203 C 1.20565,-5.8127266 1.8501812,-6.1760078 2.4595562,-6.1760078 c 0.515625,0 1.0078125,0.2929687 1.0078125,0.9375 0,0.609375 -0.4101562,1.1953125 -1.0195312,1.3359375 -0.058594,0.011719 -0.082031,0.011719 -0.7851563,0.070312 v 0.609375 h 0.703125 c 1.078125,0 1.3007813,0.9257812 1.3007813,1.4179687 0,0.7734375 -0.4570313,1.41796879 -1.2304688,1.41796879 -0.6796875,0 -1.47656245,-0.3515625 -1.9101562,-1.03124999 l -0.10546875,0.59765624 c 0.72656245,0.9375 1.64062495,1.04296875 2.03906245,1.04296875 1.21875,0 2.0859375,-0.97265625 2.0859375,-2.01562499 0,-0.9023438 -0.6914062,-1.5234375 -1.3710937,-1.734375 0.7617187,-0.4101563 1.1132812,-1.0898438 1.1132812,-1.7109375 0,-0.8554688 -0.8320312,-1.5117188 -1.8164062,-1.5117188 -0.7734375,0 -1.5,0.3984375 -1.91015625,1.0898438 z m 0,0"
       style="fill:#159b52;fill-opacity:1;fill-rule:nonzero;stroke:none"
       aria-label="3"
       transform="matrix(1.3333333,0,0,1.3333333,87.267467,135.95733)" />
    <path
       id="path28"
       d="M 77.87865,9.54884 51.95341,44.11621"
       style="fill:none;stroke:#000000;stroke-width:1.59404;stroke-linecap:butt;stroke-linejoin:miter;stroke-miterlimit:10;stroke-dasharray:none;stroke-opacity:1"
       transform="matrix(1.3333333,0,0,-1.3333333,27.253333,110.13067)" />
    <path
       id="path29"
       d="M 3.78581,0 -2.27148,3.02866 0,0 -2.27148,-3.02866"
       style="fill:#000000;fill-opacity:1;fill-rule:nonzero;stroke:none"
       transform="matrix(-0.79998667,-1.0666267,-1.0666267,0.79998667,96.524547,51.309053)" />
    <path
       id="path30"
       d="M 1.7333125,-1.8748125 0.50284375,-0.632625 V 1.875e-4 H 4.4755 v -0.703125 H 2.6590937 c -0.1171875,0 -0.234375,0 -0.3632812,0 H 1.2176875 C 1.5340937,-0.97246875 2.2958125,-1.7224687 2.6005,-2.0154375 2.788,-2.1912187 3.2919062,-2.6130937 3.491125,-2.788875 3.9364375,-3.2341875 4.4755,-3.7615312 4.4755,-4.617 c 0,-1.1367187 -0.8085938,-2.1328125 -2.1210938,-2.1328125 -1.1367187,0 -1.6992187,0.7734375 -1.9335937,1.6289063 0.1171875,0.1757812 0.1640625,0.234375 0.1875,0.2578125 C 0.63175,-4.8396562 0.7255,-4.71075 0.83096875,-4.570125 1.0301875,-5.3435625 1.2997187,-6.117 2.2137812,-6.117 c 0.9375,0 1.4414063,0.75 1.4414063,1.5234375 0,0.84375 -0.5625,1.4179688 -1.1601563,2.015625 z m 0,0"
       style="fill:#ff0000;fill-opacity:1;fill-rule:nonzero;stroke:none"
       aria-label="2"
       transform="matrix(1.3333333,0,0,1.3333333,117.78267,75.656)" />
    <path
       id="path31"
       d="m 4.3604109,-7.0896562 c 0.058594,-0.1289063 0.058594,-0.1640625 0.058594,-0.1875 0,-0.1054688 -0.09375,-0.1992188 -0.1992188,-0.1992188 -0.140625,0 -0.1875,0.1054688 -0.2109375,0.1992188 L 0.61041094,2.1095625 c -0.046875,0.1289063 -0.046875,0.1640625 -0.046875,0.1875 0,0.1054688 0.0820313,0.1992188 0.19921875,0.1992188 0.140625,0 0.17578125,-0.1054688 0.19921875,-0.1992188 z m 0,0"
       style="fill:#000000;fill-opacity:1;fill-rule:nonzero;stroke:none"
       aria-label="/"
       transform="matrix(1.3333333,0,0,1.3333333,124.4244,75.656)" />
    <path
       id="path32"
       d="M 0.71504844,-0.2341875 C 1.0548922,0.01190625 1.4298922,0.22284375 2.0392672,0.22284375 c 1.3125,0 2.5078125,-1.38281245 2.5078125,-3.56249995 0,-2.7890625 -1.1835938,-3.4101563 -2.0273438,-3.4101563 -0.6914062,0 -1.1015625,0.2929688 -1.453125,0.6679688 -0.63281246,0.6679687 -0.64453121,1.3359375 -0.64453121,1.7578125 0,1.2773437 0.65625001,2.390625 1.60546871,2.390625 0.6210938,0 1.265625,-0.2929688 1.6875,-0.8203125 -0.1054687,1.59375 -0.8789062,2.36718745 -1.6640625,2.36718745 -0.3398437,0 -0.6679687,-0.0820313 -1.0195312,-0.375 z M 3.6916109,-4.33575 c 0,0.070312 0,0.1757813 0,0.2460938 0,0.8085937 -0.4804687,1.546875 -1.265625,1.546875 -0.46875,0 -0.75,-0.2226563 -0.9609375,-0.5976563 -0.2226562,-0.3867187 -0.234375,-0.75 -0.234375,-1.1835937 0,-0.4335938 0.011719,-0.84375 0.2929688,-1.2890625 0.1992187,-0.28125 0.4804687,-0.5625 0.9960937,-0.5625 0.9726563,0 1.1484375,1.359375 1.171875,1.8398437 z m 0,0"
       style="fill:#159b52;fill-opacity:1;fill-rule:nonzero;stroke:none"
       aria-label="9"
       transform="matrix(1.3333333,0,0,1.3333333,131.06613,75.656)" />
    <path
       id="path33"
       d="m 54.45667,56.69362 h 57.38166"
       style="fill:none;stroke:#000000;stroke-width:1.59404;stroke-linecap:butt;stroke-linejoin:miter;stroke-miterlimit:10;stroke-dasharray:none;stroke-opacity:1"
       transform="matrix(1.3333333,0,0,-1.3333333,27.253333,110.13067)" />
    <path
       id="path34"
       d="M 3.78581,0 -2.27148,3.02866 0,0 -2.27148,-3.02866"
       style="fill:#000000;fill-opacity:1;fill-rule:nonzero;stroke:none"
       transform="matrix(1.3333333,0,0,-1.3333333,176.37111,34.539173)" />
    <path
       id="path35"
       d="m 2.3074297,-5.8233672 c 0.1171875,0 0.2460937,-0.011719 0.3632812,-0.011719 h 1.2070313 c -1.4765625,1.6171875 -2.3671875,3.609375 -2.3671875,5.94140621 h 0.84375 c 0,-2.98828121 1.4179687,-5.12109371 2.1914062,-5.98828121 v -0.65625 H 0.42071094 v 0.7148437 z m 0,0"
       style="fill:#ff0000;fill-opacity:1;fill-rule:nonzero;stroke:none"
       aria-label="7"
       transform="matrix(1.3333333,0,0,1.3333333,130.67733,25.729333)" />
    <path
       id="path36"
       d="m 4.3603094,-7.0889922 c 0.058594,-0.1289062 0.058594,-0.1640625 0.058594,-0.1875 0,-0.1054687 -0.09375,-0.1992187 -0.1992187,-0.1992187 -0.140625,0 -0.1875,0.1054687 -0.2109375,0.1992187 L 0.61030938,2.1102266 c -0.046875,0.1289062 -0.046875,0.1640625 -0.046875,0.1875 0,0.1054687 0.0820313,0.1992187 0.19921875,0.1992187 0.140625,0 0.17578125,-0.1054687 0.19921875,-0.1992187 z m 0,0"
       style="fill:#000000;fill-opacity:1;fill-rule:nonzero;stroke:none"
       aria-label="/"
       transform="matrix(1.3333333,0,0,1.3333333,137.31907,25.729333)" />
    <path
       id="path37"
       d="m 2.3086969,-5.8233672 c 0.1171875,0 0.2460937,-0.011719 0.3632812,-0.011719 h 1.2070313 c -1.4765625,1.6171875 -2.3671875,3.609375 -2.3671875,5.94140621 h 0.84375 c 0,-2.98828121 1.4179687,-5.12109371 2.1914062,-5.98828121 v -0.65625 H 0.42197812 v 0.7148437 z m 0,0"
       style="fill:#159b52;fill-opacity:1;fill-rule:nonzero;stroke:none"
       aria-label="7"
       transform="matrix(1.3333333,0,0,1.3333333,143.9608,25.729333)" />
    <path
       id="path38"
       d="M 120.39885,47.14476 94.47365,12.5774"
       style="fill:none;stroke:#000000;stroke-width:1.59404;stroke-linecap:butt;stroke-linejoin:miter;stroke-miterlimit:10;stroke-dasharray:none;stroke-opacity:1"
       transform="matrix(1.3333333,0,0,-1.3333333,27.253333,110.13067)" />
    <path
       id="path39"
       d="M 3.78581,0 -2.27148,3.02866 0,0 -2.27148,-3.02866"
       style="fill:#000000;fill-opacity:1;fill-rule:nonzero;stroke:none"
       transform="matrix(-0.79998667,1.0666267,1.0666267,0.79998667,153.2182,93.3608)" />
    <path
       id="path40"
       d="M 0.91530469,-5.1215156 C 1.2082734,-5.8129219 1.8528047,-6.1762031 2.4621797,-6.1762031 c 0.515625,0 1.0078125,0.2929687 1.0078125,0.9375 0,0.609375 -0.4101563,1.1953125 -1.0195313,1.3359375 -0.058594,0.011719 -0.082031,0.011719 -0.7851562,0.070312 v 0.609375 h 0.703125 c 1.078125,0 1.3007812,0.9257812 1.3007812,1.4179687 0,0.7734375 -0.4570312,1.41796878 -1.2304687,1.41796878 -0.6796875,0 -1.47656251,-0.3515625 -1.91015626,-1.03124998 l -0.10546875,0.59765623 c 0.72656251,0.9375 1.64062501,1.04296875 2.03906251,1.04296875 1.21875,0 2.0859375,-0.97265625 2.0859375,-2.01562498 0,-0.9023438 -0.6914063,-1.5234375 -1.3710938,-1.734375 0.7617188,-0.4101563 1.1132813,-1.0898438 1.1132813,-1.7109375 0,-0.8554688 -0.8320313,-1.5117188 -1.8164063,-1.5117188 -0.7734375,0 -1.49999996,0.3984375 -1.91015621,1.0898438 z m 0,0"
       style="fill:#ff0000;fill-opacity:1;fill-rule:nonzero;stroke:none"
       aria-label="3"
       transform="matrix(1.3333333,0,0,1.3333333,154.596,63.524)" />
    <path
       id="path41"
       d="m 4.3597859,-7.0902656 c 0.058594,-0.1289063 0.058594,-0.1640625 0.058594,-0.1875 0,-0.1054688 -0.09375,-0.1992188 -0.1992188,-0.1992188 -0.140625,0 -0.1875,0.1054688 -0.2109375,0.1992188 L 0.60978594,2.1089531 c -0.046875,0.1289063 -0.046875,0.1640625 -0.046875,0.1875 0,0.1054688 0.0820313,0.1992188 0.19921875,0.1992188 0.140625,0 0.17578125,-0.1054688 0.19921875,-0.1992188 z m 0,0"
       style="fill:#000000;fill-opacity:1;fill-rule:nonzero;stroke:none"
       aria-label="/"
       transform="matrix(1.3333333,0,0,1.3333333,161.23773,63.524)" />
    <path
       id="path42"
       d="m 4.1362984,-6.5512031 c -0.515625,-0.1992188 -0.9140625,-0.1992188 -1.0546875,-0.1992188 -1.40625,0 -2.66015621,1.40625 -2.66015621,3.5390625 0,2.82421878 1.23046871,3.43359378 2.07421871,3.43359378 0.5976563,0 1.03125,-0.234375 1.4179688,-0.6796875 0.4453125,-0.50390625 0.6328125,-0.97265628 0.6328125,-1.75781248 0,-1.2773438 -0.65625,-2.390625 -1.6054688,-2.390625 -0.3164062,0 -1.078125,0.082031 -1.6875,0.8320312 0.1289063,-1.6054687 0.9140625,-2.4023437 1.8398438,-2.4023437 0.375,0 0.6914062,0.070312 1.0429687,0.2109375 z m -2.8710937,4.3710937 c 0,-0.140625 0,-0.1640625 0.011719,-0.28125 0,-0.7382812 0.4453125,-1.5351562 1.2773438,-1.5351562 0.46875,0 0.75,0.2460937 0.9492187,0.6210937 0.2109375,0.3632813 0.234375,0.7148438 0.234375,1.1601563 0,0.3398437 0,0.796875 -0.2460937,1.2070312 -0.1640625,0.28125003 -0.421875,0.62109378 -0.9960938,0.62109378 -1.0546875,0 -1.1953125,-1.46484378 -1.230469,-1.79296878 z m 0,0"
       style="fill:#159b52;fill-opacity:1;fill-rule:nonzero;stroke:none"
       aria-label="6"
       transform="matrix(1.3333333,0,0,1.3333333,167.87947,63.524)" />
    <path
       id="path43"
       d="m 96.9769,0 h 57.38165"
       style="fill:none;stroke:#000000;stroke-width:1.59404;stroke-linecap:butt;stroke-linejoin:miter;stroke-miterlimit:10;stroke-dasharray:none;stroke-opacity:1"
       transform="matrix(1.3333333,0,0,-1.3333333,27.253333,110.13067)" />
    <path
       id="path44"
       d="M 3.78581,0 -2.27148,3.02866 0,0 -2.27148,-3.02866"
       style="fill:#000000;fill-opacity:1;fill-rule:nonzero;stroke:none"
       transform="matrix(1.3333333,0,0,-1.3333333,233.06473,110.13067)" />
    <path
       id="path45"
       d="M 0.91538281,-5.1215703 C 1.2083516,-5.8129766 1.8528828,-6.1762578 2.4622578,-6.1762578 c 0.515625,0 1.0078125,0.2929687 1.0078125,0.9375 0,0.609375 -0.4101562,1.1953125 -1.0195312,1.3359375 -0.058594,0.011719 -0.082031,0.011719 -0.7851563,0.070312 v 0.609375 h 0.703125 c 1.078125,0 1.3007813,0.9257812 1.3007813,1.4179687 0,0.7734375 -0.4570313,1.41796879 -1.2304688,1.41796879 -0.6796875,0 -1.47656249,-0.3515625 -1.91015624,-1.03124999 l -0.10546875,0.59765624 c 0.72656249,0.9375 1.64062499,1.04296875 2.03906249,1.04296875 1.21875,0 2.0859375,-0.97265625 2.0859375,-2.01562499 0,-0.9023438 -0.6914062,-1.5234375 -1.3710937,-1.734375 0.7617187,-0.4101563 1.1132812,-1.0898438 1.1132812,-1.7109375 0,-0.8554688 -0.8320312,-1.5117188 -1.8164062,-1.5117188 -0.7734375,0 -1.50000004,0.3984375 -1.91015629,1.0898438 z m 0,0"
       style="fill:#ff0000;fill-opacity:1;fill-rule:nonzero;stroke:none"
       aria-label="3"
       transform="matrix(1.3333333,0,0,1.3333333,187.36933,125.58267)" />
    <path
       id="path46"
       d="m 4.3598641,-7.0903203 c 0.058594,-0.1289063 0.058594,-0.1640625 0.058594,-0.1875 0,-0.1054688 -0.09375,-0.1992188 -0.1992187,-0.1992188 -0.140625,0 -0.1875,0.1054688 -0.2109375,0.1992188 L 0.60986406,2.1088984 c -0.046875,0.1289063 -0.046875,0.1640625 -0.046875,0.1875 0,0.1054688 0.0820313,0.1992188 0.19921875,0.1992188 0.140625,0 0.17578125,-0.1054688 0.19921875,-0.1992188 z m 0,0"
       style="fill:#000000;fill-opacity:1;fill-rule:nonzero;stroke:none"
       aria-label="/"
       transform="matrix(1.3333333,0,0,1.3333333,194.01107,125.58267)" />
    <path
       id="path47"
       d="m 2.3082516,-5.8246953 c 0.1171875,0 0.2460937,-0.011719 0.3632812,-0.011719 h 1.2070313 c -1.4765625,1.6171875 -2.3671875,3.609375 -2.3671875,5.94140629 h 0.84375 c 0,-2.98828129 1.4179687,-5.12109379 2.1914062,-5.98828129 v -0.65625 H 0.42153281 v 0.7148438 z m 0,0"
       style="fill:#159b52;fill-opacity:1;fill-rule:nonzero;stroke:none"
       aria-label="7"
       transform="matrix(1.3333333,0,0,1.3333333,200.6528,125.58267)" />
    <path
       id="path48"
       d="m 160.69193,7.36977 c -14.7081,11.5449 -21.7202,20.89447 -27.27517,34.73349"
       style="fill:none;stroke:#000000;stroke-width:1.59404;stroke-linecap:butt;stroke-linejoin:miter;stroke-miterlimit:10;stroke-dasharray:none;stroke-opacity:1"
       transform="matrix(1.3333333,0,0,-1.3333333,27.253333,110.13067)" />
    <path
       id="path49"
       d="M 3.78581,0 -2.27148,3.02866 0,0 -2.27148,-3.02866"
       style="fill:#000000;fill-opacity:1;fill-rule:nonzero;stroke:none"
       transform="matrix(-0.49666667,-1.2373333,-1.2373333,0.49666667,205.14237,53.993013)" />
    <path
       id="path50"
       d="M 2.9755391,-6.7495625 H 2.7763203 c -0.5859375,0.609375 -1.4179687,0.6328125 -1.88671874,0.65625 v 0.5742188 c 0.32812504,-0.011719 0.80859374,-0.023437 1.30078124,-0.234375 v 5.17968745 H 0.94819531 V 4.375e-4 H 4.2177266 V -0.57378125 H 2.9755391 Z m 0,0"
       style="fill:#ff0000;fill-opacity:1;fill-rule:nonzero;stroke:none"
       aria-label="1"
       transform="matrix(1.3333333,0,0,1.3333333,188.66933,81.030667)" />
    <path
       id="path51"
       d="m 4.36045,-7.0894062 c 0.058594,-0.1289063 0.058594,-0.1640625 0.058594,-0.1875 0,-0.1054688 -0.09375,-0.1992188 -0.1992187,-0.1992188 -0.140625,0 -0.1875,0.1054688 -0.2109375,0.1992188 L 0.61045,2.1098125 c -0.046875,0.1289063 -0.046875,0.1640625 -0.046875,0.1875 0,0.1054688 0.0820313,0.1992188 0.19921875,0.1992188 0.140625,0 0.17578125,-0.1054688 0.19921875,-0.1992188 z m 0,0"
       style="fill:#000000;fill-opacity:1;fill-rule:nonzero;stroke:none"
       aria-label="/"
       transform="matrix(1.3333333,0,0,1.3333333,195.31107,81.030667)" />
    <path
       id="path52"
       d="m 1.5236812,-5.8940937 h 2.625 V -6.538625 H 0.8088375 v 3.6796875 h 0.65625 C 1.62915,-3.257375 2.00415,-3.6440937 2.5783687,-3.6440937 c 0.46875,0 1.0078125,0.4101562 1.0078125,1.6054687 0,1.65234375 -1.21875,1.65234375 -1.3007812,1.65234375 -0.6679688,0 -1.2773438,-0.38671875 -1.5703125,-0.92578125 l -0.328125,0.55078125 c 0.41015625,0.57421875 1.1015625,0.984375 1.9101562,0.984375 1.1835938,0 2.1796875,-0.984375 2.1796875,-2.24999995 0,-1.2421875 -0.8554687,-2.2265625 -1.8867187,-2.2265625 -0.3984375,0 -0.7734375,0.1523437 -1.0664063,0.4101562 z m 0,0"
       style="fill:#159b52;fill-opacity:1;fill-rule:nonzero;stroke:none"
       aria-label="5"
       transform="matrix(1.3333333,0,0,1.3333333,201.9528,81.030667)" />
    <path
       id="path53"
       d="m 136.94955,49.32385 c 14.7081,-11.54492 21.7202,-20.89448 27.27517,-34.7335"
       style="fill:none;stroke:#000000;stroke-width:1.59404;stroke-linecap:butt;stroke-linejoin:miter;stroke-miterlimit:10;stroke-dasharray:none;stroke-opacity:1"
       transform="matrix(1.3333333,0,0,-1.3333333,27.253333,110.13067)" />
    <path
       id="path54"
       d="M 3.78581,0 -2.27148,3.02866 0,0 -2.27148,-3.02866"
       style="fill:#000000;fill-opacity:1;fill-rule:nonzero;stroke:none"
       transform="matrix(0.49666667,1.2373333,1.2373333,-0.49666667,246.2196,90.676853)" />
    <path
       id="path55"
       d="m 3.7030781,-1.6992812 h 0.984375 v -0.609375 H 3.7030781 V -6.539125 H 2.8007344 l -2.51953128,4.2304688 v 0.609375 H 2.9179219 V -6.25e-5 h 0.7851562 z m -2.6484375,-0.609375 c 0.515625,-0.8554688 1.921875,-3.2226563 1.921875,-3.7851563 v 3.7851563 z m 0,0"
       style="fill:#ff0000;fill-opacity:1;fill-rule:nonzero;stroke:none"
       aria-label="4"
       transform="matrix(1.3333333,0,0,1.3333333,238.336,70.281333)" />
    <path
       id="path56"
       d="m 4.3584969,-7.0899062 c 0.058594,-0.1289063 0.058594,-0.1640625 0.058594,-0.1875 0,-0.1054688 -0.09375,-0.1992188 -0.1992187,-0.1992188 -0.140625,0 -0.1875,0.1054688 -0.2109375,0.1992188 L 0.60849688,2.1093125 c -0.046875,0.1289063 -0.046875,0.1640625 -0.046875,0.1875 0,0.1054688 0.0820313,0.1992188 0.19921875,0.1992188 0.140625,0 0.17578125,-0.1054688 0.19921875,-0.1992188 z m 0,0"
       style="fill:#000000;fill-opacity:1;fill-rule:nonzero;stroke:none"
       aria-label="/"
       transform="matrix(1.3333333,0,0,1.3333333,244.97773,70.281333)" />
    <path
       id="path57"
       d="m 3.1887203,-3.539125 c 0.890625,-0.28125 1.2304688,-0.9492187 1.2304688,-1.4765625 0,-0.9257812 -0.8554688,-1.734375 -1.921875,-1.734375 -1.125,0 -1.93359379,0.8203125 -1.93359379,1.734375 0,0.5273438 0.33984375,1.1953125 1.21874999,1.4765625 -0.7148437,0.2460938 -1.35937499,0.8789063 -1.35937499,1.7460938 0,1.0898437 0.91406249,2.01562495 2.06249999,2.01562495 1.1835938,0 2.0625,-0.9609375 2.0625,-2.01562495 0,-0.9023438 -0.6914062,-1.5117188 -1.359375,-1.7460938 z M 2.4973141,-3.8320937 c -0.7734375,0 -1.2421875,-0.4921875 -1.2421875,-1.1835938 0,-0.6796875 0.4921875,-1.1601562 1.2304687,-1.1601562 0.7851563,0 1.2304688,0.515625 1.2304688,1.1601562 0,0.7265625 -0.5039063,1.1835938 -1.21875,1.1835938 z m 0,3.44531245 c -0.6914063,0 -1.265625,-0.48046875 -1.265625,-1.41796875 0,-1.0429687 0.7148437,-1.4179687 1.2539062,-1.4179687 0.5742188,0 1.265625,0.3984375 1.265625,1.4179687 0,0.97265625 -0.6210937,1.41796875 -1.2539062,1.41796875 z m 0,0"
       style="fill:#159b52;fill-opacity:1;fill-rule:nonzero;stroke:none"
       aria-label="8"
       transform="matrix(1.3333333,0,0,1.3333333,251.61947,70.281333)" />
    <path
       id="path58"
       d="m 139.4971,56.69362 h 57.38167"
       style="fill:none;stroke:#000000;stroke-width:1.59404;stroke-linecap:butt;stroke-linejoin:miter;stroke-miterlimit:10;stroke-dasharray:none;stroke-opacity:1"
       transform="matrix(1.3333333,0,0,-1.3333333,27.253333,110.13067)" />
    <path
       id="path59"
       d="M 3.78581,0 -2.27148,3.02866 0,0 -2.27148,-3.02866"
       style="fill:#000000;fill-opacity:1;fill-rule:nonzero;stroke:none"
       transform="matrix(1.3333333,0,0,-1.3333333,289.75836,34.539173)" />
    <path
       id="path60"
       d="M 2.9764375,-6.7491484 H 2.7772188 C 2.1912813,-6.1397734 1.35925,-6.1163359 0.8905,-6.0928984 v 0.5742187 c 0.328125,-0.011719 0.8085938,-0.023437 1.3007813,-0.234375 v 5.17968751 H 0.94909375 V 8.515625e-4 H 4.218625 V -0.57336719 H 2.9764375 Z m 0,0"
       style="fill:#ff0000;fill-opacity:1;fill-rule:nonzero;stroke:none"
       aria-label="1"
       transform="matrix(1.3333333,0,0,1.3333333,244.06267,25.729333)" />
    <path
       id="path61"
       d="m 4.3584187,-7.0889922 c 0.058594,-0.1289062 0.058594,-0.1640625 0.058594,-0.1875 0,-0.1054687 -0.09375,-0.1992187 -0.1992188,-0.1992187 -0.140625,0 -0.1875,0.1054687 -0.2109375,0.1992187 L 0.60841875,2.1102266 c -0.046875,0.1289062 -0.046875,0.1640625 -0.046875,0.1875 0,0.1054687 0.0820313,0.1992187 0.19921875,0.1992187 0.140625,0 0.17578125,-0.1054687 0.19921875,-0.1992187 z m 0,0"
       style="fill:#000000;fill-opacity:1;fill-rule:nonzero;stroke:none"
       aria-label="/"
       transform="matrix(1.3333333,0,0,1.3333333,250.7044,25.729333)" />
    <path
       id="path62"
       d="m 1.5245797,-5.8936797 h 2.625 V -6.5382109 H 0.80973594 v 3.6796875 H 1.4659859 c 0.1640625,-0.3984375 0.5390625,-0.7851563 1.1132813,-0.7851563 0.46875,0 1.0078125,0.4101563 1.0078125,1.6054688 0,1.65234371 -1.21875,1.65234371 -1.3007813,1.65234371 -0.6679687,0 -1.2773437,-0.38671875 -1.57031246,-0.92578121 l -0.328125,0.55078121 c 0.41015625,0.57421875 1.10156246,0.984375 1.91015626,0.984375 1.1835937,0 2.1796875,-0.984375 2.1796875,-2.25000001 0,-1.2421875 -0.8554688,-2.2265625 -1.8867188,-2.2265625 -0.3984375,0 -0.7734375,0.1523438 -1.0664062,0.4101563 z m 0,0"
       style="fill:#159b52;fill-opacity:1;fill-rule:nonzero;stroke:none"
       aria-label="5"
       transform="matrix(1.3333333,0,0,1.3333333,257.34613,25.729333)" />
    <path
       id="path63"
       d="m 177.24263,9.54884 25.9252,34.56737"
       style="fill:none;stroke:#000000;stroke-width:1.59404;stroke-linecap:butt;stroke-linejoin:miter;stroke-miterlimit:10;stroke-dasharray:none;stroke-opacity:1"
       transform="matrix(1.3333333,0,0,-1.3333333,27.253333,110.13067)" />
    <path
       id="path64"
       d="M 3.78581,0 -2.27148,3.02866 0,0 -2.27148,-3.02866"
       style="fill:#000000;fill-opacity:1;fill-rule:nonzero;stroke:none"
       transform="matrix(0.79998667,-1.0666267,-1.0666267,-0.79998667,298.14377,51.309053)" />
    <path
       id="path65"
       d="m 4.1381797,-6.5499844 c -0.515625,-0.1992187 -0.9140625,-0.1992187 -1.0546875,-0.1992187 -1.40625,0 -2.66015626,1.40625 -2.66015626,3.5390625 0,2.82421873 1.23046876,3.43359373 2.07421876,3.43359373 0.5976562,0 1.03125,-0.234375 1.4179687,-0.6796875 0.4453125,-0.50390625 0.6328125,-0.97265623 0.6328125,-1.75781253 0,-1.2773437 -0.65625,-2.390625 -1.6054687,-2.390625 -0.3164063,0 -1.078125,0.082031 -1.6875,0.8320313 0.1289062,-1.6054688 0.9140625,-2.4023438 1.8398437,-2.4023438 0.375,0 0.6914063,0.070312 1.0429688,0.2109375 z m -2.8710938,4.3710938 c 0,-0.140625 0,-0.1640625 0.011719,-0.28125 0,-0.7382813 0.4453125,-1.5351563 1.2773437,-1.5351563 0.46875,0 0.75,0.2460938 0.9492188,0.6210938 0.2109375,0.3632812 0.234375,0.7148437 0.234375,1.1601562 0,0.3398438 0,0.796875 -0.2460938,1.2070313 -0.1640625,0.28124998 -0.421875,0.62109373 -0.9960937,0.62109373 -1.0546875,0 -1.1953125,-1.46484373 -1.230469,-1.79296873 z m 0,0"
       style="fill:#ff0000;fill-opacity:1;fill-rule:nonzero;stroke:none"
       aria-label="6"
       transform="matrix(1.3333333,0,0,1.3333333,287.86133,87.788)" />
    <path
       id="path66"
       d="m 4.3600047,-7.0890469 c 0.058594,-0.1289062 0.058594,-0.1640625 0.058594,-0.1875 0,-0.1054687 -0.09375,-0.1992187 -0.1992187,-0.1992187 -0.140625,0 -0.1875,0.1054687 -0.2109375,0.1992187 L 0.61000469,2.1101719 c -0.046875,0.1289062 -0.046875,0.1640625 -0.046875,0.1875 0,0.1054687 0.0820313,0.1992187 0.19921875,0.1992187 0.140625,0 0.17578125,-0.1054687 0.19921875,-0.1992187 z m 0,0"
       style="fill:#000000;fill-opacity:1;fill-rule:nonzero;stroke:none"
       aria-label="/"
       transform="matrix(1.3333333,0,0,1.3333333,294.50307,87.788)" />
    <path
       id="path67"
       d="m 3.1872984,-3.5382656 c 0.890625,-0.28125 1.2304688,-0.9492188 1.2304688,-1.4765625 0,-0.9257813 -0.8554688,-1.734375 -1.921875,-1.734375 -1.125,0 -1.93359376,0.8203125 -1.93359376,1.734375 0,0.5273437 0.33984375,1.1953125 1.21874996,1.4765625 -0.7148437,0.2460937 -1.35937496,0.8789062 -1.35937496,1.7460937 0,1.08984378 0.91406246,2.01562503 2.06249996,2.01562503 1.1835938,0 2.0625,-0.9609375 2.0625,-2.01562503 0,-0.9023437 -0.6914062,-1.5117187 -1.359375,-1.7460937 z M 2.4958922,-3.8312344 c -0.7734375,0 -1.2421875,-0.4921875 -1.2421875,-1.1835937 0,-0.6796875 0.4921875,-1.1601563 1.2304687,-1.1601563 0.7851563,0 1.2304688,0.515625 1.2304688,1.1601563 0,0.7265625 -0.5039063,1.1835937 -1.21875,1.1835937 z m 0,3.44531253 c -0.6914063,0 -1.265625,-0.48046875 -1.265625,-1.41796873 0,-1.0429688 0.7148437,-1.4179688 1.2539062,-1.4179688 0.5742188,0 1.265625,0.3984375 1.265625,1.4179688 0,0.97265623 -0.6210937,1.41796873 -1.2539062,1.41796873 z m 0,0"
       style="fill:#159b52;fill-opacity:1;fill-rule:nonzero;stroke:none"
       aria-label="8"
       transform="matrix(1.3333333,0,0,1.3333333,301.1448,87.788)" />
  </g>
</svg>

