<svg
   version="1.1"
   id="svg1"
   width="337.97198"
   height="166.39999"
   viewBox="0 0 337.97198 166.39999"
   sodipodi:docname="reductions.tmp.pdf"
   xmlns:inkscape="http://www.inkscape.org/namespaces/inkscape"
   xmlns:sodipodi="http://sodipodi.sourceforge.net/DTD/sodipodi-0.dtd"
   xmlns="http://www.w3.org/2000/svg"
   xmlns:svg="http://www.w3.org/2000/svg">
  <defs
     id="defs1" />
  <sodipodi:namedview
     id="namedview1"
     pagecolor="#ffffff"
     bordercolor="#000000"
     borderopacity="0.25"
     inkscape:showpageshadow="2"
     inkscape:pageopacity="0.0"
     inkscape:pagecheckerboard="0"
     inkscape:deskcolor="#d1d1d1">
    <inkscape:page
       x="0"
       y="0"
       inkscape:label="1"
       id="page1"
       width="337.97198"
       height="166.39999"
       margin="0"
       bleed="0" />
  </sodipodi:namedview>
  <g
     id="g1"
     inkscape:groupmode="layer"
     inkscape:label="1">
    <path
       id="path1"
       d="m 53.85892,56.69362 c 0,6.26227 -5.07645,11.33871 -11.33872,11.33871 -6.26227,0 -11.33871,-5.07644 -11.33871,-11.33871 0,-6.26228 5.07644,-11.33872 11.33871,-11.33872 6.26227,0 11.33872,5.07644 11.33872,11.33872 z"
       style="fill:#5cb4e8;fill-opacity:1;fill-rule:nonzero;stroke:#000000;stroke-width:1.19553;stroke-linecap:butt;stroke-linejoin:miter;stroke-miterlimit:10;stroke-dasharray:none;stroke-opacity:1"
       transform="matrix(1.3333333,0,0,-1.3333333,27.253333,115.928)" />
    <path
       id="path2"
       d="m 3.9720859,-2.8830156 c 0,-1.0078125 -0.7265625,-1.7109375 -1.640625,-1.7109375 -0.6445312,0 -1.1015625,0.1640625 -1.57031246,0.4335937 l 0.0703125,0.65625 c 0.51562496,-0.375 1.00781246,-0.5039062 1.49999996,-0.5039062 0.46875,0 0.8671875,0.3984375 0.8671875,1.1367187 v 0.4335938 c -1.5,0.011719 -2.76562496,0.4335937 -2.76562496,1.3125 0,0.42187498 0.26953125,1.23046873 1.13671876,1.23046873 0.140625,0 1.078125,-0.01171875 1.6523437,-0.46875 v 0.363281245 h 0.75 z m -0.7734375,1.5703125 c 0,0.1875 0,0.43359373 -0.3398437,0.62109373 -0.2929688,0.1875 -0.6679688,0.1875 -0.7734375,0.1875 -0.4804688,0 -0.9257813,-0.22265625 -0.9257813,-0.64453123 0,-0.6914063 1.6054688,-0.7617188 2.0390625,-0.7851563 z m 0,0"
       style="fill:#000000;fill-opacity:1;fill-rule:nonzero;stroke:none"
       aria-label="a"
       transform="matrix(1.3333333,0,0,1.3333333,80.754667,43.289333)" />
    <path
       id="path3"
       d="m 138.89934,56.69362 c 0,6.26227 -5.07644,11.33871 -11.33872,11.33871 -6.26226,0 -11.33871,-5.07644 -11.33871,-11.33871 0,-6.26228 5.07645,-11.33872 11.33871,-11.33872 6.26228,0 11.33872,5.07644 11.33872,11.33872 z"
       style="fill:#5cb4e8;fill-opacity:1;fill-rule:nonzero;stroke:#000000;stroke-width:1.19553;stroke-linecap:butt;stroke-linejoin:miter;stroke-miterlimit:10;stroke-dasharray:none;stroke-opacity:1"
       transform="matrix(1.3333333,0,0,-1.3333333,27.253333,115.928)" />
    <path
       id="path4"
       d="M 1.5593516,-6.9151484 H 0.82107031 v 6.91406246 H 1.5945078 v -0.45703125 c 0.234375,0.22265625 0.6679688,0.5625 1.3359375,0.5625 0.9960938,0 1.8515625,-0.99609375 1.8515625,-2.33203121 0,-1.2304688 -0.6796875,-2.3085938 -1.6171875,-2.3085938 -0.3867187,0 -1.0078125,0.1054688 -1.6054687,0.5859375 z m 0.035156,3.5742187 c 0.1640625,-0.234375 0.515625,-0.5859375 1.0664063,-0.5859375 0.5859375,0 1.3476562,0.4335938 1.3476562,1.6992188 0,1.30078121 -0.84375,1.72265621 -1.453125,1.72265621 -0.3867187,0 -0.7148437,-0.17578125 -0.9609375,-0.63281251 z m 0,0"
       style="fill:#000000;fill-opacity:1;fill-rule:nonzero;stroke:none"
       aria-label="b"
       transform="matrix(1.3333333,0,0,1.3333333,193.90133,44.950667)" />
    <path
       id="path5"
       d="m 223.93977,56.69362 c 0,6.26227 -5.07644,11.33871 -11.33871,11.33871 -6.26227,0 -11.33872,-5.07644 -11.33872,-11.33871 0,-6.26228 5.07645,-11.33872 11.33872,-11.33872 6.26227,0 11.33871,5.07644 11.33871,11.33872 z"
       style="fill:#2e3192;fill-opacity:1;fill-rule:nonzero;stroke:#000000;stroke-width:1.19553;stroke-linecap:butt;stroke-linejoin:miter;stroke-miterlimit:10;stroke-dasharray:none;stroke-opacity:1"
       transform="matrix(1.3333333,0,0,-1.3333333,27.253333,115.928)" />
    <path
       id="path6"
       d="m 1.7463281,-3.8441406 h 1.40625 v -0.5742188 h -1.40625 v -1.265625 H 1.0549219 v 1.265625 H 0.18773437 v 0.5742188 H 1.0314844 v 2.6601562 c 0,0.59765627 0.1289062,1.28906252 0.8203125,1.28906252 0.703125,0 1.2070312,-0.24609375 1.453125,-0.375 l -0.1523438,-0.5859375 c -0.2578125,0.2109375 -0.5859375,0.328125 -0.9023437,0.328125 -0.3632813,0 -0.5039063,-0.3046875 -0.5039063,-0.83203122 z m 0,0"
       style="fill:#ffffff;fill-opacity:1;fill-rule:nonzero;stroke:none"
       aria-label="t"
       transform="matrix(1.3333333,0,0,1.3333333,308.32,44.133333)" />
    <path
       id="path7"
       d="M 11.33871,0 C 11.33871,6.26227 6.26227,11.33871 0,11.33871 -6.26227,11.33871 -11.33871,6.26227 -11.33871,0 c 0,-6.26227 5.07644,-11.33871 11.33871,-11.33871 6.26227,0 11.33871,5.07644 11.33871,11.33871 z"
       style="fill:#8d198f;fill-opacity:1;fill-rule:nonzero;stroke:#000000;stroke-width:1.19553;stroke-linecap:butt;stroke-linejoin:miter;stroke-miterlimit:10;stroke-dasharray:none;stroke-opacity:1"
       transform="matrix(1.3333333,0,0,-1.3333333,27.253333,115.928)" />
    <path
       id="path8"
       d="m 3.4211484,-4.2781641 c -0.5273437,-0.234375 -0.9257812,-0.3164062 -1.4414062,-0.3164062 -0.2460938,0 -1.65234376,0 -1.65234376,1.3007812 0,0.4921875 0.29296875,0.8085938 0.5390625,0.9960938 0.30468746,0.2226562 0.52734376,0.2695312 1.07812496,0.375 0.3515625,0.070312 0.9375,0.1875 0.9375,0.7148437 0,0.69140629 -0.7851562,0.69140629 -0.9375,0.69140629 -0.8085937,0 -1.37109371,-0.375 -1.54687496,-0.49218749 l -0.1171875,0.67968749 c 0.31640625,0.1640625 0.86718746,0.43359375 1.67578126,0.43359375 0.1757812,0 0.7265625,0 1.1484375,-0.31640625 0.3164062,-0.234375 0.4804687,-0.6328125 0.4804687,-1.06640629 0,-0.5507812 -0.3632812,-0.8789062 -0.3867187,-0.9140625 -0.3867188,-0.3515625 -0.65625,-0.4101562 -1.1601563,-0.5039062 -0.5390625,-0.1054688 -1.0078125,-0.1992188 -1.0078125,-0.6914063 0,-0.6210937 0.7265625,-0.6210937 0.8554688,-0.6210937 0.3164062,0 0.84375,0.046875 1.40625,0.3867187 z m 0,0"
       style="fill:#ffffff;fill-opacity:1;fill-rule:nonzero;stroke:none"
       aria-label="s"
       transform="matrix(1.3333333,0,0,1.3333333,24.708,118.88)" />
    <path
       id="path9"
       d="m 96.37914,0 c 0,6.26227 -5.07645,11.33871 -11.33872,11.33871 C 78.77815,11.33871 73.7017,6.26227 73.7017,0 c 0,-6.26227 5.07645,-11.33871 11.33872,-11.33871 6.26227,0 11.33872,5.07644 11.33872,11.33871 z"
       style="fill:#5cb4e8;fill-opacity:1;fill-rule:nonzero;stroke:#000000;stroke-width:1.19553;stroke-linecap:butt;stroke-linejoin:miter;stroke-miterlimit:10;stroke-dasharray:none;stroke-opacity:1"
       transform="matrix(1.3333333,0,0,-1.3333333,27.253333,115.928)" />
    <path
       id="path10"
       d="m 4.0894688,-4.1609766 c -0.5976563,-0.3398437 -0.9375,-0.4335937 -1.5351563,-0.4335937 -1.3945312,0 -2.19140625,1.2070312 -2.19140625,2.3789062 0,1.24218754 0.90234375,2.32031254 2.14453125,2.32031254 0.5390625,0 1.0898438,-0.140625 1.6289063,-0.50390625 L 4.07775,-1.0672266 c -0.515625,0.39843754 -1.0546875,0.53906254 -1.5585937,0.53906254 -0.8203125,0 -1.3828125,-0.71484374 -1.3828125,-1.69921874 0,-0.7734375 0.3632812,-1.7226563 1.4179687,-1.7226563 0.5273438,0 0.8671875,0.070312 1.40625,0.4335938 z m 0,0"
       style="fill:#000000;fill-opacity:1;fill-rule:nonzero;stroke:none"
       aria-label="c"
       transform="matrix(1.3333333,0,0,1.3333333,137.688,118.88)" />
    <path
       id="path11"
       d="m 181.41957,0 c 0,6.26227 -5.07645,11.33871 -11.33871,11.33871 -6.26229,0 -11.33872,-5.07644 -11.33872,-11.33871 0,-6.26227 5.07643,-11.33871 11.33872,-11.33871 6.26226,0 11.33871,5.07644 11.33871,11.33871 z"
       style="fill:#5cb4e8;fill-opacity:1;fill-rule:nonzero;stroke:#000000;stroke-width:1.19553;stroke-linecap:butt;stroke-linejoin:miter;stroke-miterlimit:10;stroke-dasharray:none;stroke-opacity:1"
       transform="matrix(1.3333333,0,0,-1.3333333,27.253333,115.928)" />
    <path
       id="path12"
       d="m 4.3245313,-6.9147656 h -0.75 v 2.9296875 c -0.5273438,-0.4335938 -1.078125,-0.5507813 -1.453125,-0.5507813 -0.984375,0 -1.75781255,1.0429688 -1.75781255,2.3203125 0,1.31250003 0.76171875,2.32031253 1.71093755,2.32031253 0.328125,0 0.9140625,-0.08203125 1.4765625,-0.62109375 v 0.515624995 h 0.7734375 z m -0.7734375,5.53125 c 0,0.140625 -0.011719,0.3164062 -0.328125,0.60937498 -0.234375,0.19921875 -0.4804688,0.26953125 -0.7382813,0.26953125 -0.6210937,0 -1.3476562,-0.45703125 -1.3476562,-1.69921873 0,-1.3125 0.8554687,-1.7226563 1.4414062,-1.7226563 0.4453125,0 0.75,0.234375 0.9726563,0.5507813 z m 0,0"
       style="fill:#000000;fill-opacity:1;fill-rule:nonzero;stroke:none"
       aria-label="d"
       transform="matrix(1.3333333,0,0,1.3333333,250.59333,120.54)" />
    <path
       id="path13"
       d="M 4.44594,11.07715 C 11.41109,28.42937 18.42317,37.77893 30.1534,46.98648"
       style="fill:none;stroke:#ff8000;stroke-width:1.59404;stroke-linecap:butt;stroke-linejoin:miter;stroke-miterlimit:10;stroke-dasharray:none;stroke-opacity:0"
       transform="matrix(1.3333333,0,0,-1.3333333,27.253333,115.928)" />
    <path
       id="path14"
       d="M 3.78581,0 -2.27148,3.02866 0,0 -2.27148,-3.02866"
       style="fill:#ff8000;fill-opacity:0;fill-rule:nonzero;stroke:none"
       transform="matrix(1.0487867,-0.8232,-0.8232,-1.0487867,67.457867,53.279373)" />
    <path
       id="path15"
       d="M 10.33713,5.96805 C 32.07521,18.5185 52.96521,18.5185 71.42473,7.86089"
       style="fill:none;stroke:#ff8000;stroke-width:1.59404;stroke-linecap:butt;stroke-linejoin:miter;stroke-miterlimit:10;stroke-dasharray:none;stroke-opacity:1"
       transform="matrix(1.3333333,0,0,-1.3333333,27.253333,115.928)" />
    <path
       id="path16"
       d="M 3.78581,0 -2.27148,3.02866 0,0 -2.27148,-3.02866"
       style="fill:#ff8000;fill-opacity:1;fill-rule:nonzero;stroke:none"
       transform="matrix(1.15468,0.66664,0.66664,-1.15468,122.48631,105.44681)" />
    <path
       id="path17"
       d="m 4.1364688,-6.5515156 c -0.515625,-0.1992188 -0.9140625,-0.1992188 -1.0546875,-0.1992188 -1.40625,0 -2.6601563,1.40625 -2.6601563,3.5390625 0,2.82421878 1.2304688,3.43359378 2.0742188,3.43359378 0.5976562,0 1.03125,-0.234375 1.4179687,-0.6796875 C 4.359125,-0.96167187 4.546625,-1.4304219 4.546625,-2.2155781 c 0,-1.2773438 -0.65625,-2.390625 -1.6054687,-2.390625 -0.3164063,0 -1.078125,0.082031 -1.6875,0.8320312 0.1289062,-1.6054687 0.9140625,-2.4023437 1.8398437,-2.4023437 0.375,0 0.6914063,0.070312 1.0429688,0.2109375 z M 1.265375,-2.1804219 c 0,-0.140625 0,-0.1640625 0.011719,-0.28125 0,-0.7382812 0.4453125,-1.5351562 1.2773437,-1.5351562 0.46875,0 0.75,0.2460937 0.9492188,0.6210937 0.2109375,0.3632813 0.234375,0.7148438 0.234375,1.1601563 0,0.3398437 0,0.796875 -0.2460938,1.2070312 -0.1640625,0.28125003 -0.421875,0.62109378 -0.9960937,0.62109378 -1.0546875,0 -1.1953125,-1.46484378 -1.230469,-1.79296878 z m 0,0"
       style="fill:#ff8000;fill-opacity:1;fill-rule:nonzero;stroke:none"
       aria-label="6"
       transform="matrix(1.3333333,0,0,1.3333333,80.625333,89.930667)" />
    <path
       id="path18"
       d="M 73.28537,-2.07251 C 49.6547,-6.2391 35.38571,-6.2391 15.48332,-2.72983"
       style="fill:none;stroke:#ff8000;stroke-width:1.59404;stroke-linecap:butt;stroke-linejoin:miter;stroke-miterlimit:10;stroke-dasharray:none;stroke-opacity:1"
       transform="matrix(1.3333333,0,0,-1.3333333,27.253333,115.928)" />
    <path
       id="path19"
       d="M 3.78581,0 -2.27148,3.02866 0,0 -2.27148,-3.02866"
       style="fill:#ff8000;fill-opacity:1;fill-rule:nonzero;stroke:none"
       transform="matrix(-1.3130667,-0.23150667,-0.23150667,1.3130667,47.89776,119.56779)" />
    <path
       id="path20"
       d="M 1.734125,-1.8759844 0.50365625,-0.63379687 V -9.84375e-4 H 4.4763125 V -0.70410937 H 2.6599063 c -0.1171875,0 -0.234375,0 -0.3632813,0 H 1.2185 c 0.3164063,-0.26953125 1.078125,-1.01953123 1.3828125,-1.31250003 0.1875,-0.1757812 0.6914063,-0.5976562 0.890625,-0.7734375 0.4453125,-0.4453125 0.984375,-0.9726562 0.984375,-1.828125 0,-1.1367187 -0.8085937,-2.1328125 -2.1210937,-2.1328125 -1.1367188,0 -1.6992188,0.7734375 -1.9335938,1.6289063 0.1171875,0.1757812 0.1640625,0.234375 0.1875,0.2578125 0.0234375,0.023437 0.1171875,0.1523437 0.22265625,0.2929687 C 1.031,-5.3447344 1.3005313,-6.1181719 2.2145938,-6.1181719 c 0.9375,0 1.4414062,0.75 1.4414062,1.5234375 0,0.84375 -0.5625,1.4179688 -1.1601562,2.015625 z m 0,0"
       style="fill:#ff8000;fill-opacity:1;fill-rule:nonzero;stroke:none"
       aria-label="2"
       transform="matrix(1.3333333,0,0,1.3333333,80.625333,137.056)" />
    <path
       id="path21"
       d="M 75.6515,7.36977 C 60.9434,18.91467 53.93129,28.26424 48.37634,42.10326"
       style="fill:none;stroke:#ff8000;stroke-width:1.59404;stroke-linecap:butt;stroke-linejoin:miter;stroke-miterlimit:10;stroke-dasharray:none;stroke-opacity:1"
       transform="matrix(1.3333333,0,0,-1.3333333,27.253333,115.928)" />
    <path
       id="path22"
       d="M 3.78581,0 -2.27148,3.02866 0,0 -2.27148,-3.02866"
       style="fill:#ff8000;fill-opacity:1;fill-rule:nonzero;stroke:none"
       transform="matrix(-0.49666667,-1.2373333,-1.2373333,0.49666667,91.755147,59.790347)" />
    <path
       id="path23"
       d="m 2.3094844,-5.8237578 c 0.1171875,0 0.2460937,-0.011719 0.3632812,-0.011719 h 1.2070313 c -1.4765625,1.6171875 -2.3671875,3.609375 -2.3671875,5.94140629 h 0.84375 c 0,-2.98828129 1.4179687,-5.12109379 2.1914062,-5.98828129 v -0.65625 H 0.42276562 v 0.7148438 z m 0,0"
       style="fill:#ff8000;fill-opacity:1;fill-rule:nonzero;stroke:none"
       aria-label="7"
       transform="matrix(1.3333333,0,0,1.3333333,110.616,87.862667)" />
    <path
       id="path24"
       d="m 54.04996,59.78264 c 23.3472,6.25586 38.63371,6.25586 58.32409,0.97972"
       style="fill:none;stroke:#ff8000;stroke-width:1.59404;stroke-linecap:butt;stroke-linejoin:miter;stroke-miterlimit:10;stroke-dasharray:none;stroke-opacity:0"
       transform="matrix(1.3333333,0,0,-1.3333333,27.253333,115.928)" />
    <path
       id="path25"
       d="M 3.78581,0 -2.27148,3.02866 0,0 -2.27148,-3.02866"
       style="fill:#ff8000;fill-opacity:0;fill-rule:nonzero;stroke:none"
       transform="matrix(1.2879067,0.34505333,0.34505333,-1.2879067,177.08539,34.911507)" />
    <path
       id="path26"
       d="M 123.11469,45.61646 C 116.14954,28.26424 109.13744,18.91467 97.40723,9.70712"
       style="fill:none;stroke:#ff8000;stroke-width:1.59404;stroke-linecap:butt;stroke-linejoin:miter;stroke-miterlimit:10;stroke-dasharray:none;stroke-opacity:1"
       transform="matrix(1.3333333,0,0,-1.3333333,27.253333,115.928)" />
    <path
       id="path27"
       d="M 3.78581,0 -2.27148,3.02866 0,0 -2.27148,-3.02866"
       style="fill:#ff8000;fill-opacity:1;fill-rule:nonzero;stroke:none"
       transform="matrix(-1.0487867,0.8232,0.8232,1.0487867,157.12964,102.98515)" />
    <path
       id="path28"
       d="M 0.91371094,-5.1204453 C 1.2066797,-5.8118516 1.8512109,-6.1751328 2.4605859,-6.1751328 c 0.515625,0 1.0078125,0.2929687 1.0078125,0.9375 0,0.609375 -0.4101562,1.1953125 -1.0195312,1.3359375 -0.058594,0.011719 -0.082031,0.011719 -0.7851563,0.070312 v 0.609375 h 0.703125 c 1.078125,0 1.3007813,0.9257812 1.3007813,1.4179687 0,0.7734375 -0.4570313,1.41796879 -1.2304688,1.41796879 -0.6796875,0 -1.47656246,-0.3515625 -1.91015621,-1.03124999 l -0.10546875,0.59765624 c 0.72656246,0.9375 1.64062496,1.04296875 2.03906246,1.04296875 1.21875,0 2.0859375,-0.97265625 2.0859375,-2.01562499 0,-0.9023438 -0.6914062,-1.5234375 -1.3710937,-1.734375 0.7617187,-0.4101563 1.1132812,-1.0898438 1.1132812,-1.7109375 0,-0.8554688 -0.8320312,-1.5117188 -1.8164062,-1.5117188 -0.7734375,0 -1.50000001,0.3984375 -1.91015626,1.0898438 z m 0,0"
       style="fill:#ff8000;fill-opacity:1;fill-rule:nonzero;stroke:none"
       aria-label="3"
       transform="matrix(1.3333333,0,0,1.3333333,164.02,78.018667)" />
    <path
       id="path29"
       d="m 96.57018,3.08902 c 23.34719,6.25586 38.63371,6.25586 58.32409,0.97972"
       style="fill:none;stroke:#ff8000;stroke-width:1.59404;stroke-linecap:butt;stroke-linejoin:miter;stroke-miterlimit:10;stroke-dasharray:none;stroke-opacity:1"
       transform="matrix(1.3333333,0,0,-1.3333333,27.253333,115.928)" />
    <path
       id="path30"
       d="M 3.78581,0 -2.27148,3.02866 0,0 -2.27148,-3.02866"
       style="fill:#ff8000;fill-opacity:1;fill-rule:nonzero;stroke:none"
       transform="matrix(1.2879067,0.34505333,0.34505333,-1.2879067,233.77901,110.50299)" />
    <path
       id="path31"
       d="m 3.7039141,-1.6977891 h 0.984375 v -0.609375 H 3.7039141 V -6.5376328 H 2.8015703 l -2.51953124,4.2304687 v 0.609375 H 2.9187578 v 1.69921879 h 0.7851563 z m -2.6484375,-0.609375 c 0.515625,-0.8554687 1.921875,-3.2226562 1.921875,-3.7851562 v 3.7851562 z m 0,0"
       style="fill:#ff8000;fill-opacity:1;fill-rule:nonzero;stroke:none"
       aria-label="4"
       transform="matrix(1.3333333,0,0,1.3333333,194.01067,119.752)" />
    <path
       id="path32"
       d="m 159.10443,4.68852 c -18.0527,7.7112 -27.7679,20.66492 -29.66345,36.39604"
       style="fill:none;stroke:#ff8000;stroke-width:1.59404;stroke-linecap:butt;stroke-linejoin:miter;stroke-miterlimit:10;stroke-dasharray:none;stroke-opacity:1"
       transform="matrix(1.3333333,0,0,-1.3333333,27.253333,115.928)" />
    <path
       id="path33"
       d="M 3.78581,0 -2.27148,3.02866 0,0 -2.27148,-3.02866"
       style="fill:#ff8000;fill-opacity:1;fill-rule:nonzero;stroke:none"
       transform="matrix(-0.15946667,-1.3237333,-1.3237333,0.15946667,199.84131,61.1486)" />
    <path
       id="path34"
       d="m 3.7022187,-1.6979609 h 0.984375 v -0.609375 H 3.7022187 V -6.5378047 H 2.799875 l -2.51953125,4.2304688 v 0.609375 H 2.9170625 v 1.69921871 h 0.7851562 z m -2.6484375,-0.609375 c 0.515625,-0.8554688 1.921875,-3.2226563 1.921875,-3.7851563 v 3.7851563 z m 0,0"
       style="fill:#ff8000;fill-opacity:1;fill-rule:nonzero;stroke:none"
       aria-label="4"
       transform="matrix(1.3333333,0,0,1.3333333,199.32933,93.150667)" />
    <path
       id="path35"
       d="M 136.27147,48.53337 C 149.78873,35.87091 156.31474,27.16919 162.97511,14.02423"
       style="fill:none;stroke:#ff8000;stroke-width:1.59404;stroke-linecap:butt;stroke-linejoin:miter;stroke-miterlimit:10;stroke-dasharray:none;stroke-opacity:1"
       transform="matrix(1.3333333,0,0,-1.3333333,27.253333,115.928)" />
    <path
       id="path36"
       d="M 3.78581,0 -2.27148,3.02866 0,0 -2.27148,-3.02866"
       style="fill:#ff8000;fill-opacity:1;fill-rule:nonzero;stroke:none"
       transform="matrix(0.60262667,1.1893333,1.1893333,-0.60262667,244.55348,97.229)" />
    <path
       id="path37"
       d="m 3.7039688,-1.6992031 h 0.984375 v -0.609375 H 3.7039688 V -6.5390469 H 2.801625 l -2.51953125,4.2304688 v 0.609375 H 2.9188125 V 1.5625e-5 h 0.7851563 z m -2.6484375,-0.609375 c 0.515625,-0.8554688 1.921875,-3.2226563 1.921875,-3.7851563 v 3.7851563 z m 0,0"
       style="fill:#ff8000;fill-opacity:1;fill-rule:nonzero;stroke:none"
       aria-label="4"
       transform="matrix(1.3333333,0,0,1.3333333,235.952,69.054667)" />
    <path
       id="path38"
       d="m 139.0904,59.78264 c 23.34719,6.25586 38.6337,6.25586 58.32407,0.97972"
       style="fill:none;stroke:#ff8000;stroke-width:1.59404;stroke-linecap:butt;stroke-linejoin:miter;stroke-miterlimit:10;stroke-dasharray:none;stroke-opacity:1"
       transform="matrix(1.3333333,0,0,-1.3333333,27.253333,115.928)" />
    <path
       id="path39"
       d="M 3.78581,0 -2.27148,3.02866 0,0 -2.27148,-3.02866"
       style="fill:#ff8000;fill-opacity:1;fill-rule:nonzero;stroke:none"
       transform="matrix(1.2879067,0.34505333,0.34505333,-1.2879067,290.47261,34.911507)" />
    <path
       id="path40"
       d="m 3.7024687,-1.6997266 h 0.984375 v -0.609375 H 3.7024687 V -6.5395703 H 2.800125 l -2.51953125,4.2304687 v 0.609375 H 2.9173125 v 1.6992187875 h 0.7851562 z m -2.6484375,-0.609375 c 0.515625,-0.8554687 1.921875,-3.2226562 1.921875,-3.7851562 v 3.7851562 z m 0,0"
       style="fill:#ff8000;fill-opacity:1;fill-rule:nonzero;stroke:none"
       aria-label="4"
       transform="matrix(1.3333333,0,0,1.3333333,250.704,24.473333)" />
    <path
       id="path41"
       d="m 174.5268,11.07715 c 6.96514,17.35222 13.97724,26.70178 25.70745,35.90933"
       style="fill:none;stroke:#ff8000;stroke-width:1.59404;stroke-linecap:butt;stroke-linejoin:miter;stroke-miterlimit:10;stroke-dasharray:none;stroke-opacity:1"
       transform="matrix(1.3333333,0,0,-1.3333333,27.253333,115.928)" />
    <path
       id="path42"
       d="M 3.78581,0 -2.27148,3.02866 0,0 -2.27148,-3.02866"
       style="fill:#ff8000;fill-opacity:1;fill-rule:nonzero;stroke:none"
       transform="matrix(1.0487867,-0.8232,-0.8232,-1.0487867,294.23233,53.279373)" />
    <path
       id="path43"
       d="M 1.7348594,-1.8742266 0.50439063,-0.63203906 V 7.734375e-4 H 4.4770469 V -0.70235156 H 2.6606406 c -0.1171875,0 -0.234375,0 -0.3632812,0 h -1.078125 c 0.3164062,-0.26953125 1.078125,-1.01953124 1.3828125,-1.31250004 0.1875,-0.1757812 0.6914062,-0.5976562 0.890625,-0.7734375 0.4453125,-0.4453125 0.984375,-0.9726562 0.984375,-1.828125 0,-1.1367187 -0.8085938,-2.1328125 -2.1210938,-2.1328125 -1.1367187,0 -1.69921872,0.7734375 -1.93359372,1.6289063 0.1171875,0.1757812 0.1640625,0.234375 0.1875,0.2578125 0.0234375,0.023437 0.1171875,0.1523437 0.22265625,0.2929687 0.19921877,-0.7734375 0.46874997,-1.546875 1.38281247,-1.546875 0.9375,0 1.4414063,0.75 1.4414063,1.5234375 0,0.84375 -0.5625,1.4179688 -1.1601563,2.015625 z m 0,0"
       style="fill:#ff8000;fill-opacity:1;fill-rule:nonzero;stroke:none"
       aria-label="2"
       transform="matrix(1.3333333,0,0,1.3333333,280.69467,86.956)" />
    <path
       id="path44"
       d="M 38.07426,45.61646 C 31.10912,28.26424 24.09702,18.91467 12.3668,9.70712"
       style="fill:none;stroke:#ec008c;stroke-width:1.59404;stroke-linecap:butt;stroke-linejoin:miter;stroke-miterlimit:10;stroke-dasharray:none;stroke-opacity:1"
       transform="matrix(1.3333333,0,0,-1.3333333,27.253333,115.928)" />
    <path
       id="path45"
       d="M 3.78581,0 -2.27148,3.02866 0,0 -2.27148,-3.02866"
       style="fill:#ec008c;fill-opacity:1;fill-rule:nonzero;stroke:none"
       transform="matrix(-1.0487867,0.8232,0.8232,1.0487867,43.7424,102.98515)" />
    <path
       id="path46"
       d="m 1.5220469,-5.8938828 h 2.625 V -6.5384141 H 0.80720313 v 3.6796875 H 1.4634531 c 0.1640625,-0.3984375 0.5390625,-0.7851562 1.1132813,-0.7851562 0.46875,0 1.0078125,0.4101562 1.0078125,1.6054687 0,1.65234379 -1.21875,1.65234379 -1.3007813,1.65234379 -0.6679687,0 -1.2773437,-0.38671875 -1.57031247,-0.92578129 l -0.328125,0.55078129 c 0.41015625,0.57421875 1.10156247,0.984375 1.91015627,0.984375 1.1835937,0 2.1796875,-0.984375 2.1796875,-2.24999999 0,-1.2421875 -0.8554688,-2.2265625 -1.8867188,-2.2265625 -0.3984375,0 -0.7734375,0.1523437 -1.0664062,0.4101562 z m 0,0"
       style="fill:#ec008c;fill-opacity:1;fill-rule:nonzero;stroke:none"
       aria-label="5"
       transform="matrix(1.3333333,0,0,1.3333333,50.634667,78.018667)" />
    <path
       id="path47"
       d="M 73.28537,2.07251 C 49.6547,6.2391 35.38571,6.2391 15.48332,2.72983"
       style="fill:none;stroke:#ec008c;stroke-width:1.59404;stroke-linecap:butt;stroke-linejoin:miter;stroke-miterlimit:10;stroke-dasharray:none;stroke-opacity:1"
       transform="matrix(1.3333333,0,0,-1.3333333,27.253333,115.928)" />
    <path
       id="path48"
       d="M 3.78581,0 -2.27148,3.02866 0,0 -2.27148,-3.02866"
       style="fill:#ec008c;fill-opacity:1;fill-rule:nonzero;stroke:none"
       transform="matrix(-1.3130667,0.23150667,0.23150667,1.3130667,47.89776,112.28821)" />
    <path
       id="path49"
       d="m 0.9138125,-5.1212344 c 0.2929688,-0.6914062 0.9375,-1.0546875 1.546875,-1.0546875 0.515625,0 1.0078125,0.2929688 1.0078125,0.9375 0,0.609375 -0.4101562,1.1953125 -1.0195312,1.3359375 -0.058594,0.011719 -0.082031,0.011719 -0.7851563,0.070312 v 0.609375 h 0.703125 c 1.078125,0 1.3007813,0.9257813 1.3007813,1.4179688 0,0.7734375 -0.4570313,1.41796872 -1.2304688,1.41796872 -0.6796875,0 -1.4765625,-0.3515625 -1.91015625,-1.03125002 L 0.421625,-0.82045313 c 0.7265625,0.9375 1.640625,1.04296875 2.0390625,1.04296875 1.21875,0 2.0859375,-0.97265625 2.0859375,-2.01562502 0,-0.9023437 -0.6914062,-1.5234375 -1.3710937,-1.734375 0.7617187,-0.4101562 1.1132812,-1.0898437 1.1132812,-1.7109375 0,-0.8554687 -0.8320312,-1.5117187 -1.8164062,-1.5117187 -0.7734375,0 -1.50000005,0.3984375 -1.9101563,1.0898437 z m 0,0"
       style="fill:#ec008c;fill-opacity:1;fill-rule:nonzero;stroke:none"
       aria-label="3"
       transform="matrix(1.3333333,0,0,1.3333333,80.625333,103.508)" />
    <path
       id="path50"
       d="M 10.33713,-5.96805 C 32.07521,-18.5185 52.96521,-18.5185 71.42473,-7.86089"
       style="fill:none;stroke:#ec008c;stroke-width:1.59404;stroke-linecap:butt;stroke-linejoin:miter;stroke-miterlimit:10;stroke-dasharray:none;stroke-opacity:1"
       transform="matrix(1.3333333,0,0,-1.3333333,27.253333,115.928)" />
    <path
       id="path51"
       d="M 3.78581,0 -2.27148,3.02866 0,0 -2.27148,-3.02866"
       style="fill:#ec008c;fill-opacity:1;fill-rule:nonzero;stroke:none"
       transform="matrix(1.15468,-0.66664,-0.66664,-1.15468,122.48631,126.40919)" />
    <path
       id="path52"
       d="M 2.9763125,-6.7503906 H 2.7770938 c -0.5859375,0.609375 -1.4179688,0.6328125 -1.8867188,0.65625 v 0.5742187 c 0.328125,-0.011719 0.8085938,-0.023437 1.3007813,-0.234375 v 5.17968753 H 0.94896875 V -3.90625e-4 H 4.2185 V -0.57460937 H 2.9763125 Z m 0,0"
       style="fill:#ec008c;fill-opacity:1;fill-rule:nonzero;stroke:none"
       aria-label="1"
       transform="matrix(1.3333333,0,0,1.3333333,80.625333,150.63333)" />
    <path
       id="path53"
       d="M 51.90912,49.32385 C 66.61722,37.77893 73.62933,28.42937 79.18428,14.59035"
       style="fill:none;stroke:#ec008c;stroke-width:1.59404;stroke-linecap:butt;stroke-linejoin:miter;stroke-miterlimit:10;stroke-dasharray:none;stroke-opacity:1"
       transform="matrix(1.3333333,0,0,-1.3333333,27.253333,115.928)" />
    <path
       id="path54"
       d="M 3.78581,0 -2.27148,3.02866 0,0 -2.27148,-3.02866"
       style="fill:#ec008c;fill-opacity:1;fill-rule:nonzero;stroke:none"
       transform="matrix(0.49666667,1.2373333,1.2373333,-0.49666667,132.83236,96.474187)" />
    <path
       id="path55"
       d="M 1.7342891,-1.8740391 0.50382031,-0.63185156 V 9.609375e-4 H 4.4764766 V -0.70216406 H 2.6600703 c -0.1171875,0 -0.234375,0 -0.3632812,0 h -1.078125 c 0.3164062,-0.26953125 1.078125,-1.01953124 1.3828125,-1.31250004 0.1875,-0.1757812 0.6914062,-0.5976562 0.890625,-0.7734375 0.4453125,-0.4453125 0.984375,-0.9726562 0.984375,-1.828125 0,-1.1367187 -0.8085938,-2.1328125 -2.1210938,-2.1328125 -1.1367187,0 -1.69921874,0.7734375 -1.93359374,1.6289063 0.1171875,0.1757812 0.1640625,0.234375 0.1875,0.2578125 0.0234375,0.023437 0.1171875,0.1523437 0.22265625,0.2929687 0.19921879,-0.7734375 0.46874999,-1.546875 1.38281249,-1.546875 0.9375,0 1.4414063,0.75 1.4414063,1.5234375 0,0.84375 -0.5625,1.4179688 -1.1601563,2.015625 z m 0,0"
       style="fill:#ec008c;fill-opacity:1;fill-rule:nonzero;stroke:none"
       aria-label="2"
       transform="matrix(1.3333333,0,0,1.3333333,124.94933,77.112)" />
    <path
       id="path56"
       d="M 116.03087,53.60458 C 92.68367,47.34872 77.39716,47.34872 57.70677,52.62486"
       style="fill:none;stroke:#ec008c;stroke-width:1.59404;stroke-linecap:butt;stroke-linejoin:miter;stroke-miterlimit:10;stroke-dasharray:none;stroke-opacity:1"
       transform="matrix(1.3333333,0,0,-1.3333333,27.253333,115.928)" />
    <path
       id="path57"
       d="M 3.78581,0 -2.27148,3.02866 0,0 -2.27148,-3.02866"
       style="fill:#ec008c;fill-opacity:1;fill-rule:nonzero;stroke:none"
       transform="matrix(-1.2879067,-0.34505333,-0.34505333,1.2879067,104.19572,45.761533)" />
    <path
       id="path58"
       d="m 2.3098281,-5.8242266 c 0.1171875,0 0.2460938,-0.011719 0.3632813,-0.011719 h 1.2070312 c -1.4765625,1.6171875 -2.3671875,3.609375 -2.3671875,5.94140624 h 0.84375 c 0,-2.98828124 1.4179688,-5.12109374 2.1914063,-5.98828124 v -0.65625 H 0.42310937 v 0.7148437 z m 0,0"
       style="fill:#ec008c;fill-opacity:1;fill-rule:nonzero;stroke:none"
       aria-label="7"
       transform="matrix(1.3333333,0,0,1.3333333,137.31867,45.222667)" />
    <path
       id="path59"
       d="m 89.48636,11.07715 c 6.96514,17.35222 13.97725,26.70178 25.70746,35.90933"
       style="fill:none;stroke:#ec008c;stroke-width:1.59404;stroke-linecap:butt;stroke-linejoin:miter;stroke-miterlimit:10;stroke-dasharray:none;stroke-opacity:1"
       transform="matrix(1.3333333,0,0,-1.3333333,27.253333,115.928)" />
    <path
       id="path60"
       d="M 3.78581,0 -2.27148,3.02866 0,0 -2.27148,-3.02866"
       style="fill:#ec008c;fill-opacity:1;fill-rule:nonzero;stroke:none"
       transform="matrix(1.0487867,-0.8232,-0.8232,-1.0487867,180.84509,53.279373)" />
    <path
       id="path61"
       d="M 0.91313281,-5.1199453 C 1.2061016,-5.8113516 1.8506328,-6.1746328 2.4600078,-6.1746328 c 0.515625,0 1.0078125,0.2929687 1.0078125,0.9375 0,0.609375 -0.4101562,1.1953125 -1.0195312,1.3359375 -0.058594,0.011719 -0.082031,0.011719 -0.7851563,0.070312 v 0.609375 h 0.703125 c 1.078125,0 1.3007813,0.9257812 1.3007813,1.4179687 0,0.7734375 -0.4570313,1.41796879 -1.2304688,1.41796879 -0.6796875,0 -1.47656249,-0.3515625 -1.91015624,-1.03124999 l -0.10546875,0.59765624 c 0.72656249,0.9375 1.64062499,1.04296875 2.03906249,1.04296875 1.21875,0 2.0859375,-0.97265625 2.0859375,-2.01562499 0,-0.9023438 -0.6914062,-1.5234375 -1.3710937,-1.734375 0.7617187,-0.4101563 1.1132812,-1.0898438 1.1132812,-1.7109375 0,-0.8554688 -0.8320312,-1.5117188 -1.8164062,-1.5117188 -0.7734375,0 -1.50000004,0.3984375 -1.91015629,1.0898438 z m 0,0"
       style="fill:#ec008c;fill-opacity:1;fill-rule:nonzero;stroke:none"
       aria-label="3"
       transform="matrix(1.3333333,0,0,1.3333333,158.49733,67.268)" />
    <path
       id="path62"
       d="M 158.55109,-3.08902 C 135.20389,-9.34488 119.91737,-9.34488 100.227,-4.06874"
       style="fill:none;stroke:#ec008c;stroke-width:1.59404;stroke-linecap:butt;stroke-linejoin:miter;stroke-miterlimit:10;stroke-dasharray:none;stroke-opacity:1"
       transform="matrix(1.3333333,0,0,-1.3333333,27.253333,115.928)" />
    <path
       id="path63"
       d="M 3.78581,0 -2.27148,3.02866 0,0 -2.27148,-3.02866"
       style="fill:#ec008c;fill-opacity:1;fill-rule:nonzero;stroke:none"
       transform="matrix(-1.2879067,-0.34505333,-0.34505333,1.2879067,160.88936,121.35301)" />
    <path
       id="path64"
       d="M 0.91485156,-5.1220937 C 1.2078203,-5.8135 1.8523516,-6.1767812 2.4617266,-6.1767812 c 0.515625,0 1.0078125,0.2929687 1.0078125,0.9375 0,0.609375 -0.4101563,1.1953125 -1.0195313,1.3359375 -0.058594,0.011719 -0.082031,0.011719 -0.7851562,0.070312 v 0.609375 h 0.703125 c 1.078125,0 1.3007812,0.9257812 1.3007812,1.4179687 0,0.7734375 -0.4570312,1.41796875 -1.2304687,1.41796875 -0.6796875,0 -1.47656254,-0.3515625 -1.91015629,-1.03124995 L 0.42266406,-0.821313 c 0.72656254,0.9375 1.64062504,1.04296875 2.03906254,1.04296875 1.21875,0 2.0859375,-0.97265625 2.0859375,-2.01562495 0,-0.9023438 -0.6914063,-1.5234375 -1.3710938,-1.734375 C 3.9382891,-3.9385 4.2898516,-4.6181875 4.2898516,-5.2392812 4.2898516,-6.09475 3.4578203,-6.751 2.4734453,-6.751 c -0.7734375,0 -1.49999999,0.3984375 -1.91015624,1.0898438 z m 0,0"
       style="fill:#ec008c;fill-opacity:1;fill-rule:nonzero;stroke:none"
       aria-label="3"
       transform="matrix(1.3333333,0,0,1.3333333,194.01067,140.50133)" />
    <path
       id="path65"
       d="M 132.9553,46.04631 C 141.32674,29.52441 147.85275,20.8227 158.60713,10.7483"
       style="fill:none;stroke:#ec008c;stroke-width:1.59404;stroke-linecap:butt;stroke-linejoin:miter;stroke-miterlimit:10;stroke-dasharray:none;stroke-opacity:1"
       transform="matrix(1.3333333,0,0,-1.3333333,27.253333,115.928)" />
    <path
       id="path66"
       d="M 3.78581,0 -2.27148,3.02866 0,0 -2.27148,-3.02866"
       style="fill:#ec008c;fill-opacity:1;fill-rule:nonzero;stroke:none"
       transform="matrix(0.97306667,0.91149333,0.91149333,-0.97306667,238.72951,101.59691)" />
    <path
       id="path67"
       d="M 2.9758516,-6.7503359 H 2.7766328 c -0.5859375,0.609375 -1.4179687,0.6328125 -1.88671874,0.65625 v 0.5742187 c 0.32812504,-0.011719 0.80859374,-0.023437 1.30078124,-0.234375 v 5.17968751 H 0.94850781 V -3.359375e-4 H 4.2180391 V -0.57455469 H 2.9758516 Z m 0,0"
       style="fill:#ec008c;fill-opacity:1;fill-rule:nonzero;stroke:none"
       aria-label="1"
       transform="matrix(1.3333333,0,0,1.3333333,208.76267,86.074667)" />
    <path
       id="path68"
       d="m 168.65327,11.85048 c -2.34832,19.48968 -12.06352,32.4434 -26.63482,38.66757"
       style="fill:none;stroke:#ec008c;stroke-width:1.59404;stroke-linecap:butt;stroke-linejoin:miter;stroke-miterlimit:10;stroke-dasharray:none;stroke-opacity:1"
       transform="matrix(1.3333333,0,0,-1.3333333,27.253333,115.928)" />
    <path
       id="path69"
       d="M 3.78581,0 -2.27148,3.02866 0,0 -2.27148,-3.02866"
       style="fill:#ec008c;fill-opacity:1;fill-rule:nonzero;stroke:none"
       transform="matrix(-1.22612,-0.52372,-0.52372,1.22612,216.61127,48.570613)" />
    <path
       id="path70"
       d="m 3.7031641,-1.6978672 h 0.984375 v -0.609375 H 3.7031641 V -6.5377109 H 2.8008203 l -2.51953124,4.2304687 v 0.609375 H 2.9180078 v 1.69921876 h 0.7851563 z m -2.6484375,-0.609375 c 0.515625,-0.8554687 1.921875,-3.2226562 1.921875,-3.7851562 v 3.7851562 z m 0,0"
       style="fill:#ec008c;fill-opacity:1;fill-rule:nonzero;stroke:none"
       aria-label="4"
       transform="matrix(1.3333333,0,0,1.3333333,245.38667,61.978667)" />
    <path
       id="path71"
       d="M 201.0713,53.60458 C 177.7241,47.34872 162.43759,47.34872 142.74721,52.62486"
       style="fill:none;stroke:#ec008c;stroke-width:1.59404;stroke-linecap:butt;stroke-linejoin:miter;stroke-miterlimit:10;stroke-dasharray:none;stroke-opacity:1"
       transform="matrix(1.3333333,0,0,-1.3333333,27.253333,115.928)" />
    <path
       id="path72"
       d="M 3.78581,0 -2.27148,3.02866 0,0 -2.27148,-3.02866"
       style="fill:#ec008c;fill-opacity:1;fill-rule:nonzero;stroke:none"
       transform="matrix(-1.2879067,-0.34505333,-0.34505333,1.2879067,217.58296,45.761533)" />
    <path
       id="path73"
       d="M 2.9759062,-6.7500078 H 2.7766875 c -0.5859375,0.609375 -1.4179688,0.6328125 -1.88671875,0.65625 v 0.5742187 C 1.2180937,-5.5312578 1.6985625,-5.5429766 2.19075,-5.7539141 v 5.17968754 H 0.9485625 V -7.8125e-6 H 4.2180937 V -0.57422656 H 2.9759062 Z m 0,0"
       style="fill:#ec008c;fill-opacity:1;fill-rule:nonzero;stroke:none"
       aria-label="1"
       transform="matrix(1.3333333,0,0,1.3333333,250.704,45.222667)" />
    <path
       id="path74"
       d="M 208.15512,45.61646 C 201.18997,28.26424 194.17787,18.91467 182.44766,9.70712"
       style="fill:none;stroke:#ec008c;stroke-width:1.59404;stroke-linecap:butt;stroke-linejoin:miter;stroke-miterlimit:10;stroke-dasharray:none;stroke-opacity:1"
       transform="matrix(1.3333333,0,0,-1.3333333,27.253333,115.928)" />
    <path
       id="path75"
       d="M 3.78581,0 -2.27148,3.02866 0,0 -2.27148,-3.02866"
       style="fill:#ec008c;fill-opacity:1;fill-rule:nonzero;stroke:none"
       transform="matrix(-1.0487867,0.8232,0.8232,1.0487867,270.51688,102.98515)" />
    <path
       id="path76"
       d="m 4.1362266,-6.5505078 c -0.515625,-0.1992188 -0.9140625,-0.1992188 -1.0546875,-0.1992188 -1.40625,0 -2.66015629,1.40625 -2.66015629,3.5390625 0,2.82421879 1.23046879,3.43359379 2.07421879,3.43359379 0.5976562,0 1.03125,-0.234375 1.4179687,-0.6796875 0.4453125,-0.50390625 0.6328125,-0.97265629 0.6328125,-1.75781249 0,-1.2773438 -0.65625,-2.390625 -1.6054687,-2.390625 -0.3164063,0 -1.078125,0.082031 -1.6875,0.8320312 0.1289062,-1.6054687 0.9140625,-2.4023437 1.8398437,-2.4023437 0.375,0 0.6914063,0.070312 1.0429688,0.2109375 z m -2.8710938,4.3710937 c 0,-0.140625 0,-0.1640625 0.011719,-0.28125 0,-0.7382812 0.4453125,-1.5351562 1.2773437,-1.5351562 0.46875,0 0.75,0.2460937 0.9492188,0.6210937 0.2109375,0.3632813 0.234375,0.7148438 0.234375,1.1601563 0,0.3398437 0,0.796875 -0.2460938,1.2070312 -0.1640625,0.28125004 -0.421875,0.62109379 -0.9960937,0.62109379 -1.0546875,0 -1.1953125,-1.46484379 -1.230469,-1.79296879 z m 0,0"
       style="fill:#ec008c;fill-opacity:1;fill-rule:nonzero;stroke:none"
       aria-label="6"
       transform="matrix(1.3333333,0,0,1.3333333,295.028,97.706667)" />
  </g>
</svg>

