<svg
   version="1.1"
   id="svg2"
   width="64.730667"
   height="25.524"
   viewBox="0 0 64.730667 25.524"
   sodipodi:docname="reductions.tmp.pdf"
   xmlns:inkscape="http://www.inkscape.org/namespaces/inkscape"
   xmlns:sodipodi="http://sodipodi.sourceforge.net/DTD/sodipodi-0.dtd"
   xmlns="http://www.w3.org/2000/svg"
   xmlns:svg="http://www.w3.org/2000/svg">
  <defs
     id="defs6" />
  <sodipodi:namedview
     id="namedview4"
     pagecolor="#ffffff"
     bordercolor="#666666"
     borderopacity="1.0"
     inkscape:showpageshadow="2"
     inkscape:pageopacity="0.0"
     inkscape:pagecheckerboard="0"
     inkscape:deskcolor="#d1d1d1" />
  <g
     id="g8"
     inkscape:groupmode="layer"
     inkscape:label="reductions.tmp"
     transform="matrix(1.3333333,0,0,-1.3333333,0,25.524)">
    <g
       id="g10"
       transform="translate(38.977,9.571)">
      <g
         id="g12">
        <g
           id="g14">
          <g
             id="g16">
            <g
               id="g18">
              <path
                 d="M 0.46964,0 C 0.46964,0.25937 0.25937,0.46964 0,0.46964 -0.25937,0.46964 -0.46964,0.25937 -0.46964,0 c 0,-0.25937 0.21027,-0.46964 0.46964,-0.46964 0.25937,0 0.46964,0.21027 0.46964,0.46964 z"
                 style="fill:none;stroke:#000000;stroke-width:1.19553;stroke-linecap:butt;stroke-linejoin:miter;stroke-miterlimit:10;stroke-dasharray:none;stroke-opacity:1"
                 id="path20" />
            </g>
            <g
               id="g22"
               transform="scale(0.1)">
              <g
                 id="g24" />
            </g>
          </g>
          <g
             id="g26">
            <g
               id="g28">
              <path
                 d="m -28.93604,0 c 0,0.25937 -0.21026,0.46964 -0.46965,0.46964 -0.25936,0 -0.46965,-0.21027 -0.46965,-0.46964 0,-0.25937 0.21029,-0.46964 0.46965,-0.46964 0.25939,0 0.46965,0.21027 0.46965,0.46964 z"
                 style="fill:none;stroke:#000000;stroke-width:1.19553;stroke-linecap:butt;stroke-linejoin:miter;stroke-miterlimit:10;stroke-dasharray:none;stroke-opacity:1"
                 id="path30" />
            </g>
            <g
               id="g32"
               transform="matrix(0.1,0,0,0.1,-29.406,0)">
              <g
                 id="g34" />
              <g
                 id="g36"
                 transform="translate(29.406)" />
            </g>
          </g>
          <g
             id="g38">
            <g
               id="g40">
              <path
                 d="M -0.52943,0 H -28.87624"
                 style="fill:none;stroke:#000000;stroke-width:1.59404;stroke-linecap:butt;stroke-linejoin:miter;stroke-miterlimit:10;stroke-dasharray:none;stroke-opacity:1"
                 id="path42" />
            </g>
          </g>
        </g>
      </g>
    </g>
  </g>
</svg>

