<svg
   version="1.1"
   id="svg1"
   width="222.68266"
   height="222.68266"
   viewBox="0 0 222.68266 222.68266"
   sodipodi:docname="reductions.tmp.pdf"
   xmlns:inkscape="http://www.inkscape.org/namespaces/inkscape"
   xmlns:sodipodi="http://sodipodi.sourceforge.net/DTD/sodipodi-0.dtd"
   xmlns="http://www.w3.org/2000/svg"
   xmlns:svg="http://www.w3.org/2000/svg">
  <defs
     id="defs1" />
  <sodipodi:namedview
     id="namedview1"
     pagecolor="#ffffff"
     bordercolor="#000000"
     borderopacity="0.25"
     inkscape:showpageshadow="2"
     inkscape:pageopacity="0.0"
     inkscape:pagecheckerboard="0"
     inkscape:deskcolor="#d1d1d1">
    <inkscape:page
       x="0"
       y="0"
       inkscape:label="1"
       id="page1"
       width="222.68266"
       height="222.68266"
       margin="0"
       bleed="0" />
  </sodipodi:namedview>
  <g
     id="g1"
     inkscape:groupmode="layer"
     inkscape:label="1">
    <path
       id="path1"
       d="m 4.25226,0 c 0,2.34846 -1.9038,4.25226 -4.25226,4.25226 -2.34846,0 -4.25226,-1.9038 -4.25226,-4.25226 0,-2.34846 1.9038,-4.25226 4.25226,-4.25226 2.34846,0 4.25226,1.9038 4.25226,4.25226 z"
       style="fill:#000000;fill-opacity:1;fill-rule:nonzero;stroke:#000000;stroke-width:1.19553;stroke-linecap:butt;stroke-linejoin:miter;stroke-miterlimit:10;stroke-dasharray:none;stroke-opacity:1"
       transform="matrix(1.3333333,0,0,-1.3333333,204.87733,113.02533)" />
    <path
       id="path2"
       d="m -30.19269,34.44496 c 0,2.34847 -1.90379,4.25226 -4.25227,4.25226 -2.34847,0 -4.25226,-1.90379 -4.25226,-4.25226 0,-2.34848 1.90379,-4.25227 4.25226,-4.25227 2.34848,0 4.25227,1.90379 4.25227,4.25227 z"
       style="fill:#ff0000;fill-opacity:1;fill-rule:nonzero;stroke:#ff0000;stroke-width:1.19553;stroke-linecap:butt;stroke-linejoin:miter;stroke-miterlimit:10;stroke-dasharray:none;stroke-opacity:1"
       transform="matrix(1.3333333,0,0,-1.3333333,204.87733,113.02533)" />
    <path
       id="path3"
       d="m -32.71864,0 c 0,2.34846 -1.9038,4.25226 -4.25228,4.25226 -2.34848,0 -4.25226,-1.9038 -4.25226,-4.25226 0,-2.34846 1.90378,-4.25226 4.25226,-4.25226 2.34848,0 4.25228,1.9038 4.25228,4.25226 z"
       style="fill:#ff0000;fill-opacity:1;fill-rule:nonzero;stroke:#ff0000;stroke-width:1.19553;stroke-linecap:butt;stroke-linejoin:miter;stroke-miterlimit:10;stroke-dasharray:none;stroke-opacity:1"
       transform="matrix(1.3333333,0,0,-1.3333333,204.87733,113.02533)" />
    <path
       id="path4"
       d="m -30.19269,-34.44496 c 0,2.34848 -1.90379,4.25227 -4.25227,4.25227 -2.34847,0 -4.25226,-1.90379 -4.25226,-4.25227 0,-2.34847 1.90379,-4.25226 4.25226,-4.25226 2.34848,0 4.25227,1.90379 4.25227,4.25226 z"
       style="fill:#ff0000;fill-opacity:1;fill-rule:nonzero;stroke:#ff0000;stroke-width:1.19553;stroke-linecap:butt;stroke-linejoin:miter;stroke-miterlimit:10;stroke-dasharray:none;stroke-opacity:1"
       transform="matrix(1.3333333,0,0,-1.3333333,204.87733,113.02533)" />
    <path
       id="path5"
       d="m 4.25226,-36.97092 c 0,2.34848 -1.9038,4.25228 -4.25226,4.25228 -2.34846,0 -4.25226,-1.9038 -4.25226,-4.25228 0,-2.34848 1.9038,-4.25226 4.25226,-4.25226 2.34846,0 4.25226,1.90378 4.25226,4.25226 z"
       style="fill:#ff0000;fill-opacity:1;fill-rule:nonzero;stroke:#ff0000;stroke-width:1.19553;stroke-linecap:butt;stroke-linejoin:miter;stroke-miterlimit:10;stroke-dasharray:none;stroke-opacity:1"
       transform="matrix(1.3333333,0,0,-1.3333333,204.87733,113.02533)" />
    <path
       id="path6"
       d="m -67.1636,-34.44496 c 0,2.34848 -1.9038,4.25227 -4.25228,4.25227 -2.34848,0 -4.25226,-1.90379 -4.25226,-4.25227 0,-2.34847 1.90378,-4.25226 4.25226,-4.25226 2.34848,0 4.25228,1.90379 4.25228,4.25226 z"
       style="fill:#000000;fill-opacity:1;fill-rule:nonzero;stroke:#000000;stroke-width:1.19553;stroke-linecap:butt;stroke-linejoin:miter;stroke-miterlimit:10;stroke-dasharray:none;stroke-opacity:1"
       transform="matrix(1.3333333,0,0,-1.3333333,204.87733,113.02533)" />
    <path
       id="path7"
       d="m -101.60857,0 c 0,2.34846 -1.90379,4.25226 -4.25227,4.25226 -2.34848,0 -4.25226,-1.9038 -4.25226,-4.25226 0,-2.34846 1.90378,-4.25226 4.25226,-4.25226 2.34848,0 4.25227,1.9038 4.25227,4.25226 z"
       style="fill:#000000;fill-opacity:1;fill-rule:nonzero;stroke:#000000;stroke-width:1.19553;stroke-linecap:butt;stroke-linejoin:miter;stroke-miterlimit:10;stroke-dasharray:none;stroke-opacity:1"
       transform="matrix(1.3333333,0,0,-1.3333333,204.87733,113.02533)" />
    <path
       id="path8"
       d="m -101.60857,-68.88992 c 0,2.34848 -1.90379,4.25227 -4.25227,4.25227 -2.34848,0 -4.25226,-1.90379 -4.25226,-4.25227 0,-2.34847 1.90378,-4.25226 4.25226,-4.25226 2.34848,0 4.25227,1.90379 4.25227,4.25226 z"
       style="fill:#ff0000;fill-opacity:1;fill-rule:nonzero;stroke:#ff0000;stroke-width:1.19553;stroke-linecap:butt;stroke-linejoin:miter;stroke-miterlimit:10;stroke-dasharray:none;stroke-opacity:1"
       transform="matrix(1.3333333,0,0,-1.3333333,204.87733,113.02533)" />
    <path
       id="path9"
       d="m -101.60857,-31.91899 c 0,2.34848 -1.90379,4.25226 -4.25227,4.25226 -2.34848,0 -4.25226,-1.90378 -4.25226,-4.25226 0,-2.34848 1.90378,-4.25227 4.25226,-4.25227 2.34848,0 4.25227,1.90379 4.25227,4.25227 z"
       style="fill:#000000;fill-opacity:1;fill-rule:nonzero;stroke:#000000;stroke-width:1.19553;stroke-linecap:butt;stroke-linejoin:miter;stroke-miterlimit:10;stroke-dasharray:none;stroke-opacity:1"
       transform="matrix(1.3333333,0,0,-1.3333333,204.87733,113.02533)" />
    <path
       id="path10"
       d="m -136.05353,34.44496 c 0,2.34847 -1.90379,4.25226 -4.25227,4.25226 -2.34848,0 -4.25227,-1.90379 -4.25227,-4.25226 0,-2.34848 1.90379,-4.25227 4.25227,-4.25227 2.34848,0 4.25227,1.90379 4.25227,4.25227 z"
       style="fill:#000000;fill-opacity:1;fill-rule:nonzero;stroke:#000000;stroke-width:1.19553;stroke-linecap:butt;stroke-linejoin:miter;stroke-miterlimit:10;stroke-dasharray:none;stroke-opacity:1"
       transform="matrix(1.3333333,0,0,-1.3333333,204.87733,113.02533)" />
    <path
       id="path11"
       d="m -136.05353,71.41588 c 0,2.34848 -1.90379,4.25226 -4.25227,4.25226 -2.34848,0 -4.25227,-1.90378 -4.25227,-4.25226 0,-2.34848 1.90379,-4.25228 4.25227,-4.25228 2.34848,0 4.25227,1.9038 4.25227,4.25228 z"
       style="fill:#000000;fill-opacity:1;fill-rule:nonzero;stroke:#000000;stroke-width:1.19553;stroke-linecap:butt;stroke-linejoin:miter;stroke-miterlimit:10;stroke-dasharray:none;stroke-opacity:1"
       transform="matrix(1.3333333,0,0,-1.3333333,204.87733,113.02533)" />
    <path
       id="path12"
       d="m -99.08261,71.41588 c 0,2.34848 -1.90379,4.25226 -4.25227,4.25226 -2.34847,0 -4.25226,-1.90378 -4.25226,-4.25226 0,-2.34848 1.90379,-4.25228 4.25226,-4.25228 2.34848,0 4.25227,1.9038 4.25227,4.25228 z"
       style="fill:#ff0000;fill-opacity:1;fill-rule:nonzero;stroke:#ff0000;stroke-width:1.19553;stroke-linecap:butt;stroke-linejoin:miter;stroke-miterlimit:10;stroke-dasharray:none;stroke-opacity:1"
       transform="matrix(1.3333333,0,0,-1.3333333,204.87733,113.02533)" />
    <path
       id="path13"
       d="M -135.99374,34.44496 H -38.757"
       style="fill:none;stroke:#000000;stroke-width:1.59404;stroke-linecap:butt;stroke-linejoin:miter;stroke-miterlimit:10;stroke-dasharray:none;stroke-opacity:1"
       transform="matrix(1.3333333,0,0,-1.3333333,204.87733,113.02533)" />
    <path
       id="path14"
       d="M -31.39587,31.39587 -3.04907,3.04907"
       style="fill:none;stroke:#000000;stroke-width:1.59404;stroke-linecap:butt;stroke-linejoin:miter;stroke-miterlimit:10;stroke-dasharray:none;stroke-opacity:1"
       transform="matrix(1.3333333,0,0,-1.3333333,204.87733,113.02533)" />
    <path
       id="path15"
       d="M 0,-4.31204 V -32.65886"
       style="fill:none;stroke:#000000;stroke-width:1.59404;stroke-linecap:butt;stroke-linejoin:miter;stroke-miterlimit:10;stroke-dasharray:none;stroke-opacity:1"
       transform="matrix(1.3333333,0,0,-1.3333333,204.87733,113.02533)" />
    <path
       id="path16"
       d="m -4.12827,-38.21565 -97.60429,-29.42952"
       style="fill:none;stroke:#000000;stroke-width:1.59404;stroke-linecap:butt;stroke-linejoin:miter;stroke-miterlimit:10;stroke-dasharray:none;stroke-opacity:1"
       transform="matrix(1.3333333,0,0,-1.3333333,204.87733,113.02533)" />
    <path
       id="path17"
       d="m -105.86084,-64.57787 v 28.34682"
       style="fill:none;stroke:#000000;stroke-width:1.59404;stroke-linecap:butt;stroke-linejoin:miter;stroke-miterlimit:10;stroke-dasharray:none;stroke-opacity:1"
       transform="matrix(1.3333333,0,0,-1.3333333,204.87733,113.02533)" />
    <path
       id="path18"
       d="M -4.31204,0 H -32.65886"
       style="fill:none;stroke:#000000;stroke-width:1.59404;stroke-linecap:butt;stroke-linejoin:miter;stroke-miterlimit:10;stroke-dasharray:none;stroke-opacity:1"
       transform="matrix(1.3333333,0,0,-1.3333333,204.87733,113.02533)" />
    <path
       id="path19"
       d="m -41.28297,0 h -60.26581"
       style="fill:none;stroke:#000000;stroke-width:1.59404;stroke-linecap:butt;stroke-linejoin:miter;stroke-miterlimit:10;stroke-dasharray:none;stroke-opacity:1"
       transform="matrix(1.3333333,0,0,-1.3333333,204.87733,113.02533)" />
    <path
       id="path20"
       d="m -3.04907,-3.04907 -28.3468,-28.3468"
       style="fill:none;stroke:#000000;stroke-width:1.59404;stroke-linecap:butt;stroke-linejoin:miter;stroke-miterlimit:10;stroke-dasharray:none;stroke-opacity:1"
       transform="matrix(1.3333333,0,0,-1.3333333,204.87733,113.02533)" />
    <path
       id="path21"
       d="M -38.757,-34.44496 H -67.10382"
       style="fill:none;stroke:#000000;stroke-width:1.59404;stroke-linecap:butt;stroke-linejoin:miter;stroke-miterlimit:10;stroke-dasharray:none;stroke-opacity:1"
       transform="matrix(1.3333333,0,0,-1.3333333,204.87733,113.02533)" />
    <path
       id="path22"
       d="m -135.99374,71.41588 h 28.34681"
       style="fill:none;stroke:#000000;stroke-width:1.59404;stroke-linecap:butt;stroke-linejoin:miter;stroke-miterlimit:10;stroke-dasharray:none;stroke-opacity:1"
       transform="matrix(1.3333333,0,0,-1.3333333,204.87733,113.02533)" />
  </g>
</svg>

