<?xml version="1.0" encoding="UTF-8" standalone="no"?>
<!DOCTYPE svg PUBLIC "-//W3C//DTD SVG 1.1//EN"
 "http://www.w3.org/Graphics/SVG/1.1/DTD/svg11.dtd">
<!-- Generated by graphviz version 2.43.0 (0)
 -->
<!-- Title: g Pages: 1 -->
<svg width="368pt" height="188pt"
 viewBox="0.00 0.00 368.00 188.00" xmlns="http://www.w3.org/2000/svg" xmlns:xlink="http://www.w3.org/1999/xlink">
<g id="graph0" class="graph" transform="scale(1 1) rotate(0) translate(4 184)">
<title>g</title>
<!-- x -->
<g id="node1" class="node">
<title>x</title>
<path fill="red" stroke="black" d="M108,-163.64C108,-172.67 83.8,-180 54,-180 24.2,-180 0,-172.67 0,-163.64 0,-163.64 0,-16.36 0,-16.36 0,-7.33 24.2,0 54,0 83.8,0 108,-7.33 108,-16.36 108,-16.36 108,-163.64 108,-163.64"/>
<path fill="none" stroke="black" d="M108,-163.64C108,-154.61 83.8,-147.27 54,-147.27 24.2,-147.27 0,-154.61 0,-163.64"/>
<text text-anchor="start" x="28" y="-71.9" font-family="Times,serif" font-size="72.00">A</text>
</g>
<!-- y -->
<g id="node2" class="node">
<title>y</title>
<polygon fill="Plum" stroke="black" points="234,-180 126,-180 126,0 234,0 234,-180"/>
<text text-anchor="start" x="159.5" y="-131.1" font-family="Times,serif" font-size="48.00">â†’</text>
<text text-anchor="start" x="134.5" y="-78.1" font-family="Times,serif" font-size="48.00">fast</text>
<text text-anchor="start" x="159.5" y="-25.1" font-family="Times,serif" font-size="48.00">â†</text>
</g>
<!-- z -->
<g id="node3" class="node">
<title>z</title>
<polygon fill="yellow" stroke="black" points="360,-180 252,-180 252,0 360,0 360,-180"/>
<text text-anchor="start" x="279" y="-71.9" font-family="Times,serif" font-size="72.00">B</text>
</g>
</g>
</svg>

