<svg width="62pt" height="92pt"
 viewBox="0.00 0.00 62.00 91.88" xmlns="http://www.w3.org/2000/svg" xmlns:xlink="http://www.w3.org/1999/xlink">
<g id="graph0" class="graph" transform="scale(1 1) rotate(0) translate(4 87.88)">
<title>g</title>
<!-- x -->
<g id="node1" class="node">
<title>x</title>
<path fill="red" stroke="black" d="M54,-76.2C54,-80.4 41.9,-83.81 27,-83.81 12.1,-83.81 0,-80.4 0,-76.2 0,-76.2 0,-7.68 0,-7.68 0,-3.47 12.1,-0.06 27,-0.06 41.9,-0.06 54,-3.47 54,-7.68 54,-7.68 54,-76.2 54,-76.2"/>
<path fill="none" stroke="black" d="M54,-76.2C54,-72 41.9,-68.59 27,-68.59 12.1,-68.59 0,-72 0,-76.2"/>
<text text-anchor="start" x="10.5" y="-30.04" font-family="Arial" font-size="48.00">A</text>
</g>
</g>
</svg>

