<?xml version="1.0" encoding="UTF-8" standalone="no"?>
<!DOCTYPE svg PUBLIC "-//W3C//DTD SVG 1.1//EN"
 "http://www.w3.org/Graphics/SVG/1.1/DTD/svg11.dtd">
<!-- Generated by graphviz version 2.43.0 (0)
 -->
<!-- Title: g Pages: 1 -->
<svg width="172pt" height="154pt"
 viewBox="0.00 0.00 172.00 154.00" xmlns="http://www.w3.org/2000/svg" xmlns:xlink="http://www.w3.org/1999/xlink">
<g id="graph0" class="graph" transform="scale(1 1) rotate(0) translate(4 150)">
<title>g</title>
<!-- h -->
<g id="node1" class="node">
<title>h</title>
<polygon fill="CornflowerBlue" stroke="black" points="163.58,-103.14 145.58,-103.14 145.58,-85.14 163.58,-85.14 163.58,-103.14"/>
</g>
<!-- 1 -->
<g id="node2" class="node">
<title>1</title>
<polygon fill="CornflowerBlue" stroke="black" points="121.89,-116.91 103.89,-116.91 103.89,-98.91 121.89,-98.91 121.89,-116.91"/>
</g>
<!-- h&#45;&#45;1 -->
<g id="edge1" class="edge">
<title>h&#45;&#45;1</title>
<path fill="none" stroke="black" stroke-width="4" d="M145.32,-97.2C138.42,-99.48 129.02,-102.58 122.12,-104.86"/>
</g>
<!-- 8 -->
<g id="node3" class="node">
<title>8</title>
<polygon fill="CornflowerBlue" stroke="black" points="139.09,-66.26 121.09,-66.26 121.09,-48.26 139.09,-48.26 139.09,-66.26"/>
</g>
<!-- h&#45;&#45;8 -->
<g id="edge2" class="edge">
<title>h&#45;&#45;8</title>
<path fill="none" stroke="black" stroke-width="4" d="M148.4,-84.84C144.66,-79.2 139.91,-72.05 136.18,-66.44"/>
</g>
<!-- 1&#45;&#45;8 -->
<g id="edge5" class="edge">
<title>1&#45;&#45;8</title>
<path fill="none" stroke="black" stroke-width="4" d="M116.05,-98.62C119.15,-89.48 123.86,-75.61 126.96,-66.49"/>
</g>
<!-- 2 -->
<g id="node4" class="node">
<title>2</title>
<polygon fill="CornflowerBlue" stroke="black" points="65.22,-146.29 47.22,-146.29 47.22,-128.29 65.22,-128.29 65.22,-146.29"/>
</g>
<!-- 1&#45;&#45;2 -->
<g id="edge3" class="edge">
<title>1&#45;&#45;2</title>
<path fill="none" stroke="black" stroke-width="4" d="M103.79,-112.63C93.27,-118.08 76.07,-126.99 65.49,-132.48"/>
</g>
<!-- 3 -->
<g id="node5" class="node">
<title>3</title>
<polygon fill="CornflowerBlue" stroke="black" points="77.26,-101.83 59.26,-101.83 59.26,-83.83 77.26,-83.83 77.26,-101.83"/>
</g>
<!-- 1&#45;&#45;3 -->
<g id="edge4" class="edge">
<title>1&#45;&#45;3</title>
<path fill="none" stroke="black" stroke-width="4" d="M103.86,-104.85C96.11,-102.24 85.01,-98.49 77.27,-95.87"/>
</g>
<!-- 2&#45;&#45;3 -->
<g id="edge6" class="edge">
<title>2&#45;&#45;3</title>
<path fill="none" stroke="black" stroke-width="4" d="M58.77,-127.86C60.84,-120.21 63.74,-109.5 65.79,-101.94"/>
</g>
<!-- 6 -->
<g id="node6" class="node">
<title>6</title>
<polygon fill="CornflowerBlue" stroke="black" points="18.44,-110.73 0.44,-110.73 0.44,-92.73 18.44,-92.73 18.44,-110.73"/>
</g>
<!-- 2&#45;&#45;6 -->
<g id="edge7" class="edge">
<title>2&#45;&#45;6</title>
<path fill="none" stroke="black" stroke-width="4" d="M47.2,-130.43C39.02,-124.22 27.02,-115.09 18.75,-108.81"/>
</g>
<!-- 4 -->
<g id="node7" class="node">
<title>4</title>
<polygon fill="CornflowerBlue" stroke="black" points="78.75,-69.87 60.75,-69.87 60.75,-51.87 78.75,-51.87 78.75,-69.87"/>
</g>
<!-- 3&#45;&#45;4 -->
<g id="edge8" class="edge">
<title>3&#45;&#45;4</title>
<path fill="none" stroke="black" stroke-width="4" d="M68.68,-83.76C68.88,-79.47 69.12,-74.37 69.32,-70.08"/>
</g>
<!-- 5 -->
<g id="node8" class="node">
<title>5</title>
<polygon fill="CornflowerBlue" stroke="black" points="36.85,-64.79 18.85,-64.79 18.85,-46.79 36.85,-46.79 36.85,-64.79"/>
</g>
<!-- 3&#45;&#45;5 -->
<g id="edge9" class="edge">
<title>3&#45;&#45;5</title>
<path fill="none" stroke="black" stroke-width="4" d="M58.88,-84.24C52.26,-78.17 43.44,-70.08 36.9,-64.08"/>
</g>
<!-- 4&#45;&#45;5 -->
<g id="edge10" class="edge">
<title>4&#45;&#45;5</title>
<path fill="none" stroke="black" stroke-width="4" d="M60.46,-59.74C53.51,-58.9 44.06,-57.75 37.13,-56.91"/>
</g>
<!-- 5&#45;&#45;6 -->
<g id="edge11" class="edge">
<title>5&#45;&#45;6</title>
<path fill="none" stroke="black" stroke-width="4" d="M24.13,-65.09C20.93,-73.06 16.35,-84.48 13.16,-92.45"/>
</g>
<!-- 7 -->
<g id="node9" class="node">
<title>7</title>
<polygon fill="CornflowerBlue" stroke="black" points="87.83,-24.63 75.33,-12.13 87.83,0.37 100.33,-12.13 87.83,-24.63"/>
</g>
<!-- 5&#45;&#45;7 -->
<g id="edge12" class="edge">
<title>5&#45;&#45;7</title>
<path fill="none" stroke="black" stroke-width="4" d="M36.96,-49.16C48.89,-40.47 69.57,-25.42 80.52,-17.44"/>
</g>
<!-- 7&#45;&#45;8 -->
<g id="edge13" class="edge">
<title>7&#45;&#45;8</title>
<path fill="none" stroke="black" stroke-width="4" d="M94.06,-18.79C101.32,-26.53 113.34,-39.37 121.49,-48.07"/>
</g>
</g>
</svg>

