<?xml version="1.0" encoding="UTF-8" standalone="no"?>
<!DOCTYPE svg PUBLIC "-//W3C//DTD SVG 1.1//EN"
 "http://www.w3.org/Graphics/SVG/1.1/DTD/svg11.dtd">
<!-- Generated by graphviz version 12.1.2 (20240928.0832)
 -->
<!-- Title: g Pages: 1 -->
<svg width="150pt" height="153pt"
 viewBox="0.00 0.00 149.76 153.36" xmlns="http://www.w3.org/2000/svg" xmlns:xlink="http://www.w3.org/1999/xlink">
<g id="graph0" class="graph" transform="scale(1 1) rotate(0) translate(4 149.36)">
<title>g</title>
<!-- h -->
<g id="node1" class="node">
<title>h</title>
<polygon fill="CornflowerBlue" stroke="black" points="70.88,-25.2 58.28,-12.6 70.88,0 83.48,-12.6 70.88,-25.2"/>
</g>
<!-- 1 -->
<g id="node2" class="node">
<title>1</title>
<polygon fill="CornflowerBlue" stroke="black" points="18,-83.48 0,-83.48 0,-65.48 18,-65.48 18,-83.48"/>
</g>
<!-- h&#45;&#45;1 -->
<g id="edge1" class="edge">
<title>h&#45;&#45;1</title>
<path fill="none" stroke="black" stroke-width="4" d="M64.26,-19.22C53.16,-30.32 30.78,-52.7 18.17,-65.31"/>
</g>
<!-- 2 -->
<g id="node3" class="node">
<title>2</title>
<polygon fill="CornflowerBlue" stroke="black" points="79.88,-145.36 61.88,-145.36 61.88,-127.36 79.88,-127.36 79.88,-145.36"/>
</g>
<!-- 1&#45;&#45;2 -->
<g id="edge2" class="edge">
<title>1&#45;&#45;2</title>
<path fill="none" stroke="black" stroke-width="4" d="M18.4,-83.88C30.03,-95.51 49.72,-115.2 61.39,-126.87"/>
</g>
<!-- 3 -->
<g id="node4" class="node">
<title>3</title>
<polygon fill="CornflowerBlue" stroke="black" points="141.76,-83.48 123.76,-83.48 123.76,-65.48 141.76,-65.48 141.76,-83.48"/>
</g>
<!-- 2&#45;&#45;3 -->
<g id="edge3" class="edge">
<title>2&#45;&#45;3</title>
<path fill="none" stroke="black" stroke-width="4" d="M80.28,-126.96C91.91,-115.33 111.6,-95.64 123.27,-83.97"/>
</g>
<!-- 3&#45;&#45;h -->
<g id="edge4" class="edge">
<title>3&#45;&#45;h</title>
<path fill="none" stroke="black" stroke-width="4" d="M123.36,-65.08C110.65,-52.37 88.3,-30.02 77.33,-19.05"/>
</g>
</g>
</svg>

