<?xml version="1.0" encoding="UTF-8" standalone="no"?>
<!DOCTYPE svg PUBLIC "-//W3C//DTD SVG 1.1//EN"
 "http://www.w3.org/Graphics/SVG/1.1/DTD/svg11.dtd">
<!-- Generated by graphviz version 2.43.0 (0)
 -->
<!-- Title: vd2ed Pages: 1 -->
<svg width="380pt" height="190pt"
 viewBox="0.00 0.00 380.30 190.00" xmlns="http://www.w3.org/2000/svg" xmlns:xlink="http://www.w3.org/1999/xlink">
<g id="graph0" class="graph" transform="scale(1 1) rotate(0) translate(4 186)">
<title>vd2ed</title>
<!-- empty0 -->
<!-- empty1 -->
<!-- g1 -->
<g id="node3" class="node">
<title>g1</title>
<ellipse fill="orange" stroke="black" cx="117" cy="-91" rx="27" ry="18"/>
<text text-anchor="middle" x="117" y="-87.3" font-family="Arial" font-size="14.00">g in</text>
</g>
<!-- empty1&#45;&gt;g1 -->
<g id="edge2" class="edge">
<title>empty1&#45;&gt;g1</title>
<path fill="none" stroke="teal" stroke-width="4" d="M54.07,-91C62.67,-91 71.27,-91 79.87,-91"/>
<polygon fill="teal" stroke="teal" stroke-width="4" points="79.96,-94.5 89.96,-91 79.96,-87.5 79.96,-94.5"/>
</g>
<!-- g1&#45;&gt;empty0 -->
<g id="edge1" class="edge">
<title>g1&#45;&gt;empty0</title>
<path fill="none" stroke="transparent" stroke-width="4" d="M117,-109.19C117,-117.21 117,-126.95 117,-135.93"/>
<polygon fill="transparent" stroke="transparent" stroke-width="4" points="113.5,-135.97 117,-145.97 120.5,-135.97 113.5,-135.97"/>
</g>
<!-- g2 -->
<g id="node4" class="node">
<title>g2</title>
<ellipse fill="orange" stroke="black" cx="226" cy="-91" rx="30.59" ry="18"/>
<text text-anchor="middle" x="226" y="-87.3" font-family="Arial" font-size="14.00">g out</text>
</g>
<!-- g1&#45;&gt;g2 -->
<g id="edge3" class="edge">
<title>g1&#45;&gt;g2</title>
<path fill="none" stroke="teal" stroke-width="4" d="M144.22,-91C156.59,-91 171.47,-91 185.13,-91"/>
<polygon fill="teal" stroke="teal" stroke-width="4" points="185.28,-94.5 195.28,-91 185.28,-87.5 185.28,-94.5"/>
<text text-anchor="middle" x="169.73" y="-78.4" font-family="Arial" font-size="12.00"> &#160;&#160;&#160;&#160;&#160;&#160;&#160;&#160;&#160;&#160;</text>
<text text-anchor="start" x="142.6" y="-120.4" font-family="Arial" font-size="12.00">restricts to</text>
<text text-anchor="start" x="151.6" y="-107.4" font-family="Arial" font-size="12.00">1 edge</text>
<text text-anchor="start" x="168.1" y="-94.4" font-family="Arial" font-size="12.00"> </text>
</g>
<!-- empty2 -->
<!-- g2&#45;&gt;empty2 -->
<g id="edge4" class="edge">
<title>g2&#45;&gt;empty2</title>
<path fill="none" stroke="teal" stroke-width="4" d="M256.64,-91C264.94,-91 273.24,-91 281.55,-91"/>
<polygon fill="teal" stroke="teal" stroke-width="4" points="281.67,-94.5 291.67,-91 281.67,-87.5 281.67,-94.5"/>
</g>
<!-- empty3 -->
<!-- empty3&#45;&gt;g1 -->
<g id="edge5" class="edge">
<title>empty3&#45;&gt;g1</title>
<path fill="none" stroke="black" stroke-width="4" d="M89.35,-35.47C93.71,-44.07 99.15,-54.79 104.04,-64.44"/>
<polygon fill="black" stroke="black" stroke-width="4" points="101.05,-66.29 108.7,-73.62 107.29,-63.12 101.05,-66.29"/>
</g>
<!-- empty4 -->
<!-- empty4&#45;&gt;g1 -->
<g id="edge6" class="edge">
<title>empty4&#45;&gt;g1</title>
<path fill="none" stroke="transparent" stroke-width="4" d="M144.65,-35.47C140.29,-44.07 134.85,-54.79 129.96,-64.44"/>
<polygon fill="transparent" stroke="transparent" stroke-width="4" points="126.71,-63.12 125.3,-73.62 132.95,-66.29 126.71,-63.12"/>
</g>
</g>
</svg>

