<?xml version="1.0" encoding="UTF-8" standalone="no"?>
<!DOCTYPE svg PUBLIC "-//W3C//DTD SVG 1.1//EN"
 "http://www.w3.org/Graphics/SVG/1.1/DTD/svg11.dtd">
<!-- Generated by graphviz version 12.1.2 (20240928.0832)
 -->
<!-- Title: g Pages: 1 -->
<svg width="171pt" height="155pt"
 viewBox="0.00 0.00 171.14 154.76" xmlns="http://www.w3.org/2000/svg" xmlns:xlink="http://www.w3.org/1999/xlink">
<g id="graph0" class="graph" transform="scale(1 1) rotate(0) translate(4 150.76)">
<title>g</title>
<!-- h -->
<g id="node1" class="node">
<title>h</title>
<polygon fill="CornflowerBlue" stroke="black" points="163.14,-103.62 145.14,-103.62 145.14,-85.62 163.14,-85.62 163.14,-103.62"/>
</g>
<!-- 1 -->
<g id="node2" class="node">
<title>1</title>
<polygon fill="red" stroke="black" points="121.45,-117.38 103.45,-117.38 103.45,-99.38 121.45,-99.38 121.45,-117.38"/>
</g>
<!-- h&#45;&#45;1 -->
<g id="edge1" class="edge">
<title>h&#45;&#45;1</title>
<path fill="none" stroke="black" stroke-width="4" d="M144.89,-97.67C137.98,-99.95 128.58,-103.06 121.68,-105.33"/>
</g>
<!-- 8 -->
<g id="node3" class="node">
<title>8</title>
<polygon fill="CornflowerBlue" stroke="black" points="138.65,-66.73 120.65,-66.73 120.65,-48.73 138.65,-48.73 138.65,-66.73"/>
</g>
<!-- h&#45;&#45;8 -->
<g id="edge2" class="edge">
<title>h&#45;&#45;8</title>
<path fill="none" stroke="black" stroke-width="4" d="M147.96,-85.31C144.28,-79.76 139.61,-72.74 135.92,-67.17"/>
</g>
<!-- 1&#45;&#45;8 -->
<g id="edge5" class="edge">
<title>1&#45;&#45;8</title>
<path fill="none" stroke="black" stroke-width="4" d="M115.61,-99.09C118.71,-89.95 123.42,-76.08 126.52,-66.96"/>
</g>
<!-- 2 -->
<g id="node4" class="node">
<title>2</title>
<polygon fill="CornflowerBlue" stroke="black" points="64.78,-146.76 46.78,-146.76 46.78,-128.76 64.78,-128.76 64.78,-146.76"/>
</g>
<!-- 1&#45;&#45;2 -->
<g id="edge3" class="edge">
<title>1&#45;&#45;2</title>
<path fill="none" stroke="black" stroke-width="4" d="M103.09,-113.23C92.53,-118.71 75.46,-127.56 64.97,-133"/>
</g>
<!-- 3 -->
<g id="node5" class="node">
<title>3</title>
<polygon fill="CornflowerBlue" stroke="black" points="76.82,-102.3 58.82,-102.3 58.82,-84.3 76.82,-84.3 76.82,-102.3"/>
</g>
<!-- 1&#45;&#45;3 -->
<g id="edge4" class="edge">
<title>1&#45;&#45;3</title>
<path fill="none" stroke="black" stroke-width="4" d="M102.99,-105.18C95.41,-102.62 84.84,-99.05 77.27,-96.49"/>
</g>
<!-- 2&#45;&#45;3 -->
<g id="edge6" class="edge">
<title>2&#45;&#45;3</title>
<path fill="none" stroke="black" stroke-width="4" d="M58.34,-128.33C60.38,-120.79 63.23,-110.26 65.27,-102.72"/>
</g>
<!-- 6 -->
<g id="node6" class="node">
<title>6</title>
<polygon fill="red" stroke="black" points="18,-111.21 0,-111.21 0,-93.21 18,-93.21 18,-111.21"/>
</g>
<!-- 2&#45;&#45;6 -->
<g id="edge7" class="edge">
<title>2&#45;&#45;6</title>
<path fill="none" stroke="black" stroke-width="4" d="M46.32,-130.57C38.2,-124.4 26.57,-115.56 18.45,-109.39"/>
</g>
<!-- 4 -->
<g id="node7" class="node">
<title>4</title>
<polygon fill="red" stroke="black" points="78.32,-70.34 60.32,-70.34 60.32,-52.34 78.32,-52.34 78.32,-70.34"/>
</g>
<!-- 3&#45;&#45;4 -->
<g id="edge8" class="edge">
<title>3&#45;&#45;4</title>
<path fill="none" stroke="black" stroke-width="4" d="M68.26,-83.89C68.45,-79.76 68.68,-74.93 68.87,-70.8"/>
</g>
<!-- 5 -->
<g id="node8" class="node">
<title>5</title>
<polygon fill="CornflowerBlue" stroke="black" points="36.42,-65.26 18.42,-65.26 18.42,-47.26 36.42,-47.26 36.42,-65.26"/>
</g>
<!-- 3&#45;&#45;5 -->
<g id="edge9" class="edge">
<title>3&#45;&#45;5</title>
<path fill="none" stroke="black" stroke-width="4" d="M58.45,-84.71C51.92,-78.73 43.25,-70.78 36.74,-64.81"/>
</g>
<!-- 4&#45;&#45;5 -->
<g id="edge10" class="edge">
<title>4&#45;&#45;5</title>
<path fill="none" stroke="black" stroke-width="4" d="M60.02,-60.22C53.07,-59.37 43.63,-58.23 36.69,-57.39"/>
</g>
<!-- 5&#45;&#45;6 -->
<g id="edge11" class="edge">
<title>5&#45;&#45;6</title>
<path fill="none" stroke="black" stroke-width="4" d="M23.69,-65.56C20.49,-73.53 15.91,-84.96 12.72,-92.92"/>
</g>
<!-- 7 -->
<g id="node9" class="node">
<title>7</title>
<polygon fill="red" stroke="black" points="87.39,-25.2 74.79,-12.6 87.39,0 99.99,-12.6 87.39,-25.2"/>
</g>
<!-- 5&#45;&#45;7 -->
<g id="edge12" class="edge">
<title>5&#45;&#45;7</title>
<path fill="none" stroke="black" stroke-width="4" d="M36.79,-49.44C48.65,-40.81 68.85,-26.1 79.79,-18.13"/>
</g>
<!-- 7&#45;&#45;8 -->
<g id="edge13" class="edge">
<title>7&#45;&#45;8</title>
<path fill="none" stroke="black" stroke-width="4" d="M93.63,-19.26C100.88,-27.01 112.91,-39.85 121.05,-48.54"/>
</g>
</g>
</svg>

