<?xml version="1.0" encoding="UTF-8" standalone="no"?>
<!DOCTYPE svg PUBLIC "-//W3C//DTD SVG 1.1//EN"
 "http://www.w3.org/Graphics/SVG/1.1/DTD/svg11.dtd">
<!-- Generated by graphviz version 2.43.0 (0)
 -->
<!-- Title: g Pages: 1 -->
<svg width="150pt" height="153pt"
 viewBox="0.00 0.00 149.50 153.00" xmlns="http://www.w3.org/2000/svg" xmlns:xlink="http://www.w3.org/1999/xlink">
<g id="graph0" class="graph" transform="scale(1 1) rotate(0) translate(4 149)">
<title>g</title>
<!-- h -->
<g id="node1" class="node">
<title>h</title>
<polygon fill="CornflowerBlue" stroke="black" points="70.75,-25 58.25,-12.5 70.75,0 83.25,-12.5 70.75,-25"/>
</g>
<!-- 1 -->
<g id="node2" class="node">
<title>1</title>
<polygon fill="CornflowerBlue" stroke="black" points="18,-83.25 0,-83.25 0,-65.25 18,-65.25 18,-83.25"/>
</g>
<!-- h&#45;&#45;1 -->
<g id="edge1" class="edge">
<title>h&#45;&#45;1</title>
<path fill="none" stroke="black" stroke-width="4" d="M64.14,-19.11C53.07,-30.19 30.73,-52.52 18.15,-65.1"/>
</g>
<!-- 2 -->
<g id="node3" class="node">
<title>2</title>
<polygon fill="CornflowerBlue" stroke="black" points="79.75,-145 61.75,-145 61.75,-127 79.75,-127 79.75,-145"/>
</g>
<!-- 1&#45;&#45;2 -->
<g id="edge2" class="edge">
<title>1&#45;&#45;2</title>
<path fill="none" stroke="black" stroke-width="4" d="M18.11,-83.36C29.79,-95.04 49.91,-115.16 61.6,-126.86"/>
</g>
<!-- 3 -->
<g id="node4" class="node">
<title>3</title>
<polygon fill="CornflowerBlue" stroke="black" points="141.5,-83.25 123.5,-83.25 123.5,-65.25 141.5,-65.25 141.5,-83.25"/>
</g>
<!-- 2&#45;&#45;3 -->
<g id="edge3" class="edge">
<title>2&#45;&#45;3</title>
<path fill="none" stroke="black" stroke-width="4" d="M79.86,-126.89C91.54,-115.22 111.66,-95.09 123.36,-83.4"/>
</g>
<!-- 3&#45;&#45;h -->
<g id="edge4" class="edge">
<title>3&#45;&#45;h</title>
<path fill="none" stroke="black" stroke-width="4" d="M123.39,-65.14C110.78,-52.53 88.3,-30.05 77.25,-19"/>
</g>
</g>
</svg>

