<?xml version="1.0" encoding="UTF-8" standalone="no"?>
<!-- Created with Inkscape (http://www.inkscape.org/) -->

<svg
   version="1.1"
   id="svg1"
   width="192.74609"
   height="8.7343702"
   viewBox="0 0 192.74609 8.7343703"
   sodipodi:docname="underbrace-red.svg"
   inkscape:version="1.3.2 (091e20e, 2023-11-25)"
   xmlns:inkscape="http://www.inkscape.org/namespaces/inkscape"
   xmlns:sodipodi="http://sodipodi.sourceforge.net/DTD/sodipodi-0.dtd"
   xmlns="http://www.w3.org/2000/svg"
   xmlns:svg="http://www.w3.org/2000/svg">
  <defs
     id="defs1" />
  <sodipodi:namedview
     id="namedview1"
     pagecolor="#ffffff"
     bordercolor="#000000"
     borderopacity="0.25"
     inkscape:showpageshadow="2"
     inkscape:pageopacity="0.0"
     inkscape:pagecheckerboard="0"
     inkscape:deskcolor="#d1d1d1"
     inkscape:zoom="3.531186"
     inkscape:cx="100.5328"
     inkscape:cy="12.318807"
     inkscape:window-width="1728"
     inkscape:window-height="1080"
     inkscape:window-x="0"
     inkscape:window-y="37"
     inkscape:window-maximized="0"
     inkscape:current-layer="g1">
    <inkscape:page
       x="0"
       y="0"
       inkscape:label="1"
       id="page1"
       width="192.74609"
       height="8.7343702"
       margin="0"
       bleed="0" />
  </sodipodi:namedview>
  <g
     id="g1"
     inkscape:groupmode="layer"
     inkscape:label="1"
     transform="translate(-310.46094,-203.50391)">
    <path
       id="path1"
       d="m 318.16407,207.36328 c 0,-0.35937 0,-0.4375 -0.21875,-0.4375 -0.96875,-0.0156 -2.54688,-0.15625 -3.98438,-0.84375 -1.71875,-0.875 -2.375,-1.875 -2.78125,-2.5 -0.0469,-0.0781 -0.14062,-0.0781 -0.34375,-0.0781 -0.35937,0 -0.375,0.0156 -0.375,0.42187 v 0.25 c 2.15625,3.90625 5.75,4.65625 7.375,4.65625 0.32813,0 0.32813,-0.0156 0.32813,-0.45312 z m 0,0"
       style="fill:#ff0000;fill-opacity:1;fill-rule:nonzero;stroke:none;stroke-width:1.33333"
       aria-label="|" />
    <path
       id="path2"
       d="m 318.008,208.83067 h 81.65333 v -1.91333 H 318.008 Z"
       style="fill:#ff0000;fill-opacity:1;fill-rule:nonzero;stroke:none;stroke-width:1.33333" />
    <path
       id="path3"
       d="m 407.20703,211.56641 c -2.15625,-3.89063 -5.75,-4.64063 -7.375,-4.64063 -0.32813,0 -0.32813,0.0156 -0.32813,0.4375 v 1.01563 c 0,0.375 0,0.45312 0.21875,0.45312 0.96875,0.0156 2.54688,0.14063 3.98438,0.84375 1.71875,0.85938 2.375,1.85938 2.78125,2.48438 0.0469,0.0781 0.14062,0.0781 0.34375,0.0781 0.35937,0 0.375,-0.0156 0.375,-0.40625 z m 6.95703,-4.20313 c 0,-0.42187 0,-0.4375 -0.32813,-0.4375 -1.625,0 -5.21875,0.76563 -7.375,4.64063 v 0.26562 c 0,0.39063 0.0156,0.40625 0.375,0.40625 0.29688,0 0.3125,-0.0156 0.40625,-0.125 1.29688,-2.07812 3.5,-3.21875 6.73438,-3.28125 0.1875,0 0.1875,-0.10937 0.1875,-0.45312 z m 0,0"
       style="fill:#ff0000;fill-opacity:1;fill-rule:nonzero;stroke:none;stroke-width:1.33333"
       aria-label="{z" />
    <path
       id="path4"
       d="m 414.008,208.83067 h 81.65333 v -1.91333 H 414.008 Z"
       style="fill:#ff0000;fill-opacity:1;fill-rule:nonzero;stroke:none;stroke-width:1.33333" />
    <path
       id="path5"
       d="m 503.20703,203.92578 c 0,-0.40625 -0.0156,-0.42187 -0.375,-0.42187 -0.29688,0 -0.3125,0.0156 -0.39063,0.125 -1.3125,2.09375 -3.51562,3.23437 -6.75,3.29687 -0.1875,0 -0.1875,0.10938 -0.1875,0.4375 v 1.01563 c 0,0.4375 0,0.45312 0.32813,0.45312 1.625,0 5.21875,-0.76562 7.375,-4.65625 z m 0,0"
       style="fill:#ff0000;fill-opacity:1;fill-rule:nonzero;stroke:none;stroke-width:1.33333" />
  </g>
</svg>
