<?xml version="1.0" encoding="UTF-8" standalone="no"?>
<!DOCTYPE svg PUBLIC "-//W3C//DTD SVG 1.1//EN"
 "http://www.w3.org/Graphics/SVG/1.1/DTD/svg11.dtd">
<!-- Generated by graphviz version 12.1.0 (20240811.2233)
 -->
<!-- Title: BST Pages: 1 -->
<svg width="458pt" height="332pt"
 viewBox="0.00 0.00 458.25 332.00" xmlns="http://www.w3.org/2000/svg" xmlns:xlink="http://www.w3.org/1999/xlink">
<g id="graph0" class="graph" transform="scale(1 1) rotate(0) translate(4 328)">
<title>BST</title>
<polygon fill="white" stroke="none" points="-4,4 -4,-328 454.25,-328 454.25,4 -4,4"/>
<!-- five -->
<g id="node1" class="node">
<title>five</title>
<path fill="yellow" stroke="black" d="M330.25,-324C330.25,-324 300,-324 300,-324 294,-324 288,-318 288,-312 288,-312 288,-300 288,-300 288,-294 294,-288 300,-288 300,-288 330.25,-288 330.25,-288 336.25,-288 342.25,-294 342.25,-300 342.25,-300 342.25,-312 342.25,-312 342.25,-318 336.25,-324 330.25,-324"/>
<text text-anchor="middle" x="315.12" y="-300.57" font-family="Arial" font-size="14.00">Tile(5)</text>
</g>
<!-- four -->
<g id="node2" class="node">
<title>four</title>
<path fill="yellow" stroke="black" d="M258.25,-252C258.25,-252 228,-252 228,-252 222,-252 216,-246 216,-240 216,-240 216,-228 216,-228 216,-222 222,-216 228,-216 228,-216 258.25,-216 258.25,-216 264.25,-216 270.25,-222 270.25,-228 270.25,-228 270.25,-240 270.25,-240 270.25,-246 264.25,-252 258.25,-252"/>
<text text-anchor="middle" x="243.12" y="-228.57" font-family="Arial" font-size="14.00">Tile(4)</text>
</g>
<!-- five&#45;&gt;four -->
<g id="edge1" class="edge">
<title>five&#45;&gt;four</title>
<path fill="none" stroke="black" d="M297.33,-287.7C288.85,-279.45 278.54,-269.43 269.19,-260.35"/>
<polygon fill="black" stroke="black" points="271.66,-257.86 262.05,-253.4 266.78,-262.88 271.66,-257.86"/>
</g>
<!-- threea -->
<g id="node3" class="node">
<title>threea</title>
<path fill="yellow" stroke="black" d="M366.25,-252C366.25,-252 336,-252 336,-252 330,-252 324,-246 324,-240 324,-240 324,-228 324,-228 324,-222 330,-216 336,-216 336,-216 366.25,-216 366.25,-216 372.25,-216 378.25,-222 378.25,-228 378.25,-228 378.25,-240 378.25,-240 378.25,-246 372.25,-252 366.25,-252"/>
<text text-anchor="middle" x="351.12" y="-228.57" font-family="Arial" font-size="14.00">Tile(3)</text>
</g>
<!-- five&#45;&gt;threea -->
<g id="edge2" class="edge">
<title>five&#45;&gt;threea</title>
<path fill="none" stroke="black" d="M324.02,-287.7C327.99,-279.98 332.76,-270.71 337.18,-262.11"/>
<polygon fill="black" stroke="black" points="340.18,-263.94 341.64,-253.45 333.95,-260.74 340.18,-263.94"/>
</g>
<!-- threeb -->
<g id="node4" class="node">
<title>threeb</title>
<path fill="yellow" stroke="black" d="M150.25,-180C150.25,-180 120,-180 120,-180 114,-180 108,-174 108,-168 108,-168 108,-156 108,-156 108,-150 114,-144 120,-144 120,-144 150.25,-144 150.25,-144 156.25,-144 162.25,-150 162.25,-156 162.25,-156 162.25,-168 162.25,-168 162.25,-174 156.25,-180 150.25,-180"/>
<text text-anchor="middle" x="135.12" y="-156.57" font-family="Arial" font-size="14.00">Tile(3)</text>
</g>
<!-- four&#45;&gt;threeb -->
<g id="edge3" class="edge">
<title>four&#45;&gt;threeb</title>
<path fill="none" stroke="black" d="M216.15,-215.52C202.52,-206.68 185.79,-195.84 171.08,-186.3"/>
<polygon fill="black" stroke="black" points="173.32,-183.59 163.03,-181.08 169.51,-189.46 173.32,-183.59"/>
</g>
<!-- twoa -->
<g id="node5" class="node">
<title>twoa</title>
<path fill="yellow" stroke="black" d="M258.25,-180C258.25,-180 228,-180 228,-180 222,-180 216,-174 216,-168 216,-168 216,-156 216,-156 216,-150 222,-144 228,-144 228,-144 258.25,-144 258.25,-144 264.25,-144 270.25,-150 270.25,-156 270.25,-156 270.25,-168 270.25,-168 270.25,-174 264.25,-180 258.25,-180"/>
<text text-anchor="middle" x="243.12" y="-156.57" font-family="Arial" font-size="14.00">Tile(2)</text>
</g>
<!-- four&#45;&gt;twoa -->
<g id="edge4" class="edge">
<title>four&#45;&gt;twoa</title>
<path fill="none" stroke="black" d="M243.12,-215.7C243.12,-208.41 243.12,-199.73 243.12,-191.54"/>
<polygon fill="black" stroke="black" points="246.63,-191.62 243.13,-181.62 239.63,-191.62 246.63,-191.62"/>
</g>
<!-- twob -->
<g id="node6" class="node">
<title>twob</title>
<path fill="yellow" stroke="black" d="M366.25,-180C366.25,-180 336,-180 336,-180 330,-180 324,-174 324,-168 324,-168 324,-156 324,-156 324,-150 330,-144 336,-144 336,-144 366.25,-144 366.25,-144 372.25,-144 378.25,-150 378.25,-156 378.25,-156 378.25,-168 378.25,-168 378.25,-174 372.25,-180 366.25,-180"/>
<text text-anchor="middle" x="351.12" y="-156.57" font-family="Arial" font-size="14.00">Tile(2)</text>
</g>
<!-- threea&#45;&gt;twob -->
<g id="edge5" class="edge">
<title>threea&#45;&gt;twob</title>
<path fill="none" stroke="black" d="M351.12,-215.7C351.12,-208.41 351.12,-199.73 351.12,-191.54"/>
<polygon fill="black" stroke="black" points="354.63,-191.62 351.13,-181.62 347.63,-191.62 354.63,-191.62"/>
</g>
<!-- onea -->
<g id="node8" class="node">
<title>onea</title>
<path fill="yellow" stroke="black" d="M438.25,-180C438.25,-180 408,-180 408,-180 402,-180 396,-174 396,-168 396,-168 396,-156 396,-156 396,-150 402,-144 408,-144 408,-144 438.25,-144 438.25,-144 444.25,-144 450.25,-150 450.25,-156 450.25,-156 450.25,-168 450.25,-168 450.25,-174 444.25,-180 438.25,-180"/>
<text text-anchor="middle" x="423.12" y="-156.57" font-family="Arial" font-size="14.00">Tile(1)</text>
</g>
<!-- threea&#45;&gt;onea -->
<g id="edge6" class="edge">
<title>threea&#45;&gt;onea</title>
<path fill="none" stroke="black" d="M368.92,-215.7C377.4,-207.45 387.71,-197.43 397.06,-188.35"/>
<polygon fill="black" stroke="black" points="399.47,-190.88 404.2,-181.4 394.59,-185.86 399.47,-190.88"/>
</g>
<!-- twoc -->
<g id="node7" class="node">
<title>twoc</title>
<path fill="yellow" stroke="black" d="M78.25,-108C78.25,-108 48,-108 48,-108 42,-108 36,-102 36,-96 36,-96 36,-84 36,-84 36,-78 42,-72 48,-72 48,-72 78.25,-72 78.25,-72 84.25,-72 90.25,-78 90.25,-84 90.25,-84 90.25,-96 90.25,-96 90.25,-102 84.25,-108 78.25,-108"/>
<text text-anchor="middle" x="63.12" y="-84.58" font-family="Arial" font-size="14.00">Tile(2)</text>
</g>
<!-- threeb&#45;&gt;twoc -->
<g id="edge7" class="edge">
<title>threeb&#45;&gt;twoc</title>
<path fill="none" stroke="black" d="M117.33,-143.7C108.85,-135.45 98.54,-125.43 89.19,-116.35"/>
<polygon fill="black" stroke="black" points="91.66,-113.86 82.05,-109.4 86.78,-118.88 91.66,-113.86"/>
</g>
<!-- oneb -->
<g id="node9" class="node">
<title>oneb</title>
<path fill="yellow" stroke="black" d="M150.25,-108C150.25,-108 120,-108 120,-108 114,-108 108,-102 108,-96 108,-96 108,-84 108,-84 108,-78 114,-72 120,-72 120,-72 150.25,-72 150.25,-72 156.25,-72 162.25,-78 162.25,-84 162.25,-84 162.25,-96 162.25,-96 162.25,-102 156.25,-108 150.25,-108"/>
<text text-anchor="middle" x="135.12" y="-84.58" font-family="Arial" font-size="14.00">Tile(1)</text>
</g>
<!-- threeb&#45;&gt;oneb -->
<g id="edge8" class="edge">
<title>threeb&#45;&gt;oneb</title>
<path fill="none" stroke="black" d="M135.12,-143.7C135.12,-136.41 135.12,-127.73 135.12,-119.54"/>
<polygon fill="black" stroke="black" points="138.63,-119.62 135.13,-109.62 131.63,-119.62 138.63,-119.62"/>
</g>
<!-- onec -->
<g id="node10" class="node">
<title>onec</title>
<path fill="yellow" stroke="black" d="M222.25,-108C222.25,-108 192,-108 192,-108 186,-108 180,-102 180,-96 180,-96 180,-84 180,-84 180,-78 186,-72 192,-72 192,-72 222.25,-72 222.25,-72 228.25,-72 234.25,-78 234.25,-84 234.25,-84 234.25,-96 234.25,-96 234.25,-102 228.25,-108 222.25,-108"/>
<text text-anchor="middle" x="207.12" y="-84.58" font-family="Arial" font-size="14.00">Tile(1)</text>
</g>
<!-- twoa&#45;&gt;onec -->
<g id="edge9" class="edge">
<title>twoa&#45;&gt;onec</title>
<path fill="none" stroke="black" d="M234.23,-143.7C230.26,-135.98 225.49,-126.71 221.07,-118.11"/>
<polygon fill="black" stroke="black" points="224.3,-116.74 216.61,-109.45 218.07,-119.94 224.3,-116.74"/>
</g>
<!-- zeroa -->
<g id="node13" class="node">
<title>zeroa</title>
<path fill="yellow" stroke="black" d="M294.25,-108C294.25,-108 264,-108 264,-108 258,-108 252,-102 252,-96 252,-96 252,-84 252,-84 252,-78 258,-72 264,-72 264,-72 294.25,-72 294.25,-72 300.25,-72 306.25,-78 306.25,-84 306.25,-84 306.25,-96 306.25,-96 306.25,-102 300.25,-108 294.25,-108"/>
<text text-anchor="middle" x="279.12" y="-84.58" font-family="Arial" font-size="14.00">Tile(0)</text>
</g>
<!-- twoa&#45;&gt;zeroa -->
<g id="edge10" class="edge">
<title>twoa&#45;&gt;zeroa</title>
<path fill="none" stroke="black" d="M252.02,-143.7C255.99,-135.98 260.76,-126.71 265.18,-118.11"/>
<polygon fill="black" stroke="black" points="268.18,-119.94 269.64,-109.45 261.95,-116.74 268.18,-119.94"/>
</g>
<!-- oned -->
<g id="node11" class="node">
<title>oned</title>
<path fill="yellow" stroke="black" d="M366.25,-108C366.25,-108 336,-108 336,-108 330,-108 324,-102 324,-96 324,-96 324,-84 324,-84 324,-78 330,-72 336,-72 336,-72 366.25,-72 366.25,-72 372.25,-72 378.25,-78 378.25,-84 378.25,-84 378.25,-96 378.25,-96 378.25,-102 372.25,-108 366.25,-108"/>
<text text-anchor="middle" x="351.12" y="-84.58" font-family="Arial" font-size="14.00">Tile(1)</text>
</g>
<!-- twob&#45;&gt;oned -->
<g id="edge11" class="edge">
<title>twob&#45;&gt;oned</title>
<path fill="none" stroke="black" d="M351.12,-143.7C351.12,-136.41 351.12,-127.73 351.12,-119.54"/>
<polygon fill="black" stroke="black" points="354.63,-119.62 351.13,-109.62 347.63,-119.62 354.63,-119.62"/>
</g>
<!-- zerob -->
<g id="node14" class="node">
<title>zerob</title>
<path fill="yellow" stroke="black" d="M438.25,-108C438.25,-108 408,-108 408,-108 402,-108 396,-102 396,-96 396,-96 396,-84 396,-84 396,-78 402,-72 408,-72 408,-72 438.25,-72 438.25,-72 444.25,-72 450.25,-78 450.25,-84 450.25,-84 450.25,-96 450.25,-96 450.25,-102 444.25,-108 438.25,-108"/>
<text text-anchor="middle" x="423.12" y="-84.58" font-family="Arial" font-size="14.00">Tile(0)</text>
</g>
<!-- twob&#45;&gt;zerob -->
<g id="edge12" class="edge">
<title>twob&#45;&gt;zerob</title>
<path fill="none" stroke="black" d="M368.92,-143.7C377.4,-135.45 387.71,-125.43 397.06,-116.35"/>
<polygon fill="black" stroke="black" points="399.47,-118.88 404.2,-109.4 394.59,-113.86 399.47,-118.88"/>
</g>
<!-- onee -->
<g id="node12" class="node">
<title>onee</title>
<path fill="yellow" stroke="black" d="M42.25,-36C42.25,-36 12,-36 12,-36 6,-36 0,-30 0,-24 0,-24 0,-12 0,-12 0,-6 6,0 12,0 12,0 42.25,0 42.25,0 48.25,0 54.25,-6 54.25,-12 54.25,-12 54.25,-24 54.25,-24 54.25,-30 48.25,-36 42.25,-36"/>
<text text-anchor="middle" x="27.12" y="-12.57" font-family="Arial" font-size="14.00">Tile(1)</text>
</g>
<!-- twoc&#45;&gt;onee -->
<g id="edge13" class="edge">
<title>twoc&#45;&gt;onee</title>
<path fill="none" stroke="black" d="M54.23,-71.7C50.26,-63.98 45.49,-54.71 41.07,-46.11"/>
<polygon fill="black" stroke="black" points="44.3,-44.74 36.61,-37.45 38.07,-47.94 44.3,-44.74"/>
</g>
<!-- zeroc -->
<g id="node15" class="node">
<title>zeroc</title>
<path fill="yellow" stroke="black" d="M114.25,-36C114.25,-36 84,-36 84,-36 78,-36 72,-30 72,-24 72,-24 72,-12 72,-12 72,-6 78,0 84,0 84,0 114.25,0 114.25,0 120.25,0 126.25,-6 126.25,-12 126.25,-12 126.25,-24 126.25,-24 126.25,-30 120.25,-36 114.25,-36"/>
<text text-anchor="middle" x="99.12" y="-12.57" font-family="Arial" font-size="14.00">Tile(0)</text>
</g>
<!-- twoc&#45;&gt;zeroc -->
<g id="edge14" class="edge">
<title>twoc&#45;&gt;zeroc</title>
<path fill="none" stroke="black" d="M72.02,-71.7C75.99,-63.98 80.76,-54.71 85.18,-46.11"/>
<polygon fill="black" stroke="black" points="88.18,-47.94 89.64,-37.45 81.95,-44.74 88.18,-47.94"/>
</g>
</g>
</svg>
