<?xml version="1.0" encoding="UTF-8" standalone="no"?>
<!-- Created with Inkscape (http://www.inkscape.org/) -->

<svg
   version="1.1"
   id="svg1"
   width="725.4267"
   height="382.24268"
   viewBox="0 0 725.4267 382.24268"
   sodipodi:docname="graph.pdf"
   xmlns:inkscape="http://www.inkscape.org/namespaces/inkscape"
   xmlns:sodipodi="http://sodipodi.sourceforge.net/DTD/sodipodi-0.dtd"
   xmlns="http://www.w3.org/2000/svg"
   xmlns:svg="http://www.w3.org/2000/svg">
  <defs
     id="defs1" />
  <sodipodi:namedview
     id="namedview1"
     pagecolor="#ffffff"
     bordercolor="#000000"
     borderopacity="0.25"
     inkscape:showpageshadow="2"
     inkscape:pageopacity="0.0"
     inkscape:pagecheckerboard="0"
     inkscape:deskcolor="#d1d1d1">
    <inkscape:page
       x="0"
       y="0"
       inkscape:label="1"
       id="page1"
       width="725.4267"
       height="382.24268"
       margin="0"
       bleed="0" />
  </sodipodi:namedview>
  <g
     id="g1"
     inkscape:groupmode="layer"
     inkscape:label="1">
    <path
       id="path1"
       d="m 7.61728,141.73404 c 0,4.20696 -3.41034,7.61729 -7.61728,7.61729 -4.20694,0 -7.61728,-3.41033 -7.61728,-7.61729 0,-4.20696 3.41034,-7.61728 7.61728,-7.61728 4.20694,0 7.61728,3.41032 7.61728,7.61728 z"
       style="fill:#ffffff;fill-opacity:1;fill-rule:nonzero;stroke:#000000;stroke-width:1.19553;stroke-linecap:butt;stroke-linejoin:miter;stroke-miterlimit:10;stroke-dasharray:none;stroke-opacity:1"
       transform="matrix(1.3333333,0,0,-1.3333333,22.292,370.39333)" />
    <path
       id="path2"
       d="m 3.4224453,-4.2760234 c -0.5273437,-0.234375 -0.9257812,-0.3164063 -1.4414062,-0.3164063 -0.2460938,0 -1.65234379,0 -1.65234379,1.3007813 0,0.4921875 0.29296875,0.8085937 0.5390625,0.9960937 0.30468749,0.2226563 0.52734379,0.2695313 1.07812499,0.375 0.3515625,0.070312 0.9375,0.1875 0.9375,0.7148438 0,0.69140621 -0.7851562,0.69140621 -0.9375,0.69140621 -0.8085937,0 -1.37109374,-0.375 -1.54687499,-0.49218751 l -0.1171875,0.67968751 c 0.31640625,0.1640625 0.86718749,0.43359375 1.67578129,0.43359375 0.1757812,0 0.7265625,0 1.1484375,-0.31640625 0.3164062,-0.234375 0.4804687,-0.6328125 0.4804687,-1.06640621 0,-0.5507813 -0.3632812,-0.8789063 -0.3867187,-0.9140625 -0.3867188,-0.3515625 -0.65625,-0.4101563 -1.1601563,-0.5039063 -0.5390625,-0.1054687 -1.0078125,-0.1992187 -1.0078125,-0.6914062 0,-0.6210938 0.7265625,-0.6210938 0.8554688,-0.6210938 0.3164062,0 0.84375,0.046875 1.40625,0.3867188 z m 0,0"
       style="fill:#000000;fill-opacity:1;fill-rule:nonzero;stroke:none"
       aria-label="s"
       transform="matrix(1.3333333,0,0,1.3333333,19.745333,184.36933)" />
    <path
       id="path3"
       d="m 518.25656,141.73404 c 0,4.42606 -3.58794,8.01399 -8.01399,8.01399 -4.42606,0 -8.01399,-3.58793 -8.01399,-8.01399 0,-4.42606 3.58793,-8.01399 8.01399,-8.01399 4.42605,0 8.01399,3.58793 8.01399,8.01399 z"
       style="fill:#ffffff;fill-opacity:1;fill-rule:nonzero;stroke:#000000;stroke-width:1.19553;stroke-linecap:butt;stroke-linejoin:miter;stroke-miterlimit:10;stroke-dasharray:none;stroke-opacity:1"
       transform="matrix(1.3333333,0,0,-1.3333333,22.292,370.39333)" />
    <path
       id="path4"
       d="m 1.7453672,-3.8426172 h 1.40625 v -0.5742187 h -1.40625 v -1.265625 H 1.0539609 v 1.265625 H 0.18677344 v 0.5742187 H 1.0305234 v 2.6601563 c 0,0.59765621 0.1289063,1.28906246 0.8203125,1.28906246 0.703125,0 1.2070313,-0.24609375 1.453125,-0.375 l -0.1523437,-0.5859375 c -0.2578125,0.2109375 -0.5859375,0.328125 -0.9023438,0.328125 -0.3632812,0 -0.5039062,-0.3046875 -0.5039062,-0.83203126 z m 0,0"
       style="fill:#000000;fill-opacity:1;fill-rule:nonzero;stroke:none"
       aria-label="t"
       transform="matrix(1.3333333,0,0,1.3333333,700.208,185.21333)" />
    <path
       id="path5"
       d="M 70.86702,14.17334 H 99.21381 V 269.29472 H 70.86702 Z"
       style="fill:#feee91;fill-opacity:1;fill-rule:nonzero;stroke:none"
       transform="matrix(1.3333333,0,0,-1.3333333,22.292,370.39333)" />
    <path
       id="path6"
       d="m 4.0884453,-4.1607344 c -0.5976562,-0.3398437 -0.9375,-0.4335937 -1.5351562,-0.4335937 -1.3945313,0 -2.19140629,1.2070312 -2.19140629,2.3789062 0,1.24218752 0.90234379,2.32031252 2.14453129,2.32031252 0.5390625,0 1.0898437,-0.140625 1.6289062,-0.50390625 L 4.0767266,-1.0669844 c -0.515625,0.39843752 -1.0546875,0.53906252 -1.5585938,0.53906252 -0.8203125,0 -1.3828125,-0.71484372 -1.3828125,-1.69921872 0,-0.7734375 0.3632813,-1.7226563 1.4179688,-1.7226563 0.5273437,0 0.8671875,0.070312 1.40625,0.4335938 z m 1.8984375,-2.7539062 h -0.75 v 6.914062475 h 0.75 z m 4.7929692,4.03125 c 0,-1.0078125 -0.726563,-1.7109375 -1.6406254,-1.7109375 -0.6445313,0 -1.1015625,0.1640625 -1.5703125,0.4335937 l 0.070312,0.65625 c 0.515625,-0.375 1.0078125,-0.5039062 1.5,-0.5039062 0.46875,0 0.8671879,0.3984375 0.8671879,1.1367187 v 0.4335938 c -1.5000004,0.011719 -2.7656254,0.4335937 -2.7656254,1.3125 0,0.42187497 0.2695312,1.23046872 1.1367187,1.23046872 0.140625,0 1.078125,-0.01171875 1.6523447,-0.46875 v 0.363281255 h 0.75 z m -0.773438,1.5703125 c 0,0.1875 0,0.43359372 -0.3398437,0.62109372 -0.2929687,0.1875 -0.6679687,0.1875 -0.7734375,0.1875 -0.4804687,0 -0.9257812,-0.22265625 -0.9257812,-0.64453122 0,-0.6914063 1.6054687,-0.7617188 2.0390624,-0.7851563 z m 5.009766,-2.9648438 c -0.527344,-0.234375 -0.925782,-0.3164062 -1.441407,-0.3164062 -0.246093,0 -1.652343,0 -1.652343,1.3007812 0,0.4921875 0.292968,0.8085938 0.539062,0.9960938 0.304688,0.2226562 0.527344,0.2695312 1.078125,0.375 0.351563,0.070312 0.9375,0.1875 0.9375,0.7148437 0,0.69140627 -0.785156,0.69140627 -0.9375,0.69140627 -0.808594,0 -1.371094,-0.375 -1.546875,-0.49218747 l -0.117187,0.67968747 c 0.316406,0.1640625 0.867187,0.43359375 1.675781,0.43359375 0.175781,0 0.726562,0 1.148437,-0.31640625 0.316407,-0.234375 0.480469,-0.6328125 0.480469,-1.06640627 0,-0.5507812 -0.363281,-0.8789062 -0.386719,-0.9140625 -0.386718,-0.3515625 -0.65625,-0.4101562 -1.160156,-0.5039062 -0.539062,-0.1054688 -1.007812,-0.1992188 -1.007812,-0.6914063 0,-0.6210937 0.726562,-0.6210937 0.855468,-0.6210937 0.316407,0 0.84375,0.046875 1.40625,0.3867187 z m 3.820312,0 c -0.527344,-0.234375 -0.925781,-0.3164062 -1.441406,-0.3164062 -0.246094,0 -1.652344,0 -1.652344,1.3007812 0,0.4921875 0.292969,0.8085938 0.539063,0.9960938 0.304687,0.2226562 0.527343,0.2695312 1.078125,0.375 0.351562,0.070312 0.9375,0.1875 0.9375,0.7148437 0,0.69140627 -0.785157,0.69140627 -0.9375,0.69140627 -0.808594,0 -1.371094,-0.375 -1.546875,-0.49218747 l -0.117188,0.67968747 c 0.316406,0.1640625 0.867188,0.43359375 1.675781,0.43359375 0.175782,0 0.726563,0 1.148438,-0.31640625 0.316406,-0.234375 0.480469,-0.6328125 0.480469,-1.06640627 0,-0.5507812 -0.363282,-0.8789062 -0.386719,-0.9140625 -0.386719,-0.3515625 -0.65625,-0.4101562 -1.160156,-0.5039062 -0.539063,-0.1054688 -1.007813,-0.1992188 -1.007813,-0.6914063 0,-0.6210937 0.726563,-0.6210937 0.855469,-0.6210937 0.316406,0 0.84375,0.046875 1.40625,0.3867187 z M 23.357,-2.1802656 c 0,-0.3398438 -0.01172,-1.0898438 -0.398438,-1.6875 -0.410156,-0.6210938 -1.019531,-0.7265625 -1.371093,-0.7265625 -1.113282,0 -2.003907,1.0546875 -2.003907,2.34375 0,1.31249997 0.949219,2.35546872 2.144532,2.35546872 0.632812,0 1.195312,-0.234375 1.59375,-0.515625 l -0.07031,-0.64453122 c -0.621094,0.51562497 -1.277344,0.55078122 -1.511719,0.55078122 -0.796875,0 -1.429687,-0.70312502 -1.464843,-1.67578122 z m -3.023438,-0.5507813 c 0.152344,-0.7617187 0.679688,-1.2539062 1.253907,-1.2539062 0.515625,0 1.066406,0.3398437 1.195312,1.2539062 z m 6.747071,-1.546875 c -0.527344,-0.234375 -0.925781,-0.3164062 -1.441406,-0.3164062 -0.246094,0 -1.652344,0 -1.652344,1.3007812 0,0.4921875 0.292969,0.8085938 0.539062,0.9960938 0.304688,0.2226562 0.527344,0.2695312 1.078125,0.375 0.351563,0.070312 0.9375,0.1875 0.9375,0.7148437 0,0.69140627 -0.785156,0.69140627 -0.9375,0.69140627 -0.808593,0 -1.371093,-0.375 -1.546875,-0.49218747 l -0.117187,0.67968747 c 0.316406,0.1640625 0.867187,0.43359375 1.675781,0.43359375 0.175781,0 0.726563,0 1.148438,-0.31640625 0.316406,-0.234375 0.480468,-0.6328125 0.480468,-1.06640627 0,-0.5507812 -0.363281,-0.8789062 -0.386718,-0.9140625 -0.386719,-0.3515625 -0.65625,-0.4101562 -1.160157,-0.5039062 -0.539062,-0.1054688 -1.007812,-0.1992188 -1.007812,-0.6914063 0,-0.6210937 0.726562,-0.6210937 0.855469,-0.6210937 0.316406,0 0.84375,0.046875 1.40625,0.3867187 z m 0,0"
       style="fill:#000000;fill-opacity:1;fill-rule:nonzero;stroke:none"
       aria-label="classes"
       transform="matrix(1.3333333,0,0,1.3333333,117.35733,366.47733)" />
    <path
       id="path7"
       d="m 184.25426,42.52017 h 28.34679 V 240.9479 h -28.34679 z"
       style="fill:#feee91;fill-opacity:1;fill-rule:nonzero;stroke:none"
       transform="matrix(1.3333333,0,0,-1.3333333,22.292,370.39333)" />
    <path
       id="path8"
       d="m 1.5596484,-2.1332812 c 0,-0.9960938 0.7265625,-1.7109375 1.6992188,-1.734375 V -4.535625 c -0.890625,0.011719 -1.4296875,0.5039063 -1.7460938,0.9609375 V -4.48875 H 0.82136719 V -4.6875e-4 H 1.5596484 Z m 6.5214844,-0.058594 c 0,-1.3359375 -0.9960937,-2.4023437 -2.1796875,-2.4023437 -1.2304687,0 -2.1914062,1.1015625 -2.1914062,2.4023437 0,1.3125 1.0078125,2.296875 2.1796875,2.296875 1.1953125,0 2.1914062,-1.0078125 2.1914062,-2.296875 z m -2.1914062,1.6640625 c -0.6914063,0 -1.40625,-0.5625 -1.40625,-1.7695312 0,-1.1953125 0.75,-1.6875 1.40625,-1.6875 0.6914062,0 1.40625,0.515625 1.40625,1.6875 0,1.1835937 -0.6679688,1.7695312 -1.40625,1.7695312 z M 13.339922,-2.191875 c 0,-1.3359375 -0.996094,-2.4023437 -2.179688,-2.4023437 -1.2304684,0 -2.1914059,1.1015625 -2.1914059,2.4023437 0,1.3125 1.0078125,2.296875 2.1796879,2.296875 1.195312,0 2.191406,-1.0078125 2.191406,-2.296875 z m -2.191406,1.6640625 c -0.691407,0 -1.4062504,-0.5625 -1.4062504,-1.7695312 0,-1.1953125 0.7500004,-1.6875 1.4062504,-1.6875 0.691406,0 1.40625,0.515625 1.40625,1.6875 0,1.1835937 -0.667969,1.7695312 -1.40625,1.7695312 z m 9.597656,-2.4375 c 0,-0.6679687 -0.164063,-1.5703125 -1.359375,-1.5703125 -0.597656,0 -1.125,0.28125 -1.488281,0.8203125 -0.257813,-0.7617187 -0.960938,-0.8203125 -1.277344,-0.8203125 -0.714844,0 -1.183594,0.4101563 -1.453125,0.7734375 V -4.48875 h -0.714844 v 4.48828125 h 0.773438 V -2.4379687 c 0,-0.6796875 0.269531,-1.4882813 1.007812,-1.4882813 0.925781,0 0.972656,0.6445313 0.972656,1.03125 v 2.89453125 h 0.785157 V -2.4379687 c 0,-0.6796875 0.269531,-1.4882813 0.996093,-1.4882813 0.9375,0 0.984375,0.6445313 0.984375,1.03125 v 2.89453125 h 0.773438 z m 4.236328,-1.3125 c -0.527344,-0.234375 -0.925781,-0.3164062 -1.441406,-0.3164062 -0.246094,0 -1.652344,0 -1.652344,1.3007812 0,0.4921875 0.292969,0.8085938 0.539063,0.9960938 0.304687,0.2226562 0.527343,0.2695312 1.078125,0.375 0.351562,0.070312 0.9375,0.1875 0.9375,0.7148437 0,0.69140625 -0.785157,0.69140625 -0.9375,0.69140625 -0.808594,0 -1.371094,-0.375 -1.546875,-0.49218745 l -0.117188,0.67968745 C 22.158281,-0.16453125 22.709063,0.105 23.517656,0.105 c 0.175782,0 0.726563,0 1.148438,-0.31640625 0.316406,-0.234375 0.480469,-0.6328125 0.480469,-1.06640625 0,-0.5507812 -0.363282,-0.8789062 -0.386719,-0.9140625 -0.386719,-0.3515625 -0.65625,-0.4101562 -1.160156,-0.5039062 C 23.060625,-2.80125 22.591875,-2.895 22.591875,-3.3871875 c 0,-0.6210937 0.726563,-0.6210937 0.855469,-0.6210937 0.316406,0 0.84375,0.046875 1.40625,0.3867187 z m 0,0"
       style="fill:#000000;fill-opacity:1;fill-rule:nonzero;stroke:none"
       aria-label="rooms"
       transform="matrix(1.3333333,0,0,1.3333333,269.94,325.36)" />
    <path
       id="path9"
       d="M 297.64151,42.52017 H 325.9883 V 240.9479 h -28.34679 z"
       style="fill:#feee91;fill-opacity:1;fill-rule:nonzero;stroke:none"
       transform="matrix(1.3333333,0,0,-1.3333333,22.292,370.39333)" />
    <path
       id="path10"
       d="m 1.7470313,-3.8443984 h 1.40625 v -0.5742188 h -1.40625 v -1.265625 H 1.055625 v 1.265625 H 0.1884375 v 0.5742188 h 0.84375 v 2.6601562 c 0,0.59765626 0.1289063,1.28906251 0.8203125,1.28906251 0.703125,0 1.2070313,-0.24609375 1.453125,-0.375 l -0.1523437,-0.5859375 c -0.2578125,0.2109375 -0.5859375,0.328125 -0.9023438,0.328125 -0.3632812,0 -0.5039062,-0.3046875 -0.5039062,-0.83203121 z M 5.2275,-6.7740859 H 4.336875 v 0.890625 H 5.2275 Z m -0.070312,2.3554687 h -0.75 v 4.4179687625 h 0.75 z m 7.921876,1.453125 c 0,-0.6679687 -0.164063,-1.5703125 -1.359375,-1.5703125 -0.597657,0 -1.125,0.28125 -1.488282,0.8203125 -0.2578127,-0.7617187 -0.9609377,-0.8203125 -1.277344,-0.8203125 -0.7148437,0 -1.1835937,0.4101563 -1.453125,0.7734375 V -4.4889297 H 6.7860938 V -6.484375e-4 H 7.5595313 V -2.4381484 c 0,-0.6796875 0.2695312,-1.4882813 1.0078125,-1.4882813 0.9257812,0 0.9726562,0.6445313 0.9726562,1.03125 v 2.8945312625 h 0.785156 V -2.4381484 c 0,-0.6796875 0.269532,-1.4882813 0.996094,-1.4882813 0.9375,0 0.984375,0.6445313 0.984375,1.03125 v 2.8945312625 h 0.773438 z m 4.936523,0.7851563 c 0,-0.3398438 -0.01172,-1.0898438 -0.398438,-1.6875 -0.410156,-0.6210938 -1.019531,-0.7265625 -1.371093,-0.7265625 -1.113282,0 -2.003907,1.0546875 -2.003907,2.34375 0,1.31249996 0.949219,2.35546871 2.144532,2.35546871 0.632812,0 1.195312,-0.234375 1.59375,-0.515625 l -0.07031,-0.64453121 c -0.621094,0.51562496 -1.277344,0.55078121 -1.511719,0.55078121 -0.796875,0 -1.429687,-0.70312501 -1.464843,-1.67578121 z m -3.023438,-0.5507813 c 0.152344,-0.7617187 0.679688,-1.2539062 1.253906,-1.2539062 0.515625,0 1.066407,0.3398437 1.195313,1.2539062 z m 6.749999,-1.546875 c -0.527343,-0.234375 -0.925781,-0.3164062 -1.441406,-0.3164062 -0.246094,0 -1.652344,0 -1.652344,1.3007812 0,0.4921875 0.292969,0.8085938 0.539063,0.9960938 0.304687,0.2226562 0.527344,0.2695312 1.078125,0.375 0.351562,0.070312 0.9375,0.1875 0.9375,0.7148437 0,0.69140626 -0.785156,0.69140626 -0.9375,0.69140626 -0.808594,0 -1.371094,-0.375 -1.546875,-0.49218746 l -0.117188,0.67968746 c 0.316407,0.1640625 0.867188,0.43359375 1.675782,0.43359375 0.175782,0 0.726563,0 1.148438,-0.31640625 0.316406,-0.234375 0.480469,-0.6328125 0.480469,-1.06640626 0,-0.5507812 -0.363282,-0.8789062 -0.386719,-0.9140625 -0.386719,-0.3515625 -0.65625,-0.4101562 -1.160156,-0.5039062 -0.539063,-0.1054688 -1.007813,-0.1992188 -1.007813,-0.6914063 0,-0.6210937 0.726563,-0.6210937 0.855469,-0.6210937 0.316406,0 0.84375,0.046875 1.40625,0.3867187 z m 0,0"
       style="fill:#000000;fill-opacity:1;fill-rule:nonzero;stroke:none"
       aria-label="times"
       transform="matrix(1.3333333,0,0,1.3333333,423.28,328.48133)" />
    <path
       id="path11"
       d="m 411.02875,42.52017 h 28.34679 V 240.9479 h -28.34679 z"
       style="fill:#feee91;fill-opacity:1;fill-rule:nonzero;stroke:none"
       transform="matrix(1.3333333,0,0,-1.3333333,22.292,370.39333)" />
    <path
       id="path12"
       d="m 1.5945781,-0.457875 c 0.3046875,0.29296875 0.75,0.5625 1.3476563,0.5625 0.9609375,0 1.8398437,-0.97265625 1.8398437,-2.3320313 0,-1.1953125 -0.6328125,-2.3085937 -1.5820312,-2.3085937 -0.5976563,0 -1.171875,0.2109375 -1.640625,0.5976562 V -4.4188125 H 0.82114062 V 1.93275 H 1.5945781 Z m 0,-2.859375 c 0.234375,-0.3515625 0.6328125,-0.5742188 1.0546875,-0.5742188 0.7617188,0 1.359375,0.75 1.359375,1.6640625 0,1.03125 -0.7148437,1.7226563 -1.453125,1.7226563 -0.3984375,0 -0.65625,-0.19921875 -0.8554687,-0.45703125 C 1.5945781,-1.114125 1.5945781,-1.1375625 1.5945781,-1.3133438 Z m 4.8339844,1.1835937 c 0,-0.9960937 0.7265625,-1.7109375 1.6992187,-1.734375 V -4.536 c -0.890625,0.011719 -1.4296875,0.5039062 -1.7460937,0.9609375 V -4.489125 H 5.6902812 V -8.4375e-4 H 6.4285625 Z M 12.950047,-2.19225 c 0,-1.3359375 -0.996094,-2.4023438 -2.179688,-2.4023438 -1.2304684,0 -2.1914059,1.1015625 -2.1914059,2.4023438 0,1.3125 1.0078125,2.296875 2.1796879,2.296875 1.195312,0 2.191406,-1.0078125 2.191406,-2.296875 z m -2.191406,1.6640625 c -0.691407,0 -1.4062504,-0.5625 -1.4062504,-1.7695313 0,-1.1953125 0.7500004,-1.6875 1.4062504,-1.6875 0.691406,0 1.40625,0.515625 1.40625,1.6875 0,1.1835938 -0.667969,1.7695313 -1.40625,1.7695313 z M 17.622898,-4.161 c -0.597656,-0.3398438 -0.9375,-0.4335938 -1.535156,-0.4335938 -1.394531,0 -2.191406,1.2070313 -2.191406,2.3789063 0,1.2421875 0.902344,2.3203125 2.144531,2.3203125 0.539063,0 1.089844,-0.140625 1.628906,-0.50390625 L 17.61118,-1.06725 c -0.515625,0.3984375 -1.054688,0.5390625 -1.558594,0.5390625 -0.820313,0 -1.382813,-0.7148438 -1.382813,-1.6992188 0,-0.7734375 0.363282,-1.7226562 1.417969,-1.7226562 0.527344,0 0.867188,0.070312 1.40625,0.4335937 z m 2.083008,0.3164062 h 1.40625 v -0.5742187 h -1.40625 v -1.265625 H 19.0145 v 1.265625 h -0.867188 v 0.5742187 h 0.84375 v 2.6601563 c 0,0.59765625 0.128907,1.2890625 0.820313,1.2890625 0.703125,0 1.207031,-0.24609375 1.453125,-0.375 l -0.152344,-0.5859375 c -0.257812,0.2109375 -0.585937,0.328125 -0.902344,0.328125 -0.363281,0 -0.503906,-0.3046875 -0.503906,-0.8320313 z M 26.23325,-2.19225 c 0,-1.3359375 -0.996094,-2.4023438 -2.179688,-2.4023438 -1.230468,0 -2.191406,1.1015625 -2.191406,2.4023438 0,1.3125 1.007813,2.296875 2.179688,2.296875 1.195312,0 2.191406,-1.0078125 2.191406,-2.296875 z m -2.191406,1.6640625 c -0.691407,0 -1.40625,-0.5625 -1.40625,-1.7695313 0,-1.1953125 0.75,-1.6875 1.40625,-1.6875 0.691406,0 1.40625,0.515625 1.40625,1.6875 0,1.1835938 -0.667969,1.7695313 -1.40625,1.7695313 z m 3.776367,-1.6054688 c 0,-0.9960937 0.726562,-1.7109375 1.699219,-1.734375 V -4.536 c -0.890625,0.011719 -1.429688,0.5039062 -1.746094,0.9609375 V -4.489125 H 27.07993 v 4.48828125 h 0.738281 z m 5.267578,-2.1445312 c -0.527344,-0.234375 -0.925781,-0.3164063 -1.441406,-0.3164063 -0.246094,0 -1.652344,0 -1.652344,1.3007813 0,0.4921875 0.292969,0.8085937 0.539063,0.9960937 0.304687,0.2226563 0.527343,0.2695313 1.078125,0.375 0.351562,0.070312 0.9375,0.1875 0.9375,0.7148438 0,0.69140625 -0.785157,0.69140625 -0.9375,0.69140625 -0.808594,0 -1.371094,-0.375 -1.546875,-0.49218755 l -0.117188,0.67968755 c 0.316406,0.1640625 0.867188,0.43359375 1.675781,0.43359375 0.175782,0 0.726563,0 1.148438,-0.31640625 0.316406,-0.234375 0.480469,-0.6328125 0.480469,-1.06640625 0,-0.5507813 -0.363282,-0.8789063 -0.386719,-0.9140625 -0.386719,-0.3515625 -0.65625,-0.4101563 -1.160156,-0.5039063 -0.539063,-0.1054687 -1.007813,-0.1992187 -1.007813,-0.6914062 0,-0.6210938 0.726563,-0.6210938 0.855469,-0.6210938 0.316406,0 0.84375,0.046875 1.40625,0.3867188 z m 0,0"
       style="fill:#000000;fill-opacity:1;fill-rule:nonzero;stroke:none"
       aria-label="proctors"
       transform="matrix(1.3333333,0,0,1.3333333,566.89733,327.048)" />
    <path
       id="path13"
       d="m 93.82181,255.12128 c 0,4.84988 -3.93151,8.7814 -8.78139,8.7814 -4.84988,0 -8.78139,-3.93152 -8.78139,-8.7814 0,-4.84988 3.93151,-8.78139 8.78139,-8.78139 4.84988,0 8.78139,3.93151 8.78139,8.78139 z"
       style="fill:#ffffff;fill-opacity:1;fill-rule:nonzero;stroke:#000000;stroke-width:1.19553;stroke-linecap:butt;stroke-linejoin:miter;stroke-miterlimit:10;stroke-dasharray:none;stroke-opacity:1"
       transform="matrix(1.3333333,0,0,-1.3333333,22.292,370.39333)" />
    <path
       id="path14"
       d="m 3.1861016,-3.5396797 c 0.890625,-0.28125 1.2304687,-0.9492187 1.2304687,-1.4765625 0,-0.9257812 -0.8554687,-1.734375 -1.921875,-1.734375 -1.125,0 -1.93359374,0.8203125 -1.93359374,1.734375 0,0.5273438 0.33984375,1.1953125 1.21875004,1.4765625 -0.7148438,0.2460938 -1.35937504,0.8789063 -1.35937504,1.7460938 0,1.08984371 0.91406254,2.01562496 2.06250004,2.01562496 1.1835937,0 2.0625,-0.9609375 2.0625,-2.01562496 0,-0.9023438 -0.6914063,-1.5117188 -1.359375,-1.7460938 z M 2.4946953,-3.8326484 c -0.7734375,0 -1.2421875,-0.4921875 -1.2421875,-1.1835938 0,-0.6796875 0.4921875,-1.1601562 1.2304688,-1.1601562 0.7851562,0 1.2304687,0.515625 1.2304687,1.1601562 0,0.7265625 -0.5039062,1.1835938 -1.21875,1.1835938 z m 0,3.44531246 c -0.6914062,0 -1.265625,-0.48046875 -1.265625,-1.41796876 0,-1.0429687 0.7148438,-1.4179687 1.2539063,-1.4179687 0.5742187,0 1.265625,0.3984375 1.265625,1.4179687 0,0.97265626 -0.6210938,1.41796876 -1.2539063,1.41796876 z m 0,0"
       style="fill:#000000;fill-opacity:1;fill-rule:nonzero;stroke:none"
       aria-label="8"
       transform="matrix(1.3333333,0,0,1.3333333,132.35733,34.590667)" />
    <path
       id="path15"
       d="m 93.82181,226.77448 c 0,4.84988 -3.93151,8.78138 -8.78139,8.78138 -4.84988,0 -8.78139,-3.9315 -8.78139,-8.78138 0,-4.84989 3.93151,-8.78141 8.78139,-8.78141 4.84988,0 8.78139,3.93152 8.78139,8.78141 z"
       style="fill:#ffffff;fill-opacity:1;fill-rule:nonzero;stroke:#000000;stroke-width:1.19553;stroke-linecap:butt;stroke-linejoin:miter;stroke-miterlimit:10;stroke-dasharray:none;stroke-opacity:1"
       transform="matrix(1.3333333,0,0,-1.3333333,22.292,370.39333)" />
    <path
       id="path16"
       d="m 2.3071953,-5.8231797 c 0.1171875,0 0.2460938,-0.011719 0.3632813,-0.011719 h 1.2070312 c -1.4765625,1.6171875 -2.3671875,3.609375 -2.3671875,5.94140621 h 0.84375 c 0,-2.98828121 1.4179688,-5.12109371 2.1914063,-5.98828121 v -0.65625 H 0.42047656 V -5.82318 Z m 0,0"
       style="fill:#000000;fill-opacity:1;fill-rule:nonzero;stroke:none"
       aria-label="7"
       transform="matrix(1.3333333,0,0,1.3333333,132.35733,72.385333)" />
    <path
       id="path17"
       d="m 93.82181,198.42766 c 0,4.84988 -3.93151,8.7814 -8.78139,8.7814 -4.84988,0 -8.78139,-3.93152 -8.78139,-8.7814 0,-4.84989 3.93151,-8.78139 8.78139,-8.78139 4.84988,0 8.78139,3.9315 8.78139,8.78139 z"
       style="fill:#ffffff;fill-opacity:1;fill-rule:nonzero;stroke:#000000;stroke-width:1.19553;stroke-linecap:butt;stroke-linejoin:miter;stroke-miterlimit:10;stroke-dasharray:none;stroke-opacity:1"
       transform="matrix(1.3333333,0,0,-1.3333333,22.292,370.39333)" />
    <path
       id="path18"
       d="m 4.1353203,-6.5520156 c -0.515625,-0.1992188 -0.9140625,-0.1992188 -1.0546875,-0.1992188 -1.40625,0 -2.66015624,1.40625 -2.66015624,3.5390625 0,2.82421878 1.23046874,3.43359378 2.07421874,3.43359378 0.5976563,0 1.03125,-0.234375 1.4179688,-0.6796875 0.4453125,-0.50390625 0.6328125,-0.97265628 0.6328125,-1.75781248 0,-1.2773438 -0.65625,-2.390625 -1.6054688,-2.390625 -0.3164062,0 -1.078125,0.082031 -1.6875,0.8320312 0.1289063,-1.6054687 0.9140625,-2.4023437 1.8398438,-2.4023437 0.375,0 0.6914062,0.070312 1.0429687,0.2109375 z m -2.8710937,4.3710937 c 0,-0.140625 0,-0.1640625 0.011719,-0.28125 0,-0.7382812 0.4453125,-1.5351562 1.2773438,-1.5351562 0.46875,0 0.75,0.2460937 0.9492187,0.6210937 0.2109375,0.3632813 0.234375,0.7148438 0.234375,1.1601563 0,0.3398437 0,0.796875 -0.2460937,1.2070312 -0.1640625,0.28125003 -0.421875,0.62109378 -0.9960938,0.62109378 -1.0546875,0 -1.1953125,-1.46484378 -1.230469,-1.79296878 z m 0,0"
       style="fill:#000000;fill-opacity:1;fill-rule:nonzero;stroke:none"
       aria-label="6"
       transform="matrix(1.3333333,0,0,1.3333333,132.35733,110.18133)" />
    <path
       id="path19"
       d="m 93.82181,170.08086 c 0,4.84988 -3.93151,8.78138 -8.78139,8.78138 -4.84988,0 -8.78139,-3.9315 -8.78139,-8.78138 0,-4.8499 3.93151,-8.78141 8.78139,-8.78141 4.84988,0 8.78139,3.93151 8.78139,8.78141 z"
       style="fill:#ffffff;fill-opacity:1;fill-rule:nonzero;stroke:#000000;stroke-width:1.19553;stroke-linecap:butt;stroke-linejoin:miter;stroke-miterlimit:10;stroke-dasharray:none;stroke-opacity:1"
       transform="matrix(1.3333333,0,0,-1.3333333,22.292,370.39333)" />
    <path
       id="path20"
       d="m 1.5220391,-5.8941094 h 2.625 V -6.5386406 H 0.80719531 v 3.6796875 H 1.4634453 c 0.1640625,-0.3984375 0.5390625,-0.7851563 1.1132813,-0.7851563 0.46875,0 1.0078125,0.4101563 1.0078125,1.6054688 0,1.65234373 -1.21875,1.65234373 -1.3007813,1.65234373 -0.6679687,0 -1.2773437,-0.38671875 -1.57031249,-0.92578123 l -0.328125,0.55078123 c 0.41015625,0.57421875 1.10156249,0.984375 1.91015629,0.984375 1.1835937,0 2.1796875,-0.984375 2.1796875,-2.25000003 0,-1.2421875 -0.8554688,-2.2265625 -1.8867188,-2.2265625 -0.3984375,0 -0.7734375,0.1523438 -1.0664062,0.4101563 z m 0,0"
       style="fill:#000000;fill-opacity:1;fill-rule:nonzero;stroke:none"
       aria-label="5"
       transform="matrix(1.3333333,0,0,1.3333333,132.35733,147.976)" />
    <path
       id="path21"
       d="m 93.82181,141.73404 c 0,4.84988 -3.93151,8.78139 -8.78139,8.78139 -4.84988,0 -8.78139,-3.93151 -8.78139,-8.78139 0,-4.84988 3.93151,-8.78139 8.78139,-8.78139 4.84988,0 8.78139,3.93151 8.78139,8.78139 z"
       style="fill:#ffffff;fill-opacity:1;fill-rule:nonzero;stroke:#000000;stroke-width:1.19553;stroke-linecap:butt;stroke-linejoin:miter;stroke-miterlimit:10;stroke-dasharray:none;stroke-opacity:1"
       transform="matrix(1.3333333,0,0,-1.3333333,22.292,370.39333)" />
    <path
       id="path22"
       d="m 3.7017266,-1.6981406 h 0.984375 v -0.609375 H 3.7017266 V -6.5379844 H 2.7993828 l -2.51953124,4.2304688 v 0.609375 H 2.9165703 v 1.69921872 h 0.7851563 z m -2.6484375,-0.609375 c 0.515625,-0.8554688 1.921875,-3.2226563 1.921875,-3.7851563 v 3.7851563 z m 0,0"
       style="fill:#000000;fill-opacity:1;fill-rule:nonzero;stroke:none"
       aria-label="4"
       transform="matrix(1.3333333,0,0,1.3333333,132.35733,185.772)" />
    <path
       id="path23"
       d="m 93.82181,113.38724 c 0,4.84988 -3.93151,8.78138 -8.78139,8.78138 -4.84988,0 -8.78139,-3.9315 -8.78139,-8.78138 0,-4.8499 3.93151,-8.78141 8.78139,-8.78141 4.84988,0 8.78139,3.93151 8.78139,8.78141 z"
       style="fill:#ffffff;fill-opacity:1;fill-rule:nonzero;stroke:#000000;stroke-width:1.19553;stroke-linecap:butt;stroke-linejoin:miter;stroke-miterlimit:10;stroke-dasharray:none;stroke-opacity:1"
       transform="matrix(1.3333333,0,0,-1.3333333,22.292,370.39333)" />
    <path
       id="path24"
       d="M 0.91266406,-5.1212891 C 1.2056328,-5.8126953 1.8501641,-6.1759766 2.4595391,-6.1759766 c 0.515625,0 1.0078125,0.2929688 1.0078125,0.9375 0,0.609375 -0.4101563,1.1953125 -1.0195313,1.3359375 -0.058594,0.011719 -0.082031,0.011719 -0.7851562,0.070312 v 0.609375 h 0.703125 c 1.078125,0 1.3007812,0.9257813 1.3007812,1.4179688 0,0.7734375 -0.4570312,1.41796874 -1.2304687,1.41796874 -0.6796875,0 -1.47656254,-0.3515625 -1.91015629,-1.03125004 l -0.10546875,0.59765629 c 0.72656254,0.9375 1.64062504,1.04296875 2.03906254,1.04296875 1.21875,0 2.0859375,-0.97265625 2.0859375,-2.01562504 0,-0.9023437 -0.6914063,-1.5234375 -1.3710938,-1.734375 0.7617188,-0.4101562 1.1132813,-1.0898437 1.1132813,-1.7109375 0,-0.8554687 -0.8320313,-1.5117187 -1.8164063,-1.5117187 -0.7734375,0 -1.49999999,0.3984375 -1.91015624,1.0898437 z m 0,0"
       style="fill:#000000;fill-opacity:1;fill-rule:nonzero;stroke:none"
       aria-label="3"
       transform="matrix(1.3333333,0,0,1.3333333,132.35733,223.56667)" />
    <path
       id="path25"
       d="m 93.82181,85.04042 c 0,4.84988 -3.93151,8.78139 -8.78139,8.78139 -4.84988,0 -8.78139,-3.93151 -8.78139,-8.78139 0,-4.84988 3.93151,-8.78139 8.78139,-8.78139 4.84988,0 8.78139,3.93151 8.78139,8.78139 z"
       style="fill:#ffffff;fill-opacity:1;fill-rule:nonzero;stroke:#000000;stroke-width:1.19553;stroke-linecap:butt;stroke-linejoin:miter;stroke-miterlimit:10;stroke-dasharray:none;stroke-opacity:1"
       transform="matrix(1.3333333,0,0,-1.3333333,22.292,370.39333)" />
    <path
       id="path26"
       d="M 1.7329766,-1.8745391 0.50250781,-0.63235156 V 4.609375e-4 H 4.4751641 V -0.70266406 H 2.6587578 c -0.1171875,0 -0.234375,0 -0.3632812,0 h -1.078125 c 0.3164062,-0.26953125 1.078125,-1.01953124 1.3828125,-1.31250004 0.1875,-0.1757812 0.6914062,-0.5976562 0.890625,-0.7734375 0.4453125,-0.4453125 0.984375,-0.9726562 0.984375,-1.828125 0,-1.1367187 -0.8085938,-2.1328125 -2.1210938,-2.1328125 -1.1367187,0 -1.69921874,0.7734375 -1.93359374,1.6289063 0.1171875,0.1757812 0.1640625,0.234375 0.1875,0.2578125 0.0234375,0.023437 0.1171875,0.1523437 0.22265625,0.2929687 0.19921879,-0.7734375 0.46874999,-1.546875 1.38281249,-1.546875 0.9375,0 1.4414063,0.75 1.4414063,1.5234375 0,0.84375 -0.5625,1.4179688 -1.1601563,2.015625 z m 0,0"
       style="fill:#000000;fill-opacity:1;fill-rule:nonzero;stroke:none"
       aria-label="2"
       transform="matrix(1.3333333,0,0,1.3333333,132.35733,261.36267)" />
    <path
       id="path27"
       d="m 93.82181,56.69362 c 0,4.84988 -3.93151,8.78138 -8.78139,8.78138 -4.84988,0 -8.78139,-3.9315 -8.78139,-8.78138 0,-4.8499 3.93151,-8.7814 8.78139,-8.7814 4.84988,0 8.78139,3.9315 8.78139,8.7814 z"
       style="fill:#ffffff;fill-opacity:1;fill-rule:nonzero;stroke:#000000;stroke-width:1.19553;stroke-linecap:butt;stroke-linejoin:miter;stroke-miterlimit:10;stroke-dasharray:none;stroke-opacity:1"
       transform="matrix(1.3333333,0,0,-1.3333333,22.292,370.39333)" />
    <path
       id="path28"
       d="M 2.9751641,-6.7508125 H 2.7759453 C 2.1900078,-6.1414375 1.3579766,-6.118 0.88922656,-6.0945625 v 0.5742188 c 0.32812504,-0.011719 0.80859374,-0.023437 1.30078124,-0.234375 v 5.17968745 H 0.94782031 V -8.125e-4 H 4.2173516 V -0.57503125 H 2.9751641 Z m 0,0"
       style="fill:#000000;fill-opacity:1;fill-rule:nonzero;stroke:none"
       aria-label="1"
       transform="matrix(1.3333333,0,0,1.3333333,132.35733,299.15733)" />
    <path
       id="path29"
       d="m 93.82181,28.3468 c 0,4.84989 -3.93151,8.78139 -8.78139,8.78139 -4.84988,0 -8.78139,-3.9315 -8.78139,-8.78139 0,-4.84988 3.93151,-8.78139 8.78139,-8.78139 4.84988,0 8.78139,3.93151 8.78139,8.78139 z"
       style="fill:#ffffff;fill-opacity:1;fill-rule:nonzero;stroke:#000000;stroke-width:1.19553;stroke-linecap:butt;stroke-linejoin:miter;stroke-miterlimit:10;stroke-dasharray:none;stroke-opacity:1"
       transform="matrix(1.3333333,0,0,-1.3333333,22.292,370.39333)" />
    <path
       id="path30"
       d="m 4.5454766,-3.24525 c 0,-0.7851562 -0.035156,-1.7109375 -0.4570313,-2.5195312 -0.3984375,-0.75 -1.0898437,-0.984375 -1.59375,-0.984375 -0.5976562,0 -1.2890625,0.2695312 -1.69921874,1.1484375 -0.328125,0.7265625 -0.375,1.5585937 -0.375,2.3554687 0,0.7851563 0.0351563,1.5117188 0.33984375,2.2382813 C 1.1587578,-0.04603125 1.9087578,0.2235 2.4829766,0.2235 c 0.7265625,0 1.3476562,-0.41015625 1.6640625,-1.1015625 0.3046875,-0.6445312 0.3984375,-1.3007812 0.3984375,-2.3671875 z m -2.0507813,2.859375 c -0.5273437,0 -0.9375,-0.375 -1.1367187,-1.1015625 -0.1523438,-0.5625 -0.1640625,-1.1015625 -0.1640625,-1.875 0,-0.6328125 0,-1.2304687 0.1640625,-1.78125 0.070312,-0.1875 0.3164062,-0.9960937 1.125,-0.9960937 0.7734375,0 1.03125,0.75 1.1015625,0.9257812 0.1875,0.5625 0.1875,1.2304688 0.1875,1.8515625 0,0.65625 0,1.2773438 -0.1757813,1.9101563 -0.2578125,0.9023437 -0.7851562,1.0664062 -1.1015625,1.0664062 z m 0,0"
       style="fill:#000000;fill-opacity:1;fill-rule:nonzero;stroke:none"
       aria-label="0"
       transform="matrix(1.3333333,0,0,1.3333333,132.35733,336.952)" />
    <path
       id="path31"
       d="m 207.20906,56.69362 c 0,4.84988 -3.93152,8.78138 -8.7814,8.78138 -4.84989,0 -8.78139,-3.9315 -8.78139,-8.78138 0,-4.8499 3.9315,-8.7814 8.78139,-8.7814 4.84988,0 8.7814,3.9315 8.7814,8.7814 z"
       style="fill:#ffffff;fill-opacity:1;fill-rule:nonzero;stroke:#000000;stroke-width:1.19553;stroke-linecap:butt;stroke-linejoin:miter;stroke-miterlimit:10;stroke-dasharray:none;stroke-opacity:1"
       transform="matrix(1.3333333,0,0,-1.3333333,22.292,370.39333)" />
    <path
       id="path32"
       d="m 4.5481719,-3.2469062 c 0,-0.7851563 -0.035156,-1.7109375 -0.4570313,-2.5195313 -0.3984375,-0.75 -1.0898437,-0.984375 -1.59375,-0.984375 -0.5976562,0 -1.2890625,0.2695313 -1.69921872,1.1484375 -0.328125,0.7265625 -0.375,1.5585938 -0.375,2.3554688 0,0.7851562 0.0351563,1.5117187 0.33984375,2.2382812 0.39843747,0.9609375 1.14843747,1.23046875 1.72265627,1.23046875 0.7265625,0 1.3476562,-0.41015625 1.6640625,-1.1015625 C 4.4544219,-1.52425 4.5481719,-2.1805 4.5481719,-3.2469062 Z m -2.0507813,2.85937495 c -0.5273437,0 -0.9375,-0.375 -1.1367187,-1.10156245 -0.1523438,-0.5625 -0.1640625,-1.1015625 -0.1640625,-1.875 0,-0.6328125 0,-1.2304688 0.1640625,-1.78125 0.070312,-0.1875 0.3164062,-0.9960938 1.125,-0.9960938 0.7734375,0 1.03125,0.75 1.1015625,0.9257813 0.1875,0.5625 0.1875,1.2304687 0.1875,1.8515625 0,0.65625 0,1.2773437 -0.1757813,1.9101562 -0.2578125,0.90234375 -0.7851562,1.06640625 -1.1015625,1.06640625 z m 0,0"
       style="fill:#000000;fill-opacity:1;fill-rule:nonzero;stroke:none"
       aria-label="0"
       transform="matrix(1.3333333,0,0,1.3333333,283.53733,299.15733)" />
    <path
       id="path33"
       d="m 207.20906,99.21382 c 0,4.84988 -3.93152,8.78139 -8.7814,8.78139 -4.84989,0 -8.78139,-3.93151 -8.78139,-8.78139 0,-4.84988 3.9315,-8.78139 8.78139,-8.78139 4.84988,0 8.7814,3.93151 8.7814,8.78139 z"
       style="fill:#ffffff;fill-opacity:1;fill-rule:nonzero;stroke:#000000;stroke-width:1.19553;stroke-linecap:butt;stroke-linejoin:miter;stroke-miterlimit:10;stroke-dasharray:none;stroke-opacity:1"
       transform="matrix(1.3333333,0,0,-1.3333333,22.292,370.39333)" />
    <path
       id="path34"
       d="M 2.9778594,-6.7493672 H 2.7786406 c -0.5859375,0.609375 -1.4179687,0.6328125 -1.88671872,0.65625 v 0.5742188 c 0.32812502,-0.011719 0.80859372,-0.023437 1.30078122,-0.234375 v 5.17968746 H 0.95051563 V 6.328125e-4 H 4.2200469 V -0.57358594 H 2.9778594 Z m 0,0"
       style="fill:#000000;fill-opacity:1;fill-rule:nonzero;stroke:none"
       aria-label="1"
       transform="matrix(1.3333333,0,0,1.3333333,283.53733,242.464)" />
    <path
       id="path35"
       d="m 207.20906,141.73404 c 0,4.84988 -3.93152,8.78139 -8.7814,8.78139 -4.84989,0 -8.78139,-3.93151 -8.78139,-8.78139 0,-4.84988 3.9315,-8.78139 8.78139,-8.78139 4.84988,0 8.7814,3.93151 8.7814,8.78139 z"
       style="fill:#ffffff;fill-opacity:1;fill-rule:nonzero;stroke:#000000;stroke-width:1.19553;stroke-linecap:butt;stroke-linejoin:miter;stroke-miterlimit:10;stroke-dasharray:none;stroke-opacity:1"
       transform="matrix(1.3333333,0,0,-1.3333333,22.292,370.39333)" />
    <path
       id="path36"
       d="m 1.7356719,-1.8739219 -1.23046877,1.24218752 v 0.6328125 H 4.4778594 v -0.703125 H 2.6614531 c -0.1171875,0 -0.234375,0 -0.3632812,0 h -1.078125 c 0.3164062,-0.26953125 1.078125,-1.01953122 1.3828125,-1.31250002 0.1875,-0.1757812 0.6914062,-0.5976562 0.890625,-0.7734375 0.4453125,-0.4453125 0.984375,-0.9726562 0.984375,-1.828125 0,-1.1367187 -0.8085938,-2.1328125 -2.1210938,-2.1328125 -1.1367187,0 -1.69921872,0.7734375 -1.93359372,1.6289063 0.1171875,0.1757812 0.1640625,0.234375 0.1875,0.2578125 0.0234375,0.023437 0.1171875,0.1523437 0.22265625,0.2929687 0.19921877,-0.7734375 0.46874997,-1.546875 1.38281247,-1.546875 0.9375,0 1.4414063,0.75 1.4414063,1.5234375 0,0.84375 -0.5625,1.4179688 -1.1601563,2.015625 z m 0,0"
       style="fill:#000000;fill-opacity:1;fill-rule:nonzero;stroke:none"
       aria-label="2"
       transform="matrix(1.3333333,0,0,1.3333333,283.53733,185.772)" />
    <path
       id="path37"
       d="m 207.20906,184.25424 c 0,4.8499 -3.93152,8.7814 -8.7814,8.7814 -4.84989,0 -8.78139,-3.9315 -8.78139,-8.7814 0,-4.84988 3.9315,-8.78139 8.78139,-8.78139 4.84988,0 8.7814,3.93151 8.7814,8.78139 z"
       style="fill:#ffffff;fill-opacity:1;fill-rule:nonzero;stroke:#000000;stroke-width:1.19553;stroke-linecap:butt;stroke-linejoin:miter;stroke-miterlimit:10;stroke-dasharray:none;stroke-opacity:1"
       transform="matrix(1.3333333,0,0,-1.3333333,22.292,370.39333)" />
    <path
       id="path38"
       d="M 0.91535938,-5.1215 C 1.2083281,-5.8129062 1.8528594,-6.1761875 2.4622344,-6.1761875 c 0.515625,0 1.0078125,0.2929688 1.0078125,0.9375 0,0.609375 -0.4101563,1.1953125 -1.0195313,1.3359375 -0.058594,0.011719 -0.082031,0.011719 -0.7851562,0.070312 v 0.609375 h 0.703125 c 1.078125,0 1.3007812,0.9257813 1.3007812,1.4179688 0,0.7734375 -0.4570312,1.4179687 -1.2304687,1.4179687 -0.6796875,0 -1.47656252,-0.3515625 -1.91015627,-1.03125 L 0.42317188,-0.82071875 C 1.1497344,0.11678125 2.0637969,0.22225 2.4622344,0.22225 c 1.21875,0 2.0859375,-0.97265625 2.0859375,-2.015625 0,-0.9023437 -0.6914063,-1.5234375 -1.3710938,-1.734375 0.7617188,-0.4101562 1.1132813,-1.0898437 1.1132813,-1.7109375 0,-0.8554687 -0.8320313,-1.5117187 -1.8164063,-1.5117187 -0.7734375,0 -1.49999997,0.3984375 -1.91015622,1.0898437 z m 0,0"
       style="fill:#000000;fill-opacity:1;fill-rule:nonzero;stroke:none"
       aria-label="3"
       transform="matrix(1.3333333,0,0,1.3333333,283.53733,129.07867)" />
    <path
       id="path39"
       d="m 207.20906,226.77448 c 0,4.84988 -3.93152,8.78138 -8.7814,8.78138 -4.84989,0 -8.78139,-3.9315 -8.78139,-8.78138 0,-4.84989 3.9315,-8.78141 8.78139,-8.78141 4.84988,0 8.7814,3.93152 8.7814,8.78141 z"
       style="fill:#ffffff;fill-opacity:1;fill-rule:nonzero;stroke:#000000;stroke-width:1.19553;stroke-linecap:butt;stroke-linejoin:miter;stroke-miterlimit:10;stroke-dasharray:none;stroke-opacity:1"
       transform="matrix(1.3333333,0,0,-1.3333333,22.292,370.39333)" />
    <path
       id="path40"
       d="m 3.7044219,-1.6981797 h 0.984375 v -0.609375 H 3.7044219 V -6.5380234 H 2.8020781 l -2.51953122,4.2304687 v 0.609375 H 2.9192656 v 1.69921876 h 0.7851563 z m -2.6484375,-0.609375 c 0.515625,-0.8554687 1.921875,-3.2226562 1.921875,-3.7851562 v 3.7851562 z m 0,0"
       style="fill:#000000;fill-opacity:1;fill-rule:nonzero;stroke:none"
       aria-label="4"
       transform="matrix(1.3333333,0,0,1.3333333,283.53733,72.385333)" />
    <path
       id="path41"
       d="m 320.5963,56.69362 c 0,4.84988 -3.9315,8.78138 -8.7814,8.78138 -4.84989,0 -8.78139,-3.9315 -8.78139,-8.78138 0,-4.8499 3.9315,-8.7814 8.78139,-8.7814 4.8499,0 8.7814,3.9315 8.7814,8.7814 z"
       style="fill:#ffffff;fill-opacity:1;fill-rule:nonzero;stroke:#000000;stroke-width:1.19553;stroke-linecap:butt;stroke-linejoin:miter;stroke-miterlimit:10;stroke-dasharray:none;stroke-opacity:1"
       transform="matrix(1.3333333,0,0,-1.3333333,22.292,370.39333)" />
    <path
       id="path42"
       d="m 4.5469375,-3.2469062 c 0,-0.7851563 -0.035156,-1.7109375 -0.4570312,-2.5195313 -0.3984375,-0.75 -1.0898438,-0.984375 -1.59375,-0.984375 -0.5976563,0 -1.2890625,0.2695313 -1.6992188,1.1484375 -0.328125,0.7265625 -0.375,1.5585938 -0.375,2.3554688 0,0.7851562 0.0351563,1.5117187 0.33984375,2.2382812 C 1.1602188,-0.0476875 1.9102188,0.22184375 2.4844375,0.22184375 3.211,0.22184375 3.8320938,-0.1883125 4.1485,-0.87971875 4.4531875,-1.52425 4.5469375,-2.1805 4.5469375,-3.2469062 Z m -2.0507812,2.85937495 c -0.5273438,0 -0.9375,-0.375 -1.1367188,-1.10156245 -0.1523437,-0.5625 -0.1640625,-1.1015625 -0.1640625,-1.875 0,-0.6328125 0,-1.2304688 0.1640625,-1.78125 0.070312,-0.1875 0.3164063,-0.9960938 1.125,-0.9960938 0.7734375,0 1.03125,0.75 1.1015625,0.9257813 0.1875,0.5625 0.1875,1.2304687 0.1875,1.8515625 0,0.65625 0,1.2773437 -0.1757812,1.9101562 -0.2578125,0.90234375 -0.7851563,1.06640625 -1.1015625,1.06640625 z m 0,0"
       style="fill:#000000;fill-opacity:1;fill-rule:nonzero;stroke:none"
       aria-label="0"
       transform="matrix(1.3333333,0,0,1.3333333,434.71867,299.15733)" />
    <path
       id="path43"
       d="m 320.5963,113.38724 c 0,4.84988 -3.9315,8.78138 -8.7814,8.78138 -4.84989,0 -8.78139,-3.9315 -8.78139,-8.78138 0,-4.8499 3.9315,-8.78141 8.78139,-8.78141 4.8499,0 8.7814,3.93151 8.7814,8.78141 z"
       style="fill:#ffffff;fill-opacity:1;fill-rule:nonzero;stroke:#000000;stroke-width:1.19553;stroke-linecap:butt;stroke-linejoin:miter;stroke-miterlimit:10;stroke-dasharray:none;stroke-opacity:1"
       transform="matrix(1.3333333,0,0,-1.3333333,22.292,370.39333)" />
    <path
       id="path44"
       d="M 2.976625,-6.7501953 H 2.7774063 c -0.5859375,0.609375 -1.4179688,0.6328125 -1.8867188,0.65625 v 0.5742187 c 0.328125,-0.011719 0.8085938,-0.023437 1.3007813,-0.234375 v 5.17968754 H 0.94928125 V -1.953125e-4 H 4.2188125 V -0.57441406 H 2.976625 Z m 0,0"
       style="fill:#000000;fill-opacity:1;fill-rule:nonzero;stroke:none"
       aria-label="1"
       transform="matrix(1.3333333,0,0,1.3333333,434.71867,223.56667)" />
    <path
       id="path45"
       d="m 320.5963,170.08086 c 0,4.84988 -3.9315,8.78138 -8.7814,8.78138 -4.84989,0 -8.78139,-3.9315 -8.78139,-8.78138 0,-4.8499 3.9315,-8.78141 8.78139,-8.78141 4.8499,0 8.7814,3.93151 8.7814,8.78141 z"
       style="fill:#ffffff;fill-opacity:1;fill-rule:nonzero;stroke:#000000;stroke-width:1.19553;stroke-linecap:butt;stroke-linejoin:miter;stroke-miterlimit:10;stroke-dasharray:none;stroke-opacity:1"
       transform="matrix(1.3333333,0,0,-1.3333333,22.292,370.39333)" />
    <path
       id="path46"
       d="M 1.7344375,-1.8745781 0.50396875,-0.63239062 V 4.21875e-4 H 4.476625 V -0.70270312 H 2.6602188 c -0.1171875,0 -0.234375,0 -0.3632813,0 h -1.078125 c 0.3164063,-0.26953125 1.078125,-1.01953128 1.3828125,-1.31249998 0.1875,-0.1757813 0.6914063,-0.5976563 0.890625,-0.7734375 0.4453125,-0.4453125 0.984375,-0.9726563 0.984375,-1.828125 0,-1.1367188 -0.8085937,-2.1328125 -2.1210937,-2.1328125 -1.1367188,0 -1.6992188,0.7734375 -1.9335938,1.6289062 0.1171875,0.1757813 0.1640625,0.234375 0.1875,0.2578125 0.0234375,0.023437 0.1171875,0.1523438 0.22265625,0.2929688 0.19921875,-0.7734375 0.46875005,-1.546875 1.38281255,-1.546875 0.9375,0 1.4414062,0.75 1.4414062,1.5234375 0,0.84375 -0.5625,1.4179687 -1.1601562,2.015625 z m 0,0"
       style="fill:#000000;fill-opacity:1;fill-rule:nonzero;stroke:none"
       aria-label="2"
       transform="matrix(1.3333333,0,0,1.3333333,434.71867,147.976)" />
    <path
       id="path47"
       d="m 320.5963,226.77448 c 0,4.84988 -3.9315,8.78138 -8.7814,8.78138 -4.84989,0 -8.78139,-3.9315 -8.78139,-8.78138 0,-4.84989 3.9315,-8.78141 8.78139,-8.78141 4.8499,0 8.7814,3.93152 8.7814,8.78141 z"
       style="fill:#ffffff;fill-opacity:1;fill-rule:nonzero;stroke:#000000;stroke-width:1.19553;stroke-linecap:butt;stroke-linejoin:miter;stroke-miterlimit:10;stroke-dasharray:none;stroke-opacity:1"
       transform="matrix(1.3333333,0,0,-1.3333333,22.292,370.39333)" />
    <path
       id="path48"
       d="m 0.914125,-5.1200547 c 0.2929688,-0.6914062 0.9375,-1.0546875 1.546875,-1.0546875 0.515625,0 1.0078125,0.2929688 1.0078125,0.9375 0,0.609375 -0.4101562,1.1953125 -1.0195312,1.3359375 -0.058594,0.011719 -0.082031,0.011719 -0.7851563,0.070312 v 0.609375 H 2.36725 c 1.078125,0 1.3007813,0.9257813 1.3007813,1.4179688 0,0.7734375 -0.4570313,1.41796871 -1.2304688,1.41796871 -0.6796875,0 -1.4765625,-0.3515625 -1.91015625,-1.03125001 L 0.4219375,-0.81927344 c 0.7265625,0.9375 1.640625,1.04296875 2.0390625,1.04296875 1.21875,0 2.0859375,-0.97265625 2.0859375,-2.01562501 0,-0.9023437 -0.6914062,-1.5234375 -1.3710937,-1.734375 0.7617187,-0.4101562 1.1132812,-1.0898437 1.1132812,-1.7109375 0,-0.8554687 -0.8320312,-1.5117187 -1.8164062,-1.5117187 -0.7734375,0 -1.50000005,0.3984375 -1.9101563,1.0898437 z m 0,0"
       style="fill:#000000;fill-opacity:1;fill-rule:nonzero;stroke:none"
       aria-label="3"
       transform="matrix(1.3333333,0,0,1.3333333,434.71867,72.385333)" />
    <path
       id="path49"
       d="m 433.98354,56.69362 c 0,4.84988 -3.93151,8.78138 -8.78141,8.78138 -4.84988,0 -8.78138,-3.9315 -8.78138,-8.78138 0,-4.8499 3.9315,-8.7814 8.78138,-8.7814 4.8499,0 8.78141,3.9315 8.78141,8.7814 z"
       style="fill:#ffffff;fill-opacity:1;fill-rule:nonzero;stroke:#000000;stroke-width:1.19553;stroke-linecap:butt;stroke-linejoin:miter;stroke-miterlimit:10;stroke-dasharray:none;stroke-opacity:1"
       transform="matrix(1.3333333,0,0,-1.3333333,22.292,370.39333)" />
    <path
       id="path50"
       d="m 4.5457031,-3.2469062 c 0,-0.7851563 -0.035156,-1.7109375 -0.4570312,-2.5195313 -0.3984375,-0.75 -1.0898438,-0.984375 -1.59375,-0.984375 -0.5976563,0 -1.2890625,0.2695313 -1.69921877,1.1484375 -0.328125,0.7265625 -0.375,1.5585938 -0.375,2.3554688 0,0.7851562 0.0351563,1.5117187 0.33984375,2.2382812 0.39843752,0.9609375 1.14843752,1.23046875 1.72265622,1.23046875 0.7265625,0 1.3476563,-0.41015625 1.6640625,-1.1015625 C 4.4519531,-1.52425 4.5457031,-2.1805 4.5457031,-3.2469062 Z m -2.0507812,2.85937495 c -0.5273438,0 -0.9375,-0.375 -1.1367188,-1.10156245 -0.1523437,-0.5625 -0.1640625,-1.1015625 -0.1640625,-1.875 0,-0.6328125 0,-1.2304688 0.1640625,-1.78125 0.070312,-0.1875 0.3164063,-0.9960938 1.125,-0.9960938 0.7734375,0 1.03125,0.75 1.1015625,0.9257813 0.1875,0.5625 0.1875,1.2304687 0.1875,1.8515625 0,0.65625 0,1.2773437 -0.1757812,1.9101562 -0.2578125,0.90234375 -0.7851563,1.06640625 -1.1015625,1.06640625 z m 0,0"
       style="fill:#000000;fill-opacity:1;fill-rule:nonzero;stroke:none"
       aria-label="0"
       transform="matrix(1.3333333,0,0,1.3333333,585.9,299.15733)" />
    <path
       id="path51"
       d="m 433.98354,85.04042 c 0,4.84988 -3.93151,8.78139 -8.78141,8.78139 -4.84988,0 -8.78138,-3.93151 -8.78138,-8.78139 0,-4.84988 3.9315,-8.78139 8.78138,-8.78139 4.8499,0 8.78141,3.93151 8.78141,8.78139 z"
       style="fill:#ffffff;fill-opacity:1;fill-rule:nonzero;stroke:#000000;stroke-width:1.19553;stroke-linecap:butt;stroke-linejoin:miter;stroke-miterlimit:10;stroke-dasharray:none;stroke-opacity:1"
       transform="matrix(1.3333333,0,0,-1.3333333,22.292,370.39333)" />
    <path
       id="path52"
       d="M 2.9753906,-6.7495391 H 2.7761719 c -0.5859375,0.609375 -1.4179688,0.6328125 -1.88671877,0.65625 v 0.5742188 c 0.32812497,-0.011719 0.80859377,-0.023437 1.30078127,-0.234375 v 5.17968749 H 0.94804688 V 4.609375e-4 H 4.2175781 V -0.57375781 H 2.9753906 Z m 0,0"
       style="fill:#000000;fill-opacity:1;fill-rule:nonzero;stroke:none"
       aria-label="1"
       transform="matrix(1.3333333,0,0,1.3333333,585.9,261.36267)" />
    <path
       id="path53"
       d="m 433.98354,113.38724 c 0,4.84988 -3.93151,8.78138 -8.78141,8.78138 -4.84988,0 -8.78138,-3.9315 -8.78138,-8.78138 0,-4.8499 3.9315,-8.78141 8.78138,-8.78141 4.8499,0 8.78141,3.93151 8.78141,8.78141 z"
       style="fill:#ffffff;fill-opacity:1;fill-rule:nonzero;stroke:#000000;stroke-width:1.19553;stroke-linecap:butt;stroke-linejoin:miter;stroke-miterlimit:10;stroke-dasharray:none;stroke-opacity:1"
       transform="matrix(1.3333333,0,0,-1.3333333,22.292,370.39333)" />
    <path
       id="path54"
       d="M 1.7332031,-1.8751953 0.50273438,-0.63300781 V -1.953125e-4 H 4.4753906 V -0.70332031 H 2.6589844 c -0.1171875,0 -0.234375,0 -0.3632813,0 h -1.078125 c 0.3164063,-0.26953125 1.078125,-1.01953129 1.3828125,-1.31249999 0.1875,-0.1757813 0.6914063,-0.5976563 0.890625,-0.7734375 0.4453125,-0.4453125 0.984375,-0.9726563 0.984375,-1.828125 0,-1.1367188 -0.8085937,-2.1328125 -2.1210937,-2.1328125 -1.1367188,0 -1.69921877,0.7734375 -1.93359377,1.6289062 0.1171875,0.1757813 0.1640625,0.234375 0.1875,0.2578125 0.0234375,0.023437 0.1171875,0.1523438 0.22265625,0.2929688 0.19921872,-0.7734375 0.46875002,-1.546875 1.38281252,-1.546875 0.9375,0 1.4414062,0.75 1.4414062,1.5234375 0,0.84375 -0.5625,1.4179687 -1.1601562,2.015625 z m 0,0"
       style="fill:#000000;fill-opacity:1;fill-rule:nonzero;stroke:none"
       aria-label="2"
       transform="matrix(1.3333333,0,0,1.3333333,585.9,223.56667)" />
    <path
       id="path55"
       d="m 433.98354,141.73404 c 0,4.84988 -3.93151,8.78139 -8.78141,8.78139 -4.84988,0 -8.78138,-3.93151 -8.78138,-8.78139 0,-4.84988 3.9315,-8.78139 8.78138,-8.78139 4.8499,0 8.78141,3.93151 8.78141,8.78139 z"
       style="fill:#ffffff;fill-opacity:1;fill-rule:nonzero;stroke:#000000;stroke-width:1.19553;stroke-linecap:butt;stroke-linejoin:miter;stroke-miterlimit:10;stroke-dasharray:none;stroke-opacity:1"
       transform="matrix(1.3333333,0,0,-1.3333333,22.292,370.39333)" />
    <path
       id="path56"
       d="M 0.91289063,-5.1200156 C 1.2058594,-5.8114219 1.8503906,-6.1747031 2.4597656,-6.1747031 c 0.515625,0 1.0078125,0.2929687 1.0078125,0.9375 0,0.609375 -0.4101562,1.1953125 -1.0195312,1.3359375 -0.058594,0.011719 -0.082031,0.011719 -0.7851563,0.070312 v 0.609375 h 0.703125 c 1.078125,0 1.3007813,0.9257812 1.3007813,1.4179687 0,0.7734375 -0.4570313,1.41796877 -1.2304688,1.41796877 -0.6796875,0 -1.47656247,-0.3515625 -1.91015622,-1.03124997 l -0.10546875,0.59765622 c 0.72656247,0.9375 1.64062497,1.04296875 2.03906247,1.04296875 1.21875,0 2.0859375,-0.97265625 2.0859375,-2.01562497 0,-0.9023438 -0.6914062,-1.5234375 -1.3710937,-1.734375 0.7617187,-0.4101563 1.1132812,-1.0898438 1.1132812,-1.7109375 0,-0.8554688 -0.8320312,-1.5117188 -1.8164062,-1.5117188 -0.7734375,0 -1.50000002,0.3984375 -1.91015627,1.0898438 z m 0,0"
       style="fill:#000000;fill-opacity:1;fill-rule:nonzero;stroke:none"
       aria-label="3"
       transform="matrix(1.3333333,0,0,1.3333333,585.9,185.772)" />
    <path
       id="path57"
       d="m 433.98354,170.08086 c 0,4.84988 -3.93151,8.78138 -8.78141,8.78138 -4.84988,0 -8.78138,-3.9315 -8.78138,-8.78138 0,-4.8499 3.9315,-8.78141 8.78138,-8.78141 4.8499,0 8.78141,3.93151 8.78141,8.78141 z"
       style="fill:#ffffff;fill-opacity:1;fill-rule:nonzero;stroke:#000000;stroke-width:1.19553;stroke-linecap:butt;stroke-linejoin:miter;stroke-miterlimit:10;stroke-dasharray:none;stroke-opacity:1"
       transform="matrix(1.3333333,0,0,-1.3333333,22.292,370.39333)" />
    <path
       id="path58"
       d="m 3.7019531,-1.6987969 h 0.984375 v -0.609375 H 3.7019531 V -6.5386406 H 2.7996094 l -2.51953127,4.2304687 v 0.609375 H 2.9167969 V 4.21875e-4 h 0.7851562 z m -2.6484375,-0.609375 c 0.515625,-0.8554687 1.921875,-3.2226562 1.921875,-3.7851562 v 3.7851562 z m 0,0"
       style="fill:#000000;fill-opacity:1;fill-rule:nonzero;stroke:none"
       aria-label="4"
       transform="matrix(1.3333333,0,0,1.3333333,585.9,147.976)" />
    <path
       id="path59"
       d="m 433.98354,198.42766 c 0,4.84988 -3.93151,8.7814 -8.78141,8.7814 -4.84988,0 -8.78138,-3.93152 -8.78138,-8.7814 0,-4.84989 3.9315,-8.78139 8.78138,-8.78139 4.8499,0 8.78141,3.9315 8.78141,8.78139 z"
       style="fill:#ffffff;fill-opacity:1;fill-rule:nonzero;stroke:#000000;stroke-width:1.19553;stroke-linecap:butt;stroke-linejoin:miter;stroke-miterlimit:10;stroke-dasharray:none;stroke-opacity:1"
       transform="matrix(1.3333333,0,0,-1.3333333,22.292,370.39333)" />
    <path
       id="path60"
       d="m 1.5222656,-5.8957656 h 2.625 V -6.5402969 H 0.80742188 v 3.6796875 H 1.4636719 c 0.1640625,-0.3984375 0.5390625,-0.7851562 1.1132812,-0.7851562 0.46875,0 1.0078125,0.4101562 1.0078125,1.6054687 0,1.65234378 -1.21875,1.65234378 -1.3007812,1.65234378 -0.6679688,0 -1.2773438,-0.38671875 -1.57031252,-0.92578128 l -0.328125,0.55078128 c 0.41015625,0.57421875 1.10156252,0.984375 1.91015622,0.984375 1.1835938,0 2.1796875,-0.984375 2.1796875,-2.24999998 0,-1.2421875 -0.8554687,-2.2265625 -1.8867187,-2.2265625 -0.3984375,0 -0.7734375,0.1523437 -1.0664063,0.4101562 z m 0,0"
       style="fill:#000000;fill-opacity:1;fill-rule:nonzero;stroke:none"
       aria-label="5"
       transform="matrix(1.3333333,0,0,1.3333333,585.9,110.18133)" />
    <path
       id="path61"
       d="m 433.98354,226.77448 c 0,4.84988 -3.93151,8.78138 -8.78141,8.78138 -4.84988,0 -8.78138,-3.9315 -8.78138,-8.78138 0,-4.84989 3.9315,-8.78141 8.78138,-8.78141 4.8499,0 8.78141,3.93152 8.78141,8.78141 z"
       style="fill:#ffffff;fill-opacity:1;fill-rule:nonzero;stroke:#000000;stroke-width:1.19553;stroke-linecap:butt;stroke-linejoin:miter;stroke-miterlimit:10;stroke-dasharray:none;stroke-opacity:1"
       transform="matrix(1.3333333,0,0,-1.3333333,22.292,370.39333)" />
    <path
       id="path62"
       d="m 4.1355469,-6.5497422 c -0.515625,-0.1992187 -0.9140625,-0.1992187 -1.0546875,-0.1992187 -1.40625,0 -2.66015627,1.40625 -2.66015627,3.5390625 0,2.82421871 1.23046877,3.43359371 2.07421877,3.43359371 0.5976562,0 1.03125,-0.234375 1.4179687,-0.6796875 0.4453125,-0.50390625 0.6328125,-0.97265621 0.6328125,-1.75781251 0,-1.2773437 -0.65625,-2.390625 -1.6054687,-2.390625 -0.3164063,0 -1.078125,0.082031 -1.6875,0.8320313 0.1289062,-1.6054688 0.9140625,-2.4023438 1.8398437,-2.4023438 0.375,0 0.6914063,0.070312 1.0429688,0.2109375 z m -2.8710938,4.3710938 c 0,-0.140625 0,-0.1640625 0.011719,-0.28125 0,-0.7382813 0.4453125,-1.5351563 1.2773437,-1.5351563 0.46875,0 0.75,0.2460938 0.9492188,0.6210938 0.2109375,0.3632812 0.234375,0.7148437 0.234375,1.1601562 0,0.3398438 0,0.796875 -0.2460938,1.2070313 -0.1640625,0.28124996 -0.421875,0.62109371 -0.9960937,0.62109371 -1.0546875,0 -1.1953125,-1.46484371 -1.230469,-1.79296871 z m 0,0"
       style="fill:#000000;fill-opacity:1;fill-rule:nonzero;stroke:none"
       aria-label="6"
       transform="matrix(1.3333333,0,0,1.3333333,585.9,72.385333)" />
    <path
       id="path63"
       d="m 4.92892,148.30585 72.21267,96.28383"
       style="fill:none;stroke:#ff0000;stroke-width:1.59404;stroke-linecap:butt;stroke-linejoin:miter;stroke-miterlimit:10;stroke-dasharray:none;stroke-opacity:1"
       transform="matrix(1.3333333,0,0,-1.3333333,22.292,370.39333)" />
    <path
       id="path64"
       d="M 3.78581,0 -2.27148,3.02866 0,0 -2.27148,-3.02866"
       style="fill:#ff0000;fill-opacity:1;fill-rule:nonzero;stroke:none"
       transform="matrix(0.79998667,-1.0666267,-1.0666267,-0.79998667,125.14745,44.27376)" />
    <path
       id="path65"
       d="m 5.8089,147.54294 69.92248,69.9225"
       style="fill:none;stroke:#ff0000;stroke-width:1.59404;stroke-linecap:butt;stroke-linejoin:miter;stroke-miterlimit:10;stroke-dasharray:none;stroke-opacity:1"
       transform="matrix(1.3333333,0,0,-1.3333333,22.292,370.39333)" />
    <path
       id="path66"
       d="M 3.78581,0 -2.27148,3.02866 0,0 -2.27148,-3.02866"
       style="fill:#ff0000;fill-opacity:1;fill-rule:nonzero;stroke:none"
       transform="matrix(0.9428,-0.9428,-0.9428,-0.9428,123.26716,80.43944)" />
    <path
       id="path67"
       d="m 6.83504,146.29068 67.25192,44.83476"
       style="fill:none;stroke:#ff0000;stroke-width:1.59404;stroke-linecap:butt;stroke-linejoin:miter;stroke-miterlimit:10;stroke-dasharray:none;stroke-opacity:1"
       transform="matrix(1.3333333,0,0,-1.3333333,22.292,370.39333)" />
    <path
       id="path68"
       d="M 3.78581,0 -2.27148,3.02866 0,0 -2.27148,-3.02866"
       style="fill:#ff0000;fill-opacity:1;fill-rule:nonzero;stroke:none"
       transform="matrix(1.10936,-0.73956,-0.73956,-1.10936,121.07461,115.55943)" />
    <path
       id="path69"
       d="M 7.79309,144.3317 72.55164,165.918"
       style="fill:none;stroke:#ff0000;stroke-width:1.59404;stroke-linecap:butt;stroke-linejoin:miter;stroke-miterlimit:10;stroke-dasharray:none;stroke-opacity:1"
       transform="matrix(1.3333333,0,0,-1.3333333,22.292,370.39333)" />
    <path
       id="path70"
       d="M 3.78581,0 -2.27148,3.02866 0,0 -2.27148,-3.02866"
       style="fill:#ff0000;fill-opacity:1;fill-rule:nonzero;stroke:none"
       transform="matrix(1.2648533,-0.42161333,-0.42161333,-1.2648533,119.02752,149.16933)" />
    <path
       id="path71"
       d="m 8.21504,141.73404 h 63.6604"
       style="fill:none;stroke:#ff0000;stroke-width:1.59404;stroke-linecap:butt;stroke-linejoin:miter;stroke-miterlimit:10;stroke-dasharray:none;stroke-opacity:1"
       transform="matrix(1.3333333,0,0,-1.3333333,22.292,370.39333)" />
    <path
       id="path72"
       d="M 3.78581,0 -2.27148,3.02866 0,0 -2.27148,-3.02866"
       style="fill:#ff0000;fill-opacity:1;fill-rule:nonzero;stroke:none"
       transform="matrix(1.3333333,0,0,-1.3333333,118.12592,181.41461)" />
    <path
       id="path73"
       d="m 7.79309,139.13638 64.75855,-21.5863"
       style="fill:none;stroke:#ff0000;stroke-width:1.59404;stroke-linecap:butt;stroke-linejoin:miter;stroke-miterlimit:10;stroke-dasharray:none;stroke-opacity:1"
       transform="matrix(1.3333333,0,0,-1.3333333,22.292,370.39333)" />
    <path
       id="path74"
       d="M 3.78581,0 -2.27148,3.02866 0,0 -2.27148,-3.02866"
       style="fill:#ff0000;fill-opacity:1;fill-rule:nonzero;stroke:none"
       transform="matrix(1.2648533,0.42161333,0.42161333,-1.2648533,119.02752,213.65989)" />
    <path
       id="path75"
       d="M 6.83504,137.1774 74.08696,92.34265"
       style="fill:none;stroke:#ff0000;stroke-width:1.59404;stroke-linecap:butt;stroke-linejoin:miter;stroke-miterlimit:10;stroke-dasharray:none;stroke-opacity:1"
       transform="matrix(1.3333333,0,0,-1.3333333,22.292,370.39333)" />
    <path
       id="path76"
       d="M 3.78581,0 -2.27148,3.02866 0,0 -2.27148,-3.02866"
       style="fill:#ff0000;fill-opacity:1;fill-rule:nonzero;stroke:none"
       transform="matrix(1.10936,0.73956,0.73956,-1.10936,121.07461,247.26977)" />
    <path
       id="path77"
       d="M 5.8089,135.92514 75.73138,66.00266"
       style="fill:none;stroke:#ff0000;stroke-width:1.59404;stroke-linecap:butt;stroke-linejoin:miter;stroke-miterlimit:10;stroke-dasharray:none;stroke-opacity:1"
       transform="matrix(1.3333333,0,0,-1.3333333,22.292,370.39333)" />
    <path
       id="path78"
       d="M 3.78581,0 -2.27148,3.02866 0,0 -2.27148,-3.02866"
       style="fill:#ff0000;fill-opacity:1;fill-rule:nonzero;stroke:none"
       transform="matrix(0.9428,0.9428,0.9428,-0.9428,123.26716,282.38977)" />
    <path
       id="path79"
       d="M 4.92892,135.16225 77.14159,38.87842"
       style="fill:none;stroke:#ff0000;stroke-width:1.59404;stroke-linecap:butt;stroke-linejoin:miter;stroke-miterlimit:10;stroke-dasharray:none;stroke-opacity:1"
       transform="matrix(1.3333333,0,0,-1.3333333,22.292,370.39333)" />
    <path
       id="path80"
       d="M 3.78581,0 -2.27148,3.02866 0,0 -2.27148,-3.02866"
       style="fill:#ff0000;fill-opacity:1;fill-rule:nonzero;stroke:none"
       transform="matrix(0.79998667,1.0666267,1.0666267,-0.79998667,125.14745,318.55544)" />
    <path
       id="path81"
       d="m 94.1395,30.6213 91.51632,22.87972"
       style="fill:none;stroke:#ff0000;stroke-width:1.59404;stroke-linecap:butt;stroke-linejoin:miter;stroke-miterlimit:10;stroke-dasharray:none;stroke-opacity:1"
       transform="matrix(1.3333333,0,0,-1.3333333,22.292,370.39333)" />
    <path
       id="path82"
       d="M 3.78581,0 -2.27148,3.02866 0,0 -2.27148,-3.02866"
       style="fill:#ff0000;fill-opacity:1;fill-rule:nonzero;stroke:none"
       transform="matrix(1.29352,-0.32334667,-0.32334667,-1.29352,269.83309,299.05867)" />
    <path
       id="path83"
       d="m 92.99385,33.3176 94.27004,58.91902"
       style="fill:none;stroke:#000000;stroke-width:1.59404;stroke-linecap:butt;stroke-linejoin:miter;stroke-miterlimit:10;stroke-dasharray:none;stroke-opacity:1"
       transform="matrix(1.3333333,0,0,-1.3333333,22.292,370.39333)" />
    <path
       id="path84"
       d="M 3.78581,0 -2.27148,3.02866 0,0 -2.27148,-3.02866"
       style="fill:#000000;fill-opacity:1;fill-rule:nonzero;stroke:none"
       transform="matrix(1.1306533,-0.70664,-0.70664,-1.1306533,271.97716,247.4112)" />
    <path
       id="path85"
       d="M 91.67249,34.97887 189.11862,132.425"
       style="fill:none;stroke:#000000;stroke-width:1.59404;stroke-linecap:butt;stroke-linejoin:miter;stroke-miterlimit:10;stroke-dasharray:none;stroke-opacity:1"
       transform="matrix(1.3333333,0,0,-1.3333333,22.292,370.39333)" />
    <path
       id="path86"
       d="M 3.78581,0 -2.27148,3.02866 0,0 -2.27148,-3.02866"
       style="fill:#000000;fill-opacity:1;fill-rule:nonzero;stroke:none"
       transform="matrix(0.9428,-0.9428,-0.9428,-0.9428,274.45013,193.82668)" />
    <path
       id="path87"
       d="M 90.55676,35.93185 190.68471,173.60739"
       style="fill:none;stroke:#000000;stroke-width:1.59404;stroke-linecap:butt;stroke-linejoin:miter;stroke-miterlimit:10;stroke-dasharray:none;stroke-opacity:1"
       transform="matrix(1.3333333,0,0,-1.3333333,22.292,370.39333)" />
    <path
       id="path88"
       d="M 3.78581,0 -2.27148,3.02866 0,0 -2.27148,-3.02866"
       style="fill:#000000;fill-opacity:1;fill-rule:nonzero;stroke:none"
       transform="matrix(0.7842,-1.0782933,-1.0782933,-0.7842,276.53827,138.91681)" />
    <path
       id="path89"
       d="m 89.6935,36.48973 102.20292,178.855"
       style="fill:none;stroke:#000000;stroke-width:1.59404;stroke-linecap:butt;stroke-linejoin:miter;stroke-miterlimit:10;stroke-dasharray:none;stroke-opacity:1"
       transform="matrix(1.3333333,0,0,-1.3333333,22.292,370.39333)" />
    <path
       id="path90"
       d="M 3.78581,0 -2.27148,3.02866 0,0 -2.27148,-3.02866"
       style="fill:#000000;fill-opacity:1;fill-rule:nonzero;stroke:none"
       transform="matrix(0.66148,-1.1576,-1.1576,-0.66148,278.15389,83.267053)" />
    <path
       id="path91"
       d="m 93.82191,59.98666 92.27967,34.60489"
       style="fill:none;stroke:#ff0000;stroke-width:1.59404;stroke-linecap:butt;stroke-linejoin:miter;stroke-miterlimit:10;stroke-dasharray:none;stroke-opacity:1"
       transform="matrix(1.3333333,0,0,-1.3333333,22.292,370.39333)" />
    <path
       id="path92"
       d="M 3.78581,0 -2.27148,3.02866 0,0 -2.27148,-3.02866"
       style="fill:#ff0000;fill-opacity:1;fill-rule:nonzero;stroke:none"
       transform="matrix(1.2483733,-0.46813333,-0.46813333,-1.2483733,270.42741,244.27127)" />
    <path
       id="path93"
       d="m 92.54349,62.321 95.35257,71.5142"
       style="fill:none;stroke:#000000;stroke-width:1.59404;stroke-linecap:butt;stroke-linejoin:miter;stroke-miterlimit:10;stroke-dasharray:none;stroke-opacity:1"
       transform="matrix(1.3333333,0,0,-1.3333333,22.292,370.39333)" />
    <path
       id="path94"
       d="M 3.78581,0 -2.27148,3.02866 0,0 -2.27148,-3.02866"
       style="fill:#000000;fill-opacity:1;fill-rule:nonzero;stroke:none"
       transform="matrix(1.0666267,-0.79998667,-0.79998667,-1.0666267,272.82008,191.9464)" />
    <path
       id="path95"
       d="m 91.2712,63.70322 98.41068,110.71206"
       style="fill:none;stroke:#000000;stroke-width:1.59404;stroke-linecap:butt;stroke-linejoin:miter;stroke-miterlimit:10;stroke-dasharray:none;stroke-opacity:1"
       transform="matrix(1.3333333,0,0,-1.3333333,22.292,370.39333)" />
    <path
       id="path96"
       d="M 3.78581,0 -2.27148,3.02866 0,0 -2.27148,-3.02866"
       style="fill:#000000;fill-opacity:1;fill-rule:nonzero;stroke:none"
       transform="matrix(0.88576,-0.99648,-0.99648,-0.88576,275.20116,137.83964)" />
    <path
       id="path97"
       d="M 90.24277,64.49721 191.12544,215.821"
       style="fill:none;stroke:#000000;stroke-width:1.59404;stroke-linecap:butt;stroke-linejoin:miter;stroke-miterlimit:10;stroke-dasharray:none;stroke-opacity:1"
       transform="matrix(1.3333333,0,0,-1.3333333,22.292,370.39333)" />
    <path
       id="path98"
       d="M 3.78581,0 -2.27148,3.02866 0,0 -2.27148,-3.02866"
       style="fill:#000000;fill-opacity:1;fill-rule:nonzero;stroke:none"
       transform="matrix(0.73956,-1.10936,-1.10936,-0.73956,277.12591,82.632)" />
    <path
       id="path99"
       d="m 94.34702,86.20364 91.01753,11.37743"
       style="fill:none;stroke:#ff0000;stroke-width:1.59404;stroke-linecap:butt;stroke-linejoin:miter;stroke-miterlimit:10;stroke-dasharray:none;stroke-opacity:1"
       transform="matrix(1.3333333,0,0,-1.3333333,22.292,370.39333)" />
    <path
       id="path100"
       d="M 3.78581,0 -2.27148,3.02866 0,0 -2.27148,-3.02866"
       style="fill:#ff0000;fill-opacity:1;fill-rule:nonzero;stroke:none"
       transform="matrix(1.3230133,-0.16536,-0.16536,-1.3230133,269.44473,240.28524)" />
    <path
       id="path101"
       d="m 93.42879,89.23453 93.22462,46.6125"
       style="fill:none;stroke:#000000;stroke-width:1.59404;stroke-linecap:butt;stroke-linejoin:miter;stroke-miterlimit:10;stroke-dasharray:none;stroke-opacity:1"
       transform="matrix(1.3333333,0,0,-1.3333333,22.292,370.39333)" />
    <path
       id="path102"
       d="M 3.78581,0 -2.27148,3.02866 0,0 -2.27148,-3.02866"
       style="fill:#000000;fill-opacity:1;fill-rule:nonzero;stroke:none"
       transform="matrix(1.19248,-0.59622667,-0.59622667,-1.19248,271.1632,189.26397)" />
    <path
       id="path103"
       d="m 92.09866,91.21638 96.42176,84.36904"
       style="fill:none;stroke:#000000;stroke-width:1.59404;stroke-linecap:butt;stroke-linejoin:miter;stroke-miterlimit:10;stroke-dasharray:none;stroke-opacity:1"
       transform="matrix(1.3333333,0,0,-1.3333333,22.292,370.39333)" />
    <path
       id="path104"
       d="M 3.78581,0 -2.27148,3.02866 0,0 -2.27148,-3.02866"
       style="fill:#000000;fill-opacity:1;fill-rule:nonzero;stroke:none"
       transform="matrix(1.0034,-0.87797333,-0.87797333,-1.0034,273.65253,136.27944)" />
    <path
       id="path105"
       d="m 90.89923,92.36386 99.30489,124.1311"
       style="fill:none;stroke:#000000;stroke-width:1.59404;stroke-linecap:butt;stroke-linejoin:miter;stroke-miterlimit:10;stroke-dasharray:none;stroke-opacity:1"
       transform="matrix(1.3333333,0,0,-1.3333333,22.292,370.39333)" />
    <path
       id="path106"
       d="M 3.78581,0 -2.27148,3.02866 0,0 -2.27148,-3.02866"
       style="fill:#000000;fill-opacity:1;fill-rule:nonzero;stroke:none"
       transform="matrix(0.83288,-1.0410933,-1.0410933,-0.83288,275.89747,81.733387)" />
    <path
       id="path107"
       d="m 94.1395,115.66174 91.51632,22.87972"
       style="fill:none;stroke:#ff0000;stroke-width:1.59404;stroke-linecap:butt;stroke-linejoin:miter;stroke-miterlimit:10;stroke-dasharray:none;stroke-opacity:1"
       transform="matrix(1.3333333,0,0,-1.3333333,22.292,370.39333)" />
    <path
       id="path108"
       d="M 3.78581,0 -2.27148,3.02866 0,0 -2.27148,-3.02866"
       style="fill:#ff0000;fill-opacity:1;fill-rule:nonzero;stroke:none"
       transform="matrix(1.29352,-0.32334667,-0.32334667,-1.29352,269.83309,185.67141)" />
    <path
       id="path109"
       d="m 92.99385,118.35802 94.27004,58.91902"
       style="fill:none;stroke:#000000;stroke-width:1.59404;stroke-linecap:butt;stroke-linejoin:miter;stroke-miterlimit:10;stroke-dasharray:none;stroke-opacity:1"
       transform="matrix(1.3333333,0,0,-1.3333333,22.292,370.39333)" />
    <path
       id="path110"
       d="M 3.78581,0 -2.27148,3.02866 0,0 -2.27148,-3.02866"
       style="fill:#000000;fill-opacity:1;fill-rule:nonzero;stroke:none"
       transform="matrix(1.1306533,-0.70664,-0.70664,-1.1306533,271.97716,134.02397)" />
    <path
       id="path111"
       d="m 91.67249,120.01929 97.44613,97.44615"
       style="fill:none;stroke:#000000;stroke-width:1.59404;stroke-linecap:butt;stroke-linejoin:miter;stroke-miterlimit:10;stroke-dasharray:none;stroke-opacity:1"
       transform="matrix(1.3333333,0,0,-1.3333333,22.292,370.39333)" />
    <path
       id="path112"
       d="M 3.78581,0 -2.27148,3.02866 0,0 -2.27148,-3.02866"
       style="fill:#000000;fill-opacity:1;fill-rule:nonzero;stroke:none"
       transform="matrix(0.9428,-0.9428,-0.9428,-0.9428,274.45013,80.43944)" />
    <path
       id="path113"
       d="m 94.41957,141.73404 h 90.84311"
       style="fill:none;stroke:#ff0000;stroke-width:1.59404;stroke-linecap:butt;stroke-linejoin:miter;stroke-miterlimit:10;stroke-dasharray:none;stroke-opacity:1"
       transform="matrix(1.3333333,0,0,-1.3333333,22.292,370.39333)" />
    <path
       id="path114"
       d="M 3.78581,0 -2.27148,3.02866 0,0 -2.27148,-3.02866"
       style="fill:#ff0000;fill-opacity:1;fill-rule:nonzero;stroke:none"
       transform="matrix(1.3333333,0,0,-1.3333333,269.30891,181.41461)" />
    <path
       id="path115"
       d="m 93.82191,145.0271 92.27967,34.60487"
       style="fill:none;stroke:#000000;stroke-width:1.59404;stroke-linecap:butt;stroke-linejoin:miter;stroke-miterlimit:10;stroke-dasharray:none;stroke-opacity:1"
       transform="matrix(1.3333333,0,0,-1.3333333,22.292,370.39333)" />
    <path
       id="path116"
       d="M 3.78581,0 -2.27148,3.02866 0,0 -2.27148,-3.02866"
       style="fill:#000000;fill-opacity:1;fill-rule:nonzero;stroke:none"
       transform="matrix(1.2483733,-0.46813333,-0.46813333,-1.2483733,270.42741,130.88404)" />
    <path
       id="path117"
       d="m 92.54349,147.36143 95.35257,71.5142"
       style="fill:none;stroke:#000000;stroke-width:1.59404;stroke-linecap:butt;stroke-linejoin:miter;stroke-miterlimit:10;stroke-dasharray:none;stroke-opacity:1"
       transform="matrix(1.3333333,0,0,-1.3333333,22.292,370.39333)" />
    <path
       id="path118"
       d="M 3.78581,0 -2.27148,3.02866 0,0 -2.27148,-3.02866"
       style="fill:#000000;fill-opacity:1;fill-rule:nonzero;stroke:none"
       transform="matrix(1.0666267,-0.79998667,-0.79998667,-1.0666267,272.82008,78.55916)" />
    <path
       id="path119"
       d="m 94.1395,167.80635 91.51632,-22.87973"
       style="fill:none;stroke:#ff0000;stroke-width:1.59404;stroke-linecap:butt;stroke-linejoin:miter;stroke-miterlimit:10;stroke-dasharray:none;stroke-opacity:1"
       transform="matrix(1.3333333,0,0,-1.3333333,22.292,370.39333)" />
    <path
       id="path120"
       d="M 3.78581,0 -2.27148,3.02866 0,0 -2.27148,-3.02866"
       style="fill:#ff0000;fill-opacity:1;fill-rule:nonzero;stroke:none"
       transform="matrix(1.29352,0.32334667,0.32334667,-1.29352,269.83309,177.15781)" />
    <path
       id="path121"
       d="m 94.34702,171.24408 91.01753,11.37741"
       style="fill:none;stroke:#000000;stroke-width:1.59404;stroke-linecap:butt;stroke-linejoin:miter;stroke-miterlimit:10;stroke-dasharray:none;stroke-opacity:1"
       transform="matrix(1.3333333,0,0,-1.3333333,22.292,370.39333)" />
    <path
       id="path122"
       d="M 3.78581,0 -2.27148,3.02866 0,0 -2.27148,-3.02866"
       style="fill:#000000;fill-opacity:1;fill-rule:nonzero;stroke:none"
       transform="matrix(1.3230133,-0.16536,-0.16536,-1.3230133,269.44473,126.89801)" />
    <path
       id="path123"
       d="m 93.42879,174.27495 93.22462,46.61252"
       style="fill:none;stroke:#000000;stroke-width:1.59404;stroke-linecap:butt;stroke-linejoin:miter;stroke-miterlimit:10;stroke-dasharray:none;stroke-opacity:1"
       transform="matrix(1.3333333,0,0,-1.3333333,22.292,370.39333)" />
    <path
       id="path124"
       d="M 3.78581,0 -2.27148,3.02866 0,0 -2.27148,-3.02866"
       style="fill:#000000;fill-opacity:1;fill-rule:nonzero;stroke:none"
       transform="matrix(1.19248,-0.59622667,-0.59622667,-1.19248,271.1632,75.876733)" />
    <path
       id="path125"
       d="m 94.34702,197.26443 91.01753,-11.37742"
       style="fill:none;stroke:#ff0000;stroke-width:1.59404;stroke-linecap:butt;stroke-linejoin:miter;stroke-miterlimit:10;stroke-dasharray:none;stroke-opacity:1"
       transform="matrix(1.3333333,0,0,-1.3333333,22.292,370.39333)" />
    <path
       id="path126"
       d="M 3.78581,0 -2.27148,3.02866 0,0 -2.27148,-3.02866"
       style="fill:#ff0000;fill-opacity:1;fill-rule:nonzero;stroke:none"
       transform="matrix(1.3230133,0.16536,0.16536,-1.3230133,269.44473,122.54399)" />
    <path
       id="path127"
       d="m 94.1395,200.70216 91.51632,22.87974"
       style="fill:none;stroke:#000000;stroke-width:1.59404;stroke-linecap:butt;stroke-linejoin:miter;stroke-miterlimit:10;stroke-dasharray:none;stroke-opacity:1"
       transform="matrix(1.3333333,0,0,-1.3333333,22.292,370.39333)" />
    <path
       id="path128"
       d="M 3.78581,0 -2.27148,3.02866 0,0 -2.27148,-3.02866"
       style="fill:#000000;fill-opacity:1;fill-rule:nonzero;stroke:none"
       transform="matrix(1.29352,-0.32334667,-0.32334667,-1.29352,269.83309,72.28416)" />
    <path
       id="path129"
       d="m 94.41957,226.77448 h 90.84311"
       style="fill:none;stroke:#ff0000;stroke-width:1.59404;stroke-linecap:butt;stroke-linejoin:miter;stroke-miterlimit:10;stroke-dasharray:none;stroke-opacity:1"
       transform="matrix(1.3333333,0,0,-1.3333333,22.292,370.39333)" />
    <path
       id="path130"
       d="M 3.78581,0 -2.27148,3.02866 0,0 -2.27148,-3.02866"
       style="fill:#ff0000;fill-opacity:1;fill-rule:nonzero;stroke:none"
       transform="matrix(1.3333333,0,0,-1.3333333,269.30891,68.02736)" />
    <path
       id="path131"
       d="m 94.1395,252.84677 91.51632,-22.87971"
       style="fill:none;stroke:#ff0000;stroke-width:1.59404;stroke-linecap:butt;stroke-linejoin:miter;stroke-miterlimit:10;stroke-dasharray:none;stroke-opacity:1"
       transform="matrix(1.3333333,0,0,-1.3333333,22.292,370.39333)" />
    <path
       id="path132"
       d="M 3.78581,0 -2.27148,3.02866 0,0 -2.27148,-3.02866"
       style="fill:#ff0000;fill-opacity:1;fill-rule:nonzero;stroke:none"
       transform="matrix(1.29352,0.32334667,0.32334667,-1.29352,269.83309,63.770573)" />
    <path
       id="path133"
       d="m 207.80681,56.69362 h 90.84312"
       style="fill:none;stroke:#000000;stroke-width:1.59404;stroke-linecap:butt;stroke-linejoin:miter;stroke-miterlimit:10;stroke-dasharray:none;stroke-opacity:1"
       transform="matrix(1.3333333,0,0,-1.3333333,22.292,370.39333)" />
    <path
       id="path134"
       d="M 3.78581,0 -2.27148,3.02866 0,0 -2.27148,-3.02866"
       style="fill:#000000;fill-opacity:1;fill-rule:nonzero;stroke:none"
       transform="matrix(1.3333333,0,0,-1.3333333,420.49191,294.80184)" />
    <path
       id="path135"
       d="m 206.81602,60.88771 93.22463,46.6125"
       style="fill:none;stroke:#000000;stroke-width:1.59404;stroke-linecap:butt;stroke-linejoin:miter;stroke-miterlimit:10;stroke-dasharray:none;stroke-opacity:1"
       transform="matrix(1.3333333,0,0,-1.3333333,22.292,370.39333)" />
    <path
       id="path136"
       d="M 3.78581,0 -2.27148,3.02866 0,0 -2.27148,-3.02866"
       style="fill:#000000;fill-opacity:1;fill-rule:nonzero;stroke:none"
       transform="matrix(1.19248,-0.59622667,-0.59622667,-1.19248,422.34617,227.05973)" />
    <path
       id="path137"
       d="m 205.05972,63.32567 97.44614,97.44615"
       style="fill:none;stroke:#ff0000;stroke-width:1.59404;stroke-linecap:butt;stroke-linejoin:miter;stroke-miterlimit:10;stroke-dasharray:none;stroke-opacity:1"
       transform="matrix(1.3333333,0,0,-1.3333333,22.292,370.39333)" />
    <path
       id="path138"
       d="M 3.78581,0 -2.27148,3.02866 0,0 -2.27148,-3.02866"
       style="fill:#ff0000;fill-opacity:1;fill-rule:nonzero;stroke:none"
       transform="matrix(0.9428,-0.9428,-0.9428,-0.9428,425.63312,156.03093)" />
    <path
       id="path139"
       d="M 203.63,64.49721 304.51268,215.821"
       style="fill:none;stroke:#000000;stroke-width:1.59404;stroke-linecap:butt;stroke-linejoin:miter;stroke-miterlimit:10;stroke-dasharray:none;stroke-opacity:1"
       transform="matrix(1.3333333,0,0,-1.3333333,22.292,370.39333)" />
    <path
       id="path140"
       d="M 3.78581,0 -2.27148,3.02866 0,0 -2.27148,-3.02866"
       style="fill:#000000;fill-opacity:1;fill-rule:nonzero;stroke:none"
       transform="matrix(0.73956,-1.10936,-1.10936,-0.73956,428.30888,82.632)" />
    <path
       id="path141"
       d="M 207.20917,95.92076 299.48882,61.31589"
       style="fill:none;stroke:#ff0000;stroke-width:1.59404;stroke-linecap:butt;stroke-linejoin:miter;stroke-miterlimit:10;stroke-dasharray:none;stroke-opacity:1"
       transform="matrix(1.3333333,0,0,-1.3333333,22.292,370.39333)" />
    <path
       id="path142"
       d="M 3.78581,0 -2.27148,3.02866 0,0 -2.27148,-3.02866"
       style="fill:#ff0000;fill-opacity:1;fill-rule:nonzero;stroke:none"
       transform="matrix(1.2483733,0.46813333,0.46813333,-1.2483733,421.6104,288.63881)" />
    <path
       id="path143"
       d="m 207.73425,100.37704 91.01754,11.37745"
       style="fill:none;stroke:#ff0000;stroke-width:1.59404;stroke-linecap:butt;stroke-linejoin:miter;stroke-miterlimit:10;stroke-dasharray:none;stroke-opacity:1"
       transform="matrix(1.3333333,0,0,-1.3333333,22.292,370.39333)" />
    <path
       id="path144"
       d="M 3.78581,0 -2.27148,3.02866 0,0 -2.27148,-3.02866"
       style="fill:#ff0000;fill-opacity:1;fill-rule:nonzero;stroke:none"
       transform="matrix(1.3230133,-0.16536,-0.16536,-1.3230133,420.62772,221.38735)" />
    <path
       id="path145"
       d="m 206.38109,104.1846 94.27003,58.91904"
       style="fill:none;stroke:#000000;stroke-width:1.59404;stroke-linecap:butt;stroke-linejoin:miter;stroke-miterlimit:10;stroke-dasharray:none;stroke-opacity:1"
       transform="matrix(1.3333333,0,0,-1.3333333,22.292,370.39333)" />
    <path
       id="path146"
       d="M 3.78581,0 -2.27148,3.02866 0,0 -2.27148,-3.02866"
       style="fill:#000000;fill-opacity:1;fill-rule:nonzero;stroke:none"
       transform="matrix(1.1306533,-0.70664,-0.70664,-1.1306533,423.16015,152.92184)" />
    <path
       id="path147"
       d="M 204.65843,106.22342 303.06912,216.9355"
       style="fill:none;stroke:#000000;stroke-width:1.59404;stroke-linecap:butt;stroke-linejoin:miter;stroke-miterlimit:10;stroke-dasharray:none;stroke-opacity:1"
       transform="matrix(1.3333333,0,0,-1.3333333,22.292,370.39333)" />
    <path
       id="path148"
       d="M 3.78581,0 -2.27148,3.02866 0,0 -2.27148,-3.02866"
       style="fill:#000000;fill-opacity:1;fill-rule:nonzero;stroke:none"
       transform="matrix(0.88576,-0.99648,-0.99648,-0.88576,426.38413,81.146013)" />
    <path
       id="path149"
       d="M 205.93073,136.10664 301.2833,64.59245"
       style="fill:none;stroke:#ff0000;stroke-width:1.59404;stroke-linecap:butt;stroke-linejoin:miter;stroke-miterlimit:10;stroke-dasharray:none;stroke-opacity:1"
       transform="matrix(1.3333333,0,0,-1.3333333,22.292,370.39333)" />
    <path
       id="path150"
       d="M 3.78581,0 -2.27148,3.02866 0,0 -2.27148,-3.02866"
       style="fill:#ff0000;fill-opacity:1;fill-rule:nonzero;stroke:none"
       transform="matrix(1.0666267,0.79998667,0.79998667,-1.0666267,424.00307,284.27007)" />
    <path
       id="path151"
       d="m 207.52673,139.45953 91.51633,-22.87971"
       style="fill:none;stroke:#000000;stroke-width:1.59404;stroke-linecap:butt;stroke-linejoin:miter;stroke-miterlimit:10;stroke-dasharray:none;stroke-opacity:1"
       transform="matrix(1.3333333,0,0,-1.3333333,22.292,370.39333)" />
    <path
       id="path152"
       d="M 3.78581,0 -2.27148,3.02866 0,0 -2.27148,-3.02866"
       style="fill:#000000;fill-opacity:1;fill-rule:nonzero;stroke:none"
       transform="matrix(1.29352,0.32334667,0.32334667,-1.29352,421.01608,214.95356)" />
    <path
       id="path153"
       d="m 207.52673,144.00854 91.51633,22.87974"
       style="fill:none;stroke:#ff0000;stroke-width:1.59404;stroke-linecap:butt;stroke-linejoin:miter;stroke-miterlimit:10;stroke-dasharray:none;stroke-opacity:1"
       transform="matrix(1.3333333,0,0,-1.3333333,22.292,370.39333)" />
    <path
       id="path154"
       d="M 3.78581,0 -2.27148,3.02866 0,0 -2.27148,-3.02866"
       style="fill:#ff0000;fill-opacity:1;fill-rule:nonzero;stroke:none"
       transform="matrix(1.29352,-0.32334667,-0.32334667,-1.29352,421.01608,147.87565)" />
    <path
       id="path155"
       d="m 205.93073,147.36143 95.35257,71.5142"
       style="fill:none;stroke:#000000;stroke-width:1.59404;stroke-linecap:butt;stroke-linejoin:miter;stroke-miterlimit:10;stroke-dasharray:none;stroke-opacity:1"
       transform="matrix(1.3333333,0,0,-1.3333333,22.292,370.39333)" />
    <path
       id="path156"
       d="M 3.78581,0 -2.27148,3.02866 0,0 -2.27148,-3.02866"
       style="fill:#000000;fill-opacity:1;fill-rule:nonzero;stroke:none"
       transform="matrix(1.0666267,-0.79998667,-0.79998667,-1.0666267,424.00307,78.55916)" />
    <path
       id="path157"
       d="M 204.65843,177.24464 303.06912,66.53258"
       style="fill:none;stroke:#ff0000;stroke-width:1.59404;stroke-linecap:butt;stroke-linejoin:miter;stroke-miterlimit:10;stroke-dasharray:none;stroke-opacity:1"
       transform="matrix(1.3333333,0,0,-1.3333333,22.292,370.39333)" />
    <path
       id="path158"
       d="M 3.78581,0 -2.27148,3.02866 0,0 -2.27148,-3.02866"
       style="fill:#ff0000;fill-opacity:1;fill-rule:nonzero;stroke:none"
       transform="matrix(0.88576,0.99648,0.99648,-0.88576,426.38413,281.6832)" />
    <path
       id="path159"
       d="m 206.38109,179.28346 94.27003,-58.91902"
       style="fill:none;stroke:#000000;stroke-width:1.59404;stroke-linecap:butt;stroke-linejoin:miter;stroke-miterlimit:10;stroke-dasharray:none;stroke-opacity:1"
       transform="matrix(1.3333333,0,0,-1.3333333,22.292,370.39333)" />
    <path
       id="path160"
       d="M 3.78581,0 -2.27148,3.02866 0,0 -2.27148,-3.02866"
       style="fill:#000000;fill-opacity:1;fill-rule:nonzero;stroke:none"
       transform="matrix(1.1306533,0.70664,0.70664,-1.1306533,423.16015,209.90739)" />
    <path
       id="path161"
       d="m 207.73425,183.09102 91.01754,-11.37741"
       style="fill:none;stroke:#000000;stroke-width:1.59404;stroke-linecap:butt;stroke-linejoin:miter;stroke-miterlimit:10;stroke-dasharray:none;stroke-opacity:1"
       transform="matrix(1.3333333,0,0,-1.3333333,22.292,370.39333)" />
    <path
       id="path162"
       d="M 3.78581,0 -2.27148,3.02866 0,0 -2.27148,-3.02866"
       style="fill:#000000;fill-opacity:1;fill-rule:nonzero;stroke:none"
       transform="matrix(1.3230133,0.16536,0.16536,-1.3230133,420.62772,141.44185)" />
    <path
       id="path163"
       d="m 207.20917,187.5473 92.27965,34.6049"
       style="fill:none;stroke:#000000;stroke-width:1.59404;stroke-linecap:butt;stroke-linejoin:miter;stroke-miterlimit:10;stroke-dasharray:none;stroke-opacity:1"
       transform="matrix(1.3333333,0,0,-1.3333333,22.292,370.39333)" />
    <path
       id="path164"
       d="M 3.78581,0 -2.27148,3.02866 0,0 -2.27148,-3.02866"
       style="fill:#000000;fill-opacity:1;fill-rule:nonzero;stroke:none"
       transform="matrix(1.2483733,-0.46813333,-0.46813333,-1.2483733,421.6104,74.1904)" />
    <path
       id="path165"
       d="M 203.63,218.97087 304.51268,67.64708"
       style="fill:none;stroke:#ff0000;stroke-width:1.59404;stroke-linecap:butt;stroke-linejoin:miter;stroke-miterlimit:10;stroke-dasharray:none;stroke-opacity:1"
       transform="matrix(1.3333333,0,0,-1.3333333,22.292,370.39333)" />
    <path
       id="path166"
       d="M 3.78581,0 -2.27148,3.02866 0,0 -2.27148,-3.02866"
       style="fill:#ff0000;fill-opacity:1;fill-rule:nonzero;stroke:none"
       transform="matrix(0.73956,1.10936,1.10936,-0.73956,428.30888,280.19723)" />
    <path
       id="path167"
       d="m 205.05972,220.14241 97.44614,-97.44614"
       style="fill:none;stroke:#ff0000;stroke-width:1.59404;stroke-linecap:butt;stroke-linejoin:miter;stroke-miterlimit:10;stroke-dasharray:none;stroke-opacity:1"
       transform="matrix(1.3333333,0,0,-1.3333333,22.292,370.39333)" />
    <path
       id="path168"
       d="M 3.78581,0 -2.27148,3.02866 0,0 -2.27148,-3.02866"
       style="fill:#ff0000;fill-opacity:1;fill-rule:nonzero;stroke:none"
       transform="matrix(0.9428,0.9428,0.9428,-0.9428,425.63312,206.79828)" />
    <path
       id="path169"
       d="m 206.81602,222.58037 93.22463,-46.61251"
       style="fill:none;stroke:#000000;stroke-width:1.59404;stroke-linecap:butt;stroke-linejoin:miter;stroke-miterlimit:10;stroke-dasharray:none;stroke-opacity:1"
       transform="matrix(1.3333333,0,0,-1.3333333,22.292,370.39333)" />
    <path
       id="path170"
       d="M 3.78581,0 -2.27148,3.02866 0,0 -2.27148,-3.02866"
       style="fill:#000000;fill-opacity:1;fill-rule:nonzero;stroke:none"
       transform="matrix(1.19248,0.59622667,0.59622667,-1.19248,422.34617,135.76949)" />
    <path
       id="path171"
       d="m 207.80681,226.77448 h 90.84312"
       style="fill:none;stroke:#000000;stroke-width:1.59404;stroke-linecap:butt;stroke-linejoin:miter;stroke-miterlimit:10;stroke-dasharray:none;stroke-opacity:1"
       transform="matrix(1.3333333,0,0,-1.3333333,22.292,370.39333)" />
    <path
       id="path172"
       d="M 3.78581,0 -2.27148,3.02866 0,0 -2.27148,-3.02866"
       style="fill:#000000;fill-opacity:1;fill-rule:nonzero;stroke:none"
       transform="matrix(1.3333333,0,0,-1.3333333,420.49191,68.02736)" />
    <path
       id="path173"
       d="m 321.19405,56.69362 h 90.84312"
       style="fill:none;stroke:#ff0000;stroke-width:1.59404;stroke-linecap:butt;stroke-linejoin:miter;stroke-miterlimit:10;stroke-dasharray:none;stroke-opacity:1"
       transform="matrix(1.3333333,0,0,-1.3333333,22.292,370.39333)" />
    <path
       id="path174"
       d="M 3.78581,0 -2.27148,3.02866 0,0 -2.27148,-3.02866"
       style="fill:#ff0000;fill-opacity:1;fill-rule:nonzero;stroke:none"
       transform="matrix(1.3333333,0,0,-1.3333333,571.67489,294.80184)" />
    <path
       id="path175"
       d="M 320.91397,58.96812 412.4303,81.84784"
       style="fill:none;stroke:#ff0000;stroke-width:1.59404;stroke-linecap:butt;stroke-linejoin:miter;stroke-miterlimit:10;stroke-dasharray:none;stroke-opacity:1"
       transform="matrix(1.3333333,0,0,-1.3333333,22.292,370.39333)" />
    <path
       id="path176"
       d="M 3.78581,0 -2.27148,3.02866 0,0 -2.27148,-3.02866"
       style="fill:#ff0000;fill-opacity:1;fill-rule:nonzero;stroke:none"
       transform="matrix(1.29352,-0.32334667,-0.32334667,-1.29352,572.19907,261.26291)" />
    <path
       id="path177"
       d="m 320.20326,60.88771 93.22463,46.6125"
       style="fill:none;stroke:#ff0000;stroke-width:1.59404;stroke-linecap:butt;stroke-linejoin:miter;stroke-miterlimit:10;stroke-dasharray:none;stroke-opacity:1"
       transform="matrix(1.3333333,0,0,-1.3333333,22.292,370.39333)" />
    <path
       id="path178"
       d="M 3.78581,0 -2.27148,3.02866 0,0 -2.27148,-3.02866"
       style="fill:#ff0000;fill-opacity:1;fill-rule:nonzero;stroke:none"
       transform="matrix(1.19248,-0.59622667,-0.59622667,-1.19248,573.52916,227.05973)" />
    <path
       id="path179"
       d="m 319.31796,62.321 95.35257,71.5142"
       style="fill:none;stroke:#ff0000;stroke-width:1.59404;stroke-linecap:butt;stroke-linejoin:miter;stroke-miterlimit:10;stroke-dasharray:none;stroke-opacity:1"
       transform="matrix(1.3333333,0,0,-1.3333333,22.292,370.39333)" />
    <path
       id="path180"
       d="M 3.78581,0 -2.27148,3.02866 0,0 -2.27148,-3.02866"
       style="fill:#ff0000;fill-opacity:1;fill-rule:nonzero;stroke:none"
       transform="matrix(1.0666267,-0.79998667,-0.79998667,-1.0666267,575.18604,191.9464)" />
    <path
       id="path181"
       d="m 320.20326,109.19313 93.22463,-46.6125"
       style="fill:none;stroke:#ff0000;stroke-width:1.59404;stroke-linecap:butt;stroke-linejoin:miter;stroke-miterlimit:10;stroke-dasharray:none;stroke-opacity:1"
       transform="matrix(1.3333333,0,0,-1.3333333,22.292,370.39333)" />
    <path
       id="path182"
       d="M 3.78581,0 -2.27148,3.02866 0,0 -2.27148,-3.02866"
       style="fill:#ff0000;fill-opacity:1;fill-rule:nonzero;stroke:none"
       transform="matrix(1.19248,0.59622667,0.59622667,-1.19248,573.52916,286.95248)" />
    <path
       id="path183"
       d="m 320.91397,115.66174 91.51633,22.87972"
       style="fill:none;stroke:#ff0000;stroke-width:1.59404;stroke-linecap:butt;stroke-linejoin:miter;stroke-miterlimit:10;stroke-dasharray:none;stroke-opacity:1"
       transform="matrix(1.3333333,0,0,-1.3333333,22.292,370.39333)" />
    <path
       id="path184"
       d="M 3.78581,0 -2.27148,3.02866 0,0 -2.27148,-3.02866"
       style="fill:#ff0000;fill-opacity:1;fill-rule:nonzero;stroke:none"
       transform="matrix(1.29352,-0.32334667,-0.32334667,-1.29352,572.19907,185.67141)" />
    <path
       id="path185"
       d="m 320.20326,117.58133 93.22463,46.6125"
       style="fill:none;stroke:#ff0000;stroke-width:1.59404;stroke-linecap:butt;stroke-linejoin:miter;stroke-miterlimit:10;stroke-dasharray:none;stroke-opacity:1"
       transform="matrix(1.3333333,0,0,-1.3333333,22.292,370.39333)" />
    <path
       id="path186"
       d="M 3.78581,0 -2.27148,3.02866 0,0 -2.27148,-3.02866"
       style="fill:#ff0000;fill-opacity:1;fill-rule:nonzero;stroke:none"
       transform="matrix(1.19248,-0.59622667,-0.59622667,-1.19248,573.52916,151.46824)" />
    <path
       id="path187"
       d="m 318.44696,120.01929 97.44614,97.44615"
       style="fill:none;stroke:#000000;stroke-width:1.59404;stroke-linecap:butt;stroke-linejoin:miter;stroke-miterlimit:10;stroke-dasharray:none;stroke-opacity:1"
       transform="matrix(1.3333333,0,0,-1.3333333,22.292,370.39333)" />
    <path
       id="path188"
       d="M 3.78581,0 -2.27148,3.02866 0,0 -2.27148,-3.02866"
       style="fill:#000000;fill-opacity:1;fill-rule:nonzero;stroke:none"
       transform="matrix(0.9428,-0.9428,-0.9428,-0.9428,576.81611,80.43944)" />
    <path
       id="path189"
       d="m 320.20326,165.88675 93.22463,-46.6125"
       style="fill:none;stroke:#ff0000;stroke-width:1.59404;stroke-linecap:butt;stroke-linejoin:miter;stroke-miterlimit:10;stroke-dasharray:none;stroke-opacity:1"
       transform="matrix(1.3333333,0,0,-1.3333333,22.292,370.39333)" />
    <path
       id="path190"
       d="M 3.78581,0 -2.27148,3.02866 0,0 -2.27148,-3.02866"
       style="fill:#ff0000;fill-opacity:1;fill-rule:nonzero;stroke:none"
       transform="matrix(1.19248,0.59622667,0.59622667,-1.19248,573.52916,211.36099)" />
    <path
       id="path191"
       d="M 320.91397,167.80635 412.4303,144.92662"
       style="fill:none;stroke:#ff0000;stroke-width:1.59404;stroke-linecap:butt;stroke-linejoin:miter;stroke-miterlimit:10;stroke-dasharray:none;stroke-opacity:1"
       transform="matrix(1.3333333,0,0,-1.3333333,22.292,370.39333)" />
    <path
       id="path192"
       d="M 3.78581,0 -2.27148,3.02866 0,0 -2.27148,-3.02866"
       style="fill:#ff0000;fill-opacity:1;fill-rule:nonzero;stroke:none"
       transform="matrix(1.29352,0.32334667,0.32334667,-1.29352,572.19907,177.15781)" />
    <path
       id="path193"
       d="m 321.19405,170.08086 h 90.84312"
       style="fill:none;stroke:#000000;stroke-width:1.59404;stroke-linecap:butt;stroke-linejoin:miter;stroke-miterlimit:10;stroke-dasharray:none;stroke-opacity:1"
       transform="matrix(1.3333333,0,0,-1.3333333,22.292,370.39333)" />
    <path
       id="path194"
       d="M 3.78581,0 -2.27148,3.02866 0,0 -2.27148,-3.02866"
       style="fill:#000000;fill-opacity:1;fill-rule:nonzero;stroke:none"
       transform="matrix(1.3333333,0,0,-1.3333333,571.67489,143.61885)" />
    <path
       id="path195"
       d="m 320.91397,172.35536 91.51633,22.87972"
       style="fill:none;stroke:#000000;stroke-width:1.59404;stroke-linecap:butt;stroke-linejoin:miter;stroke-miterlimit:10;stroke-dasharray:none;stroke-opacity:1"
       transform="matrix(1.3333333,0,0,-1.3333333,22.292,370.39333)" />
    <path
       id="path196"
       d="M 3.78581,0 -2.27148,3.02866 0,0 -2.27148,-3.02866"
       style="fill:#000000;fill-opacity:1;fill-rule:nonzero;stroke:none"
       transform="matrix(1.29352,-0.32334667,-0.32334667,-1.29352,572.19907,110.07992)" />
    <path
       id="path197"
       d="m 320.20326,222.58037 93.22463,-46.61251"
       style="fill:none;stroke:#000000;stroke-width:1.59404;stroke-linecap:butt;stroke-linejoin:miter;stroke-miterlimit:10;stroke-dasharray:none;stroke-opacity:1"
       transform="matrix(1.3333333,0,0,-1.3333333,22.292,370.39333)" />
    <path
       id="path198"
       d="M 3.78581,0 -2.27148,3.02866 0,0 -2.27148,-3.02866"
       style="fill:#000000;fill-opacity:1;fill-rule:nonzero;stroke:none"
       transform="matrix(1.19248,0.59622667,0.59622667,-1.19248,573.52916,135.76949)" />
    <path
       id="path199"
       d="M 320.91397,224.49997 412.4303,201.62024"
       style="fill:none;stroke:#000000;stroke-width:1.59404;stroke-linecap:butt;stroke-linejoin:miter;stroke-miterlimit:10;stroke-dasharray:none;stroke-opacity:1"
       transform="matrix(1.3333333,0,0,-1.3333333,22.292,370.39333)" />
    <path
       id="path200"
       d="M 3.78581,0 -2.27148,3.02866 0,0 -2.27148,-3.02866"
       style="fill:#000000;fill-opacity:1;fill-rule:nonzero;stroke:none"
       transform="matrix(1.29352,0.32334667,0.32334667,-1.29352,572.19907,101.56633)" />
    <path
       id="path201"
       d="m 321.19405,226.77448 h 90.84312"
       style="fill:none;stroke:#000000;stroke-width:1.59404;stroke-linecap:butt;stroke-linejoin:miter;stroke-miterlimit:10;stroke-dasharray:none;stroke-opacity:1"
       transform="matrix(1.3333333,0,0,-1.3333333,22.292,370.39333)" />
    <path
       id="path202"
       d="M 3.78581,0 -2.27148,3.02866 0,0 -2.27148,-3.02866"
       style="fill:#000000;fill-opacity:1;fill-rule:nonzero;stroke:none"
       transform="matrix(1.3333333,0,0,-1.3333333,571.67489,68.02736)" />
    <path
       id="path203"
       d="m 431.8342,63.32567 69.64197,69.64197"
       style="fill:none;stroke:#00ff00;stroke-width:1.59404;stroke-linecap:butt;stroke-linejoin:miter;stroke-miterlimit:10;stroke-dasharray:none;stroke-opacity:1"
       transform="matrix(1.3333333,0,0,-1.3333333,22.292,370.39333)" />
    <path
       id="path204"
       d="M 3.78581,0 -2.27148,3.02866 0,0 -2.27148,-3.02866"
       style="fill:#00ff00;fill-opacity:1;fill-rule:nonzero;stroke:none"
       transform="matrix(0.9428,-0.9428,-0.9428,-0.9428,690.92687,193.10317)" />
    <path
       id="path205"
       d="m 433.00574,90.24277 66.92186,44.6147"
       style="fill:none;stroke:#ff0000;stroke-width:1.59404;stroke-linecap:butt;stroke-linejoin:miter;stroke-miterlimit:10;stroke-dasharray:none;stroke-opacity:1"
       transform="matrix(1.3333333,0,0,-1.3333333,22.292,370.39333)" />
    <path
       id="path206"
       d="M 3.78581,0 -2.27148,3.02866 0,0 -2.27148,-3.02866"
       style="fill:#ff0000;fill-opacity:1;fill-rule:nonzero;stroke:none"
       transform="matrix(1.10936,-0.73956,-0.73956,-1.10936,688.86213,190.5834)" />
    <path
       id="path207"
       d="m 434.09955,116.35298 64.3822,21.46086"
       style="fill:none;stroke:#00ff00;stroke-width:1.59404;stroke-linecap:butt;stroke-linejoin:miter;stroke-miterlimit:10;stroke-dasharray:none;stroke-opacity:1"
       transform="matrix(1.3333333,0,0,-1.3333333,22.292,370.39333)" />
    <path
       id="path208"
       d="M 3.78581,0 -2.27148,3.02866 0,0 -2.27148,-3.02866"
       style="fill:#00ff00;fill-opacity:1;fill-rule:nonzero;stroke:none"
       transform="matrix(1.2648533,-0.42161333,-0.42161333,-1.2648533,686.93433,186.64155)" />
    <path
       id="path209"
       d="m 434.58128,141.73404 h 63.26371"
       style="fill:none;stroke:#00ff00;stroke-width:1.59404;stroke-linecap:butt;stroke-linejoin:miter;stroke-miterlimit:10;stroke-dasharray:none;stroke-opacity:1"
       transform="matrix(1.3333333,0,0,-1.3333333,22.292,370.39333)" />
    <path
       id="path210"
       d="M 3.78581,0 -2.27148,3.02866 0,0 -2.27148,-3.02866"
       style="fill:#00ff00;fill-opacity:1;fill-rule:nonzero;stroke:none"
       transform="matrix(1.3333333,0,0,-1.3333333,686.08532,181.41461)" />
    <path
       id="path211"
       d="m 434.09955,167.1151 64.3822,-21.46086"
       style="fill:none;stroke:#ff0000;stroke-width:1.59404;stroke-linecap:butt;stroke-linejoin:miter;stroke-miterlimit:10;stroke-dasharray:none;stroke-opacity:1"
       transform="matrix(1.3333333,0,0,-1.3333333,22.292,370.39333)" />
    <path
       id="path212"
       d="M 3.78581,0 -2.27148,3.02866 0,0 -2.27148,-3.02866"
       style="fill:#ff0000;fill-opacity:1;fill-rule:nonzero;stroke:none"
       transform="matrix(1.2648533,0.42161333,0.42161333,-1.2648533,686.93433,176.18768)" />
    <path
       id="path213"
       d="m 433.00574,193.22531 66.92186,-44.6147"
       style="fill:none;stroke:#000000;stroke-width:1.59404;stroke-linecap:butt;stroke-linejoin:miter;stroke-miterlimit:10;stroke-dasharray:none;stroke-opacity:1"
       transform="matrix(1.3333333,0,0,-1.3333333,22.292,370.39333)" />
    <path
       id="path214"
       d="M 3.78581,0 -2.27148,3.02866 0,0 -2.27148,-3.02866"
       style="fill:#000000;fill-opacity:1;fill-rule:nonzero;stroke:none"
       transform="matrix(1.10936,0.73956,0.73956,-1.10936,688.86213,172.24583)" />
    <path
       id="path215"
       d="m 431.8342,220.14241 69.64197,-69.64197"
       style="fill:none;stroke:#000000;stroke-width:1.59404;stroke-linecap:butt;stroke-linejoin:miter;stroke-miterlimit:10;stroke-dasharray:none;stroke-opacity:1"
       transform="matrix(1.3333333,0,0,-1.3333333,22.292,370.39333)" />
    <path
       id="path216"
       d="M 3.78581,0 -2.27148,3.02866 0,0 -2.27148,-3.02866"
       style="fill:#000000;fill-opacity:1;fill-rule:nonzero;stroke:none"
       transform="matrix(0.9428,0.9428,0.9428,-0.9428,690.92687,169.72605)" />
    <path
       id="path217"
       d="m 1.5222812,-5.8932891 h 2.625 V -6.5378203 H 0.8074375 v 3.6796875 h 0.65625 C 1.62775,-3.2565703 2.00275,-3.6432891 2.5769687,-3.6432891 c 0.46875,0 1.0078125,0.4101563 1.0078125,1.6054688 0,1.65234374 -1.21875,1.65234374 -1.3007812,1.65234374 -0.6679688,0 -1.2773438,-0.38671875 -1.5703125,-0.92578124 l -0.328125,0.55078124 c 0.41015625,0.57421875 1.1015625,0.984375 1.9101562,0.984375 1.1835938,0 2.1796875,-0.984375 2.1796875,-2.25000004 0,-1.2421875 -0.8554687,-2.2265625 -1.8867187,-2.2265625 -0.3984375,0 -0.7734375,0.1523438 -1.0664063,0.4101563 z m 0,0"
       style="fill:#000000;fill-opacity:1;fill-rule:nonzero;stroke:none"
       aria-label="5"
       transform="matrix(1.3333333,0,0,1.3333333,642.95467,119.596)" />
  </g>
</svg>
