<?xml version="1.0" encoding="UTF-8" standalone="no"?>
<!DOCTYPE svg PUBLIC "-//W3C//DTD SVG 1.1//EN"
 "http://www.w3.org/Graphics/SVG/1.1/DTD/svg11.dtd">
<!-- Generated by graphviz version 14.1.1 (20251213.1925)
 -->
<!-- Title: G Pages: 1 -->
<svg width="332pt" height="188pt"
 viewBox="0.00 0.00 332.00 188.00" xmlns="http://www.w3.org/2000/svg" xmlns:xlink="http://www.w3.org/1999/xlink">
<g id="graph0" class="graph" transform="scale(1 1) rotate(0) translate(4 184)">
<title>G</title>
<polygon fill="white" stroke="none" points="-4,4 -4,-184 328,-184 328,4 -4,4"/>
<!-- v0 -->
<g id="node1" class="node">
<title>v0</title>
<ellipse fill="none" stroke="black" cx="27" cy="-162" rx="27" ry="18"/>
<text xml:space="preserve" text-anchor="middle" x="27" y="-156.95" font-family="Times,serif" font-size="14.00">v0</text>
</g>
<!-- v9 -->
<g id="node10" class="node">
<title>v9</title>
<ellipse fill="none" stroke="black" cx="63" cy="-90" rx="27" ry="18"/>
<text xml:space="preserve" text-anchor="middle" x="63" y="-84.95" font-family="Times,serif" font-size="14.00">v9</text>
</g>
<!-- v0&#45;&#45;v9 -->
<g id="edge5" class="edge">
<title>v0&#45;&#45;v9</title>
<path fill="none" stroke="black" d="M35.35,-144.76C41.17,-133.46 48.89,-118.44 54.7,-107.15"/>
</g>
<!-- v1 -->
<g id="node2" class="node">
<title>v1</title>
<ellipse fill="none" stroke="black" cx="99" cy="-162" rx="27" ry="18"/>
<text xml:space="preserve" text-anchor="middle" x="99" y="-156.95" font-family="Times,serif" font-size="14.00">v1</text>
</g>
<!-- v1&#45;&#45;v9 -->
<g id="edge3" class="edge">
<title>v1&#45;&#45;v9</title>
<path fill="none" stroke="black" d="M90.65,-144.76C84.83,-133.46 77.11,-118.44 71.3,-107.15"/>
</g>
<!-- v2 -->
<g id="node3" class="node">
<title>v2</title>
<ellipse fill="none" stroke="black" cx="171" cy="-162" rx="27" ry="18"/>
<text xml:space="preserve" text-anchor="middle" x="171" y="-156.95" font-family="Times,serif" font-size="14.00">v2</text>
</g>
<!-- v3 -->
<g id="node4" class="node">
<title>v3</title>
<ellipse fill="none" stroke="black" cx="153" cy="-90" rx="27" ry="18"/>
<text xml:space="preserve" text-anchor="middle" x="153" y="-84.95" font-family="Times,serif" font-size="14.00">v3</text>
</g>
<!-- v7 -->
<g id="node8" class="node">
<title>v7</title>
<ellipse fill="none" stroke="black" cx="189" cy="-18" rx="27" ry="18"/>
<text xml:space="preserve" text-anchor="middle" x="189" y="-12.95" font-family="Times,serif" font-size="14.00">v7</text>
</g>
<!-- v3&#45;&#45;v7 -->
<g id="edge2" class="edge">
<title>v3&#45;&#45;v7</title>
<path fill="none" stroke="black" d="M161.35,-72.76C167.17,-61.46 174.89,-46.44 180.7,-35.15"/>
</g>
<!-- v4 -->
<g id="node5" class="node">
<title>v4</title>
<ellipse fill="none" stroke="black" cx="243" cy="-162" rx="27" ry="18"/>
<text xml:space="preserve" text-anchor="middle" x="243" y="-156.95" font-family="Times,serif" font-size="14.00">v4</text>
</g>
<!-- v5 -->
<g id="node6" class="node">
<title>v5</title>
<ellipse fill="none" stroke="black" cx="225" cy="-90" rx="27" ry="18"/>
<text xml:space="preserve" text-anchor="middle" x="225" y="-84.95" font-family="Times,serif" font-size="14.00">v5</text>
</g>
<!-- v4&#45;&#45;v5 -->
<g id="edge7" class="edge">
<title>v4&#45;&#45;v5</title>
<path fill="none" stroke="black" d="M238.64,-144.05C235.81,-133.05 232.14,-118.76 229.32,-107.79"/>
</g>
<!-- v6 -->
<g id="node7" class="node">
<title>v6</title>
<ellipse fill="none" stroke="black" cx="297" cy="-90" rx="27" ry="18"/>
<text xml:space="preserve" text-anchor="middle" x="297" y="-84.95" font-family="Times,serif" font-size="14.00">v6</text>
</g>
<!-- v4&#45;&#45;v6 -->
<g id="edge6" class="edge">
<title>v4&#45;&#45;v6</title>
<path fill="none" stroke="black" d="M254.98,-145.46C263.93,-133.86 276.11,-118.08 285.05,-106.49"/>
</g>
<!-- v5&#45;&#45;v7 -->
<g id="edge1" class="edge">
<title>v5&#45;&#45;v7</title>
<path fill="none" stroke="black" d="M216.65,-72.76C210.83,-61.46 203.11,-46.44 197.3,-35.15"/>
</g>
<!-- v8 -->
<g id="node9" class="node">
<title>v8</title>
<ellipse fill="none" stroke="black" cx="297" cy="-18" rx="27" ry="18"/>
<text xml:space="preserve" text-anchor="middle" x="297" y="-12.95" font-family="Times,serif" font-size="14.00">v8</text>
</g>
<!-- v6&#45;&#45;v8 -->
<g id="edge4" class="edge">
<title>v6&#45;&#45;v8</title>
<path fill="none" stroke="black" d="M297,-71.7C297,-60.85 297,-46.92 297,-36.1"/>
</g>
</g>
</svg>
