<?xml version="1.0" encoding="UTF-8" standalone="no"?>
<!DOCTYPE svg PUBLIC "-//W3C//DTD SVG 1.1//EN"
 "http://www.w3.org/Graphics/SVG/1.1/DTD/svg11.dtd">
<!-- Generated by graphviz version 14.1.1 (20251213.1925)
 -->
<!-- Title: G Pages: 1 -->
<svg width="200pt" height="260pt"
 viewBox="0.00 0.00 200.00 260.00" xmlns="http://www.w3.org/2000/svg" xmlns:xlink="http://www.w3.org/1999/xlink">
<g id="graph0" class="graph" transform="scale(1 1) rotate(0) translate(4 256)">
<title>G</title>
<polygon fill="white" stroke="none" points="-4,4 -4,-256 196,-256 196,4 -4,4"/>
<!-- v0 -->
<g id="node1" class="node">
<title>v0</title>
<ellipse fill="none" stroke="black" cx="110" cy="-234" rx="27" ry="18"/>
<text xml:space="preserve" text-anchor="middle" x="110" y="-228.95" font-family="Times,serif" font-size="14.00">v0</text>
</g>
<!-- v2 -->
<g id="node3" class="node">
<title>v2</title>
<ellipse fill="none" stroke="black" cx="27" cy="-162" rx="27" ry="18"/>
<text xml:space="preserve" text-anchor="middle" x="27" y="-156.95" font-family="Times,serif" font-size="14.00">v2</text>
</g>
<!-- v0&#45;&#45;v2 -->
<g id="edge9" class="edge">
<title>v0&#45;&#45;v2</title>
<path fill="none" stroke="black" d="M93.6,-219.17C79.05,-206.9 57.9,-189.06 43.36,-176.8"/>
</g>
<!-- v3 -->
<g id="node4" class="node">
<title>v3</title>
<ellipse fill="none" stroke="black" cx="110" cy="-162" rx="27" ry="18"/>
<text xml:space="preserve" text-anchor="middle" x="110" y="-156.95" font-family="Times,serif" font-size="14.00">v3</text>
</g>
<!-- v0&#45;&#45;v3 -->
<g id="edge2" class="edge">
<title>v0&#45;&#45;v3</title>
<path fill="none" stroke="black" d="M110,-215.7C110,-204.85 110,-190.92 110,-180.1"/>
</g>
<!-- v6 -->
<g id="node7" class="node">
<title>v6</title>
<ellipse fill="none" stroke="black" cx="165" cy="-18" rx="27" ry="18"/>
<text xml:space="preserve" text-anchor="middle" x="165" y="-12.95" font-family="Times,serif" font-size="14.00">v6</text>
</g>
<!-- v0&#45;&#45;v6 -->
<g id="edge7" class="edge">
<title>v0&#45;&#45;v6</title>
<path fill="none" stroke="black" d="M122.47,-217.58C130.17,-207.41 139.73,-193.52 146,-180 159.96,-149.86 161.51,-140.91 166,-108 168.16,-92.15 166.15,-88 166,-72 165.89,-60.04 165.63,-46.56 165.41,-36.18"/>
</g>
<!-- v1 -->
<g id="node2" class="node">
<title>v1</title>
<ellipse fill="none" stroke="black" cx="27" cy="-234" rx="27" ry="18"/>
<text xml:space="preserve" text-anchor="middle" x="27" y="-228.95" font-family="Times,serif" font-size="14.00">v1</text>
</g>
<!-- v1&#45;&#45;v2 -->
<g id="edge1" class="edge">
<title>v1&#45;&#45;v2</title>
<path fill="none" stroke="black" d="M27,-215.7C27,-204.85 27,-190.92 27,-180.1"/>
</g>
<!-- v5 -->
<g id="node6" class="node">
<title>v5</title>
<ellipse fill="none" stroke="black" cx="55" cy="-18" rx="27" ry="18"/>
<text xml:space="preserve" text-anchor="middle" x="55" y="-12.95" font-family="Times,serif" font-size="14.00">v5</text>
</g>
<!-- v2&#45;&#45;v5 -->
<g id="edge10" class="edge">
<title>v2&#45;&#45;v5</title>
<path fill="none" stroke="black" d="M29.17,-143.84C31.57,-125.85 35.79,-96.8 41,-72 43.54,-59.89 47.11,-46.41 50.01,-36.08"/>
</g>
<!-- v4 -->
<g id="node5" class="node">
<title>v4</title>
<ellipse fill="none" stroke="black" cx="110" cy="-90" rx="27" ry="18"/>
<text xml:space="preserve" text-anchor="middle" x="110" y="-84.95" font-family="Times,serif" font-size="14.00">v4</text>
</g>
<!-- v3&#45;&#45;v4 -->
<g id="edge5" class="edge">
<title>v3&#45;&#45;v4</title>
<path fill="none" stroke="black" d="M110,-143.7C110,-132.85 110,-118.92 110,-108.1"/>
</g>
<!-- v3&#45;&#45;v5 -->
<g id="edge8" class="edge">
<title>v3&#45;&#45;v5</title>
<path fill="none" stroke="black" d="M97.25,-145.7C89.44,-135.59 79.85,-121.71 74,-108 63.89,-84.31 58.95,-54.71 56.7,-36.33"/>
</g>
<!-- v3&#45;&#45;v6 -->
<g id="edge4" class="edge">
<title>v3&#45;&#45;v6</title>
<path fill="none" stroke="black" d="M122.75,-145.7C130.56,-135.59 140.15,-121.71 146,-108 156.11,-84.31 161.05,-54.71 163.3,-36.33"/>
</g>
<!-- v4&#45;&#45;v5 -->
<g id="edge6" class="edge">
<title>v4&#45;&#45;v5</title>
<path fill="none" stroke="black" d="M97.79,-73.46C88.68,-61.86 76.28,-46.08 67.17,-34.49"/>
</g>
<!-- v4&#45;&#45;v6 -->
<g id="edge3" class="edge">
<title>v4&#45;&#45;v6</title>
<path fill="none" stroke="black" d="M122.21,-73.46C131.32,-61.86 143.72,-46.08 152.83,-34.49"/>
</g>
</g>
</svg>
