<?xml version="1.0" encoding="UTF-8" standalone="no"?>
<!DOCTYPE svg PUBLIC "-//W3C//DTD SVG 1.1//EN"
 "http://www.w3.org/Graphics/SVG/1.1/DTD/svg11.dtd">
<!-- Generated by graphviz version 14.1.1 (20251213.1925)
 -->
<!-- Title: G Pages: 1 -->
<svg width="910pt" height="476pt"
 viewBox="0.00 0.00 910.00 476.00" xmlns="http://www.w3.org/2000/svg" xmlns:xlink="http://www.w3.org/1999/xlink">
<g id="graph0" class="graph" transform="scale(1 1) rotate(0) translate(4 472)">
<title>G</title>
<polygon fill="white" stroke="none" points="-4,4 -4,-472 906,-472 906,4 -4,4"/>
<!-- v0 -->
<g id="node1" class="node">
<title>v0</title>
<ellipse fill="none" stroke="black" cx="159" cy="-450" rx="27" ry="18"/>
<text xml:space="preserve" text-anchor="middle" x="159" y="-444.95" font-family="Times,serif" font-size="14.00">v0</text>
</g>
<!-- v9 -->
<g id="node10" class="node">
<title>v9</title>
<ellipse fill="none" stroke="black" cx="582" cy="-18" rx="27" ry="18"/>
<text xml:space="preserve" text-anchor="middle" x="582" y="-12.95" font-family="Times,serif" font-size="14.00">v9</text>
</g>
<!-- v0&#45;&#45;v9 -->
<g id="edge14" class="edge">
<title>v0&#45;&#45;v9</title>
<path fill="none" stroke="black" d="M135.54,-440.68C91.31,-423.33 0,-378.8 0,-307 0,-307 0,-307 0,-161 0,-45.29 439.65,-23.45 554.71,-19.71"/>
</g>
<!-- v12 -->
<g id="node13" class="node">
<title>v12</title>
<ellipse fill="none" stroke="black" cx="596" cy="-378" rx="27" ry="18"/>
<text xml:space="preserve" text-anchor="middle" x="596" y="-372.95" font-family="Times,serif" font-size="14.00">v12</text>
</g>
<!-- v0&#45;&#45;v12 -->
<g id="edge35" class="edge">
<title>v0&#45;&#45;v12</title>
<path fill="none" stroke="black" d="M185.89,-447.81C250.53,-444.43 419.37,-432.52 555,-396 561.4,-394.28 568.13,-391.79 574.24,-389.25"/>
</g>
<!-- v13 -->
<g id="node14" class="node">
<title>v13</title>
<ellipse fill="none" stroke="black" cx="241" cy="-378" rx="27" ry="18"/>
<text xml:space="preserve" text-anchor="middle" x="241" y="-372.95" font-family="Times,serif" font-size="14.00">v13</text>
</g>
<!-- v0&#45;&#45;v13 -->
<g id="edge27" class="edge">
<title>v0&#45;&#45;v13</title>
<path fill="none" stroke="black" d="M175.2,-435.17C189.58,-422.9 210.47,-405.06 224.83,-392.8"/>
</g>
<!-- v17 -->
<g id="node18" class="node">
<title>v17</title>
<ellipse fill="none" stroke="black" cx="76" cy="-234" rx="27" ry="18"/>
<text xml:space="preserve" text-anchor="middle" x="76" y="-228.95" font-family="Times,serif" font-size="14.00">v17</text>
</g>
<!-- v0&#45;&#45;v17 -->
<g id="edge15" class="edge">
<title>v0&#45;&#45;v17</title>
<path fill="none" stroke="black" d="M138.15,-438.01C123.02,-428.87 103.44,-414.41 93,-396 66.65,-349.55 70.05,-283.37 73.55,-252.32"/>
</g>
<!-- v18 -->
<g id="node19" class="node">
<title>v18</title>
<ellipse fill="none" stroke="black" cx="169" cy="-234" rx="27" ry="18"/>
<text xml:space="preserve" text-anchor="middle" x="169" y="-228.95" font-family="Times,serif" font-size="14.00">v18</text>
</g>
<!-- v0&#45;&#45;v18 -->
<g id="edge17" class="edge">
<title>v0&#45;&#45;v18</title>
<path fill="none" stroke="black" d="M144.86,-434.38C118.84,-405.6 68.33,-339.9 95,-288 105.69,-267.2 128.75,-252.73 146.31,-244.23"/>
</g>
<!-- v19 -->
<g id="node20" class="node">
<title>v19</title>
<ellipse fill="none" stroke="black" cx="541" cy="-306" rx="27" ry="18"/>
<text xml:space="preserve" text-anchor="middle" x="541" y="-300.95" font-family="Times,serif" font-size="14.00">v19</text>
</g>
<!-- v0&#45;&#45;v19 -->
<g id="edge22" class="edge">
<title>v0&#45;&#45;v19</title>
<path fill="none" stroke="black" d="M186.3,-448.9C262.22,-448.03 473.43,-441.5 522,-396 541.6,-377.64 543.55,-344.42 542.64,-324.17"/>
</g>
<!-- v1 -->
<g id="node2" class="node">
<title>v1</title>
<ellipse fill="none" stroke="black" cx="596" cy="-450" rx="27" ry="18"/>
<text xml:space="preserve" text-anchor="middle" x="596" y="-444.95" font-family="Times,serif" font-size="14.00">v1</text>
</g>
<!-- v1&#45;&#45;v9 -->
<g id="edge29" class="edge">
<title>v1&#45;&#45;v9</title>
<path fill="none" stroke="black" d="M617.07,-438.21C672.84,-409.34 820,-330.89 820,-307 820,-307 820,-307 820,-161 820,-63.33 670.35,-31.27 608.38,-22.18"/>
</g>
<!-- v1&#45;&#45;v12 -->
<g id="edge20" class="edge">
<title>v1&#45;&#45;v12</title>
<path fill="none" stroke="black" d="M596,-431.7C596,-420.85 596,-406.92 596,-396.1"/>
</g>
<!-- v1&#45;&#45;v18 -->
<g id="edge40" class="edge">
<title>v1&#45;&#45;v18</title>
<path fill="none" stroke="black" d="M568.65,-449.19C488.79,-449.18 258.17,-444.82 205,-396 183.96,-376.68 173.85,-289.69 170.41,-252.24"/>
</g>
<!-- v2 -->
<g id="node3" class="node">
<title>v2</title>
<ellipse fill="none" stroke="black" cx="503" cy="-234" rx="27" ry="18"/>
<text xml:space="preserve" text-anchor="middle" x="503" y="-228.95" font-family="Times,serif" font-size="14.00">v2</text>
</g>
<!-- v5 -->
<g id="node6" class="node">
<title>v5</title>
<ellipse fill="none" stroke="black" cx="531" cy="-162" rx="27" ry="18"/>
<text xml:space="preserve" text-anchor="middle" x="531" y="-156.95" font-family="Times,serif" font-size="14.00">v5</text>
</g>
<!-- v2&#45;&#45;v5 -->
<g id="edge23" class="edge">
<title>v2&#45;&#45;v5</title>
<path fill="none" stroke="black" d="M509.64,-216.41C514.1,-205.25 519.96,-190.6 524.41,-179.47"/>
</g>
<!-- v8 -->
<g id="node9" class="node">
<title>v8</title>
<ellipse fill="none" stroke="black" cx="634" cy="-162" rx="27" ry="18"/>
<text xml:space="preserve" text-anchor="middle" x="634" y="-156.95" font-family="Times,serif" font-size="14.00">v8</text>
</g>
<!-- v2&#45;&#45;v8 -->
<g id="edge8" class="edge">
<title>v2&#45;&#45;v8</title>
<path fill="none" stroke="black" d="M523.76,-221.91C548.29,-208.8 588.85,-187.12 613.34,-174.04"/>
</g>
<!-- v3 -->
<g id="node4" class="node">
<title>v3</title>
<ellipse fill="none" stroke="black" cx="355" cy="-234" rx="27" ry="18"/>
<text xml:space="preserve" text-anchor="middle" x="355" y="-228.95" font-family="Times,serif" font-size="14.00">v3</text>
</g>
<!-- v4 -->
<g id="node5" class="node">
<title>v4</title>
<ellipse fill="none" stroke="black" cx="355" cy="-162" rx="27" ry="18"/>
<text xml:space="preserve" text-anchor="middle" x="355" y="-156.95" font-family="Times,serif" font-size="14.00">v4</text>
</g>
<!-- v3&#45;&#45;v4 -->
<g id="edge11" class="edge">
<title>v3&#45;&#45;v4</title>
<path fill="none" stroke="black" d="M355,-215.7C355,-204.85 355,-190.92 355,-180.1"/>
</g>
<!-- v7 -->
<g id="node8" class="node">
<title>v7</title>
<ellipse fill="none" stroke="black" cx="382" cy="-90" rx="27" ry="18"/>
<text xml:space="preserve" text-anchor="middle" x="382" y="-84.95" font-family="Times,serif" font-size="14.00">v7</text>
</g>
<!-- v4&#45;&#45;v7 -->
<g id="edge7" class="edge">
<title>v4&#45;&#45;v7</title>
<path fill="none" stroke="black" d="M361.54,-144.05C365.78,-133.05 371.29,-118.76 375.52,-107.79"/>
</g>
<!-- v6 -->
<g id="node7" class="node">
<title>v6</title>
<ellipse fill="none" stroke="black" cx="875" cy="-90" rx="27" ry="18"/>
<text xml:space="preserve" text-anchor="middle" x="875" y="-84.95" font-family="Times,serif" font-size="14.00">v6</text>
</g>
<!-- v6&#45;&#45;v9 -->
<g id="edge10" class="edge">
<title>v6&#45;&#45;v9</title>
<path fill="none" stroke="black" d="M853.15,-79.06C847.03,-76.52 840.33,-73.96 834,-72 753.28,-47.02 654.39,-30.03 608.16,-22.86"/>
</g>
<!-- v7&#45;&#45;v9 -->
<g id="edge26" class="edge">
<title>v7&#45;&#45;v9</title>
<path fill="none" stroke="black" d="M405.73,-80.7C444.22,-67.22 519.83,-40.76 558.3,-27.29"/>
</g>
<!-- v10 -->
<g id="node11" class="node">
<title>v10</title>
<ellipse fill="none" stroke="black" cx="689" cy="-234" rx="27" ry="18"/>
<text xml:space="preserve" text-anchor="middle" x="689" y="-228.95" font-family="Times,serif" font-size="14.00">v10</text>
</g>
<!-- v10&#45;&#45;v8 -->
<g id="edge34" class="edge">
<title>v10&#45;&#45;v8</title>
<path fill="none" stroke="black" d="M676.79,-217.46C667.68,-205.86 655.28,-190.08 646.17,-178.49"/>
</g>
<!-- v11 -->
<g id="node12" class="node">
<title>v11</title>
<ellipse fill="none" stroke="black" cx="486" cy="-378" rx="27" ry="18"/>
<text xml:space="preserve" text-anchor="middle" x="486" y="-372.95" font-family="Times,serif" font-size="14.00">v11</text>
</g>
<!-- v11&#45;&#45;v2 -->
<g id="edge36" class="edge">
<title>v11&#45;&#45;v2</title>
<path fill="none" stroke="black" d="M488.08,-359.59C491.37,-332.19 497.69,-279.32 500.95,-252.11"/>
</g>
<!-- v11&#45;&#45;v8 -->
<g id="edge37" class="edge">
<title>v11&#45;&#45;v8</title>
<path fill="none" stroke="black" d="M509.67,-368.63C530.14,-360.27 559.15,-345.54 577,-324 613.13,-280.39 627.08,-212.23 631.83,-180.43"/>
</g>
<!-- v15 -->
<g id="node16" class="node">
<title>v15</title>
<ellipse fill="none" stroke="black" cx="393" cy="-306" rx="27" ry="18"/>
<text xml:space="preserve" text-anchor="middle" x="393" y="-300.95" font-family="Times,serif" font-size="14.00">v15</text>
</g>
<!-- v11&#45;&#45;v15 -->
<g id="edge12" class="edge">
<title>v11&#45;&#45;v15</title>
<path fill="none" stroke="black" d="M468.51,-363.83C451.88,-351.32 427.02,-332.6 410.41,-320.11"/>
</g>
<!-- v11&#45;&#45;v18 -->
<g id="edge9" class="edge">
<title>v11&#45;&#45;v18</title>
<path fill="none" stroke="black" d="M462.03,-369.28C432.97,-359.69 382.72,-342.33 341,-324 284.52,-299.18 220.63,-264.22 188.98,-246.4"/>
</g>
<!-- v11&#45;&#45;v19 -->
<g id="edge2" class="edge">
<title>v11&#45;&#45;v19</title>
<path fill="none" stroke="black" d="M498.21,-361.46C507.32,-349.86 519.72,-334.08 528.83,-322.49"/>
</g>
<!-- v12&#45;&#45;v2 -->
<g id="edge5" class="edge">
<title>v12&#45;&#45;v2</title>
<path fill="none" stroke="black" d="M595.92,-359.52C595.05,-340.48 591.28,-309.81 577,-288 564.27,-268.57 541.76,-253.98 524.9,-245.07"/>
</g>
<!-- v12&#45;&#45;v3 -->
<g id="edge28" class="edge">
<title>v12&#45;&#45;v3</title>
<path fill="none" stroke="black" d="M570.67,-371.11C556.39,-367.8 538.21,-363.63 522,-360 448.76,-343.6 404.73,-381.93 357,-324 340.39,-303.84 344.84,-271.51 349.78,-251.87"/>
</g>
<!-- v12&#45;&#45;v5 -->
<g id="edge21" class="edge">
<title>v12&#45;&#45;v5</title>
<path fill="none" stroke="black" d="M599.08,-359.64C601.68,-341.47 604.1,-312.28 598,-288 587.27,-245.25 558.79,-201.17 542.62,-178.52"/>
</g>
<!-- v12&#45;&#45;v8 -->
<g id="edge31" class="edge">
<title>v12&#45;&#45;v8</title>
<path fill="none" stroke="black" d="M618.63,-367.86C638.35,-359 666.74,-343.97 686,-324 711.27,-297.81 716.06,-287.28 725,-252 728.93,-236.49 732.97,-229.87 725,-216 710.88,-191.43 680.5,-177.18 658.72,-169.77"/>
</g>
<!-- v12&#45;&#45;v9 -->
<g id="edge3" class="edge">
<title>v12&#45;&#45;v9</title>
<path fill="none" stroke="black" d="M621.08,-370.6C671.85,-355.98 782,-315.03 782,-235 782,-235 782,-235 782,-161 782,-76.47 661.75,-37.65 607.74,-24.48"/>
</g>
<!-- v12&#45;&#45;v19 -->
<g id="edge30" class="edge">
<title>v12&#45;&#45;v19</title>
<path fill="none" stroke="black" d="M583.79,-361.46C574.68,-349.86 562.28,-334.08 553.17,-322.49"/>
</g>
<!-- v13&#45;&#45;v5 -->
<g id="edge1" class="edge">
<title>v13&#45;&#45;v5</title>
<path fill="none" stroke="black" d="M244.34,-359.67C251.66,-326.49 272.36,-253.9 319,-216 347.56,-192.79 454.58,-174.32 504.74,-166.74"/>
</g>
<!-- v13&#45;&#45;v7 -->
<g id="edge13" class="edge">
<title>v13&#45;&#45;v7</title>
<path fill="none" stroke="black" d="M241.08,-359.63C241.55,-341.47 243.4,-312.28 250,-288 268.61,-219.51 275.07,-199.74 319,-144 331.65,-127.95 349.83,-113.29 363.41,-103.48"/>
</g>
<!-- v13&#45;&#45;v8 -->
<g id="edge16" class="edge">
<title>v13&#45;&#45;v8</title>
<path fill="none" stroke="black" d="M268.43,-376.83C308.79,-375.1 384.24,-366 429,-324 466.11,-289.18 430.47,-251.42 467,-216 477.43,-205.89 565.26,-181.36 609.19,-169.56"/>
</g>
<!-- v16 -->
<g id="node17" class="node">
<title>v16</title>
<ellipse fill="none" stroke="black" cx="131" cy="-306" rx="27" ry="18"/>
<text xml:space="preserve" text-anchor="middle" x="131" y="-300.95" font-family="Times,serif" font-size="14.00">v16</text>
</g>
<!-- v13&#45;&#45;v16 -->
<g id="edge38" class="edge">
<title>v13&#45;&#45;v16</title>
<path fill="none" stroke="black" d="M221.84,-364.81C201.65,-351.96 170.05,-331.85 149.94,-319.05"/>
</g>
<!-- v14 -->
<g id="node15" class="node">
<title>v14</title>
<ellipse fill="none" stroke="black" cx="668" cy="-450" rx="27" ry="18"/>
<text xml:space="preserve" text-anchor="middle" x="668" y="-444.95" font-family="Times,serif" font-size="14.00">v14</text>
</g>
<!-- v15&#45;&#45;v2 -->
<g id="edge32" class="edge">
<title>v15&#45;&#45;v2</title>
<path fill="none" stroke="black" d="M412.16,-292.81C432.35,-279.96 463.95,-259.85 484.06,-247.05"/>
</g>
<!-- v15&#45;&#45;v3 -->
<g id="edge33" class="edge">
<title>v15&#45;&#45;v3</title>
<path fill="none" stroke="black" d="M384.19,-288.76C378.05,-277.46 369.89,-262.44 363.77,-251.15"/>
</g>
<!-- v15&#45;&#45;v7 -->
<g id="edge39" class="edge">
<title>v15&#45;&#45;v7</title>
<path fill="none" stroke="black" d="M393.67,-287.56C394.61,-257.97 395.71,-196.06 391,-144 389.91,-131.92 387.6,-118.44 385.6,-108.1"/>
</g>
<!-- v16&#45;&#45;v17 -->
<g id="edge19" class="edge">
<title>v16&#45;&#45;v17</title>
<path fill="none" stroke="black" d="M118.79,-289.46C109.68,-277.86 97.28,-262.08 88.17,-250.49"/>
</g>
<!-- v16&#45;&#45;v18 -->
<g id="edge25" class="edge">
<title>v16&#45;&#45;v18</title>
<path fill="none" stroke="black" d="M139.81,-288.76C145.95,-277.46 154.11,-262.44 160.23,-251.15"/>
</g>
<!-- v18&#45;&#45;v4 -->
<g id="edge18" class="edge">
<title>v18&#45;&#45;v4</title>
<path fill="none" stroke="black" d="M192.18,-224.28C227.92,-210.83 296.08,-185.17 331.82,-171.72"/>
</g>
<!-- v18&#45;&#45;v9 -->
<g id="edge24" class="edge">
<title>v18&#45;&#45;v9</title>
<path fill="none" stroke="black" d="M173.24,-216.04C178.84,-196.6 190.36,-164.76 210,-144 305.88,-42.67 486.35,-23.47 554.77,-19.84"/>
</g>
<!-- v19&#45;&#45;v2 -->
<g id="edge6" class="edge">
<title>v19&#45;&#45;v2</title>
<path fill="none" stroke="black" d="M532.19,-288.76C526.05,-277.46 517.89,-262.44 511.77,-251.15"/>
</g>
<!-- v19&#45;&#45;v5 -->
<g id="edge4" class="edge">
<title>v19&#45;&#45;v5</title>
<path fill="none" stroke="black" d="M541.26,-287.57C541.38,-269.6 541.14,-240.79 539,-216 537.96,-203.95 535.91,-190.47 534.15,-180.12"/>
</g>
</g>
</svg>
