<?xml version="1.0" encoding="UTF-8" standalone="no"?>
<?xml-stylesheet href="dashdot.css" type="text/css"?>
<!DOCTYPE svg PUBLIC "-//W3C//DTD SVG 1.1//EN"
 "http://www.w3.org/Graphics/SVG/1.1/DTD/svg11.dtd">
<!-- Generated by graphviz version 2.43.0 (0)
 -->
<!-- Title: G2 Pages: 1 -->
<svg width="334pt" height="192pt"
 viewBox="0.00 0.00 334.49 192.05" xmlns="http://www.w3.org/2000/svg" xmlns:xlink="http://www.w3.org/1999/xlink">
<g id="page0,1_graph0" class="graph" transform="scale(1 1) rotate(0) translate(4 188.05)">
<title>G2</title>
<polygon fill="white" stroke="transparent" points="-4,4 -4,-188.05 330.49,-188.05 330.49,4 -4,4"/>
<!-- A -->
<g id="node1" class="node">
<title>A</title>
<ellipse fill="white" stroke="black" cx="18.2" cy="-64.2" rx="18" ry="18"/>
<text text-anchor="middle" x="18.2" y="-60.5" font-family="Times,serif" font-size="14.00">A</text>
</g>
<!-- B -->
<g id="node2" class="node">
<title>B</title>
<ellipse fill="white" stroke="black" cx="91.25" cy="-110.2" rx="18" ry="18"/>
<text text-anchor="middle" x="91.25" y="-106.5" font-family="Times,serif" font-size="14.00">B</text>
</g>
<!-- A&#45;&gt;B -->
<g id="edge1" class="edge">
<title>A&#45;&gt;B</title>
<path fill="none" stroke="black" d="M35.01,-72.05C44.53,-78.22 57.14,-86.38 68.01,-93.42"/>
<path fill="none" stroke="white" d="M33.92,-73.73C43.45,-79.9 56.05,-88.06 66.92,-95.1"/>
<path fill="none" stroke="black" d="M32.83,-75.41C42.36,-81.58 54.97,-89.74 65.84,-96.78"/>
<polygon fill="black" stroke="black" points="65.25,-98.18 75.54,-100.68 69.05,-92.31 65.25,-98.18"/>
</g>
<!-- C -->
<g id="node3" class="node">
<title>C</title>
<ellipse fill="white" stroke="black" cx="164.09" cy="-64.2" rx="18" ry="18"/>
<text text-anchor="middle" x="164.09" y="-60.5" font-family="Times,serif" font-size="14.00">C</text>
</g>
<!-- A&#45;&gt;C -->
<g id="edge5" class="edge">
<title>A&#45;&gt;C</title>
<path fill="none" stroke="black" stroke-dasharray="1,5" d="M36.27,-64.2C60.83,-64.2 106.38,-64.2 135.69,-64.2"/>
<polygon fill="black" stroke="black" points="136.04,-67.7 146.04,-64.2 136.04,-60.7 136.04,-67.7"/>
</g>
<!-- F -->
<g id="node6" class="node">
<title>F</title>
<ellipse fill="white" stroke="black" cx="91.25" cy="-18.2" rx="18" ry="18"/>
<text text-anchor="middle" x="91.25" y="-14.5" font-family="Times,serif" font-size="14.00">F</text>
</g>
<!-- A&#45;&gt;F -->
<g id="edge7" class="edge">
<title>A&#45;&gt;F</title>
<path fill="none" stroke="black" d="M32.83,-52.99C42.36,-46.82 54.97,-38.66 65.84,-31.62"/>
<path fill="none" stroke="white" d="M33.92,-54.67C43.45,-48.5 56.05,-40.34 66.92,-33.3"/>
<path fill="none" stroke="black" d="M35.01,-56.35C44.53,-50.18 57.14,-42.02 68.01,-34.98"/>
<polygon fill="black" stroke="black" points="69.05,-36.09 75.54,-27.72 65.25,-30.21 69.05,-36.09"/>
</g>
<!-- B&#45;&gt;C -->
<g id="edge2" class="edge">
<title>B&#45;&gt;C</title>
<path fill="none" stroke="black" d="M105.84,-98.99C115.34,-92.82 127.91,-84.66 138.75,-77.62"/>
<path fill="none" stroke="white" d="M106.92,-100.67C116.42,-94.5 129,-86.34 139.84,-79.3"/>
<path fill="none" stroke="black" d="M108.01,-102.34C117.51,-96.18 130.09,-88.01 140.93,-80.97"/>
<polygon fill="black" stroke="black" points="141.95,-82.1 148.43,-73.72 138.14,-76.23 141.95,-82.1"/>
</g>
<!-- D -->
<g id="node4" class="node">
<title>D</title>
<ellipse fill="white" stroke="black" cx="236.29" cy="-18.2" rx="18.4" ry="18.4"/>
<text text-anchor="middle" x="236.29" y="-14.5" font-family="Times,serif" font-size="14.00">D</text>
</g>
<!-- C&#45;&gt;D -->
<g id="edge3" class="edge">
<title>C&#45;&gt;D</title>
<path fill="none" stroke="black" d="M178.54,-52.99C187.95,-46.83 200.41,-38.66 211.15,-31.62"/>
<path fill="none" stroke="white" d="M179.64,-54.67C189.05,-48.5 201.51,-40.34 212.25,-33.3"/>
<path fill="none" stroke="black" d="M180.73,-56.34C190.15,-50.17 202.6,-42.01 213.35,-34.97"/>
<polygon fill="black" stroke="black" points="214.32,-36.13 220.77,-27.72 210.48,-30.27 214.32,-36.13"/>
</g>
<!-- E -->
<g id="node5" class="node">
<title>E</title>
<ellipse fill="white" stroke="black" cx="308.49" cy="-18.2" rx="18" ry="18"/>
<text text-anchor="middle" x="308.49" y="-14.5" font-family="Times,serif" font-size="14.00">E</text>
</g>
<!-- D&#45;&gt;E -->
<g id="edge4" class="edge">
<title>D&#45;&gt;E</title>
<path fill="none" stroke="black" d="M253.35,-10.41C261.76,-9.48 271.97,-9.23 281.41,-9.65"/>
<path fill="none" stroke="white" d="M253.57,-12.4C261.81,-11.48 272.02,-11.23 281.32,-11.65"/>
<path fill="none" stroke="black" d="M253.8,-14.39C261.86,-13.48 272.07,-13.22 281.23,-13.64"/>
<polygon fill="black" stroke="black" points="281.06,-15.14 291.3,-12.41 281.59,-8.16 281.06,-15.14"/>
</g>
<!-- E&#45;&gt;C -->
<g id="edge6" class="edge">
<title>E&#45;&gt;C</title>
<path fill="none" stroke="black" stroke-dasharray="5,2" d="M292.65,-27.09C282.28,-32.97 267.92,-40.44 254.49,-45.2 234.21,-52.38 210.32,-57.29 192.35,-60.31"/>
<polygon fill="black" stroke="black" points="191.59,-56.89 182.26,-61.92 192.69,-63.8 191.59,-56.89"/>
</g>
<!-- E&#45;&gt;D -->
<g id="edge9" class="edge">
<title>E&#45;&gt;D</title>
<path fill="none" stroke="black" stroke-dasharray="5,2" d="M291.3,-23.99C283.07,-24.92 272.87,-25.17 263.56,-24.75"/>
<polygon fill="black" stroke="black" points="263.81,-21.26 253.57,-24 263.28,-28.24 263.81,-21.26"/>
</g>
<!-- F&#45;&gt;C -->
<g id="edge8" class="edge">
<title>F&#45;&gt;C</title>
<path fill="none" stroke="black" stroke-width="2" d="M106.92,-27.73C116.42,-33.9 129,-42.06 139.84,-49.1"/>
<polygon fill="black" stroke="black" stroke-width="2" points="138.14,-52.17 148.43,-54.68 141.95,-46.3 138.14,-52.17"/>
</g>
<!-- F&#45;&gt;D -->
<g id="edge10" class="edge">
<title>F&#45;&gt;D</title>
<path fill="none" stroke="black" stroke-width="2" d="M109.5,-18.2C133.88,-18.2 178.67,-18.2 207.7,-18.2"/>
<polygon fill="black" stroke="black" stroke-width="2" points="207.98,-21.7 217.98,-18.2 207.98,-14.7 207.98,-21.7"/>
</g>
<!-- G -->
<g id="node7" class="node">
<title>G</title>
<ellipse fill="white" stroke="black" cx="18.2" cy="-165.2" rx="18.4" ry="18.4"/>
<text text-anchor="middle" x="18.2" y="-161.5" font-family="Times,serif" font-size="14.00">G</text>
</g>
<!-- H -->
<g id="node8" class="node">
<title>H</title>
<ellipse fill="white" stroke="black" cx="91.25" cy="-165.2" rx="18.7" ry="18.7"/>
<text text-anchor="middle" x="91.25" y="-161.5" font-family="Times,serif" font-size="14.00">H</text>
</g>
<!-- G&#45;&gt;H -->
<g id="edge11" class="edge">
<title>G&#45;&gt;H</title>
<path fill="none" stroke="black" d="M36.4,-165.2C44.1,-165.2 53.4,-165.2 62.08,-165.2"/>
<polygon fill="black" stroke="black" points="62.21,-168.7 72.21,-165.2 62.21,-161.7 62.21,-168.7"/>
</g>
</g>
</svg>
