<?xml version="1.0" encoding="UTF-8" standalone="no"?>
<!-- Created with Inkscape (http://www.inkscape.org/) -->

<svg
   version="1.1"
   id="svg1"
   width="139.03555"
   height="118.9258"
   viewBox="0 0 139.03555 118.9258"
   sodipodi:docname="down-arrow-green.svg"
   inkscape:version="1.3.2 (091e20e, 2023-11-25)"
   xmlns:inkscape="http://www.inkscape.org/namespaces/inkscape"
   xmlns:sodipodi="http://sodipodi.sourceforge.net/DTD/sodipodi-0.dtd"
   xmlns="http://www.w3.org/2000/svg"
   xmlns:svg="http://www.w3.org/2000/svg">
  <defs
     id="defs1">
    <clipPath
       clipPathUnits="userSpaceOnUse"
       id="clipPath5">
      <path
         d="M -14.1,-65.919998 H 69.419998 V 119.36 H -14.1 Z"
         clip-rule="evenodd"
         id="path5" />
    </clipPath>
    <clipPath
       clipPathUnits="userSpaceOnUse"
       id="clipPath7">
      <path
         d="M -8.48,-53.939999 H 11.68 V 131.34 H -8.48 Z"
         clip-rule="evenodd"
         id="path7" />
    </clipPath>
    <clipPath
       clipPathUnits="userSpaceOnUse"
       id="clipPath9">
      <path
         d="M -6.46,-51.029999 H 21.379999 V 134.25 H -6.46 Z"
         transform="translate(-5e-6)"
         clip-rule="evenodd"
         id="path9" />
    </clipPath>
    <clipPath
       clipPathUnits="userSpaceOnUse"
       id="clipPath11">
      <path
         d="M -11.84,-53.939999 H 8.32 V 131.34 h -20.16 z"
         transform="translate(5e-6)"
         clip-rule="evenodd"
         id="path11" />
    </clipPath>
  </defs>
  <sodipodi:namedview
     id="namedview1"
     pagecolor="#ffffff"
     bordercolor="#000000"
     borderopacity="0.25"
     inkscape:showpageshadow="2"
     inkscape:pageopacity="0.0"
     inkscape:pagecheckerboard="0"
     inkscape:deskcolor="#d1d1d1"
     inkscape:zoom="2.0727642"
     inkscape:cx="72.84958"
     inkscape:cy="106.37968"
     inkscape:window-width="1728"
     inkscape:window-height="1052"
     inkscape:window-x="0"
     inkscape:window-y="65"
     inkscape:window-maximized="0"
     inkscape:current-layer="g1">
    <inkscape:page
       x="0"
       y="0"
       inkscape:label="1"
       id="page1"
       width="139.03555"
       height="118.9258"
       margin="0"
       bleed="0" />
  </sodipodi:namedview>
  <g
     id="g1"
     inkscape:groupmode="layer"
     inkscape:label="1"
     transform="translate(-713.67779,-230.14871)">
    <path
       id="path43-6"
       style="fill:#007400;fill-opacity:1;fill-rule:evenodd;stroke:none;stroke-width:1.49999"
       d="m 851.40271,333.78378 -2.00833,-37.44184 -8.46415,12.08807 -108.28968,-75.82521 -17.14004,24.47857 108.28959,75.82526 -8.46414,12.08804 z"
       sodipodi:nodetypes="cccccccc" />
    <path
       id="path44-5"
       style="fill:#005300;fill-opacity:1;fill-rule:nonzero;stroke:none;stroke-width:1.49999"
       d="m 852.71335,334.70152 -0.72507,-44.01569 -10.5311,15.03996 -107.37291,-75.18332 -2.89114,4.12897 109.07683,76.37638 6.60901,-9.4386 3.21126,31.26643 -30.64798,7.91723 6.58126,-9.39904 -109.07677,-76.37645 -2.68445,3.83382 107.37297,75.18328 -10.53117,15.04001 z"
       sodipodi:nodetypes="ccccccccccccccc" />
    <path
       id="path44-1-3"
       style="fill:#005300;fill-opacity:1;fill-rule:nonzero;stroke:none;stroke-width:1.49999"
       d="m 746.13583,238.99658 -12.63606,-8.84787 -19.82198,28.30873 12.63602,8.84787 2.6845,-3.83379 -10.80099,-7.56289 14.24641,-20.34601 10.80096,7.56294 z" />
  </g>
</svg>
