<?xml version="1.0" encoding="UTF-8" standalone="no"?>
<!-- Created with Inkscape (http://www.inkscape.org/) -->

<svg
   width="142.47168mm"
   height="109.23754mm"
   viewBox="0 0 142.47168 109.23754"
   version="1.1"
   id="svg1"
   inkscape:version="1.3.2 (091e20e, 2023-11-25)"
   sodipodi:docname="ducks-seams.svg"
   xmlns:inkscape="http://www.inkscape.org/namespaces/inkscape"
   xmlns:sodipodi="http://sodipodi.sourceforge.net/DTD/sodipodi-0.dtd"
   xmlns="http://www.w3.org/2000/svg"
   xmlns:svg="http://www.w3.org/2000/svg">
  <sodipodi:namedview
     id="namedview1"
     pagecolor="#ffffff"
     bordercolor="#000000"
     borderopacity="0.25"
     inkscape:showpageshadow="2"
     inkscape:pageopacity="0.0"
     inkscape:pagecheckerboard="0"
     inkscape:deskcolor="#d1d1d1"
     inkscape:document-units="mm"
     inkscape:zoom="0.2102413"
     inkscape:cx="606.44602"
     inkscape:cy="216.41799"
     inkscape:window-width="1728"
     inkscape:window-height="1052"
     inkscape:window-x="0"
     inkscape:window-y="65"
     inkscape:window-maximized="0"
     inkscape:current-layer="layer1" />
  <defs
     id="defs1">
    <clipPath
       clipPathUnits="userSpaceOnUse"
       id="clipPath1568">
      <path
         d="M 0,0 H 487680 V 274320 H 0 Z"
         id="path1568" />
    </clipPath>
    <clipPath
       clipPathUnits="userSpaceOnUse"
       id="clipPath1570">
      <path
         d="M 0,0 H 487680 V 274320 H 0 Z"
         id="path1570" />
    </clipPath>
    <clipPath
       clipPathUnits="userSpaceOnUse"
       id="clipPath1572">
      <path
         d="M 0,0 H 487680 V 274320 H 0 Z"
         id="path1572" />
    </clipPath>
    <clipPath
       clipPathUnits="userSpaceOnUse"
       id="clipPath1574">
      <path
         d="M 0,0 H 487680 V 274320 H 0 Z"
         id="path1574" />
    </clipPath>
    <clipPath
       clipPathUnits="userSpaceOnUse"
       id="clipPath1576">
      <path
         d="M 0,0 H 487680 V 274320 H 0 Z"
         id="path1576" />
    </clipPath>
    <clipPath
       clipPathUnits="userSpaceOnUse"
       id="clipPath1578">
      <path
         d="M 0,0 H 487680 V 274320 H 0 Z"
         id="path1578" />
    </clipPath>
  </defs>
  <g
     inkscape:label="Layer 1"
     inkscape:groupmode="layer"
     id="layer1"
     transform="translate(54.768757,-90.222916)">
    <path
       id="path1567"
       d="m 229269.08,106605.64 c 148.69,743.44 246.56,1498.84 446.04,2230.28 247.4,907.2 892.08,2676.28 892.08,2676.28 -85.15,1106.84 70.72,5211.12 -892.08,7136.76 -827.24,1654.52 -746.84,985.44 -1784.2,2230.24 -475.92,571.12 -862.2,1213.08 -1338.12,1784.2 -965.68,1158.8 -1354.92,1097.6 -2676.32,2230.24 -478.96,410.52 -853.53,934.32 -1338.12,1338.16 -411.84,343.2 -937.48,535.96 -1338.16,892.12 -942.92,838.16 -1784.2,1784.2 -2676.28,2676.28 -297.36,297.36 -639.8,555.64 -892.12,892.08 l -2676.28,3568.41 c -446.04,594.71 -812.47,1258.51 -1338.16,1784.19 -446.05,446.04 -934.31,853.56 -1338.16,1338.17 -343.2,411.83 -543.2,931.11 -892.08,1338.11 -547.35,638.61 -1189.48,1189.48 -1784.2,1784.2 l -2230.23,2230.24 c -297.38,297.35 -658.81,542.2 -892.09,892.12 -1125.4,1688.05 -513.08,959.05 -1784.2,2230.23 -1121.17,3363.49 391.24,-782.55 -1338.17,2676.28 -1158.07,2316.17 404.37,487.82 -1338.15,2230.25 -577.36,1732.12 -467.48,1725.08 -1784.16,3568.4 -244.44,342.2 -594.76,594.72 -892.12,892.07 -1025.08,3075.28 -227.11,2011.41 -1784.2,3568.41 l -892.08,2676.28 c -148.68,446.05 -235.75,917.59 -446.04,1338.16 -2023.96,4047.89 -1046.53,2461.89 -2676.32,4906.56 -1100.08,4400.33 366.12,-164.16 -1338.11,2676.28 -241.93,403.2 -217.74,927.16 -446.1,1338.16 -570.9,1027.68 -1593.39,2702.04 -2676.26,3568.36 -418.61,334.89 -892.13,594.76 -1338.17,892.12 -297.36,446.03 -539.08,934.67 -892.08,1338.12 -692.32,791.2 -2230.24,2230.24 -2230.24,2230.24 -297.36,892.13 -707.72,1754.2 -892.12,2676.31 -306.6,1532.93 -472.16,2544.69 -892.08,4014.45 -129.16,452.08 -235.77,917.6 -446.05,1338.12 -387.72,775.43 -979.39,1441 -1338.15,2230.28 -389.11,856.08 -664,1764 -892.08,2676.28 -629.95,2519.69 -325.84,1183.08 -892.12,4014.44 148.68,1635.53 254.17,3275.53 446.04,4906.53 105.67,898.18 284.28,1786.47 446.08,2676.31 195.88,1077.36 561.64,2913.04 892.08,4014.44 270.2,900.68 594.76,1784.2 892.12,2676.28 l 892.08,2676.28 c 148.69,446.04 332,882 446.05,1338.16 148.67,594.71 313.03,1185.76 446.03,1784.2 164.48,740.08 179.87,1520.36 446.08,2230.23 484.56,1292.17 1015.72,1269.65 1784.2,2230.25 988.16,1235.2 867,1262.96 1338.12,2676.28 148.68,1338.16 334.24,2672.72 446.04,4014.44 185.64,2227.48 -220.64,4557.28 446.08,6690.72 182.84,585.13 1179.52,345.28 1784.2,446.08 1182.4,197.08 2378.92,297.36 3568.36,446.05 -297.36,446.03 -513,959.07 -892.08,1338.15 -379.08,379.08 -901.92,580.48 -1338.16,892.08 -604.97,432.12 -1258.52,812.48 -1784.2,1338.16 -2210.6,2210.61 -1399.28,2048.24 -3122.32,4460.48 -244.45,342.2 -629.4,563.67 -892.12,892.08 -334.88,418.59 -488.64,985.16 -892.08,1338.16 -806.89,706.04 -1918.15,1026.07 -2676.28,1784.2 -1452.56,1452.56 -1770.64,1537.4 -2676.32,3122.32 -329.88,577.32 -630.16,1173.04 -892.08,1784.2 -185.21,432.17 -217.72,927.17 -446.04,1338.17 -2882.32,5188.15 -939.53,142.28 -2676.32,5352.59 l -892.08,2676.28 c -148.68,446.06 24.15,1338.16 -446.03,1338.16 h -1784.21"
       style="fill:#000000;fill-opacity:0;fill-rule:evenodd;stroke:#ff0000;stroke-width:381;stroke-linecap:butt;stroke-linejoin:round;stroke-miterlimit:8;stroke-dasharray:none;stroke-opacity:1"
       transform="matrix(6.9444393e-4,0,0,6.9444393e-4,-75.980475,16.572188)"
       clip-path="url(#clipPath1568)" />
    <path
       id="path1569"
       d="m 221686.23,106159.6 c -9961.75,15611.72 -20459.31,30894.2 -29885.28,46835.12 -760.55,1286.2 -170.67,2991.84 -446.03,4460.48 -534.48,2850.64 -784.87,2569.11 -2676.28,4460.52 -446.04,446.05 -833.52,959.64 -1338.16,1338.12 -2793.4,2095.08 -1258.68,812.6 -4460.48,4014.44 l -1784.2,1784.2 -892.08,892.12 c -1069.08,4276 341.64,-1024.96 -1338.16,4014.45 -193.84,581.55 -277.64,1194.72 -446.04,1784.15 -914.4,3200.49 14.84,-966.04 -892.12,3568.4 -148.68,3865.76 -179.88,7737.84 -446.04,11597.28 -32.36,469.07 -217.72,927.17 -446.05,1338.17 -520.67,937.23 -1189.47,1784.18 -1784.19,2676.26 l -892.07,1338.17 -892.13,1338.12 c -297.36,892.12 -664,1764.04 -892.08,2676.32 -560.07,2240.31 -252.15,1202.6 -892.12,3122.31 148.68,1635.54 254.2,3275.57 446.08,4906.57 105.68,898.2 308.51,1782.4 446.04,2676.28 1148,7462 -220.61,-877.72 892.08,5798.64 -148.69,3419.72 -210.52,6844.28 -446.04,10259.12 -62.24,902.24 -346.16,1777.39 -446.04,2676.28 -534.36,4809.36 1.04,4010.88 -892.12,7136.8 -129.16,452.08 -185.24,946.92 -446.03,1338.13 -442.29,663.39 -1896.77,1883.79 -2676.29,2230.23 -859.32,381.92 -2676.32,892.12 -2676.32,892.12 -297.36,446.04 -557.2,919.52 -892.08,1338.12 -262.72,328.4 -675.72,531.53 -892.08,892.12 -291.76,486.24 -786,2750.96 -892.12,3122.31 -349.88,1224.61 -488.16,1656.33 -1338.16,2676.33 -1224.95,1469.95 -1231.59,1198.32 -2676.28,2230.24 -604.92,432.08 -1179.28,906 -1784.2,1338.12 -436.24,311.59 -919.52,557.24 -1338.11,892.13 -328.41,262.71 -594.77,594.71 -892.13,892.07 -549.84,4948.72 -20.32,2737.39 -1338.12,6690.76 -493.11,1479.28 -446.08,1808.24 -446.08,892.1"
       style="fill:#000000;fill-opacity:0;fill-rule:evenodd;stroke:#ff0000;stroke-width:381;stroke-linecap:butt;stroke-linejoin:round;stroke-miterlimit:8;stroke-dasharray:none;stroke-opacity:1"
       transform="matrix(6.9444393e-4,0,0,6.9444393e-4,-75.980475,16.572188)"
       clip-path="url(#clipPath1570)" />
    <path
       id="path1571"
       d="m 73152,107497.76 c -2676.28,10853.84 -5981.76,21571.64 -8028.88,32561.55 -790.08,4241.41 -206.72,8627.69 -446.04,12935.41 -44.56,801.84 -606.68,4305.97 -892.12,5352.59 -247.44,907.21 -594.72,1784.21 -892.08,2676.29 l -446.04,1338.17 c -148.68,446.03 -332,882 -446.04,1338.15 l -892.12,3568.36 c -148.68,594.72 -252.16,1202.64 -446.04,1784.2 -3153.28,9459.72 683.64,-2278.96 -1338.16,4460.47 -270.2,900.74 -664,1764.05 -892.08,2676.33 -249.36,997.49 -903.68,3808.77 -1338.16,4460.49 -4365.12,6547.87 2028.48,-2853.25 -1784.2,2230.23 -3026.52,4035.28 -630.32,1522.31 -2676.28,3568.4 -672.4,2017.2 -933.68,2572.8 -1338.16,4460.48 -317.68,1482.6 -892.08,4460.48 -892.08,4460.48 -148.68,1784.2 -446.04,3562.2 -446.04,5352.59 0,613.05 352.84,1178.28 446.04,1784.21 204.72,1330.72 182,2694.2 446.04,4014.44 184.4,922.09 664,1764 892.08,2676.28 148.68,594.72 317.64,1184.76 446.08,1784.2 317.72,1482.61 594.72,2973.64 892.08,4460.48 463.8,2319.08 511.76,2434.36 892.12,4906.52 159.88,1039.12 239.84,2091.44 446.04,3122.36 240.44,1202.28 594.72,2378.92 892.08,3568.4 148.68,594.72 252.16,1202.64 446.04,1784.21 382.24,1146.67 668.04,1889.87 892.12,3122.31 188.08,1034.41 297.36,2081.56 446.04,3122.36 -148.68,2824.97 -229.08,5654.36 -446.04,8474.92 -229.2,2979.67 52.88,6085.84 -892.12,8920.96 -148.68,446.04 -235.76,917.6 -446.04,1338.17 -239.72,479.46 -594.72,892.11 -892.08,1338.15 -148.68,594.72 -277.64,1194.72 -446.04,1784.16 -129.16,452.08 -446.08,867.97 -446.08,1338.15 0,904.41 249.88,1793.41 446.08,2676.29 328.72,1479.2 27.84,1338.18 892.08,1338.18"
       style="fill:#000000;fill-opacity:0;fill-rule:evenodd;stroke:#ff0000;stroke-width:381;stroke-linecap:butt;stroke-linejoin:round;stroke-miterlimit:8;stroke-dasharray:none;stroke-opacity:1"
       transform="matrix(6.9444393e-4,0,0,6.9444393e-4,-75.980475,16.572188)"
       clip-path="url(#clipPath1572)" />
    <path
       id="path1573"
       d="m 40590.44,106605.64 c 2081.56,5501.28 4223.76,10980 6244.68,16503.84 210.64,575.72 336.4,1181.04 446.04,1784.16 188.08,1034.4 68.64,2141.08 446.04,3122.36 384.88,1000.72 1445.12,1659.16 1784.2,2676.28 1121.28,3363.64 -391.28,-782.6 1338.16,2676.32 210.28,420.52 260.84,905.96 446.04,1338.12 261.92,611.16 630.2,1173.05 892.12,1784.2 185.2,432.16 316.88,886.08 446.04,1338.16 419.96,1469.84 585.48,2481.44 892.08,4014.44 570.08,7980.28 628.64,4895.04 0,13381.43 -30.56,412.45 -213.36,6458.1 -1338.12,7582.85 -1271.2,1271.2 -658.84,542.2 -1784.2,2230.25 -1233.4,3700.26 837.08,-2120.05 -2230.24,4014.43 -1268.28,2536.52 -421.92,1313.96 -2676.32,3568.4 -446.04,446.04 -813.24,988.24 -1338.12,1338.17 -3026.24,2017.43 -1918.2,1026 -3568.4,2676.26 -148.68,446.05 -235.76,917.61 -446.04,1338.17 -239.76,479.47 -674.4,848.24 -892.12,1338.12 -381.92,859.32 -892.08,2676.32 -892.08,2676.32 113.44,1474.92 29.32,6511.64 1338.16,8474.92 l 892.08,1338.11 c 1411.4,4234.33 806.92,1739.85 1338.16,7582.85 -148.68,1338.15 -279.08,2678.43 -446.08,4014.43 -132.28,1058.29 -424.56,3659.82 -892.08,4906.57 -587.8,1567.43 -1787.12,3126.72 -2676.28,4460.48 -297.36,446.03 -513.04,959.03 -892.12,1338.12 l -2676.28,2676.32 c -297.36,297.36 -658.84,542.16 -892.12,892.08 l -892.08,1338.15 c 148.68,594.74 204.56,1220.74 446.04,1784.21 788.36,1839.53 1179,1178.96 2676.32,2676.28 525.68,525.68 892.08,1189.48 1338.12,1784.2 -61.48,491.88 -240.68,3820.84 -892.08,4906.52 -216.36,360.61 -639.8,555.68 -892.12,892.12 -643.32,857.72 -1189.48,1784.2 -1784.2,2676.28 v 0 c -471.36,1178.39 -988.48,2344.67 -1338.12,3568.39 -168.4,589.45 -297.36,1189.49 -446.04,1784.21 -119.04,1487.84 -1710.12,10035.36 -446.08,13827.48 169.52,508.59 557.24,919.56 892.12,1338.16 1038.28,1297.89 839,624.84 2230.24,1784.2 484.6,403.84 840.24,950.88 1338.16,1338.16 0.8,0.64 3344.92,2229.96 4014.44,2676.28 4118.16,2745.4 -947.4,-757.92 2230.24,1784.2 418.6,334.89 1338.12,892.08 1338.12,892.08"
       style="fill:#000000;fill-opacity:0;fill-rule:evenodd;stroke:#ff0000;stroke-width:381;stroke-linecap:butt;stroke-linejoin:round;stroke-miterlimit:8;stroke-dasharray:none;stroke-opacity:1"
       transform="matrix(6.9444393e-4,0,0,6.9444393e-4,-75.980475,16.572188)"
       clip-path="url(#clipPath1574)" />
    <path
       id="path1575"
       d="m 197153.56,106159.6 c -148.68,743.4 -147.4,1533.4 -446.04,2230.24 -165.68,386.56 -675.75,531.52 -892.12,892.12 -241.92,403.16 -297.35,892.08 -446.04,1338.12 549.87,4949.08 20.28,2737.12 1338.16,6690.76 148.68,446.04 113.6,1005.64 446.04,1338.12 l 892.08,892.12 c 148.67,446.04 204.16,934.96 446.08,1338.12 497.16,828.64 1528.76,1223.04 2230.23,1784.2 328.41,262.72 594.74,594.76 892.1,892.12 732.67,2198.08 896.31,2065.92 0,5352.56 -154.45,566.28 -1965.69,1557.44 -2230.25,1784.2 -0.92,0.8 -2229.8,2229.84 -2676.28,2676.32 l -892.12,892.09 c -297.35,892.08 -370.48,1893.87 -892.09,2676.26 -594.71,892.13 -1445.15,1659.17 -1784.19,2676.33 -579.04,1737.08 -113.6,1005.67 -1338.17,2230.24 l -892.07,2676.28 c -305.24,915.72 -358.44,1740.4 -1338.16,2230.25 -841.08,420.51 -1784.2,594.75 -2676.28,892.11 l -1338.16,446.04 c -743.4,743.4 -1897.8,1232.85 -2230.23,2230.24 -1626.61,4879.96 967.51,-2511.36 -1338.13,2676.28 -381.92,859.33 -594.76,1784.2 -892.12,2676.33 l -892.08,2676.26 c -148.67,446.05 -113.6,1005.69 -446.08,1338.17 l -2230.24,2230.24 c -446.04,446.05 -813.28,988.2 -1338.12,1338.12 -922.88,615.24 -2743.2,1576.04 -3568.4,2676.32 -643.28,857.72 -1784.19,2676.28 -1784.19,2676.28 -1061.61,3184.87 -370.49,1893.87 -1784.21,4014.44 -210.32,630.96 -892.08,2562.28 -892.08,3122.32 0,2337.08 234.96,4500.4 892.08,6690.75 878.64,2928.77 292.72,2076.85 1784.21,3568.41 148.67,446.04 204.11,934.95 446.03,1338.12 216.36,360.6 822.97,477.29 892.12,892.12 192.04,1152.2 -777.64,2281.6 -1338.15,3122.32 -148.69,446.03 -204.13,935 -446.05,1338.16 -216.36,360.61 -704.04,515.92 -892.12,892.08 -420.57,841.07 -594.72,1784.2 -892.08,2676.32 l -446.04,1338.12 -892.12,2676.32 c -148.68,446.03 -332,882 -446.05,1338.13 -148.67,594.72 -313.03,1185.75 -446.03,1784.18 -164.43,740.08 -275.56,1491.54 -446.04,2230.25 -275.68,1194.68 -651.68,2366.12 -892.11,3568.4 -148.69,743.4 -314.28,1483.64 -446.05,2230.24 -314.31,1781.28 -892.08,5352.6 -892.08,5352.6 -148.69,2378.92 -74.32,4782.36 -446.08,7136.76 -236.96,1500.83 -2945.68,2499.68 -3568.36,3122.36 -2163.28,2163.28 -1317.64,1084.39 -2676.32,3122.32 -148.68,446.04 -332,882 -446.04,1338.15 -137.04,548.13 -455.12,2840.17 -892.07,3568.41 -216.36,360.59 -629.41,563.68 -892.13,892.08 -988.15,1235.15 -867.04,1263 -1338.12,2676.28 511.48,3069 732.68,2825.64 0,6244.72 -197.03,919.48 -109.72,2154.68 -892.11,2676.28 -892.09,594.72 -1918.13,1026.08 -2676.29,1784.2 -297.35,297.36 -563.71,629.36 -892.12,892.08 -418.59,334.87 -919.51,557.24 -1338.12,892.12 -1382.8,1106.24 -399.96,869 -2230.24,1784.16 -420.56,210.28 -917.61,235.8 -1338.15,446.08 -3458.54,1729.28 686.95,217.05 -2676.29,1338.12 -954.36,1431.56 -2043,3443.64 -3568.4,4460.52 -446.03,297.36 -934.72,539.08 -1338.16,892.08 -791.23,692.33 -2230.23,2230.26 -2230.23,2230.26"
       style="fill:#000000;fill-opacity:0;fill-rule:evenodd;stroke:#ff0000;stroke-width:381;stroke-linecap:butt;stroke-linejoin:round;stroke-miterlimit:8;stroke-dasharray:none;stroke-opacity:1"
       transform="matrix(6.9444393e-4,0,0,6.9444393e-4,-75.980475,16.572188)"
       clip-path="url(#clipPath1576)" />
    <path
       id="path1577"
       d="m 232837.48,106605.64 c 743.4,2973.68 1825.16,5882.72 2230.24,8921 141.56,1061.84 -610.6,5588.28 -892.12,7136.76 -135.6,745.92 -246.55,1498.8 -446.04,2230.24 -247.4,907.24 -594.72,1784.2 -892.08,2676.32 -148.68,446.04 -332.04,882 -446.08,1338.12 -297.35,1189.48 -504.35,2405.23 -892.09,3568.4 -148.67,446.04 -316.87,886.08 -446.03,1338.16 -323.33,1131.56 -433.84,2053 -892.12,3122.31 -1653.44,3858.1 -292.11,-15.72 -1338.11,3122.36 -176.93,1769.05 -497.77,5611 -892.13,7582.85 -560.08,2800.53 -933.92,3693.84 -1784.2,6244.68 -416.2,1248.64 -642.72,2593.16 -2230.24,3122.32 -446.04,148.68 -886.04,316.89 -1338.12,446.04 -666.72,190.49 -2409.52,535.72 -3122.36,892.11 -479.48,239.74 -892.12,594.74 -1338.16,892.09 -297.36,446.04 -680.92,845.4 -892.07,1338.16 -241.49,563.49 -446.05,1171.16 -446.05,1784.21 0,1464.35 46.12,2793.15 1338.12,3568.39 403.16,241.92 917.6,235.76 1338.16,446.04 4241.28,2120.57 -2890.31,-517.4 4014.44,1784.2 l 1338.16,446.04 1338.12,446.04 c 829.76,829.75 1221.51,1104.88 1784.2,2230.24 1158.03,2316.12 -404.32,487.84 1338.16,2230.23 148.69,743.41 281.61,1490.17 446.04,2230.25 279.6,1258.2 196.72,1991.44 1338.16,2676.32 403.16,241.92 892.08,297.36 1338.12,446.04 297.37,297.36 704.04,515.92 892.12,892.08 420.56,841.08 594.71,1784.2 892.08,2676.31 l 446.04,1338.13 446.08,1338.15 446.05,1338.17 c -65.69,1314 -253.97,9511.29 -892.13,12489.37 -197.04,919.46 -227.16,2011.35 -892.08,2676.28 -2163.28,2163.26 -1084.4,1317.64 -3122.36,2676.31 -297.36,446.04 -557.2,919.52 -892.08,1338.12 -262.72,328.4 -675.72,531.52 -892.07,892.12 -241.93,403.17 -204.17,934.96 -446.1,1338.12 -423.79,706.33 -1622.31,1378.92 -2230.23,1784.2 -1358.6,2037.92 -513.08,959.16 -2676.28,3122.36 l -1338.16,1338.12 c -297.36,297.37 -658.8,542.2 -892.08,892.12 -1125.4,1688.04 -513.08,959.04 -1784.2,2230.25 -148.69,446.03 -204.12,935 -446.05,1338.15 -216.35,360.6 -704.03,515.92 -892.11,892.08 -420.53,841.08 -892.07,2676.28 -892.07,2676.28 297.35,892.12 227.15,2011.41 892.07,2676.32 l 1784.21,1784.2 892.11,892.08 c 148.68,446.04 446.04,867.96 446.04,1338.17 0,3299.51 -404.32,3889.23 -1338.15,6690.72 -148.69,446.03 -54.85,1077.35 -446.05,1338.15 -1223.08,815.36 -2625.4,1497.52 -3568.4,2676.28 -334.88,418.6 -674.37,848.28 -892.08,1338.16 -620.64,1396.44 -967.44,2977.52 -1338.16,4460.48 -148.67,1932.88 -219.52,3873.32 -446.05,5798.64 -71.62,608.83 -171.87,1235.83 -446.03,1784.16 -479.48,959 -1189.44,1784.2 -1784.2,2676.31 -1125.28,1687.93 -513.16,959.13 -1784.2,2230.25 -1033.11,3099.44 48.28,2676.28 -2230.24,2676.28"
       style="fill:#000000;fill-opacity:0;fill-rule:evenodd;stroke:#ff0000;stroke-width:381;stroke-linecap:butt;stroke-linejoin:round;stroke-miterlimit:8;stroke-dasharray:none;stroke-opacity:1"
       transform="matrix(6.9444393e-4,0,0,6.9444393e-4,-75.980475,16.572188)"
       clip-path="url(#clipPath1578)" />
  </g>
</svg>
