<svg
   version="1.1"
   id="svg1"
   width="386.42667"
   height="137.31734"
   viewBox="0 0 386.42667 137.31734"
   sodipodi:docname="graph.pdf"
   xmlns:inkscape="http://www.inkscape.org/namespaces/inkscape"
   xmlns:sodipodi="http://sodipodi.sourceforge.net/DTD/sodipodi-0.dtd"
   xmlns="http://www.w3.org/2000/svg"
   xmlns:svg="http://www.w3.org/2000/svg">
  <defs
     id="defs1" />
  <sodipodi:namedview
     id="namedview1"
     pagecolor="#ffffff"
     bordercolor="#000000"
     borderopacity="0.25"
     inkscape:showpageshadow="2"
     inkscape:pageopacity="0.0"
     inkscape:pagecheckerboard="0"
     inkscape:deskcolor="#d1d1d1">
    <inkscape:page
       x="0"
       y="0"
       inkscape:label="1"
       id="page1"
       width="386.42667"
       height="137.31734"
       margin="0"
       bleed="0" />
  </sodipodi:namedview>
  <g
     id="g1"
     inkscape:groupmode="layer"
     inkscape:label="1">
    <path
       id="path1"
       d="M 11.33871,0 C 11.33871,6.26227 6.26227,11.33871 0,11.33871 -6.26227,11.33871 -11.33871,6.26227 -11.33871,0 c 0,-6.26227 5.07644,-11.33871 11.33871,-11.33871 6.26227,0 11.33871,5.07644 11.33871,11.33871 z"
       style="fill:#8d198f;fill-opacity:1;fill-rule:nonzero;stroke:#000000;stroke-width:1.19553;stroke-linecap:butt;stroke-linejoin:miter;stroke-miterlimit:10;stroke-dasharray:none;stroke-opacity:1"
       transform="matrix(1.3333333,0,0,-1.3333333,27.253333,68.658667)" />
    <path
       id="path2"
       d="m 4.5470703,-3.2473047 c 0,-0.7851562 -0.035156,-1.7109375 -0.4570312,-2.5195312 -0.3984375,-0.75 -1.0898438,-0.984375 -1.59375,-0.984375 -0.5976563,0 -1.2890625,0.2695312 -1.69921879,1.1484375 -0.328125,0.7265625 -0.375,1.5585937 -0.375,2.3554687 0,0.7851563 0.0351563,1.5117188 0.33984375,2.2382813 0.39843754,0.96093746 1.14843754,1.23046871 1.72265624,1.23046871 0.7265625,0 1.3476563,-0.41015625 1.6640625,-1.1015625 C 4.4533203,-1.5246484 4.5470703,-2.1808984 4.5470703,-3.2473047 Z m -2.0507812,2.85937501 c -0.5273438,0 -0.9375,-0.375 -1.1367188,-1.10156251 -0.1523437,-0.5625 -0.1640625,-1.1015625 -0.1640625,-1.875 0,-0.6328125 0,-1.2304687 0.1640625,-1.78125 0.070312,-0.1875 0.3164063,-0.9960937 1.125,-0.9960937 0.7734375,0 1.03125,0.75 1.1015625,0.9257812 0.1875,0.5625 0.1875,1.2304688 0.1875,1.8515625 0,0.65625 0,1.2773438 -0.1757812,1.9101563 -0.2578125,0.90234371 -0.7851563,1.06640621 -1.1015625,1.06640621 z m 0,0"
       style="fill:#ffffff;fill-opacity:1;fill-rule:nonzero;stroke:none"
       aria-label="0"
       transform="matrix(1.3333333,0,0,1.3333333,23.933333,73.013333)" />
    <path
       id="path3"
       d="m 73.57434,31.05412 c 0,6.26227 -5.07643,11.33872 -11.33871,11.33872 -6.26227,0 -11.33872,-5.07645 -11.33872,-11.33872 0,-6.26227 5.07645,-11.33871 11.33872,-11.33871 6.26228,0 11.33871,5.07644 11.33871,11.33871 z"
       style="fill:#ff8000;fill-opacity:1;fill-rule:nonzero;stroke:#000000;stroke-width:1.19553;stroke-linecap:butt;stroke-linejoin:miter;stroke-miterlimit:10;stroke-dasharray:none;stroke-opacity:1"
       transform="matrix(1.3333333,0,0,-1.3333333,27.253333,68.658667)" />
    <path
       id="path4"
       d="M 2.9751797,-6.7489688 H 2.7759609 c -0.5859375,0.609375 -1.4179687,0.6328125 -1.88671871,0.65625 V -5.5185 C 1.2173672,-5.5302188 1.6978359,-5.5419375 2.1900234,-5.752875 v 5.1796875 H 0.94783594 V 0.00103125 H 4.2173672 V -0.5731875 H 2.9751797 Z m 0,0"
       style="fill:#000000;fill-opacity:1;fill-rule:nonzero;stroke:none"
       aria-label="1"
       transform="matrix(1.3333333,0,0,1.3333333,106.912,31.608)" />
    <path
       id="path5"
       d="m 73.57434,-31.05412 c 0,6.26227 -5.07643,11.33871 -11.33871,11.33871 -6.26227,0 -11.33872,-5.07644 -11.33872,-11.33871 0,-6.26227 5.07645,-11.33872 11.33872,-11.33872 6.26228,0 11.33871,5.07645 11.33871,11.33872 z"
       style="fill:#ff8000;fill-opacity:1;fill-rule:nonzero;stroke:#000000;stroke-width:1.19553;stroke-linecap:butt;stroke-linejoin:miter;stroke-miterlimit:10;stroke-dasharray:none;stroke-opacity:1"
       transform="matrix(1.3333333,0,0,-1.3333333,27.253333,68.658667)" />
    <path
       id="path6"
       d="M 1.7329922,-1.8745234 0.50252344,-0.63233594 V 4.765625e-4 H 4.4751797 V -0.70264844 H 2.6587734 c -0.1171875,0 -0.234375,0 -0.3632812,0 h -1.078125 c 0.3164062,-0.26953125 1.078125,-1.01953126 1.3828125,-1.31249996 0.1875,-0.1757813 0.6914062,-0.5976563 0.890625,-0.7734375 0.4453125,-0.4453125 0.984375,-0.9726563 0.984375,-1.828125 0,-1.1367188 -0.8085938,-2.1328125 -2.1210938,-2.1328125 -1.1367187,0 -1.69921871,0.7734375 -1.93359371,1.6289062 0.1171875,0.1757813 0.1640625,0.234375 0.1875,0.2578125 0.0234375,0.023437 0.1171875,0.1523438 0.22265625,0.2929688 0.19921876,-0.7734375 0.46874996,-1.546875 1.38281246,-1.546875 0.9375,0 1.4414063,0.75 1.4414063,1.5234375 0,0.84375 -0.5625,1.4179687 -1.1601563,2.015625 z m 0,0"
       style="fill:#000000;fill-opacity:1;fill-rule:nonzero;stroke:none"
       aria-label="2"
       transform="matrix(1.3333333,0,0,1.3333333,106.912,114.41733)" />
    <path
       id="path7"
       d="m 135.80998,0 c 0,6.26227 -5.07644,11.33871 -11.33871,11.33871 -6.26227,0 -11.33872,-5.07644 -11.33872,-11.33871 0,-6.26227 5.07645,-11.33871 11.33872,-11.33871 6.26227,0 11.33871,5.07644 11.33871,11.33871 z"
       style="fill:#ff8000;fill-opacity:1;fill-rule:nonzero;stroke:#000000;stroke-width:1.19553;stroke-linecap:butt;stroke-linejoin:miter;stroke-miterlimit:10;stroke-dasharray:none;stroke-opacity:1"
       transform="matrix(1.3333333,0,0,-1.3333333,27.253333,68.658667)" />
    <path
       id="path8"
       d="M 0.91303125,-5.1223047 C 1.206,-5.8137109 1.8505313,-6.1769922 2.4599063,-6.1769922 c 0.515625,0 1.0078125,0.2929688 1.0078125,0.9375 0,0.609375 -0.4101563,1.1953125 -1.0195313,1.3359375 -0.058594,0.011719 -0.082031,0.011719 -0.7851562,0.070312 v 0.609375 h 0.703125 c 1.078125,0 1.3007812,0.9257813 1.3007812,1.4179688 0,0.7734375 -0.4570312,1.41796871 -1.2304687,1.41796871 -0.6796875,0 -1.47656255,-0.3515625 -1.9101563,-1.03125001 l -0.10546875,0.59765626 c 0.72656255,0.9375 1.64062505,1.04296875 2.03906255,1.04296875 1.21875,0 2.0859375,-0.97265625 2.0859375,-2.01562501 0,-0.9023437 -0.6914063,-1.5234375 -1.3710938,-1.734375 0.7617188,-0.4101562 1.1132813,-1.0898437 1.1132813,-1.7109375 0,-0.8554687 -0.8320313,-1.5117187 -1.8164063,-1.5117187 -0.7734375,0 -1.5,0.3984375 -1.91015625,1.0898437 z m 0,0"
       style="fill:#000000;fill-opacity:1;fill-rule:nonzero;stroke:none"
       aria-label="3"
       transform="matrix(1.3333333,0,0,1.3333333,189.892,73.013333)" />
    <path
       id="path9"
       d="m 198.04562,31.05412 c 0,6.26227 -5.07644,11.33872 -11.33871,11.33872 -6.26228,0 -11.33871,-5.07645 -11.33871,-11.33872 0,-6.26227 5.07643,-11.33871 11.33871,-11.33871 6.26227,0 11.33871,5.07644 11.33871,11.33871 z"
       style="fill:#ff8000;fill-opacity:1;fill-rule:nonzero;stroke:#000000;stroke-width:1.19553;stroke-linecap:butt;stroke-linejoin:miter;stroke-miterlimit:10;stroke-dasharray:none;stroke-opacity:1"
       transform="matrix(1.3333333,0,0,-1.3333333,27.253333,68.658667)" />
    <path
       id="path10"
       d="m 3.7024453,-1.6981875 h 0.984375 v -0.609375 H 3.7024453 V -6.5380313 H 2.8001016 l -2.51953129,4.2304688 v 0.609375 H 2.9172891 v 1.69921875 h 0.7851562 z m -2.6484375,-0.609375 c 0.515625,-0.8554688 1.921875,-3.2226563 1.921875,-3.7851563 v 3.7851563 z m 0,0"
       style="fill:#000000;fill-opacity:1;fill-rule:nonzero;stroke:none"
       aria-label="4"
       transform="matrix(1.3333333,0,0,1.3333333,272.872,31.608)" />
    <path
       id="path11"
       d="m 198.04562,-31.05412 c 0,6.26227 -5.07644,11.33871 -11.33871,11.33871 -6.26228,0 -11.33871,-5.07644 -11.33871,-11.33871 0,-6.26227 5.07643,-11.33872 11.33871,-11.33872 6.26227,0 11.33871,5.07645 11.33871,11.33872 z"
       style="fill:#ff8000;fill-opacity:1;fill-rule:nonzero;stroke:#000000;stroke-width:1.19553;stroke-linecap:butt;stroke-linejoin:miter;stroke-miterlimit:10;stroke-dasharray:none;stroke-opacity:1"
       transform="matrix(1.3333333,0,0,-1.3333333,27.253333,68.658667)" />
    <path
       id="path12"
       d="m 1.5227578,-5.8940547 h 2.625 V -6.5385859 H 0.80791406 v 3.6796875 H 1.4641641 c 0.1640625,-0.3984375 0.5390625,-0.7851563 1.1132812,-0.7851563 0.46875,0 1.0078125,0.4101563 1.0078125,1.6054688 0,1.65234371 -1.21875,1.65234371 -1.3007812,1.65234371 -0.6679688,0 -1.2773438,-0.38671875 -1.57031254,-0.92578121 l -0.328125,0.55078121 c 0.41015625,0.57421875 1.10156254,0.984375 1.91015624,0.984375 1.1835938,0 2.1796875,-0.984375 2.1796875,-2.25000001 0,-1.2421875 -0.8554687,-2.2265625 -1.8867187,-2.2265625 -0.3984375,0 -0.7734375,0.1523438 -1.0664063,0.4101563 z m 0,0"
       style="fill:#000000;fill-opacity:1;fill-rule:nonzero;stroke:none"
       aria-label="5"
       transform="matrix(1.3333333,0,0,1.3333333,272.872,114.41733)" />
    <path
       id="path13"
       d="m 260.28127,0 c 0,6.26227 -5.07645,11.33871 -11.33872,11.33871 -6.26228,0 -11.33871,-5.07644 -11.33871,-11.33871 0,-6.26227 5.07643,-11.33871 11.33871,-11.33871 6.26227,0 11.33872,5.07644 11.33872,11.33871 z"
       style="fill:#2e3192;fill-opacity:1;fill-rule:nonzero;stroke:#000000;stroke-width:1.19553;stroke-linecap:butt;stroke-linejoin:miter;stroke-miterlimit:10;stroke-dasharray:none;stroke-opacity:1"
       transform="matrix(1.3333333,0,0,-1.3333333,27.253333,68.658667)" />
    <path
       id="path14"
       d="m 4.1363906,-6.5519922 c -0.515625,-0.1992187 -0.9140625,-0.1992187 -1.0546875,-0.1992187 -1.40625,0 -2.66015623,1.40625 -2.66015623,3.5390625 0,2.82421871 1.23046873,3.43359371 2.07421873,3.43359371 0.5976563,0 1.03125,-0.234375 1.4179688,-0.6796875 0.4453125,-0.50390625 0.6328125,-0.97265621 0.6328125,-1.75781251 0,-1.2773437 -0.65625,-2.390625 -1.6054688,-2.390625 -0.3164062,0 -1.078125,0.082031 -1.6875,0.8320313 0.1289063,-1.6054688 0.9140625,-2.4023438 1.8398438,-2.4023438 0.375,0 0.6914062,0.070312 1.0429687,0.2109375 z m -2.8710937,4.3710938 c 0,-0.140625 0,-0.1640625 0.011719,-0.28125 0,-0.7382813 0.4453125,-1.5351563 1.2773438,-1.5351563 0.46875,0 0.75,0.2460938 0.9492187,0.6210938 0.2109375,0.3632812 0.234375,0.7148437 0.234375,1.1601562 0,0.3398438 0,0.796875 -0.2460937,1.2070313 -0.1640625,0.28124996 -0.421875,0.62109371 -0.9960938,0.62109371 -1.0546875,0 -1.1953125,-1.46484371 -1.230469,-1.79296871 z m 0,0"
       style="fill:#ffffff;fill-opacity:1;fill-rule:nonzero;stroke:none"
       aria-label="6"
       transform="matrix(1.3333333,0,0,1.3333333,355.852,73.013333)" />
    <path
       id="path15"
       d="M 10.68008,5.32892 48.16821,24.03505"
       style="fill:none;stroke:#000000;stroke-width:1.59404;stroke-linecap:butt;stroke-linejoin:miter;stroke-miterlimit:10;stroke-dasharray:none;stroke-opacity:1"
       transform="matrix(1.3333333,0,0,-1.3333333,27.253333,68.658667)" />
    <path
       id="path16"
       d="M 3.78581,0 -2.27148,3.02866 0,0 -2.27148,-3.02866"
       style="fill:#000000;fill-opacity:1;fill-rule:nonzero;stroke:none"
       transform="matrix(1.1929867,-0.59525333,-0.59525333,-1.1929867,91.4776,36.61196)" />
    <path
       id="path17"
       d="M 10.68008,-5.32892 48.16821,-24.03505"
       style="fill:none;stroke:#000000;stroke-width:1.59404;stroke-linecap:butt;stroke-linejoin:miter;stroke-miterlimit:10;stroke-dasharray:none;stroke-opacity:1"
       transform="matrix(1.3333333,0,0,-1.3333333,27.253333,68.658667)" />
    <path
       id="path18"
       d="M 3.78581,0 -2.27148,3.02866 0,0 -2.27148,-3.02866"
       style="fill:#000000;fill-opacity:1;fill-rule:nonzero;stroke:none"
       transform="matrix(1.1929867,0.59525333,0.59525333,-1.1929867,91.4776,100.70537)" />
    <path
       id="path19"
       d="M 72.91573,25.72519 110.40384,7.01906"
       style="fill:none;stroke:#000000;stroke-width:1.59404;stroke-linecap:butt;stroke-linejoin:miter;stroke-miterlimit:10;stroke-dasharray:none;stroke-opacity:1"
       transform="matrix(1.3333333,0,0,-1.3333333,27.253333,68.658667)" />
    <path
       id="path20"
       d="M 3.78581,0 -2.27148,3.02866 0,0 -2.27148,-3.02866"
       style="fill:#000000;fill-opacity:1;fill-rule:nonzero;stroke:none"
       transform="matrix(1.1929867,0.59525333,0.59525333,-1.1929867,174.45843,59.299907)" />
    <path
       id="path21"
       d="m 72.91573,-25.72519 37.48811,18.70613"
       style="fill:none;stroke:#000000;stroke-width:1.59404;stroke-linecap:butt;stroke-linejoin:miter;stroke-miterlimit:10;stroke-dasharray:none;stroke-opacity:1"
       transform="matrix(1.3333333,0,0,-1.3333333,27.253333,68.658667)" />
    <path
       id="path22"
       d="M 3.78581,0 -2.27148,3.02866 0,0 -2.27148,-3.02866"
       style="fill:#000000;fill-opacity:1;fill-rule:nonzero;stroke:none"
       transform="matrix(1.1929867,-0.59525333,-0.59525333,-1.1929867,174.45843,78.017427)" />
    <path
       id="path23"
       d="m 135.15135,5.32892 37.48813,18.70613"
       style="fill:none;stroke:#000000;stroke-width:1.59404;stroke-linecap:butt;stroke-linejoin:miter;stroke-miterlimit:10;stroke-dasharray:none;stroke-opacity:1"
       transform="matrix(1.3333333,0,0,-1.3333333,27.253333,68.658667)" />
    <path
       id="path24"
       d="M 3.78581,0 -2.27148,3.02866 0,0 -2.27148,-3.02866"
       style="fill:#000000;fill-opacity:1;fill-rule:nonzero;stroke:none"
       transform="matrix(1.1929867,-0.59525333,-0.59525333,-1.1929867,257.43929,36.61196)" />
    <path
       id="path25"
       d="m 135.15135,-5.32892 37.48813,-18.70613"
       style="fill:none;stroke:#000000;stroke-width:1.59404;stroke-linecap:butt;stroke-linejoin:miter;stroke-miterlimit:10;stroke-dasharray:none;stroke-opacity:1"
       transform="matrix(1.3333333,0,0,-1.3333333,27.253333,68.658667)" />
    <path
       id="path26"
       d="M 3.78581,0 -2.27148,3.02866 0,0 -2.27148,-3.02866"
       style="fill:#000000;fill-opacity:1;fill-rule:nonzero;stroke:none"
       transform="matrix(1.1929867,0.59525333,0.59525333,-1.1929867,257.43929,100.70537)" />
    <path
       id="path27"
       d="M 197.387,25.72519 234.87512,7.01906"
       style="fill:none;stroke:#000000;stroke-width:1.59404;stroke-linecap:butt;stroke-linejoin:miter;stroke-miterlimit:10;stroke-dasharray:none;stroke-opacity:1"
       transform="matrix(1.3333333,0,0,-1.3333333,27.253333,68.658667)" />
    <path
       id="path28"
       d="M 3.78581,0 -2.27148,3.02866 0,0 -2.27148,-3.02866"
       style="fill:#000000;fill-opacity:1;fill-rule:nonzero;stroke:none"
       transform="matrix(1.1929867,0.59525333,0.59525333,-1.1929867,340.42013,59.299907)" />
    <path
       id="path29"
       d="m 197.387,-25.72519 37.48812,18.70613"
       style="fill:none;stroke:#000000;stroke-width:1.59404;stroke-linecap:butt;stroke-linejoin:miter;stroke-miterlimit:10;stroke-dasharray:none;stroke-opacity:1"
       transform="matrix(1.3333333,0,0,-1.3333333,27.253333,68.658667)" />
    <path
       id="path30"
       d="M 3.78581,0 -2.27148,3.02866 0,0 -2.27148,-3.02866"
       style="fill:#000000;fill-opacity:1;fill-rule:nonzero;stroke:none"
       transform="matrix(1.1929867,-0.59525333,-0.59525333,-1.1929867,340.42013,78.017427)" />
  </g>
</svg>
